<?xml version="1.0" encoding="UTF-8" standalone="no"?><svg xmlns="http://www.w3.org/2000/svg" xmlns:xlink="http://www.w3.org/1999/xlink" contentScriptType="application/ecmascript" contentStyleType="text/css" height="249px" preserveAspectRatio="none" style="width:170px;height:249px;" version="1.1" viewBox="0 0 170 249" width="170px" zoomAndPan="magnify"><defs><filter height="300%" id="f10ylbv3y2y9ri" width="300%" x="-1" y="-1"><feGaussianBlur result="blurOut" stdDeviation="2.0"/><feColorMatrix in="blurOut" result="blurOut2" type="matrix" values="0 0 0 0 0 0 0 0 0 0 0 0 0 0 0 0 0 0 .4 0"/><feOffset dx="4.0" dy="4.0" in="blurOut2" result="blurOut3"/><feBlend in="SourceGraphic" in2="blurOut3" mode="normal"/></filter></defs><g><!--cluster dind--><polygon fill="#FFFFFF" filter="url(#f10ylbv3y2y9ri)" points="22,34,32,24,148,24,148,227,138,237,22,237,22,34" style="stroke: #000000; stroke-width: 1.5;"/><line style="stroke: #000000; stroke-width: 1.5;" x1="138" x2="147" y1="34" y2="25"/><line style="stroke: #000000; stroke-width: 1.5;" x1="22" x2="138" y1="34" y2="34"/><line style="stroke: #000000; stroke-width: 1.5;" x1="138" x2="138" y1="34" y2="237"/><text fill="#000000" font-family="sans-serif" font-size="14" font-weight="bold" lengthAdjust="spacingAndGlyphs" textLength="31" x="65.5" y="51.5332">dind</text><!--entity build--><polygon fill="#FEFECE" filter="url(#f10ylbv3y2y9ri)" points="50,75,60,65,120,65,120,102.6094,110,112.6094,50,112.6094,50,75" style="stroke: #000000; stroke-width: 1.5;"/><line style="stroke: #000000; stroke-width: 1.5;" x1="110" x2="119" y1="75" y2="66"/><line style="stroke: #000000; stroke-width: 1.5;" x1="50" x2="110" y1="75" y2="75"/><line style="stroke: #000000; stroke-width: 1.5;" x1="110" x2="110" y1="75" y2="112.6094"/><text fill="#000000" font-family="sans-serif" font-size="14" lengthAdjust="spacingAndGlyphs" textLength="30" x="65" y="99.5332">build</text><!--entity package--><polygon fill="#FEFECE" filter="url(#f10ylbv3y2y9ri)" points="38,183,48,173,132,173,132,210.6094,122,220.6094,38,220.6094,38,183" style="stroke: #000000; stroke-width: 1.5;"/><line style="stroke: #000000; stroke-width: 1.5;" x1="122" x2="131" y1="183" y2="174"/><line style="stroke: #000000; stroke-width: 1.5;" x1="38" x2="122" y1="183" y2="183"/><line style="stroke: #000000; stroke-width: 1.5;" x1="122" x2="122" y1="183" y2="220.6094"/><text fill="#000000" font-family="sans-serif" font-size="14" lengthAdjust="spacingAndGlyphs" textLength="54" x="53" y="207.5332">package</text><!--link build to package--><path d="M85,113 C85,129.003 85,150.446 85,167.528 " fill="none" id="build-package" style="stroke: #A80036; stroke-width: 1.0;"/><polygon fill="#A80036" points="85,172.6784,89,163.6784,85,167.6784,81,163.6784,85,172.6784" style="stroke: #A80036; stroke-width: 1.0;"/><!--
@startuml dind-build-container
skinparam defaultTextAlignment center

node dind {
    node build
    node package
    build - -> package
}
@enduml

PlantUML version 1.2018.01(Sun Jan 28 18:08:22 GMT 2018)
(GPL source distribution)
Java Runtime: Java(TM) SE Runtime Environment
JVM: Java HotSpot(TM) 64-Bit Server VM
Java Version: 1.8.0_161-b12
Operating System: Windows 10
OS Version: 10.0
Default Encoding: Cp1252
Language: en
Country: GB
--></g></svg>