<?xml version="1.0" encoding="UTF-8" standalone="no"?><svg xmlns="http://www.w3.org/2000/svg" xmlns:xlink="http://www.w3.org/1999/xlink" contentScriptType="application/ecmascript" contentStyleType="text/css" height="166px" preserveAspectRatio="none" style="width:182px;height:166px;" version="1.1" viewBox="0 0 182 166" width="182px" zoomAndPan="magnify"><defs><filter height="300%" id="f1qx824hxdvgnp" width="300%" x="-1" y="-1"><feGaussianBlur result="blurOut" stdDeviation="2.0"/><feColorMatrix in="blurOut" result="blurOut2" type="matrix" values="0 0 0 0 0 0 0 0 0 0 0 0 0 0 0 0 0 0 .4 0"/><feOffset dx="4.0" dy="4.0" in="blurOut2" result="blurOut3"/><feBlend in="SourceGraphic" in2="blurOut3" mode="normal"/></filter></defs><g><!--cluster dind--><polygon fill="#FFFFFF" filter="url(#f1qx824hxdvgnp)" points="22,34,32,24,160,24,160,144,150,154,22,154,22,34" style="stroke: #000000; stroke-width: 1.5;"/><line style="stroke: #000000; stroke-width: 1.5;" x1="150" x2="159" y1="34" y2="25"/><line style="stroke: #000000; stroke-width: 1.5;" x1="22" x2="150" y1="34" y2="34"/><line style="stroke: #000000; stroke-width: 1.5;" x1="150" x2="150" y1="34" y2="154"/><text fill="#000000" font-family="sans-serif" font-size="14" font-weight="bold" lengthAdjust="spacingAndGlyphs" textLength="31" x="71.5" y="51.5332">dind</text><!--entity bp--><polygon fill="#FEFECE" filter="url(#f1qx824hxdvgnp)" points="38,75,48,65,144,65,144,128.2188,134,138.2188,38,138.2188,38,75" style="stroke: #000000; stroke-width: 1.5;"/><line style="stroke: #000000; stroke-width: 1.5;" x1="134" x2="143" y1="75" y2="66"/><line style="stroke: #000000; stroke-width: 1.5;" x1="38" x2="134" y1="75" y2="75"/><line style="stroke: #000000; stroke-width: 1.5;" x1="134" x2="134" y1="75" y2="138.2188"/><text fill="#000000" font-family="sans-serif" font-size="14" lengthAdjust="spacingAndGlyphs" textLength="30" x="71" y="99.5332">build</text><line style="stroke: #000000; stroke-width: 1.0;" x1="38" x2="134" y1="102.6094" y2="102.6094"/><line style="stroke: #000000; stroke-width: 1.0;" x1="134" x2="144" y1="102.6094" y2="92.6094"/><text fill="#000000" font-family="sans-serif" font-size="14" lengthAdjust="spacingAndGlyphs" textLength="54" x="59" y="121.1426">package</text><!--
@startuml dind-multi
skinparam defaultTextAlignment center

node dind {
    node bp [
        build
        - -
        package
    ]
}
@enduml

PlantUML version 1.2018.01(Sun Jan 28 18:08:22 GMT 2018)
(GPL source distribution)
Java Runtime: Java(TM) SE Runtime Environment
JVM: Java HotSpot(TM) 64-Bit Server VM
Java Version: 1.8.0_161-b12
Operating System: Windows 10
OS Version: 10.0
Default Encoding: Cp1252
Language: en
Country: GB
--></g></svg>