<?xml version="1.0" encoding="UTF-8" standalone="no"?><svg xmlns="http://www.w3.org/2000/svg" xmlns:xlink="http://www.w3.org/1999/xlink" contentScriptType="application/ecmascript" contentStyleType="text/css" height="239px" preserveAspectRatio="none" style="width:202px;height:239px;" version="1.1" viewBox="0 0 202 239" width="202px" zoomAndPan="magnify"><defs><filter height="300%" id="f8vh72dpejo9l" width="300%" x="-1" y="-1"><feGaussianBlur result="blurOut" stdDeviation="2.0"/><feColorMatrix in="blurOut" result="blurOut2" type="matrix" values="0 0 0 0 0 0 0 0 0 0 0 0 0 0 0 0 0 0 .4 0"/><feOffset dx="4.0" dy="4.0" in="blurOut2" result="blurOut3"/><feBlend in="SourceGraphic" in2="blurOut3" mode="normal"/></filter></defs><g><!--cluster dind + tools--><polygon fill="#FFFFFF" filter="url(#f8vh72dpejo9l)" points="22,34,32,24,180,24,180,217,170,227,22,227,22,34" style="stroke: #000000; stroke-width: 1.5;"/><line style="stroke: #000000; stroke-width: 1.5;" x1="170" x2="179" y1="34" y2="25"/><line style="stroke: #000000; stroke-width: 1.5;" x1="22" x2="170" y1="34" y2="34"/><line style="stroke: #000000; stroke-width: 1.5;" x1="170" x2="170" y1="34" y2="227"/><text fill="#000000" font-family="sans-serif" font-size="14" font-weight="bold" lengthAdjust="spacingAndGlyphs" textLength="82" x="56" y="51.5332">dind + tools</text><!--entity build--><rect fill="#FEFECE" filter="url(#f8vh72dpejo9l)" height="37.6094" style="stroke: #000000; stroke-width: 1.5;" width="50" x="76" y="65"/><text fill="#000000" font-family="sans-serif" font-size="14" lengthAdjust="spacingAndGlyphs" textLength="30" x="86" y="89.5332">build</text><!--entity package--><polygon fill="#FEFECE" filter="url(#f8vh72dpejo9l)" points="54,173,64,163,148,163,148,200.6094,138,210.6094,54,210.6094,54,173" style="stroke: #000000; stroke-width: 1.5;"/><line style="stroke: #000000; stroke-width: 1.5;" x1="138" x2="147" y1="173" y2="164"/><line style="stroke: #000000; stroke-width: 1.5;" x1="54" x2="138" y1="173" y2="173"/><line style="stroke: #000000; stroke-width: 1.5;" x1="138" x2="138" y1="173" y2="210.6094"/><text fill="#000000" font-family="sans-serif" font-size="14" lengthAdjust="spacingAndGlyphs" textLength="54" x="69" y="197.5332">package</text><!--link build to package--><path d="M101,103.057 C101,118.175 101,140.019 101,157.4959 " fill="none" id="build-package" style="stroke: #A80036; stroke-width: 1.0;"/><polygon fill="#A80036" points="101,162.7672,105,153.7672,101,157.7672,97,153.7672,101,162.7672" style="stroke: #A80036; stroke-width: 1.0;"/><!--
@startuml dind-with-tools
skinparam defaultTextAlignment center

node "dind + tools" {
    rectangle build
    node package
    build - -> package
}
@enduml

PlantUML version 1.2018.01(Sun Jan 28 18:08:22 GMT 2018)
(GPL source distribution)
Java Runtime: Java(TM) SE Runtime Environment
JVM: Java HotSpot(TM) 64-Bit Server VM
Java Version: 1.8.0_161-b12
Operating System: Windows 10
OS Version: 10.0
Default Encoding: Cp1252
Language: en
Country: GB
--></g></svg>