<?xml version="1.0" encoding="UTF-8" standalone="no"?><svg xmlns="http://www.w3.org/2000/svg" xmlns:xlink="http://www.w3.org/1999/xlink" contentScriptType="application/ecmascript" contentStyleType="text/css" height="192px" preserveAspectRatio="none" style="width:170px;height:192px;" version="1.1" viewBox="0 0 170 192" width="170px" zoomAndPan="magnify"><defs><filter height="300%" id="fmc5986cs4fc3" width="300%" x="-1" y="-1"><feGaussianBlur result="blurOut" stdDeviation="2.0"/><feColorMatrix in="blurOut" result="blurOut2" type="matrix" values="0 0 0 0 0 0 0 0 0 0 0 0 0 0 0 0 0 0 .4 0"/><feOffset dx="4.0" dy="4.0" in="blurOut2" result="blurOut3"/><feBlend in="SourceGraphic" in2="blurOut3" mode="normal"/></filter></defs><g><!--cluster dind--><polygon fill="#FFFFFF" filter="url(#fmc5986cs4fc3)" points="22,85,32,75,148,75,148,170,138,180,22,180,22,85" style="stroke: #000000; stroke-width: 1.5;"/><line style="stroke: #000000; stroke-width: 1.5;" x1="138" x2="147" y1="85" y2="76"/><line style="stroke: #000000; stroke-width: 1.5;" x1="22" x2="138" y1="85" y2="85"/><line style="stroke: #000000; stroke-width: 1.5;" x1="138" x2="138" y1="85" y2="180"/><text fill="#000000" font-family="sans-serif" font-size="14" font-weight="bold" lengthAdjust="spacingAndGlyphs" textLength="31" x="65.5" y="102.5332">dind</text><!--entity package--><polygon fill="#FEFECE" filter="url(#fmc5986cs4fc3)" points="38,126,48,116,132,116,132,153.6094,122,163.6094,38,163.6094,38,126" style="stroke: #000000; stroke-width: 1.5;"/><line style="stroke: #000000; stroke-width: 1.5;" x1="122" x2="131" y1="126" y2="117"/><line style="stroke: #000000; stroke-width: 1.5;" x1="38" x2="122" y1="126" y2="126"/><line style="stroke: #000000; stroke-width: 1.5;" x1="122" x2="122" y1="126" y2="163.6094"/><text fill="#000000" font-family="sans-serif" font-size="14" lengthAdjust="spacingAndGlyphs" textLength="54" x="53" y="150.5332">package</text><!--entity build--><polygon fill="#FEFECE" filter="url(#fmc5986cs4fc3)" points="50,18,60,8,120,8,120,45.6094,110,55.6094,50,55.6094,50,18" style="stroke: #000000; stroke-width: 1.5;"/><line style="stroke: #000000; stroke-width: 1.5;" x1="110" x2="119" y1="18" y2="9"/><line style="stroke: #000000; stroke-width: 1.5;" x1="50" x2="110" y1="18" y2="18"/><line style="stroke: #000000; stroke-width: 1.5;" x1="110" x2="110" y1="18" y2="55.6094"/><text fill="#000000" font-family="sans-serif" font-size="14" lengthAdjust="spacingAndGlyphs" textLength="30" x="65" y="42.5332">build</text><!--link build to package--><path d="M85,56 C85,72.003 85,93.446 85,110.528 " fill="none" id="build-package" style="stroke: #A80036; stroke-width: 1.0;"/><polygon fill="#A80036" points="85,115.6784,89,106.6784,85,110.6784,81,106.6784,85,115.6784" style="stroke: #A80036; stroke-width: 1.0;"/><!--
@startuml multi-pipeline-dind
skinparam defaultTextAlignment center

node build

node dind {
    node package
}

build - -> package

@enduml

PlantUML version 1.2018.01(Sun Jan 28 18:08:22 GMT 2018)
(GPL source distribution)
Java Runtime: Java(TM) SE Runtime Environment
JVM: Java HotSpot(TM) 64-Bit Server VM
Java Version: 1.8.0_161-b12
Operating System: Windows 10
OS Version: 10.0
Default Encoding: Cp1252
Language: en
Country: GB
--></g></svg>