<?xml version="1.0" encoding="UTF-8" standalone="no"?>
<!DOCTYPE svg PUBLIC "-//W3C//DTD SVG 1.1//EN" "http://www.w3.org/Graphics/SVG/1.1/DTD/svg11.dtd">
<!-- Generated by Microsoft Visio, SVG Export board-legitmoves.svg Page-1 -->
<svg xmlns="http://www.w3.org/2000/svg" xmlns:xlink="http://www.w3.org/1999/xlink" xmlns:ev="http://www.w3.org/2001/xml-events"
		xmlns:v="http://schemas.microsoft.com/visio/2003/SVGExtensions/" width="2.66869in" height="2.37341in"
		viewBox="0 0 192.146 170.886" xml:space="preserve" color-interpolation-filters="sRGB" class="st6">
	<v:documentProperties v:langID="2057" v:metric="true" v:viewMarkup="false">
		<v:userDefs>
			<v:ud v:nameU="msvNoAutoConnect" v:val="VT0(1):26"/>
		</v:userDefs>
	</v:documentProperties>

	<style type="text/css">
	<![CDATA[
		.st1 {fill:#fee599;stroke:#000000;stroke-linecap:round;stroke-linejoin:round;stroke-width:0.24}
		.st2 {fill:#000000;font-family:Calibri;font-size:0.833336em}
		.st3 {fill:#ffffff;stroke:#000000;stroke-linecap:round;stroke-linejoin:round;stroke-width:0.24}
		.st4 {marker-end:url(#mrkr4-36);stroke:#000000;stroke-linecap:round;stroke-linejoin:round;stroke-width:0.75}
		.st5 {fill:#000000;fill-opacity:1;stroke:#000000;stroke-opacity:1;stroke-width:0.22935779816514}
		.st6 {fill:none;fill-rule:evenodd;font-size:12px;overflow:visible;stroke-linecap:square;stroke-miterlimit:3}
	]]>
	</style>

	<defs id="Markers">
		<g id="lend4">
			<path d="M 2 1 L 0 0 L 2 -1 L 2 1 " style="stroke:none"/>
		</g>
		<marker id="mrkr4-36" class="st5" v:arrowType="4" v:arrowSize="2" v:setback="8.72" refX="-8.72" orient="auto"
				markerUnits="strokeWidth" overflow="visible">
			<use xlink:href="#lend4" transform="scale(-4.36,-4.36) "/>
		</marker>
	</defs>
	<g v:mID="0" v:index="1" v:groupContext="foregroundPage">
		<title>Page-1</title>
		<v:pageProperties v:drawingScale="0.0393701" v:pageScale="0.0393701" v:drawingUnits="24" v:shadowOffsetX="8.50394"
				v:shadowOffsetY="-8.50394"/>
		<v:layer v:name="Connector" v:index="0"/>
		<g id="shape1-1" v:mID="1" v:groupContext="shape" transform="translate(81.8995,-124.419)">
			<title>Circle</title>
			<desc>1</desc>
			<v:userDefs>
				<v:ud v:nameU="visVersion" v:val="VT0(15):26"/>
			</v:userDefs>
			<v:textBlock v:margins="rect(4,4,4,4)" v:tabSpace="42.5197"/>
			<v:textRect cx="14.1732" cy="156.712" width="24.81" height="21.2598"/>
			<path d="M0 156.71 A14.1732 14.1732 0 0 1 28.35 156.71 A14.1732 14.1732 0 1 1 0 156.71 Z" class="st1"/>
			<text x="11.64" y="159.71" class="st2" v:langID="2057"><v:paragraph v:horizAlign="1"/><v:tabList/>1</text>		</g>
		<g id="shape2-4" v:mID="2" v:groupContext="shape" transform="translate(103.159,-88.9862)">
			<title>Circle.2</title>
			<desc>3</desc>
			<v:userDefs>
				<v:ud v:nameU="visVersion" v:val="VT0(15):26"/>
			</v:userDefs>
			<v:textBlock v:margins="rect(4,4,4,4)" v:tabSpace="42.5197"/>
			<v:textRect cx="14.1732" cy="156.712" width="24.81" height="21.2598"/>
			<path d="M0 156.71 A14.1732 14.1732 0 0 1 28.35 156.71 A14.1732 14.1732 0 1 1 0 156.71 Z" class="st1"/>
			<text x="11.64" y="159.71" class="st2" v:langID="2057"><v:paragraph v:horizAlign="1"/><v:tabList/>3</text>		</g>
		<g id="shape3-7" v:mID="3" v:groupContext="shape" transform="translate(124.419,-53.5531)">
			<title>Circle.3</title>
			<desc>6</desc>
			<v:userDefs>
				<v:ud v:nameU="visVersion" v:val="VT0(15):26"/>
			</v:userDefs>
			<v:textBlock v:margins="rect(4,4,4,4)" v:tabSpace="42.5197"/>
			<v:textRect cx="14.1732" cy="156.712" width="24.81" height="21.2598"/>
			<path d="M0 156.71 A14.1732 14.1732 0 0 1 28.35 156.71 A14.1732 14.1732 0 1 1 0 156.71 Z" class="st3"/>
			<text x="11.64" y="159.71" class="st2" v:langID="2057"><v:paragraph v:horizAlign="1"/><v:tabList/>6</text>		</g>
		<g id="shape4-10" v:mID="4" v:groupContext="shape" transform="translate(81.8995,-53.5531)">
			<title>Circle.4</title>
			<desc>5</desc>
			<v:userDefs>
				<v:ud v:nameU="visVersion" v:val="VT0(15):26"/>
			</v:userDefs>
			<v:textBlock v:margins="rect(4,4,4,4)" v:tabSpace="42.5197"/>
			<v:textRect cx="14.1732" cy="156.712" width="24.81" height="21.2598"/>
			<path d="M0 156.71 A14.1732 14.1732 0 0 1 28.35 156.71 A14.1732 14.1732 0 1 1 0 156.71 Z" class="st3"/>
			<text x="11.64" y="159.71" class="st2" v:langID="2057"><v:paragraph v:horizAlign="1"/><v:tabList/>5</text>		</g>
		<g id="shape5-13" v:mID="5" v:groupContext="shape" transform="translate(39.3798,-53.5531)">
			<title>Circle.5</title>
			<desc>4</desc>
			<v:userDefs>
				<v:ud v:nameU="visVersion" v:val="VT0(15):26"/>
			</v:userDefs>
			<v:textBlock v:margins="rect(4,4,4,4)" v:tabSpace="42.5197"/>
			<v:textRect cx="14.1732" cy="156.712" width="24.81" height="21.2598"/>
			<path d="M0 156.71 A14.1732 14.1732 0 0 1 28.35 156.71 A14.1732 14.1732 0 1 1 0 156.71 Z" class="st1"/>
			<text x="11.64" y="159.71" class="st2" v:langID="2057"><v:paragraph v:horizAlign="1"/><v:tabList/>4</text>		</g>
		<g id="shape6-16" v:mID="6" v:groupContext="shape" transform="translate(60.6397,-88.9862)">
			<title>Circle.6</title>
			<desc>2</desc>
			<v:userDefs>
				<v:ud v:nameU="visVersion" v:val="VT0(15):26"/>
			</v:userDefs>
			<v:textBlock v:margins="rect(4,4,4,4)" v:tabSpace="42.5197"/>
			<v:textRect cx="14.1732" cy="156.712" width="24.81" height="21.2598"/>
			<path d="M0 156.71 A14.1732 14.1732 0 0 1 28.35 156.71 A14.1732 14.1732 0 1 1 0 156.71 Z" class="st1"/>
			<text x="11.64" y="159.71" class="st2" v:langID="2057"><v:paragraph v:horizAlign="1"/><v:tabList/>2</text>		</g>
		<g id="shape7-19" v:mID="7" v:groupContext="shape" transform="translate(103.159,-18.12)">
			<title>Circle.7</title>
			<desc>9</desc>
			<v:userDefs>
				<v:ud v:nameU="visVersion" v:val="VT0(15):26"/>
			</v:userDefs>
			<v:textBlock v:margins="rect(4,4,4,4)" v:tabSpace="42.5197"/>
			<v:textRect cx="14.1732" cy="156.712" width="24.81" height="21.2598"/>
			<path d="M0 156.71 A14.1732 14.1732 0 0 1 28.35 156.71 A14.1732 14.1732 0 1 1 0 156.71 Z" class="st3"/>
			<text x="11.64" y="159.71" class="st2" v:langID="2057"><v:paragraph v:horizAlign="1"/><v:tabList/>9</text>		</g>
		<g id="shape8-22" v:mID="8" v:groupContext="shape" transform="translate(60.6397,-18.12)">
			<title>Circle.8</title>
			<desc>8</desc>
			<v:userDefs>
				<v:ud v:nameU="visVersion" v:val="VT0(15):26"/>
			</v:userDefs>
			<v:textBlock v:margins="rect(4,4,4,4)" v:tabSpace="42.5197"/>
			<v:textRect cx="14.1732" cy="156.712" width="24.81" height="21.2598"/>
			<path d="M0 156.71 A14.1732 14.1732 0 0 1 28.35 156.71 A14.1732 14.1732 0 1 1 0 156.71 Z" class="st1"/>
			<text x="11.64" y="159.71" class="st2" v:langID="2057"><v:paragraph v:horizAlign="1"/><v:tabList/>8</text>		</g>
		<g id="shape9-25" v:mID="9" v:groupContext="shape" transform="translate(145.679,-18.12)">
			<title>Circle.9</title>
			<desc>10</desc>
			<v:userDefs>
				<v:ud v:nameU="visVersion" v:val="VT0(15):26"/>
			</v:userDefs>
			<v:textBlock v:margins="rect(4,4,4,4)" v:tabSpace="42.5197"/>
			<v:textRect cx="14.1732" cy="156.712" width="24.81" height="21.2598"/>
			<path d="M0 156.71 A14.1732 14.1732 0 0 1 28.35 156.71 A14.1732 14.1732 0 1 1 0 156.71 Z" class="st3"/>
			<text x="9.11" y="159.71" class="st2" v:langID="2057"><v:paragraph v:horizAlign="1"/><v:tabList/>10</text>		</g>
		<g id="shape10-28" v:mID="10" v:groupContext="shape" transform="translate(18.12,-18.12)">
			<title>Circle.10</title>
			<desc>7</desc>
			<v:userDefs>
				<v:ud v:nameU="visVersion" v:val="VT0(15):26"/>
			</v:userDefs>
			<v:textBlock v:margins="rect(4,4,4,4)" v:tabSpace="42.5197"/>
			<v:textRect cx="14.1732" cy="156.712" width="24.81" height="21.2598"/>
			<path d="M0 156.71 A14.1732 14.1732 0 0 1 28.35 156.71 A14.1732 14.1732 0 1 1 0 156.71 Z" class="st3"/>
			<text x="11.64" y="159.71" class="st2" v:langID="2057"><v:paragraph v:horizAlign="1"/><v:tabList/>7</text>		</g>
		<g id="shape11-31" v:mID="11" v:groupContext="shape" v:layerMember="0" transform="translate(96.0728,-138.592)">
			<title>Dynamic connector</title>
			<path d="M0 170.89 L39.15 236.14" class="st4"/>
		</g>
		<g id="shape12-37" v:mID="12" v:groupContext="shape" v:layerMember="0" transform="translate(74.8129,-103.159)">
			<title>Dynamic connector.12</title>
			<path d="M0 170.89 L-39.15 236.14" class="st4"/>
		</g>
	</g>
</svg>
