<?xml version="1.0" encoding="UTF-8" standalone="no"?>
<!DOCTYPE svg PUBLIC "-//W3C//DTD SVG 1.1//EN" "http://www.w3.org/Graphics/SVG/1.1/DTD/svg11.dtd">
<!-- Generated by Microsoft Visio, SVG Export board2.svg Page-1 -->
<svg xmlns="http://www.w3.org/2000/svg" xmlns:xlink="http://www.w3.org/1999/xlink" xmlns:ev="http://www.w3.org/2001/xml-events"
		width="2.66869in" height="2.37341in" viewBox="0 0 192.146 170.886" xml:space="preserve" color-interpolation-filters="sRGB"
		class="st4">
	<style type="text/css">
	<![CDATA[
		.st1 {fill:#ffffff;stroke:#000000;stroke-linecap:round;stroke-linejoin:round;stroke-width:0.24}
		.st2 {fill:#000000;font-family:Calibri;font-size:0.833336em}
		.st3 {fill:#fee599;stroke:#000000;stroke-linecap:round;stroke-linejoin:round;stroke-width:0.24}
		.st4 {fill:none;fill-rule:evenodd;font-size:12px;overflow:visible;stroke-linecap:square;stroke-miterlimit:3}
	]]>
	</style>

	<g>
		<title>Page-1</title>
		<g id="shape1-1" transform="translate(81.8995,-124.419)">
			<title>Circle</title>
			<desc>1</desc>
			<path d="M0 156.71 A14.1732 14.1732 0 0 1 28.35 156.71 A14.1732 14.1732 0 1 1 0 156.71 Z" class="st1"/>
			<text x="11.64" y="159.71" class="st2">1</text>		</g>
		<g id="shape2-4" transform="translate(103.159,-88.9862)">
			<title>Circle.2</title>
			<desc>3</desc>
			<path d="M0 156.71 A14.1732 14.1732 0 0 1 28.35 156.71 A14.1732 14.1732 0 1 1 0 156.71 Z" class="st3"/>
			<text x="11.64" y="159.71" class="st2">3</text>		</g>
		<g id="shape3-7" transform="translate(124.419,-53.5531)">
			<title>Circle.3</title>
			<desc>6</desc>
			<path d="M0 156.71 A14.1732 14.1732 0 0 1 28.35 156.71 A14.1732 14.1732 0 1 1 0 156.71 Z" class="st1"/>
			<text x="11.64" y="159.71" class="st2">6</text>		</g>
		<g id="shape4-10" transform="translate(81.8995,-53.5531)">
			<title>Circle.4</title>
			<desc>5</desc>
			<path d="M0 156.71 A14.1732 14.1732 0 0 1 28.35 156.71 A14.1732 14.1732 0 1 1 0 156.71 Z" class="st3"/>
			<text x="11.64" y="159.71" class="st2">5</text>		</g>
		<g id="shape5-13" transform="translate(39.3798,-53.5531)">
			<title>Circle.5</title>
			<desc>4</desc>
			<path d="M0 156.71 A14.1732 14.1732 0 0 1 28.35 156.71 A14.1732 14.1732 0 1 1 0 156.71 Z" class="st1"/>
			<text x="11.64" y="159.71" class="st2">4</text>		</g>
		<g id="shape6-16" transform="translate(60.6397,-88.9862)">
			<title>Circle.6</title>
			<desc>2</desc>
			<path d="M0 156.71 A14.1732 14.1732 0 0 1 28.35 156.71 A14.1732 14.1732 0 1 1 0 156.71 Z" class="st3"/>
			<text x="11.64" y="159.71" class="st2">2</text>		</g>
		<g id="shape7-19" transform="translate(103.159,-18.12)">
			<title>Circle.7</title>
			<desc>9</desc>
			<path d="M0 156.71 A14.1732 14.1732 0 0 1 28.35 156.71 A14.1732 14.1732 0 1 1 0 156.71 Z" class="st1"/>
			<text x="11.64" y="159.71" class="st2">9</text>		</g>
		<g id="shape8-22" transform="translate(60.6397,-18.12)">
			<title>Circle.8</title>
			<desc>8</desc>
			<path d="M0 156.71 A14.1732 14.1732 0 0 1 28.35 156.71 A14.1732 14.1732 0 1 1 0 156.71 Z" class="st3"/>
			<text x="11.64" y="159.71" class="st2">8</text>		</g>
		<g id="shape9-25" transform="translate(145.679,-18.12)">
			<title>Circle.9</title>
			<desc>10</desc>
			<path d="M0 156.71 A14.1732 14.1732 0 0 1 28.35 156.71 A14.1732 14.1732 0 1 1 0 156.71 Z" class="st3"/>
			<text x="9.11" y="159.71" class="st2">10</text>		</g>
		<g id="shape10-28" transform="translate(18.12,-18.12)">
			<title>Circle.10</title>
			<desc>7</desc>
			<path d="M0 156.71 A14.1732 14.1732 0 0 1 28.35 156.71 A14.1732 14.1732 0 1 1 0 156.71 Z" class="st1"/>
			<text x="11.64" y="159.71" class="st2">7</text>		</g>
	</g>
</svg>
