<svg version="1.1" xmlns="http://www.w3.org/2000/svg" viewBox="0 0 1152 842.0629535891212" width="2304" height="1684.1259071782424">
  <!-- svg-source:excalidraw -->
  
  <defs>
    <style class="style-fonts">
      @font-face {
        font-family: "Virgil";
        src: url("https://excalidraw.com/Virgil.woff2");
      }
      @font-face {
        font-family: "Cascadia";
        src: url("https://excalidraw.com/Cascadia.woff2");
      }
      @font-face {
        font-family: "Assistant";
        src: url("https://excalidraw.com/Assistant-Regular.woff2");
      }
    </style>
    
  </defs>
  <g stroke-linecap="round" transform="translate(445.54166666666606 344.7301083180532) rotate(0 70.5 73.5)"><path d="M32 0 C53.26 2.78, 67.73 4.2, 109 0 C133.65 -0.44, 144.15 11.12, 141 32 C143.14 58.42, 139.15 91.13, 141 115 C142.49 137.94, 127.77 149.76, 109 147 C84.4 146.68, 62.83 149.81, 32 147 C10.65 146.06, -3.33 137.73, 0 115 C-5.61 80.8, 2.61 59.62, 0 32 C3.26 6.13, 8.46 -2.38, 32 0" stroke="none" stroke-width="0" fill="#b2f2bb"></path><path d="M32 0 C55.82 3.81, 81.62 4.99, 109 0 M32 0 C56.42 0.18, 84.28 2.28, 109 0 M109 0 C130.71 2.4, 141.97 12.04, 141 32 M109 0 C132.37 -2.4, 145.05 15.02, 141 32 M141 32 C144.38 53.24, 142.98 70.56, 141 115 M141 32 C143.29 50.19, 141.45 68.11, 141 115 M141 115 C143.77 137.23, 126.73 145.75, 109 147 M141 115 C145.22 140.82, 133.33 144.22, 109 147 M109 147 C89.87 147.8, 63.21 145.89, 32 147 M109 147 C86.84 148.34, 63.95 147.74, 32 147 M32 147 C12.76 148.33, 0.29 136.92, 0 115 M32 147 C7.59 150.86, -4.58 137.29, 0 115 M0 115 C0.9 84.33, -2.38 54.92, 0 32 M0 115 C1.24 82.46, -0.3 51.92, 0 32 M0 32 C1.86 13.2, 8.76 -3.47, 32 0 M0 32 C0.71 8.65, 6.71 1.52, 32 0" stroke="#1e1e1e" stroke-width="4" fill="none"></path></g><g transform="translate(471.53567759195903 383.2301083180532) rotate(0 44.50598907470703 35)"><text x="44.50598907470703" y="0" font-family="Virgil, Segoe UI Emoji" font-size="28px" fill="#1e1e1e" text-anchor="middle" style="white-space: pre;" direction="ltr" dominant-baseline="text-before-edge">Data </text><text x="44.50598907470703" y="35" font-family="Virgil, Segoe UI Emoji" font-size="28px" fill="#1e1e1e" text-anchor="middle" style="white-space: pre;" direction="ltr" dominant-baseline="text-before-edge">bus</text></g><g stroke-linecap="round" transform="translate(988.4583333333339 69.23010831805277) rotate(0 70.5 61)"><path d="M7.46 7.81 C7.46 7.81, 7.46 7.81, 7.46 7.81 M7.46 7.81 C7.46 7.81, 7.46 7.81, 7.46 7.81 M9.04 30.38 C16.78 18.7, 28.52 10.03, 33.32 2.46 M9.04 30.38 C15.61 22.61, 20.81 16.1, 33.32 2.46 M8.65 55.22 C20.7 32.53, 42.41 19.63, 54.58 2.39 M8.65 55.22 C25.11 36.33, 42.33 17.52, 54.58 2.39 M8.92 79.3 C30.55 55.31, 57.93 28.23, 75.84 2.32 M8.92 79.3 C28.05 51.51, 52.46 25.12, 75.84 2.32 M7.87 104.89 C36.74 73.26, 68.42 32.56, 96.44 3.01 M7.87 104.89 C32.37 78.04, 55.77 51.39, 96.44 3.01 M15.35 120.67 C55.14 77.49, 89.96 37.9, 119.01 1.43 M15.35 120.67 C37.94 96.52, 59.9 67.72, 119.01 1.43 M30.71 127.4 C57.53 94.91, 81.78 67.38, 134.37 8.15 M30.71 127.4 C64.99 87.67, 98.14 51.26, 134.37 8.15 M51.31 128.08 C81.24 99.58, 102.96 67.07, 143.82 21.67 M51.31 128.08 C76.83 99.56, 103.75 67.22, 143.82 21.67 M72.57 128.01 C105.5 90.93, 132.94 59, 149.99 38.96 M72.57 128.01 C96.81 101.96, 119.4 74.06, 149.99 38.96 M93.83 127.94 C107.12 117.23, 116.84 100.78, 150.26 63.04 M93.83 127.94 C116.93 104.83, 137.22 76.86, 150.26 63.04 M115.75 127.12 C122.81 119.18, 135.3 105.24, 149.87 87.88 M115.75 127.12 C128.55 115.9, 136.82 100.46, 149.87 87.88" stroke="#b2f2bb" stroke-width="2" fill="none"></path><path d="M30.5 0 C61.25 -2.03, 87.36 -4.16, 110.5 0 M30.5 0 C52.44 -0.03, 74.49 -0.55, 110.5 0 M110.5 0 C132.61 -2.09, 144.52 13.95, 141 30.5 M110.5 0 C127.17 1.29, 138.31 13.52, 141 30.5 M141 30.5 C138.59 57.22, 143.78 77.44, 141 91.5 M141 30.5 C141.67 46.96, 138.49 61.91, 141 91.5 M141 91.5 C144.67 115.74, 133.44 119.59, 110.5 122 M141 91.5 C140.55 108.24, 131.97 125.7, 110.5 122 M110.5 122 C85.26 119.61, 63.65 121.79, 30.5 122 M110.5 122 C86.56 122.38, 60.68 122.01, 30.5 122 M30.5 122 C7.49 125.36, -3.98 112.67, 0 91.5 M30.5 122 C12.54 119.17, 4.11 111.69, 0 91.5 M0 91.5 C4.36 74.61, 4.05 61.18, 0 30.5 M0 91.5 C1.33 76.75, -0.56 57.72, 0 30.5 M0 30.5 C0.62 8.41, 6.73 1.33, 30.5 0 M0 30.5 C-1.83 8.15, 9.67 1, 30.5 0" stroke="#1e1e1e" stroke-width="4" fill="none"></path></g><g transform="translate(997.5543568929043 112.73010831805277) rotate(0 61.40397644042969 17.5)"><text x="61.40397644042969" y="0" font-family="Virgil, Segoe UI Emoji" font-size="28px" fill="#1e1e1e" text-anchor="middle" style="white-space: pre;" direction="ltr" dominant-baseline="text-before-edge">Consumer</text></g><g stroke-linecap="round" transform="translate(293.66666666666606 283.39579886018964) rotate(0 65.875 59.875)"><path d="M76.71 -0.08 C86.44 0.66, 96.1 5.77, 104.25 11.58 C112.41 17.39, 121.33 26.16, 125.65 34.79 C129.97 43.42, 130.38 54.25, 130.15 63.34 C129.93 72.43, 128.91 81.49, 124.31 89.34 C119.71 97.19, 111.1 105.16, 102.55 110.45 C93.99 115.74, 83.65 120.28, 72.98 121.07 C62.31 121.87, 48.43 119.28, 38.52 115.22 C28.62 111.16, 19.88 103.8, 13.56 96.72 C7.24 89.64, 2.32 81.75, 0.58 72.74 C-1.17 63.73, -0.02 51.71, 3.07 42.65 C6.15 33.6, 12.34 24.72, 19.08 18.41 C25.82 12.11, 33.29 7.74, 43.51 4.83 C53.72 1.91, 73.41 0.97, 80.37 0.91 C87.33 0.86, 85.38 3.44, 85.27 4.48 M30.05 11.84 C36.99 5.46, 45.75 -1.49, 56.02 -2.61 C66.3 -3.74, 81.46 1.65, 91.69 5.12 C101.91 8.59, 111.18 11.57, 117.36 18.2 C123.55 24.82, 126.84 35.44, 128.81 44.86 C130.78 54.27, 131.58 65.28, 129.18 74.68 C126.78 84.09, 121.3 94.54, 114.41 101.3 C107.52 108.06, 97.57 112.02, 87.84 115.26 C78.11 118.5, 65.66 121.66, 56.02 120.74 C46.38 119.83, 37.95 114.93, 30 109.77 C22.05 104.61, 12.97 98.66, 8.3 89.75 C3.63 80.84, 2.33 66.02, 1.98 56.31 C1.63 46.61, 2.12 38.94, 6.2 31.52 C10.28 24.1, 22.7 15.27, 26.46 11.81 C30.22 8.36, 28.09 9.73, 28.76 10.79" stroke="none" stroke-width="0" fill="#b2f2bb"></path><path d="M93.66 5.58 C102.78 8.44, 112.13 16.01, 118.11 23.49 C124.09 30.96, 127.42 41.71, 129.54 50.4 C131.65 59.1, 133.5 67.28, 130.8 75.67 C128.11 84.06, 120.6 93.61, 113.36 100.73 C106.13 107.85, 97.09 115.2, 87.4 118.38 C77.71 121.57, 65.78 121.36, 55.24 119.84 C44.71 118.32, 32.21 114.96, 24.2 109.24 C16.19 103.52, 11.31 94.47, 7.16 85.52 C3.02 76.56, -0.71 64.68, -0.66 55.53 C-0.6 46.39, 2.08 38.75, 7.49 30.67 C12.9 22.59, 22.94 11.85, 31.82 7.07 C40.71 2.28, 48.39 1.07, 60.78 1.97 C73.18 2.88, 97.62 9.5, 106.2 12.51 C114.77 15.51, 113.45 19.32, 112.22 20 M112.19 18.03 C119.34 24.26, 124.68 36.24, 127.77 45.26 C130.86 54.27, 132.62 63.48, 130.73 72.12 C128.84 80.77, 122.67 89.83, 116.45 97.13 C110.22 104.43, 102.62 112.11, 93.36 115.92 C84.11 119.73, 71.67 120.48, 60.9 120 C50.13 119.53, 37.92 117.97, 28.76 113.05 C19.59 108.14, 10.42 99.28, 5.89 90.52 C1.37 81.77, 1.09 69.93, 1.61 60.54 C2.13 51.15, 5.08 42.71, 8.99 34.21 C12.91 25.7, 17.62 14.67, 25.11 9.52 C32.6 4.36, 43.77 3.98, 53.92 3.28 C64.07 2.58, 75.88 2.99, 86 5.31 C96.12 7.63, 110.41 14.77, 114.64 17.21 C118.87 19.64, 112.16 18.71, 111.38 19.9" stroke="#1e1e1e" stroke-width="4" fill="none"></path></g><g transform="translate(331.70102820795546 330.932780336645) rotate(0 27.759979248046875 12.5)"><text x="27.759979248046875" y="0" font-family="Virgil, Segoe UI Emoji" font-size="20px" fill="#1e1e1e" text-anchor="middle" style="white-space: pre;" direction="ltr" dominant-baseline="text-before-edge">Event</text></g><g stroke-linecap="round"><g transform="translate(606.3970011011988 409.33475428433303) rotate(0 174.91666666666788 1.4546083444113265)"><path d="M1.24 -1.46 C59.84 -0.7, 294.57 4.7, 352.3 5.56 M-1.53 3.91 C56.86 3.87, 292.27 2.87, 351.39 1.98" stroke="#1e1e1e" stroke-width="4" fill="none"></path></g><g transform="translate(606.3970011011988 409.33475428433303) rotate(0 174.91666666666788 1.4546083444113265)"><path d="M326.93 12.5 C337.43 6.2, 343.69 3.79, 352.85 3.46 M328.96 11.32 C336.18 7.58, 343.18 4.11, 352.09 2.21" stroke="#1e1e1e" stroke-width="4" fill="none"></path></g><g transform="translate(606.3970011011988 409.33475428433303) rotate(0 174.91666666666788 1.4546083444113265)"><path d="M326.78 -4.6 C337.39 -5.35, 343.7 -2.23, 352.85 3.46 M328.81 -5.78 C336.16 -3.75, 343.21 -1.43, 352.09 2.21" stroke="#1e1e1e" stroke-width="4" fill="none"></path></g></g><mask></mask><g stroke-linecap="round" transform="translate(987.0000000000018 220.5629535891212) rotate(0 70.5 61)"><path d="M7.46 7.81 C7.46 7.81, 7.46 7.81, 7.46 7.81 M7.46 7.81 C7.46 7.81, 7.46 7.81, 7.46 7.81 M0.51 40.2 C8.83 30.2, 20.11 12.28, 35.28 0.2 M0.51 40.2 C11.29 30.74, 21.73 16.47, 35.28 0.2 M0.78 64.28 C15.64 40.42, 39.19 22.83, 55.89 0.88 M0.78 64.28 C16.49 45.75, 34.45 25.95, 55.89 0.88 M0.39 89.11 C22.79 64.39, 36.19 45.25, 77.15 0.81 M0.39 89.11 C33.5 55.51, 62.64 20.33, 77.15 0.81 M5.25 107.91 C34.47 72.63, 64.23 44.89, 98.41 0.74 M5.25 107.91 C40.77 65.85, 76 27.31, 98.41 0.74 M16.67 119.16 C41.81 89.37, 65.47 64.26, 119.01 1.43 M16.67 119.16 C50.55 72.91, 91.12 32.95, 119.01 1.43 M35.3 122.11 C73.49 74.49, 110.46 29.22, 133.71 8.91 M35.3 122.11 C68.62 84.72, 101.16 49.81, 133.71 8.91 M56.56 122.04 C81.67 88.82, 115.74 57.44, 140.54 25.44 M56.56 122.04 C81.86 92.01, 109.39 62.63, 140.54 25.44 M77.82 121.98 C95.01 104.57, 110.11 91.31, 140.8 49.52 M77.82 121.98 C90.09 107.49, 105.56 93.79, 140.8 49.52 M99.08 121.91 C115.21 102.97, 123.91 94.83, 141.07 73.61 M99.08 121.91 C109.45 111.63, 121.35 96.97, 141.07 73.61 M121.66 120.33 C129.24 112.29, 133.96 106.97, 140.68 98.44 M121.66 120.33 C128.67 110.86, 136.13 104.78, 140.68 98.44" stroke="#b2f2bb" stroke-width="2" fill="none"></path><path d="M30.5 0 C47.48 -2.6, 62.84 2.43, 110.5 0 M30.5 0 C55.19 -3.05, 77.52 -1.36, 110.5 0 M110.5 0 C131.9 2.25, 137.74 6.61, 141 30.5 M110.5 0 C132.3 0.57, 138.28 7.52, 141 30.5 M141 30.5 C138.63 43.56, 144.09 66.09, 141 91.5 M141 30.5 C140.75 46.87, 140.59 66.29, 141 91.5 M141 91.5 C143.7 111.38, 130.77 120.74, 110.5 122 M141 91.5 C145.07 108.04, 134.59 118.18, 110.5 122 M110.5 122 C79.88 125.91, 53.89 125.98, 30.5 122 M110.5 122 C93.28 124.46, 71 121.42, 30.5 122 M30.5 122 C9.02 119.05, 0.55 111.99, 0 91.5 M30.5 122 C8.31 118.46, -4.12 115.33, 0 91.5 M0 91.5 C-0.81 70.05, -1.38 48.19, 0 30.5 M0 91.5 C2.89 67.01, 2.18 42.48, 0 30.5 M0 30.5 C1.52 12.56, 12.17 -2.37, 30.5 0 M0 30.5 C-0.97 11.22, 13.43 1.02, 30.5 0" stroke="#1e1e1e" stroke-width="4" fill="none"></path></g><g transform="translate(996.0960235595721 264.0629535891212) rotate(0 61.40397644042969 17.5)"><text x="61.40397644042969" y="0" font-family="Virgil, Segoe UI Emoji" font-size="28px" fill="#1e1e1e" text-anchor="middle" style="white-space: pre;" direction="ltr" dominant-baseline="text-before-edge">Consumer</text></g><g stroke-linecap="round" transform="translate(978 368.5629535891212) rotate(0 70.5 61)"><path d="M7.46 7.81 C7.46 7.81, 7.46 7.81, 7.46 7.81 M7.46 7.81 C7.46 7.81, 7.46 7.81, 7.46 7.81 M0.51 40.2 C10.72 34.17, 14.88 23.38, 35.28 0.2 M0.51 40.2 C15.25 25.73, 27.37 8.8, 35.28 0.2 M0.78 64.28 C16.14 50.72, 20.6 38.2, 55.89 0.88 M0.78 64.28 C21.67 39.77, 42.98 16.02, 55.89 0.88 M0.39 89.11 C22.33 62.63, 50.59 36.47, 77.15 0.81 M0.39 89.11 C21.49 62.52, 44.51 40.64, 77.15 0.81 M5.25 107.91 C34.09 73.44, 59.35 49.1, 98.41 0.74 M5.25 107.91 C30.51 76.4, 55.62 46.87, 98.41 0.74 M16.67 119.16 C40.03 95.8, 57.94 64.24, 119.01 1.43 M16.67 119.16 C46.14 82.69, 77.57 47.27, 119.01 1.43 M35.3 122.11 C74.15 82.68, 103.14 47.12, 133.71 8.91 M35.3 122.11 C69.03 88.64, 99.12 48.91, 133.71 8.91 M56.56 122.04 C74.57 100.44, 91.12 86.29, 140.54 25.44 M56.56 122.04 C77.39 96.06, 98.28 73.47, 140.54 25.44 M77.82 121.98 C101.89 92.12, 125.62 64.53, 140.8 49.52 M77.82 121.98 C101.01 93.29, 125.19 67.94, 140.8 49.52 M99.08 121.91 C106.4 114.07, 118.28 97.93, 141.07 73.61 M99.08 121.91 C107.36 113.04, 113.8 102.59, 141.07 73.61 M121.66 120.33 C127 111.81, 135.61 105.77, 140.68 98.44 M121.66 120.33 C128.58 115.46, 134.99 108.76, 140.68 98.44" stroke="#b2f2bb" stroke-width="2" fill="none"></path><path d="M30.5 0 C55.9 4.77, 84.59 3.34, 110.5 0 M30.5 0 C51.46 0.59, 71.78 1.26, 110.5 0 M110.5 0 C132.77 2.88, 137.46 12.27, 141 30.5 M110.5 0 C128.45 -2.76, 139.91 10.48, 141 30.5 M141 30.5 C141.81 39.93, 143.89 52.5, 141 91.5 M141 30.5 C140.27 51.45, 143.38 76.88, 141 91.5 M141 91.5 C144.46 114.07, 134.75 123.43, 110.5 122 M141 91.5 C138.76 112.27, 126.83 123.49, 110.5 122 M110.5 122 C85.1 122.31, 67.85 123.59, 30.5 122 M110.5 122 C89.86 121.38, 70.4 120.53, 30.5 122 M30.5 122 C7.41 120.23, -3.5 109.45, 0 91.5 M30.5 122 C10.31 119.73, -3.17 112.35, 0 91.5 M0 91.5 C2.48 76.2, -4.6 53.22, 0 30.5 M0 91.5 C1.89 75.99, 1.09 59.28, 0 30.5 M0 30.5 C2.24 14.14, 6.62 -0.3, 30.5 0 M0 30.5 C3.71 7.83, 8.61 -2.21, 30.5 0" stroke="#1e1e1e" stroke-width="4" fill="none"></path></g><g transform="translate(987.0960235595703 412.0629535891212) rotate(0 61.40397644042969 17.5)"><text x="61.40397644042969" y="0" font-family="Virgil, Segoe UI Emoji" font-size="28px" fill="#1e1e1e" text-anchor="middle" style="white-space: pre;" direction="ltr" dominant-baseline="text-before-edge">Consumer</text></g><g stroke-linecap="round" transform="translate(985 524.5629535891212) rotate(0 70.5 61)"><path d="M7.46 7.81 C7.46 7.81, 7.46 7.81, 7.46 7.81 M7.46 7.81 C7.46 7.81, 7.46 7.81, 7.46 7.81 M0.51 40.2 C7.72 27.68, 21.17 18.72, 35.28 0.2 M0.51 40.2 C10.86 29.52, 17.61 19.01, 35.28 0.2 M0.78 64.28 C22.25 44.9, 36.95 17.54, 55.89 0.88 M0.78 64.28 C16.93 45.22, 31.18 27.47, 55.89 0.88 M0.39 89.11 C16.85 73.49, 39.71 49.37, 77.15 0.81 M0.39 89.11 C25.62 61.86, 46.71 35.92, 77.15 0.81 M5.25 107.91 C36.78 78.53, 68.98 39.39, 98.41 0.74 M5.25 107.91 C27.41 83.03, 48.41 62.91, 98.41 0.74 M16.67 119.16 C54.81 77.75, 96.36 30.78, 119.01 1.43 M16.67 119.16 C48.03 83.08, 78.61 45.97, 119.01 1.43 M35.3 122.11 C70.34 78.79, 101.58 41.57, 133.71 8.91 M35.3 122.11 C69.93 82.65, 103.96 43.74, 133.71 8.91 M56.56 122.04 C79.08 95.06, 102.38 68.97, 140.54 25.44 M56.56 122.04 C78.72 91.42, 105.38 62.24, 140.54 25.44 M77.82 121.98 C91.85 103.98, 104.59 90.6, 140.8 49.52 M77.82 121.98 C95.91 97.9, 115.52 75.88, 140.8 49.52 M99.08 121.91 C114.23 103.57, 130.63 84.87, 141.07 73.61 M99.08 121.91 C112.36 108.59, 120.38 95.76, 141.07 73.61 M121.66 120.33 C123.64 114.09, 127.2 112.07, 140.68 98.44 M121.66 120.33 C127.22 114.37, 132.89 105.5, 140.68 98.44" stroke="#b2f2bb" stroke-width="2" fill="none"></path><path d="M30.5 0 C55.43 -1.08, 78.25 0.97, 110.5 0 M30.5 0 C52.55 2, 75.76 0.44, 110.5 0 M110.5 0 C133.04 3.4, 144.51 9.38, 141 30.5 M110.5 0 C130.91 -0.3, 140.12 5.71, 141 30.5 M141 30.5 C142.92 51.42, 143.83 70.51, 141 91.5 M141 30.5 C143.9 49.03, 143.37 65.97, 141 91.5 M141 91.5 C141.9 108.87, 127.92 125.95, 110.5 122 M141 91.5 C139.66 114.63, 134.03 118.66, 110.5 122 M110.5 122 C87.66 119.7, 67.56 119.22, 30.5 122 M110.5 122 C88.11 122.1, 65.8 120, 30.5 122 M30.5 122 C11.13 122.85, -2.81 109.59, 0 91.5 M30.5 122 C11.38 126.11, -2.32 108.23, 0 91.5 M0 91.5 C0.1 76.79, -0.8 70.04, 0 30.5 M0 91.5 C0.14 75.84, 0.43 61.97, 0 30.5 M0 30.5 C3.79 7.96, 9.32 -1.6, 30.5 0 M0 30.5 C-1.74 7.02, 9.6 3.87, 30.5 0" stroke="#1e1e1e" stroke-width="4" fill="none"></path></g><g transform="translate(994.0960235595703 568.0629535891212) rotate(0 61.40397644042969 17.5)"><text x="61.40397644042969" y="0" font-family="Virgil, Segoe UI Emoji" font-size="28px" fill="#1e1e1e" text-anchor="middle" style="white-space: pre;" direction="ltr" dominant-baseline="text-before-edge">Consumer</text></g><g stroke-linecap="round" transform="translate(1001 663.5629535891212) rotate(0 70.5 61)"><path d="M7.46 7.81 C7.46 7.81, 7.46 7.81, 7.46 7.81 M7.46 7.81 C7.46 7.81, 7.46 7.81, 7.46 7.81 M0.51 40.2 C9.27 25.2, 21.03 12.73, 35.28 0.2 M0.51 40.2 C13.71 24.84, 27.39 9.18, 35.28 0.2 M0.78 64.28 C19.37 46.11, 27.76 29.26, 55.89 0.88 M0.78 64.28 C12.85 47.35, 26.06 33.19, 55.89 0.88 M0.39 89.11 C24.21 63.53, 47.41 32.13, 77.15 0.81 M0.39 89.11 C17.13 71.73, 34.1 50.92, 77.15 0.81 M5.25 107.91 C36.46 72.47, 71.62 36.43, 98.41 0.74 M5.25 107.91 C31.53 75.03, 58.93 47.5, 98.41 0.74 M16.67 119.16 C54.69 85.27, 88.17 40.54, 119.01 1.43 M16.67 119.16 C45.66 81.43, 75.03 46.44, 119.01 1.43 M35.3 122.11 C53.84 97.05, 84.09 66.49, 133.71 8.91 M35.3 122.11 C65.27 90.4, 96.3 54.45, 133.71 8.91 M56.56 122.04 C82.43 94.73, 104.88 66.86, 140.54 25.44 M56.56 122.04 C86.22 86.69, 116.84 51.55, 140.54 25.44 M77.82 121.98 C93.92 107.22, 103.58 89.19, 140.8 49.52 M77.82 121.98 C96.47 100.37, 114.7 83.13, 140.8 49.52 M99.08 121.91 C113.63 110.78, 122.58 94.9, 141.07 73.61 M99.08 121.91 C111.2 108.39, 124.1 94.63, 141.07 73.61 M121.66 120.33 C130.37 111.99, 132.98 109.58, 140.68 98.44 M121.66 120.33 C126.88 114.32, 131.63 107.66, 140.68 98.44" stroke="#b2f2bb" stroke-width="2" fill="none"></path><path d="M30.5 0 C57.23 3.56, 83.46 0.34, 110.5 0 M30.5 0 C49.32 -0.89, 69 1.78, 110.5 0 M110.5 0 C134.65 2.9, 144.6 8.71, 141 30.5 M110.5 0 C128.73 -1.01, 136.81 9.23, 141 30.5 M141 30.5 C136.44 45.15, 137.68 62.14, 141 91.5 M141 30.5 C142.33 44.98, 140.33 60.37, 141 91.5 M141 91.5 C142.54 111.12, 128.86 121.97, 110.5 122 M141 91.5 C141.84 109.11, 128.44 122.71, 110.5 122 M110.5 122 C75.9 119.69, 45.85 122.4, 30.5 122 M110.5 122 C95.01 122.06, 75.09 122.95, 30.5 122 M30.5 122 C10.23 124.73, -3.66 112.04, 0 91.5 M30.5 122 C13.3 121.95, 3.99 111.42, 0 91.5 M0 91.5 C3.63 73.5, 2.35 47.13, 0 30.5 M0 91.5 C-2.11 77.99, -1.56 62.78, 0 30.5 M0 30.5 C-1.61 11.68, 8.52 1.94, 30.5 0 M0 30.5 C2.68 12.14, 9.01 3.77, 30.5 0" stroke="#1e1e1e" stroke-width="4" fill="none"></path></g><g transform="translate(1010.0960235595703 707.0629535891212) rotate(0 61.40397644042969 17.5)"><text x="61.40397644042969" y="0" font-family="Virgil, Segoe UI Emoji" font-size="28px" fill="#1e1e1e" text-anchor="middle" style="white-space: pre;" direction="ltr" dominant-baseline="text-before-edge">Consumer</text></g><g stroke-linecap="round"><g transform="translate(607.1166498055791 424.44196061442426) rotate(0 171.41666666666788 61.6876137486089)"><path d="M-1.09 0.87 C56.12 20.89, 285.94 101.92, 343.52 122.17 M3.51 -1.13 C60.4 19.09, 285 104.13, 341.66 125.15" stroke="#1e1e1e" stroke-width="4" fill="none"></path></g><g transform="translate(607.1166498055791 424.44196061442426) rotate(0 171.41666666666788 61.6876137486089)"><path d="M317.28 125.4 C323.5 126.21, 331.36 124.12, 342.24 123.89 M316.34 125.25 C326.22 124.11, 335.75 125.96, 340.73 124.46" stroke="#1e1e1e" stroke-width="4" fill="none"></path></g><g transform="translate(607.1166498055791 424.44196061442426) rotate(0 171.41666666666788 61.6876137486089)"><path d="M323.29 109.39 C327.77 115.11, 333.78 117.94, 342.24 123.89 M322.35 109.24 C329.88 114.06, 337.18 121.83, 340.73 124.46" stroke="#1e1e1e" stroke-width="4" fill="none"></path></g></g><mask></mask><g stroke-linecap="round"><g transform="translate(605.2842110221573 434.6700867298041) rotate(0 191.91666666666788 148.90352900336734)"><path d="M-1.32 2.65 C62.24 51.41, 319.85 246.35, 383.64 295.12 M3.17 1.62 C66.12 51.82, 317.34 248.06, 381.3 297.29" stroke="#1e1e1e" stroke-width="4" fill="none"></path></g><g transform="translate(605.2842110221573 434.6700867298041) rotate(0 191.91666666666788 148.90352900336734)"><path d="M359.39 289.5 C364.75 290.95, 373.95 295.57, 379.92 297.1 M358.41 289.71 C362.95 291.03, 369.78 294.07, 381 296.83" stroke="#1e1e1e" stroke-width="4" fill="none"></path></g><g transform="translate(605.2842110221573 434.6700867298041) rotate(0 191.91666666666788 148.90352900336734)"><path d="M369.88 275.99 C371.35 282.56, 376.54 292.35, 379.92 297.1 M368.9 276.2 C370.88 280.75, 375.18 287.05, 381 296.83" stroke="#1e1e1e" stroke-width="4" fill="none"></path></g></g><mask></mask><g stroke-linecap="round"><g transform="translate(600.1166498055791 389.7228109113853) rotate(0 183.91666666666788 -44.576452545749476)"><path d="M-0.02 0.41 C60.8 -14.09, 304.92 -71.84, 366.23 -87.16 M-3.48 -1.84 C58.15 -17.1, 310.18 -76.45, 371.76 -91.09" stroke="#1e1e1e" stroke-width="4" fill="none"></path></g><g transform="translate(600.1166498055791 389.7228109113853) rotate(0 183.91666666666788 -44.576452545749476)"><path d="M351.16 -78.5 C359.55 -82.13, 363.71 -88.61, 373.51 -92.31 M351.01 -76.93 C356.66 -82.59, 363.96 -85.29, 371.11 -91.68" stroke="#1e1e1e" stroke-width="4" fill="none"></path></g><g transform="translate(600.1166498055791 389.7228109113853) rotate(0 183.91666666666788 -44.576452545749476)"><path d="M347.22 -95.14 C356.97 -93, 362.49 -93.71, 373.51 -92.31 M347.07 -93.57 C353.85 -93.94, 362.4 -91.37, 371.11 -91.68" stroke="#1e1e1e" stroke-width="4" fill="none"></path></g></g><mask></mask><g stroke-linecap="round"><g transform="translate(600.3571297604321 376.78854060319713) rotate(0 179.41666666666788 -128.07855042057815)"><path d="M-1.98 2.45 C57.6 -39.73, 299.34 -211.63, 359.54 -254.91 M2.14 1.32 C61.22 -41.55, 298.43 -216.58, 357.69 -259.25" stroke="#1e1e1e" stroke-width="4" fill="none"></path></g><g transform="translate(600.3571297604321 376.78854060319713) rotate(0 179.41666666666788 -128.07855042057815)"><path d="M345.51 -237.98 C349.99 -245.83, 353.55 -255.65, 356.32 -259.25 M342.92 -239.34 C349.79 -246.5, 353.47 -253.78, 357.91 -259.83" stroke="#1e1e1e" stroke-width="4" fill="none"></path></g><g transform="translate(600.3571297604321 376.78854060319713) rotate(0 179.41666666666788 -128.07855042057815)"><path d="M335.43 -251.79 C343.58 -254.41, 350.91 -259.07, 356.32 -259.25 M332.84 -253.15 C343.32 -255.25, 350.68 -257.49, 357.91 -259.83" stroke="#1e1e1e" stroke-width="4" fill="none"></path></g></g><mask></mask><g stroke-linecap="round" transform="translate(10 297.5629535891212) rotate(0 117.5 115)"><path d="M7.86 8.16 C7.86 8.16, 7.86 8.16, 7.86 8.16 M7.86 8.16 C7.86 8.16, 7.86 8.16, 7.86 8.16 M8.78 31.49 C16.79 20.58, 20.09 15.92, 34.37 2.05 M8.78 31.49 C17.09 21.36, 27.94 7.42, 34.37 2.05 M8.39 56.32 C18.68 42.24, 28.5 29.94, 55.63 1.98 M8.39 56.32 C25.85 33.6, 48.17 12.16, 55.63 1.98 M8.66 80.4 C32.4 57.35, 47.95 35.86, 76.89 1.91 M8.66 80.4 C27.71 58.23, 43.03 40.06, 76.89 1.91 M8.27 105.24 C31.5 86.2, 49.23 56.43, 98.15 1.85 M8.27 105.24 C34.89 77.1, 59.81 46.28, 98.15 1.85 M8.54 129.32 C41.76 94.09, 77.9 55.68, 119.41 1.78 M8.54 129.32 C31.62 100.85, 57.71 72.04, 119.41 1.78 M8.15 154.16 C45.6 112.18, 78.07 72.65, 140.67 1.71 M8.15 154.16 C55.92 98.26, 104.78 42.82, 140.67 1.71 M8.41 178.24 C57.48 121.52, 114.26 62.93, 161.28 2.39 M8.41 178.24 C38.04 139.17, 72.09 103.27, 161.28 2.39 M7.37 203.83 C70.29 137.2, 132.06 62.44, 182.54 2.32 M7.37 203.83 C54.12 153.12, 97.29 101.15, 182.54 2.32 M10.91 224.14 C82.87 142.41, 151.8 56.6, 204.45 1.5 M10.91 224.14 C53.52 168.19, 100.07 114.78, 204.45 1.5 M24.3 233.13 C90.68 156.25, 151.8 81.94, 221.78 5.96 M24.3 233.13 C85.33 164.87, 146.71 94.34, 221.78 5.96 M40.97 238.34 C107.1 166.01, 166.11 93.87, 235.16 14.95 M40.97 238.34 C97.88 170.6, 157.43 101.71, 235.16 14.95 M62.23 238.27 C113.09 185.98, 161.75 127.73, 238.71 35.26 M62.23 238.27 C110.19 181.12, 158.87 126.98, 238.71 35.26 M83.49 238.2 C126.6 188.5, 167.54 140.36, 238.98 59.34 M83.49 238.2 C146.49 168.28, 206.17 102.14, 238.98 59.34 M104.75 238.13 C157.95 182.67, 204.34 127.28, 238.59 84.17 M104.75 238.13 C133.34 206.14, 163 169.24, 238.59 84.17 M126.01 238.07 C152.55 206.9, 176.78 180.2, 238.85 108.26 M126.01 238.07 C164.68 190.86, 211.44 141.15, 238.85 108.26 M147.27 238 C180.56 202.17, 213.41 161.46, 238.46 133.09 M147.27 238 C168.46 216.5, 187.53 191.82, 238.46 133.09 M168.53 237.93 C191.86 213.62, 209.74 184.26, 238.73 157.17 M168.53 237.93 C192.74 208.36, 220.01 179.25, 238.73 157.17 M189.79 237.86 C208.04 222.55, 221.75 205.8, 239 181.26 M189.79 237.86 C199.79 224.45, 212.97 209.75, 239 181.26 M218.27 229.49 C223.37 222.8, 226.84 219.75, 233.36 212.13 M218.27 229.49 C225.4 224.25, 230.09 218.26, 233.36 212.13" stroke="#b2f2bb" stroke-width="2" fill="none"></path><path d="M32 0 C91.39 -1.84, 155.47 0.33, 203 0 M32 0 C89.37 2.41, 148.27 1.59, 203 0 M203 0 C223.67 3.73, 232.32 13.16, 235 32 M203 0 C221.99 2.41, 231.47 6.75, 235 32 M235 32 C235.84 70.96, 234.56 106.86, 235 198 M235 32 C234.4 88.21, 234.4 144.55, 235 198 M235 198 C236.45 223.19, 221.56 230.32, 203 230 M235 198 C230.47 221.77, 228.28 225.72, 203 230 M203 230 C155.29 233.12, 112.97 235.69, 32 230 M203 230 C158.52 230.56, 117.81 229.78, 32 230 M32 230 C14.05 228.55, -3.2 217.48, 0 198 M32 230 C14.08 226.06, -3.86 217.38, 0 198 M0 198 C-5.69 161.97, -2.14 124.35, 0 32 M0 198 C0.55 158.49, 1.36 120.75, 0 32 M0 32 C-1.24 6.93, 10.79 -1.23, 32 0 M0 32 C4.23 6.16, 11.79 3, 32 0" stroke="#1e1e1e" stroke-width="4" fill="none"></path></g><g transform="translate(67.84602355957031 395.0629535891212) rotate(0 59.65397644042969 17.5)"><text x="59.65397644042969" y="0" font-family="Virgil, Segoe UI Emoji" font-size="28px" fill="#1e1e1e" text-anchor="middle" style="white-space: pre;" direction="ltr" dominant-baseline="text-before-edge">Producer</text></g><g stroke-linecap="round"><g transform="translate(264.1166498055791 423.51627721476984) rotate(0 85.91666666666788 0.45460834441132647)"><path d="M-1.57 -0.66 C27.87 -0.68, 145.6 -0.97, 174.34 -1.16 M2.77 -3.49 C32.28 -3.12, 145.83 0.79, 173.47 1.34" stroke="#1e1e1e" stroke-width="4" fill="none"></path></g><g transform="translate(264.1166498055791 423.51627721476984) rotate(0 85.91666666666788 0.45460834441132647)"><path d="M149.27 11.02 C153.45 6.99, 158.13 7.14, 173.83 2.08 M148.84 8.28 C159.84 6.37, 169.35 3.37, 173.62 1.62" stroke="#1e1e1e" stroke-width="4" fill="none"></path></g><g transform="translate(264.1166498055791 423.51627721476984) rotate(0 85.91666666666788 0.45460834441132647)"><path d="M149.75 -6.07 C153.76 -6.39, 158.34 -2.53, 173.83 2.08 M149.32 -8.81 C160.24 -3.94, 169.56 -0.16, 173.62 1.62" stroke="#1e1e1e" stroke-width="4" fill="none"></path></g></g><mask></mask><g stroke-linecap="round"><g transform="translate(1049.5 62.56295358912121) rotate(0 -480.5 87)"><path d="M1.46 -2.16 C-91.47 -9.41, -395.77 -78.6, -556.25 -41.89 C-716.73 -5.17, -893.69 174.93, -961.42 218.15 M-1.19 2.84 C-93.38 -4.07, -390.69 -73.35, -551.07 -38.19 C-711.44 -3.04, -894.81 172.07, -963.46 213.79" stroke="#1971c2" stroke-width="4" fill="none"></path></g><g transform="translate(1049.5 62.56295358912121) rotate(0 -480.5 87)"><path d="M-951.25 191.31 C-954.28 199.94, -957.61 206.34, -962.44 212.91 M-949.22 192.23 C-954.39 199.91, -958.68 207, -963 213.55" stroke="#1971c2" stroke-width="4" fill="none"></path></g><g transform="translate(1049.5 62.56295358912121) rotate(0 -480.5 87)"><path d="M-941.05 205.03 C-947.71 208.95, -954.58 210.57, -962.44 212.91 M-939.02 205.96 C-947.8 208.67, -955.74 210.85, -963 213.55" stroke="#1971c2" stroke-width="4" fill="none"></path></g></g><mask></mask><g stroke-linecap="round"><g transform="translate(975.4974072370678 223.76820685604162) rotate(0 -407 -4.5)"><path d="M0.15 1.74 C-70.33 -10.51, -288.01 -83.71, -423.27 -72.93 C-558.54 -62.16, -745.95 43.6, -811.43 66.41 M-3.21 0.21 C-74.14 -12.94, -291.43 -87.61, -426.2 -77.37 C-560.97 -67.13, -746.75 37.76, -811.85 61.64" stroke="#1971c2" stroke-width="4" fill="none"></path></g><g transform="translate(975.4974072370678 223.76820685604162) rotate(0 -407 -4.5)"><path d="M-792.64 43.35 C-798.21 51.06, -803.09 52.63, -812.62 63.4 M-794.05 44.88 C-796.93 46.95, -801.95 52.37, -811.72 61.57" stroke="#1971c2" stroke-width="4" fill="none"></path></g><g transform="translate(975.4974072370678 223.76820685604162) rotate(0 -407 -4.5)"><path d="M-785.67 58.97 C-793.26 62.23, -800.13 59.35, -812.62 63.4 M-787.08 60.49 C-791.47 59.36, -797.92 61.56, -811.72 61.57" stroke="#1971c2" stroke-width="4" fill="none"></path></g></g><mask></mask><g stroke-linecap="round"><g transform="translate(983.3496465665812 757.5221041443201) rotate(0 -442 -105.5)"><path d="M-1.44 1.9 C-89.17 -9.05, -379.32 -31.98, -526.15 -67.82 C-672.98 -103.65, -823 -189.49, -882.41 -213.11 M2.98 0.46 C-84.98 -11.15, -379.66 -36.92, -527.38 -72.18 C-675.1 -107.45, -824.37 -187.37, -883.35 -211.14" stroke="#1971c2" stroke-width="4" fill="none"></path></g><g transform="translate(983.3496465665812 757.5221041443201) rotate(0 -442 -105.5)"><path d="M-857.07 -207.95 C-865.28 -208.84, -875.35 -209.56, -882.32 -212.73 M-858.38 -209.24 C-864.47 -210.28, -869.61 -210.47, -884.24 -211.19" stroke="#1971c2" stroke-width="4" fill="none"></path></g><g transform="translate(983.3496465665812 757.5221041443201) rotate(0 -442 -105.5)"><path d="M-864.1 -192.36 C-870.02 -198.05, -877.91 -203.59, -882.32 -212.73 M-865.41 -193.65 C-870.04 -197.94, -873.72 -201.37, -884.24 -211.19" stroke="#1971c2" stroke-width="4" fill="none"></path></g></g><mask></mask><g stroke-linecap="round"><g transform="translate(976.6861175714421 599.1680845730102) rotate(0 -402 -30.5)"><path d="M-0.33 -2.26 C-78.58 -3.93, -337.02 1.23, -471.06 -8.39 C-605.1 -18.02, -748.91 -50.84, -804.57 -59.99 M-3.96 2.68 C-82.53 -0.04, -340.09 -1.8, -473.88 -13.08 C-607.66 -24.35, -751.51 -56.82, -806.68 -64.97" stroke="#1971c2" stroke-width="4" fill="none"></path></g><g transform="translate(976.6861175714421 599.1680845730102) rotate(0 -402 -30.5)"><path d="M-783.67 -70.02 C-787.59 -68.65, -793.29 -67.91, -808.34 -65.74 M-781.49 -69.08 C-788.6 -67.16, -797.16 -67.63, -806.81 -64.92" stroke="#1971c2" stroke-width="4" fill="none"></path></g><g transform="translate(976.6861175714421 599.1680845730102) rotate(0 -402 -30.5)"><path d="M-786.68 -53.18 C-789.96 -55.91, -794.94 -59.26, -808.34 -65.74 M-784.5 -52.24 C-790.82 -55.27, -798.5 -60.65, -806.81 -64.92" stroke="#1971c2" stroke-width="4" fill="none"></path></g></g><mask></mask><g stroke-linecap="round"><g transform="translate(966.0079778204108 469.7081710067489) rotate(0 -363 17)"><path d="M-1.56 -1.34 C-66.38 6.06, -268.23 44.52, -389.42 43.15 C-510.6 41.79, -672.78 -0.67, -728.66 -9.53 M2.79 4.11 C-62.12 12.11, -269.24 48.67, -390.26 46.87 C-511.27 45.06, -667.75 2.42, -723.28 -6.71" stroke="#1971c2" stroke-width="4" fill="none"></path></g><g transform="translate(966.0079778204108 469.7081710067489) rotate(0 -363 17)"><path d="M-699.49 -8.47 C-705.42 -11.33, -712.89 -7.49, -723.99 -5.64 M-697.58 -11.27 C-705.81 -9.7, -711.22 -7.36, -723.99 -5.86" stroke="#1971c2" stroke-width="4" fill="none"></path></g><g transform="translate(966.0079778204108 469.7081710067489) rotate(0 -363 17)"><path d="M-702.97 8.28 C-707.85 0.71, -714.33 -0.17, -723.99 -5.64 M-701.05 5.47 C-708.37 2.41, -712.82 0.14, -723.99 -5.86" stroke="#1971c2" stroke-width="4" fill="none"></path></g></g><mask></mask><g stroke-linecap="round"><g transform="translate(970.4358813936269 246.8621987881952) rotate(0 -365 14)"><path d="M-1.53 1.04 C-68.91 -2.23, -284.14 -26.45, -405.26 -18.86 C-526.37 -11.27, -674.29 35.03, -728.22 46.58 M2.83 -0.86 C-64.58 -4.97, -284.03 -30.92, -406.01 -22.71 C-527.99 -14.5, -675.47 37.06, -729.06 48.38" stroke="#1971c2" stroke-width="4" fill="none"></path></g><g transform="translate(970.4358813936269 246.8621987881952) rotate(0 -365 14)"><path d="M-707.83 36.01 C-712.43 39.01, -721.11 42.39, -728.02 46.51 M-708.49 33.72 C-715.61 39.69, -721.25 42.58, -729.21 48.57" stroke="#1971c2" stroke-width="4" fill="none"></path></g><g transform="translate(970.4358813936269 246.8621987881952) rotate(0 -365 14)"><path d="M-703.41 52.54 C-709.23 51.13, -719.08 50.13, -728.02 46.51 M-704.07 50.24 C-712.45 50.98, -719.49 48.63, -729.21 48.57" stroke="#1971c2" stroke-width="4" fill="none"></path></g></g><mask></mask><g transform="translate(100.27253569439199 744.8135028332567) rotate(0 36.91798400878906 17.5)"><text x="0" y="0" font-family="Virgil, Segoe UI Emoji" font-size="28px" fill="#1e1e1e" text-anchor="start" style="white-space: pre;" direction="ltr" dominant-baseline="text-before-edge">Async</text></g><g stroke-linecap="round"><g transform="translate(214.77852476909902 760.8416684550614) rotate(0 53.03398895263672 -0.014082810902323217)"><path d="M1.05 -0.56 C19.03 -0.27, 91.16 -1.41, 108.48 -1.01 M-1.82 -3.33 C15.95 -2.4, 90.16 1.98, 107.55 2.08" stroke="#1e1e1e" stroke-width="4" fill="none"></path></g><g transform="translate(214.77852476909902 760.8416684550614) rotate(0 53.03398895263672 -0.014082810902323217)"><path d="M83.36 11.48 C90.77 6.42, 100.45 3.27, 105.88 2.75 M84.37 10.2 C92.33 6.1, 100.6 5.09, 108.12 1.72" stroke="#1e1e1e" stroke-width="4" fill="none"></path></g><g transform="translate(214.77852476909902 760.8416684550614) rotate(0 53.03398895263672 -0.014082810902323217)"><path d="M84 -5.61 C91.04 -5.18, 100.51 -2.84, 105.88 2.75 M85 -6.89 C92.79 -4.91, 100.83 0.17, 108.12 1.72" stroke="#1e1e1e" stroke-width="4" fill="none"></path></g></g><mask></mask><g transform="translate(108.00667920038177 797.0629535891212) rotate(0 38.69598388671875 17.5)"><text x="0" y="0" font-family="Virgil, Segoe UI Emoji" font-size="28px" fill="#1e1e1e" text-anchor="start" style="white-space: pre;" direction="ltr" dominant-baseline="text-before-edge">REST</text></g><g stroke-linecap="round"><g transform="translate(222.5126682750888 813.0911192109256) rotate(0 53.03398895263672 -0.014082810902323217)"><path d="M-0.98 -1.14 C16.84 -0.95, 86.63 0.75, 104.45 0.87 M3.68 -4.22 C22.64 -4.9, 93.24 -4.77, 109.97 -3.65" stroke="#1971c2" stroke-width="4" fill="none"></path></g><g transform="translate(222.5126682750888 813.0911192109256) rotate(0 53.03398895263672 -0.014082810902323217)"><path d="M85.44 3.09 C91.92 2.56, 96.03 2.93, 111.41 -4.54 M85.39 3.46 C94.81 0.58, 105.92 -1.29, 110.88 -3.44" stroke="#1971c2" stroke-width="4" fill="none"></path></g><g transform="translate(222.5126682750888 813.0911192109256) rotate(0 53.03398895263672 -0.014082810902323217)"><path d="M85.92 -14.01 C92.28 -10.92, 96.29 -6.93, 111.41 -4.54 M85.86 -13.64 C94.97 -9.75, 105.89 -4.84, 110.88 -3.44" stroke="#1971c2" stroke-width="4" fill="none"></path></g></g><mask></mask></svg>