<svg version="1.1" xmlns="http://www.w3.org/2000/svg" viewBox="0 0 1276.75 371.5" width="2553.5" height="743">
  <!-- svg-source:excalidraw -->
  
  <defs>
    <style class="style-fonts">
      @font-face {
        font-family: "Virgil";
        src: url("https://excalidraw.com/Virgil.woff2");
      }
      @font-face {
        font-family: "Cascadia";
        src: url("https://excalidraw.com/Cascadia.woff2");
      }
      @font-face {
        font-family: "Assistant";
        src: url("https://excalidraw.com/Assistant-Regular.woff2");
      }
    </style>
    
  </defs>
  <g stroke-linecap="round" transform="translate(10 164) rotate(0 104.75 89.5)"><path d="M7.86 8.16 C7.86 8.16, 7.86 8.16, 7.86 8.16 M7.86 8.16 C7.86 8.16, 7.86 8.16, 7.86 8.16 M0.91 40.54 C8.01 31.95, 21.37 24.09, 36.34 -0.21 M0.91 40.54 C8.24 31.92, 16.62 21.84, 36.34 -0.21 M1.18 64.62 C16.53 45.68, 36.11 23.72, 57.6 -0.28 M1.18 64.62 C13.32 53.88, 23.74 40.59, 57.6 -0.28 M0.79 89.46 C22.75 69.2, 44.79 43.41, 78.2 0.41 M0.79 89.46 C26.11 61.92, 47.73 34.78, 78.2 0.41 M1.05 113.54 C38.62 66.62, 79.69 21.65, 99.46 0.34 M1.05 113.54 C32.97 80.55, 58.22 48.95, 99.46 0.34 M0.66 138.38 C44.93 89.65, 82.83 36.8, 120.72 0.27 M0.66 138.38 C26.99 107.64, 49.72 79.17, 120.72 0.27 M2.24 160.95 C48.72 105.42, 105.21 42.24, 141.98 0.2 M2.24 160.95 C37.02 120.63, 73.67 79.4, 141.98 0.2 M12.35 173.71 C59.2 121.01, 108.07 67.89, 163.24 0.13 M12.35 173.71 C55.17 127.83, 95.25 78.87, 163.24 0.13 M29.02 178.93 C85.34 110.13, 139.04 43.23, 183.85 0.81 M29.02 178.93 C69.96 128.51, 112.31 78.2, 183.85 0.81 M49.62 179.61 C79.13 141.64, 110.91 104.38, 199.86 6.78 M49.62 179.61 C81.21 143.94, 115.33 105.5, 199.86 6.78 M70.88 179.54 C96.5 140.31, 133.74 107.41, 208.65 21.05 M70.88 179.54 C119.34 124.29, 167.16 68.25, 208.65 21.05 M92.14 179.47 C126.57 141.54, 156.63 106.33, 209.58 44.38 M92.14 179.47 C131.26 128.05, 173.32 78.6, 209.58 44.38 M113.4 179.4 C151.5 136.93, 187.54 100.52, 209.84 68.46 M113.4 179.4 C141.57 141.63, 171.86 108.13, 209.84 68.46 M134.66 179.34 C165.82 145.29, 190.94 117.7, 209.45 93.3 M134.66 179.34 C164.38 148.49, 194.04 116.2, 209.45 93.3 M155.92 179.27 C176.14 160.79, 190.69 143.01, 209.72 117.38 M155.92 179.27 C170.2 164.41, 184.63 150.75, 209.72 117.38 M177.18 179.2 C186.4 170.94, 193.91 155.5, 209.33 142.22 M177.18 179.2 C189.58 166.35, 201.35 151.1, 209.33 142.22" stroke="#b2f2bb" stroke-width="2" fill="none"></path><path d="M32 0 C88.44 -1.23, 149.36 2.78, 177.5 0 M32 0 C79.3 0.9, 127.55 1.2, 177.5 0 M177.5 0 C196.38 3.63, 212.76 13.7, 209.5 32 M177.5 0 C197.76 -4.23, 213.6 8.72, 209.5 32 M209.5 32 C207.34 73.46, 206.44 104.95, 209.5 147 M209.5 32 C210.7 60.76, 208.97 88.59, 209.5 147 M209.5 147 C208.27 167.41, 200.13 182.54, 177.5 179 M209.5 147 C209.58 171.53, 200.17 181.82, 177.5 179 M177.5 179 C129.74 179.58, 83.64 182.39, 32 179 M177.5 179 C135.96 183.2, 92.66 179.79, 32 179 M32 179 C13.13 181.09, 3.17 165.34, 0 147 M32 179 C7.53 179.05, 2.82 170.13, 0 147 M0 147 C3.3 115.87, 0.9 85.47, 0 32 M0 147 C-3.25 120.09, -1.34 93.82, 0 32 M0 32 C-2.93 8.38, 7.83 -3.54, 32 0 M0 32 C0.19 8.08, 10.09 -1.73, 32 0" stroke="#1971c2" stroke-width="4" fill="none"></path></g><g transform="translate(56.988014221191406 231) rotate(0 57.761985778808594 22.5)"><text x="57.761985778808594" y="0" font-family="Virgil, Segoe UI Emoji" font-size="36px" fill="#1971c2" text-anchor="middle" style="white-space: pre;" direction="ltr" dominant-baseline="text-before-edge">Source</text></g><g stroke-linecap="round" transform="translate(366 166) rotate(0 104.75 89.5)"><path d="M7.86 8.16 C7.86 8.16, 7.86 8.16, 7.86 8.16 M7.86 8.16 C7.86 8.16, 7.86 8.16, 7.86 8.16 M8.78 31.49 C15.49 21, 28.89 8.9, 34.37 2.05 M8.78 31.49 C15.73 25.22, 21.49 18.27, 34.37 2.05 M8.39 56.32 C19.26 40.93, 34.87 22.86, 55.63 1.98 M8.39 56.32 C20.29 43.79, 35.08 27.56, 55.63 1.98 M8.66 80.4 C29.29 60.02, 50.91 37.64, 76.89 1.91 M8.66 80.4 C21.17 64.38, 37.74 46.58, 76.89 1.91 M8.27 105.24 C46.06 64.52, 78.56 26.58, 98.15 1.85 M8.27 105.24 C37.93 72.97, 68.66 36.66, 98.15 1.85 M8.54 129.32 C46.48 88.42, 79.85 45.65, 119.41 1.78 M8.54 129.32 C31.2 101.57, 55.11 75.28, 119.41 1.78 M2.24 160.95 C40.91 115.94, 79.86 71.29, 140.67 1.71 M2.24 160.95 C32.33 126.43, 62.12 91.78, 140.67 1.71 M11.69 174.47 C71.61 105.41, 131.28 39.56, 161.28 2.39 M11.69 174.47 C43.43 139.15, 73.46 106.71, 161.28 2.39 M25.08 183.45 C63.39 146.48, 95.77 105.02, 181.22 3.83 M25.08 183.45 C65.33 139.73, 104.51 91.47, 181.22 3.83 M42.41 187.91 C90.91 127.17, 139.15 74.55, 198.55 8.29 M42.41 187.91 C99.58 120.62, 154.63 56.89, 198.55 8.29 M63.67 187.84 C111.03 130.92, 155.08 77.82, 209.97 19.54 M63.67 187.84 C104.3 146.37, 143.97 100.76, 209.97 19.54 M84.93 187.78 C112.26 153.57, 143.45 118.96, 215.48 37.59 M84.93 187.78 C124.04 139.21, 164.68 90.84, 215.48 37.59 M106.19 187.71 C146.62 147.88, 176.74 106.7, 215.75 61.67 M106.19 187.71 C148.36 141.71, 186.44 93.9, 215.75 61.67 M127.45 187.64 C151.55 156.7, 174.58 136.31, 215.36 86.51 M127.45 187.64 C157.54 155.29, 181.5 124.34, 215.36 86.51 M148.05 188.32 C162.36 172.75, 173.56 156.51, 215.62 110.59 M148.05 188.32 C170.24 162.07, 194.43 134.4, 215.62 110.59 M169.31 188.25 C183.98 168.35, 198.25 150.55, 215.89 134.67 M169.31 188.25 C182.77 171.85, 197.76 156.99, 215.89 134.67" stroke="#b2f2bb" stroke-width="2" fill="none"></path><path d="M32 0 C72.63 -3.39, 110.19 1.94, 177.5 0 M32 0 C82.64 -2.19, 133.06 -1.24, 177.5 0 M177.5 0 C200.3 3.13, 207.28 13.18, 209.5 32 M177.5 0 C194.58 0.49, 205.15 14.28, 209.5 32 M209.5 32 C212.36 70.7, 206.83 115.7, 209.5 147 M209.5 32 C208.91 61.91, 206.81 93.65, 209.5 147 M209.5 147 C209.18 164.49, 195.11 181.74, 177.5 179 M209.5 147 C209.45 170.89, 201.5 175.69, 177.5 179 M177.5 179 C124.11 177.95, 71.17 181.83, 32 179 M177.5 179 C131.24 179.31, 83.5 179.42, 32 179 M32 179 C9.12 177.08, -2.43 165.3, 0 147 M32 179 C14.04 177.14, -4.05 169.71, 0 147 M0 147 C-0.28 123.77, 3.2 93.98, 0 32 M0 147 C1.02 120.33, 0.85 95.85, 0 32 M0 32 C-1.04 10.93, 14.08 3.15, 32 0 M0 32 C-4.34 9.3, 10.12 2.99, 32 0" stroke="#1971c2" stroke-width="4" fill="none"></path></g><g transform="translate(389.1380310058594 233) rotate(0 81.61196899414062 22.5)"><text x="81.61196899414062" y="0" font-family="Virgil, Segoe UI Emoji" font-size="36px" fill="#1971c2" text-anchor="middle" style="white-space: pre;" direction="ltr" dominant-baseline="text-before-edge">Enricher 1</text></g><g stroke-linecap="round" transform="translate(703 173) rotate(0 104.75 89.5)"><path d="M7.86 8.16 C7.86 8.16, 7.86 8.16, 7.86 8.16 M7.86 8.16 C7.86 8.16, 7.86 8.16, 7.86 8.16 M0.91 40.54 C9.53 27.99, 17.71 22.07, 36.34 -0.21 M0.91 40.54 C11.03 28.9, 20.2 19.21, 36.34 -0.21 M1.18 64.62 C10.99 48.62, 22.62 38.08, 57.6 -0.28 M1.18 64.62 C12.17 52.12, 24.71 37.48, 57.6 -0.28 M0.79 89.46 C24.1 58.46, 51.76 30.92, 78.2 0.41 M0.79 89.46 C24.27 62.83, 48.18 34.25, 78.2 0.41 M1.05 113.54 C35.24 73.94, 76.87 29.35, 99.46 0.34 M1.05 113.54 C30 79.56, 63.01 41.91, 99.46 0.34 M0.66 138.38 C35.34 93.09, 75.34 51.43, 120.72 0.27 M0.66 138.38 C47.05 86.18, 89.96 36.39, 120.72 0.27 M2.24 160.95 C39.47 115.63, 80.97 68.83, 141.98 0.2 M2.24 160.95 C36.92 123.33, 69.08 84.39, 141.98 0.2 M12.35 173.71 C65.1 111.71, 121.42 48.29, 163.24 0.13 M12.35 173.71 C62.7 119.93, 109.96 63.03, 163.24 0.13 M29.02 178.93 C54.07 140.96, 88.88 109.42, 183.85 0.81 M29.02 178.93 C83.21 114.03, 139.81 48.57, 183.85 0.81 M49.62 179.61 C95.05 123.71, 137.65 73.47, 199.86 6.78 M49.62 179.61 C85.95 143.87, 116.05 106.47, 199.86 6.78 M70.88 179.54 C107.59 136.66, 141.9 98.24, 208.65 21.05 M70.88 179.54 C121.27 118.12, 175.75 57.65, 208.65 21.05 M92.14 179.47 C135.69 134.12, 171.4 86.72, 209.58 44.38 M92.14 179.47 C134.57 127.66, 183.35 77.45, 209.58 44.38 M113.4 179.4 C143.32 140.9, 172 104.77, 209.84 68.46 M113.4 179.4 C136.97 154.03, 162.42 125.14, 209.84 68.46 M134.66 179.34 C157.06 154.13, 173.32 134.75, 209.45 93.3 M134.66 179.34 C159.4 149.06, 183.55 120.56, 209.45 93.3 M155.92 179.27 C176.01 162.38, 193.93 143.41, 209.72 117.38 M155.92 179.27 C167.57 165.68, 180.16 154.18, 209.72 117.38 M177.18 179.2 C186.28 171.74, 198.97 153.31, 209.33 142.22 M177.18 179.2 C185.87 168.06, 192.87 160.89, 209.33 142.22" stroke="#b2f2bb" stroke-width="2" fill="none"></path><path d="M32 0 C76.2 2.45, 122.92 -1.23, 177.5 0 M32 0 C75.61 -1.47, 116 -0.98, 177.5 0 M177.5 0 C200.77 -3.49, 209.33 14.54, 209.5 32 M177.5 0 C195.3 -2.56, 207.13 13.11, 209.5 32 M209.5 32 C207.38 73.52, 206.32 114.36, 209.5 147 M209.5 32 C208.79 73.83, 208.3 114.7, 209.5 147 M209.5 147 C205.54 164.49, 200.76 181.24, 177.5 179 M209.5 147 C208.01 172.12, 200.48 175.74, 177.5 179 M177.5 179 C136.89 178.79, 92.3 176.05, 32 179 M177.5 179 C134.81 176.24, 93.87 179.97, 32 179 M32 179 C9.05 182.29, -3.36 168.5, 0 147 M32 179 C10.78 178.15, -1.96 170.92, 0 147 M0 147 C3.24 125.29, 0.33 102.21, 0 32 M0 147 C-1.66 122.92, -0.18 93.96, 0 32 M0 32 C1.92 13.69, 11.31 0.87, 32 0 M0 32 C3.29 14.84, 6.91 3.07, 32 0" stroke="#1971c2" stroke-width="4" fill="none"></path></g><g transform="translate(718.2000350952148 240) rotate(0 89.54996490478516 22.5)"><text x="89.54996490478516" y="0" font-family="Virgil, Segoe UI Emoji" font-size="36px" fill="#1971c2" text-anchor="middle" style="white-space: pre;" direction="ltr" dominant-baseline="text-before-edge">Enricher 2</text></g><g stroke-linecap="round"><g transform="translate(230.57818950671708 267.803338593244) rotate(0 53 -3)"><path d="M-0.53 -0.49 C16.56 -1.85, 86.53 -6.43, 104.24 -7.37 M-4.27 -3.22 C13.59 -4.3, 91.68 -4.5, 109.69 -4.48" stroke="#1e1e1e" stroke-width="4" fill="none"></path></g><g transform="translate(230.57818950671708 267.803338593244) rotate(0 53 -3)"><path d="M85.87 2.86 C93.65 0.9, 102.98 -1.96, 107.79 -5.38 M85.25 4.87 C91.7 2.82, 95.92 1.47, 110.39 -4.07" stroke="#1e1e1e" stroke-width="4" fill="none"></path></g><g transform="translate(230.57818950671708 267.803338593244) rotate(0 53 -3)"><path d="M85.84 -14.24 C93.68 -10.05, 103.02 -6.77, 107.79 -5.38 M85.21 -12.23 C91.65 -10.58, 95.87 -8.23, 110.39 -4.07" stroke="#1e1e1e" stroke-width="4" fill="none"></path></g></g><mask></mask><g stroke-linecap="round"><g transform="translate(585.0362217184902 257.42625790871716) rotate(0 53 -3)"><path d="M1.5 2.57 C19.44 0.91, 90.16 -6.61, 107.57 -8.38 M-1.13 1.5 C16.58 -0.04, 88.65 -4.79, 106.18 -6.04" stroke="#1e1e1e" stroke-width="4" fill="none"></path></g><g transform="translate(585.0362217184902 257.42625790871716) rotate(0 53 -3)"><path d="M85.16 5.22 C88.37 0.89, 95.42 -2.02, 105.12 -4.98 M82.59 3.96 C91.9 1.14, 97.86 -3.1, 106.06 -6.48" stroke="#1e1e1e" stroke-width="4" fill="none"></path></g><g transform="translate(585.0362217184902 257.42625790871716) rotate(0 53 -3)"><path d="M83.99 -11.84 C87.65 -11.09, 95.05 -8.93, 105.12 -4.98 M81.42 -13.1 C91.14 -10.16, 97.5 -8.64, 106.06 -6.48" stroke="#1e1e1e" stroke-width="4" fill="none"></path></g></g><mask></mask><g stroke-linecap="round"><g transform="translate(477.89362586026095 53.49927964969447) rotate(0 -9.149972729043725 45.60941957046407)"><path d="M1.38 -1.31 C-1.57 13.78, -12.6 73.18, -16.09 89.03 M-1.31 4.15 C-4.58 19.66, -13.67 77.22, -17.13 91.46" stroke="#1e1e1e" stroke-width="4" fill="none"></path></g><g transform="translate(477.89362586026095 53.49927964969447) rotate(0 -9.149972729043725 45.60941957046407)"><path d="M-21.97 68.35 C-21.34 74.65, -16.57 84.57, -18.17 90.08 M-21.64 67.04 C-19.33 75.16, -17.29 84.6, -18.07 91.36" stroke="#1e1e1e" stroke-width="4" fill="none"></path></g><g transform="translate(477.89362586026095 53.49927964969447) rotate(0 -9.149972729043725 45.60941957046407)"><path d="M-5.18 71.62 C-10.52 76.84, -11.74 85.59, -18.17 90.08 M-4.86 70.31 C-8.48 77.21, -12.36 85.49, -18.07 91.36" stroke="#1e1e1e" stroke-width="4" fill="none"></path></g></g><mask></mask><g stroke-linecap="round"><g transform="translate(809.6496643033497 64.42225817485632) rotate(0 -2.1757818132886086 45.60941957046384)"><path d="M-1.39 0.78 C-2.02 15.91, -3.15 77.5, -4 92.52 M3.05 -1.27 C2.09 12.87, -5.4 72.36, -6.04 88.21" stroke="#1e1e1e" stroke-width="4" fill="none"></path></g><g transform="translate(809.6496643033497 64.42225817485632) rotate(0 -2.1757818132886086 45.60941957046384)"><path d="M-11.96 64.31 C-9.55 69.64, -8.82 80.05, -4.76 88.27 M-11.8 65 C-10.75 70.11, -8.81 75.93, -7.04 88.69" stroke="#1e1e1e" stroke-width="4" fill="none"></path></g><g transform="translate(809.6496643033497 64.42225817485632) rotate(0 -2.1757818132886086 45.60941957046384)"><path d="M5.08 65.8 C2.49 70.61, -1.76 80.58, -4.76 88.27 M5.24 66.49 C1.98 71.27, -0.39 76.72, -7.04 88.69" stroke="#1e1e1e" stroke-width="4" fill="none"></path></g></g><mask></mask><g transform="translate(415.8860168457031 10) rotate(0 73.70997619628906 17.5)"><text x="0" y="0" font-family="Virgil, Segoe UI Emoji" font-size="28px" fill="#1e1e1e" text-anchor="start" style="white-space: pre;" direction="ltr" dominant-baseline="text-before-edge">More data</text></g><g transform="translate(739.0400238037109 24) rotate(0 73.70997619628906 17.5)"><text x="0" y="0" font-family="Virgil, Segoe UI Emoji" font-size="28px" fill="#1e1e1e" text-anchor="start" style="white-space: pre;" direction="ltr" dominant-baseline="text-before-edge">More data</text></g><g stroke-linecap="round"><g transform="translate(937.0362217184902 284.42625790871716) rotate(0 53 -3)"><path d="M0.77 0.14 C17.89 -0.97, 86.06 -6.81, 103.86 -7.39 M-2.26 -2.25 C15.63 -2.95, 90.96 -3.66, 109.09 -4.51" stroke="#1e1e1e" stroke-width="4" fill="none"></path></g><g transform="translate(937.0362217184902 284.42625790871716) rotate(0 53 -3)"><path d="M85.93 3.11 C92.81 2.55, 103.66 -2.74, 111.09 -5.5 M84.91 4.91 C92.79 1.75, 101.2 -1.01, 109.34 -5.18" stroke="#1e1e1e" stroke-width="4" fill="none"></path></g><g transform="translate(937.0362217184902 284.42625790871716) rotate(0 53 -3)"><path d="M85.49 -13.99 C92.47 -8.71, 103.47 -8.16, 111.09 -5.5 M84.47 -12.18 C92.45 -9.91, 101 -7.25, 109.34 -5.18" stroke="#1e1e1e" stroke-width="4" fill="none"></path></g></g><mask></mask><g stroke-linecap="round" transform="translate(1088.75 190.5) rotate(0 89 85.5)"><path d="M32.91 19.12 C41.48 11.46, 55.53 5.39, 67.72 2.39 C79.91 -0.6, 94.42 -1.09, 106.04 1.15 C117.66 3.4, 127.87 9.23, 137.43 15.89 C146.98 22.54, 156.47 31.7, 163.36 41.09 C170.24 50.49, 176.78 61.25, 178.73 72.27 C180.68 83.29, 178.62 95.66, 175.04 107.22 C171.45 118.77, 164.73 132.37, 157.22 141.6 C149.72 150.82, 140.57 157.46, 130.01 162.57 C119.44 167.68, 106.43 171.86, 93.85 172.28 C81.26 172.7, 65.74 169.4, 54.48 165.08 C43.22 160.77, 34.42 154.4, 26.28 146.38 C18.15 138.37, 10.29 128.21, 5.66 117 C1.03 105.79, -2.23 91.3, -1.5 79.14 C-0.76 66.98, 1.35 56.05, 10.09 44.06 C18.83 32.06, 40.65 13.79, 50.96 7.18 C61.27 0.58, 71.34 2.87, 71.96 4.42 M112.07 3.45 C123.07 4.83, 134.39 10.78, 143.96 18.01 C153.53 25.24, 164.02 36.43, 169.47 46.82 C174.92 57.21, 176.1 69.12, 176.65 80.36 C177.2 91.61, 176.31 103.5, 172.77 114.28 C169.23 125.06, 163.84 136.98, 155.41 145.04 C146.99 153.1, 134.27 158.45, 122.23 162.64 C110.18 166.83, 94.96 169.94, 83.15 170.19 C71.33 170.44, 62.03 168.98, 51.33 164.13 C40.62 159.28, 27.17 150.57, 18.91 141.1 C10.65 131.63, 4.34 118.74, 1.78 107.33 C-0.78 95.93, 1.7 83.68, 3.54 72.65 C5.39 61.63, 6.75 50.47, 12.85 41.2 C18.95 31.92, 29.97 23.76, 40.14 17.01 C50.32 10.26, 61.89 3.32, 73.92 0.71 C85.94 -1.9, 106.25 1.16, 112.29 1.35 C118.33 1.54, 110.8 -0.02, 110.17 1.85" stroke="none" stroke-width="0" fill="#b2f2bb"></path><path d="M21.61 31.49 C28.07 22.48, 41.32 15.32, 52.4 9.75 C63.48 4.17, 76.55 -1.24, 88.11 -1.93 C99.68 -2.63, 111.07 1.1, 121.78 5.57 C132.48 10.03, 143.59 15.99, 152.32 24.86 C161.04 33.73, 170.11 47.32, 174.13 58.78 C178.14 70.24, 177.39 82.33, 176.38 93.62 C175.38 104.9, 173.38 116.26, 168.09 126.51 C162.79 136.76, 154.66 148.01, 144.62 155.13 C134.58 162.24, 119.98 167.07, 107.87 169.2 C95.75 171.34, 83.48 170.31, 71.94 167.94 C60.41 165.58, 48.17 161.14, 38.63 155 C29.09 148.87, 21.25 140.91, 14.69 131.11 C8.14 121.31, 1.47 107.85, -0.68 96.2 C-2.84 84.55, -5.08 74.95, 1.76 61.19 C8.61 47.44, 30.13 22.87, 40.39 13.67 C50.66 4.47, 62.57 4.71, 63.36 6.01 M151.37 24.65 C160.46 31.36, 167.02 42.8, 171.17 53.76 C175.32 64.71, 176.53 79.4, 176.28 90.38 C176.03 101.35, 174.71 109.88, 169.68 119.61 C164.64 129.33, 154.94 140.84, 146.09 148.71 C137.23 156.58, 128.3 163.7, 116.57 166.83 C104.84 169.95, 87.89 169.33, 75.7 167.46 C63.51 165.6, 53.74 161.28, 43.42 155.65 C33.11 150.02, 20.57 142.72, 13.8 133.68 C7.03 124.64, 4.55 112.83, 2.82 101.41 C1.09 89.99, 1.23 76.83, 3.41 65.17 C5.6 53.51, 8.83 40.74, 15.92 31.46 C23 22.19, 34.98 14.93, 45.93 9.52 C56.88 4.11, 69.87 -0.23, 81.62 -0.97 C93.38 -1.71, 104.88 0.5, 116.46 5.09 C128.04 9.68, 145.13 23.13, 151.08 26.59 C157.03 30.04, 153.51 25.2, 152.17 25.82" stroke="#1e1e1e" stroke-width="4" fill="none"></path></g><g transform="translate(1131.6775352317215 238.54237020854998) rotate(0 46.13996124267578 37.5)"><text x="46.13996124267578" y="0" font-family="Virgil, Segoe UI Emoji" font-size="20px" fill="#1e1e1e" text-anchor="middle" style="white-space: pre;" direction="ltr" dominant-baseline="text-before-edge">Message </text><text x="46.13996124267578" y="25" font-family="Virgil, Segoe UI Emoji" font-size="20px" fill="#1e1e1e" text-anchor="middle" style="white-space: pre;" direction="ltr" dominant-baseline="text-before-edge">with all </text><text x="46.13996124267578" y="50" font-family="Virgil, Segoe UI Emoji" font-size="20px" fill="#1e1e1e" text-anchor="middle" style="white-space: pre;" direction="ltr" dominant-baseline="text-before-edge">data</text></g></svg>