<svg version="1.1" xmlns="http://www.w3.org/2000/svg" viewBox="0 0 893.0739669799805 462" width="1786.147933959961" height="924">
  <!-- svg-source:excalidraw -->
  
  <defs>
    <style class="style-fonts">
      @font-face {
        font-family: "Virgil";
        src: url("https://excalidraw.com/Virgil.woff2");
      }
      @font-face {
        font-family: "Cascadia";
        src: url("https://excalidraw.com/Cascadia.woff2");
      }
      @font-face {
        font-family: "Assistant";
        src: url("https://excalidraw.com/Assistant-Regular.woff2");
      }
    </style>
    
  </defs>
  <g stroke-linecap="round" transform="translate(258.57396697998047 10) rotate(0 136.5 220)"><path d="M32 0 C76.5 5.03, 125.42 4.75, 241 0 C266.85 4.81, 272.59 8.35, 273 32 C272.16 133.87, 275.79 232.58, 273 408 C270.84 434.19, 264.36 445.4, 241 440 C167.34 443.02, 91.28 442.54, 32 440 C5.93 435.16, -2.7 434.65, 0 408 C7.38 294.86, 5.72 177.13, 0 32 C-1.06 7.22, 7.26 -1.11, 32 0" stroke="none" stroke-width="0" fill="#a5d8ff"></path><path d="M32 0 C97.02 2.09, 165.16 1.82, 241 0 M32 0 C115.05 -1.57, 197.8 1.12, 241 0 M241 0 C258.63 2.96, 272.93 9.87, 273 32 M241 0 C258.56 1.98, 277.1 8.4, 273 32 M273 32 C269.76 179.49, 268.52 328.77, 273 408 M273 32 C270.23 115.59, 268.85 199.06, 273 408 M273 408 C274.14 428, 263.35 436.32, 241 440 M273 408 C273.18 430.03, 258.79 443.24, 241 440 M241 440 C188.76 434.32, 139.18 437.33, 32 440 M241 440 C166.83 441.6, 93.03 441.35, 32 440 M32 440 C10.2 440.65, 2.3 426.23, 0 408 M32 440 C11.73 439.3, -0.32 432.46, 0 408 M0 408 C-5.82 329.35, -6.59 251.71, 0 32 M0 408 C2.19 284.07, 2.66 161.44, 0 32 M0 32 C-0.31 9.65, 9.48 3.42, 32 0 M0 32 C2.73 10.08, 7.37 0.65, 32 0" stroke="#1971c2" stroke-width="4" fill="none"></path></g><g stroke-linecap="round" transform="translate(306.07396697998047 170) rotate(0 95 122)"><path d="M32 0 C62.75 -2.33, 96.43 1.99, 158 0 C179.09 4.67, 187.35 10.97, 190 32 C193.79 80.82, 191.85 129.9, 190 212 C185.95 233.5, 176.43 240.69, 158 244 C119.18 246.79, 79.79 238.07, 32 244 C6.23 247.42, 3.45 228.74, 0 212 C2.08 157.06, -0.42 110.44, 0 32 C1.48 11.6, 9.56 3.19, 32 0" stroke="none" stroke-width="0" fill="#e9ecef"></path><path d="M32 0 C58.54 0.16, 86.34 -0.95, 158 0 M32 0 C80.87 -0.3, 131.51 -1.78, 158 0 M158 0 C179.06 2.57, 193.71 10.3, 190 32 M158 0 C177.98 2.87, 186.26 6.47, 190 32 M190 32 C184.48 78.85, 183.98 122.78, 190 212 M190 32 C191.99 98.03, 188.85 169.14, 190 212 M190 212 C191.98 231.24, 179.25 242.51, 158 244 M190 212 C193.08 236.97, 179.8 248.45, 158 244 M158 244 C123.61 244.11, 91.11 239.69, 32 244 M158 244 C107.51 242.48, 55.86 242.97, 32 244 M32 244 C9.83 246.75, -3.79 235.38, 0 212 M32 244 C12.14 248.5, -0.62 231.78, 0 212 M0 212 C-7.16 161.02, -0.6 106.3, 0 32 M0 212 C-3.47 155.02, -2.75 98.36, 0 32 M0 32 C0.29 10.53, 12.12 0.41, 32 0 M0 32 C0.94 7.01, 14.02 1.37, 32 0" stroke="#ffffff" stroke-width="4" fill="none"></path></g><g transform="translate(678.5739669799805 202) rotate(0 28.00798797607422 22.5)"><text x="0" y="0" font-family="Virgil, Segoe UI Emoji" font-size="36px" fill="#ffffff" text-anchor="start" style="white-space: pre;" direction="ltr" dominant-baseline="text-before-edge">gdf</text></g><g transform="translate(310.51200103759766 32.5) rotate(0 84.57396697998047 35)"><text x="0" y="0" font-family="Virgil, Segoe UI Emoji" font-size="28px" fill="#1e1e1e" text-anchor="start" style="white-space: pre;" direction="ltr" dominant-baseline="text-before-edge">ID = 1</text><text x="0" y="35" font-family="Virgil, Segoe UI Emoji" font-size="28px" fill="#1e1e1e" text-anchor="start" style="white-space: pre;" direction="ltr" dominant-baseline="text-before-edge">time=01/01/11</text></g><g transform="translate(317.6219940185547 204.5) rotate(0 79.64596557617188 52.5)"><text x="0" y="0" font-family="Virgil, Segoe UI Emoji" font-size="28px" fill="#1e1e1e" text-anchor="start" style="white-space: pre;" direction="ltr" dominant-baseline="text-before-edge">{</text><text x="0" y="35" font-family="Virgil, Segoe UI Emoji" font-size="28px" fill="#1e1e1e" text-anchor="start" style="white-space: pre;" direction="ltr" dominant-baseline="text-before-edge">name=David</text><text x="0" y="70" font-family="Virgil, Segoe UI Emoji" font-size="28px" fill="#1e1e1e" text-anchor="start" style="white-space: pre;" direction="ltr" dominant-baseline="text-before-edge">}</text></g><g stroke-linecap="round" transform="translate(610.0739669799805 12) rotate(0 136.5 220)"><path d="M32 0 C109.4 -2.24, 189.99 -0.23, 241 0 C261.4 0.63, 269.9 5.2, 273 32 C272.89 162.65, 277.95 288.2, 273 408 C271.89 428.07, 261.58 438, 241 440 C188.13 441.84, 141.13 440.83, 32 440 C14.75 441.23, 3.64 427.88, 0 408 C-4.37 331.24, -0.82 257.39, 0 32 C0.84 14.33, 11.24 -5.46, 32 0" stroke="none" stroke-width="0" fill="#a5d8ff"></path><path d="M32 0 C77.63 1.55, 131.8 -2.12, 241 0 M32 0 C95.81 2.13, 159.55 0.23, 241 0 M241 0 C266.16 0.45, 269.67 8.53, 273 32 M241 0 C262.02 1.65, 277.39 8.74, 273 32 M273 32 C269.71 171.22, 269.72 305.54, 273 408 M273 32 C268.11 152.79, 269.91 272.57, 273 408 M273 408 C271.31 431.2, 260.64 442.9, 241 440 M273 408 C277.58 431.97, 260.55 437.31, 241 440 M241 440 C185.68 443.68, 136.13 441.06, 32 440 M241 440 C167.25 443.19, 93.81 441.44, 32 440 M32 440 C10.45 442.1, -2.17 428.76, 0 408 M32 440 C8.11 440.91, -1.7 427.94, 0 408 M0 408 C-1.9 304.61, -1.02 204.45, 0 32 M0 408 C4.59 260.44, 4.49 111.39, 0 32 M0 32 C3.58 11.35, 14.14 2.8, 32 0 M0 32 C-3.74 12.54, 7.93 1.39, 32 0" stroke="#1971c2" stroke-width="4" fill="none"></path></g><g stroke-linecap="round" transform="translate(659.5739669799805 186) rotate(0 95 115.5)"><path d="M32 0 C82.61 2.64, 121.91 -0.01, 158 0 C176.23 -5.47, 192.44 13.07, 190 32 C189.72 90.12, 184.97 154, 190 199 C189.24 218.33, 175.49 229.95, 158 231 C107.56 226.41, 68.41 230.9, 32 231 C14.31 229.54, -5.42 221.24, 0 199 C4.94 162.97, 5.43 123.34, 0 32 C0.57 5.21, 8.39 0.48, 32 0" stroke="none" stroke-width="0" fill="#e9ecef"></path><path d="M32 0 C77.8 -2.83, 118.8 -5.98, 158 0 M32 0 C66.17 -2.55, 104.49 -1.76, 158 0 M158 0 C176.01 -2.13, 189.73 12.1, 190 32 M158 0 C183.72 -1.93, 193.03 7.3, 190 32 M190 32 C190.16 64.01, 190.8 97.73, 190 199 M190 32 C188.72 71.39, 186.5 107.81, 190 199 M190 199 C188.31 223.24, 183.32 233.29, 158 231 M190 199 C188.21 217.65, 177.25 232.73, 158 231 M158 231 C120.1 233.77, 80.62 234.01, 32 231 M158 231 C109.95 229.07, 60.68 232.07, 32 231 M32 231 C8.5 230.43, -2.23 221.13, 0 199 M32 231 C8.96 229.6, -1.3 223.03, 0 199 M0 199 C1.66 146.06, 2.66 86.78, 0 32 M0 199 C-0.86 131.96, 0.05 68.67, 0 32 M0 32 C3.47 13.46, 7.41 1.63, 32 0 M0 32 C-2.74 12.06, 13.75 -0.64, 32 0" stroke="#ffffff" stroke-width="4" fill="none"></path></g><g transform="translate(676.9280014038086 223.5) rotate(0 76.91596984863281 52.5)"><text x="0" y="0" font-family="Virgil, Segoe UI Emoji" font-size="28px" fill="#1e1e1e" text-anchor="start" style="white-space: pre;" direction="ltr" dominant-baseline="text-before-edge">{</text><text x="0" y="35" font-family="Virgil, Segoe UI Emoji" font-size="28px" fill="#1e1e1e" text-anchor="start" style="white-space: pre;" direction="ltr" dominant-baseline="text-before-edge">name=Matt</text><text x="0" y="70" font-family="Virgil, Segoe UI Emoji" font-size="28px" fill="#1e1e1e" text-anchor="start" style="white-space: pre;" direction="ltr" dominant-baseline="text-before-edge">}</text></g><g transform="translate(656 39) rotate(0 84.57396697998047 35)"><text x="0" y="0" font-family="Virgil, Segoe UI Emoji" font-size="28px" fill="#1e1e1e" text-anchor="start" style="white-space: pre;" direction="ltr" dominant-baseline="text-before-edge">ID = 2</text><text x="0" y="35" font-family="Virgil, Segoe UI Emoji" font-size="28px" fill="#1e1e1e" text-anchor="start" style="white-space: pre;" direction="ltr" dominant-baseline="text-before-edge">time=01/01/11</text></g><g transform="translate(10 126) rotate(0 56.95197296142578 17.5)"><text x="0" y="0" font-family="Virgil, Segoe UI Emoji" font-size="28px" fill="#1e1e1e" text-anchor="start" style="white-space: pre;" direction="ltr" dominant-baseline="text-before-edge">Envelope</text></g><g stroke-linecap="round"><g transform="translate(137.57396697998047 138.95932907288943) rotate(0 47 -2.3234820410164048)"><path d="M0.88 -1.13 C16.53 -1.6, 77.15 -3.25, 92.23 -3.98 M-2.09 -4.21 C14.62 -5.47, 81.2 -8.86, 97.68 -8.64" stroke="#ffffff" stroke-width="4" fill="none"></path></g><g transform="translate(137.57396697998047 138.95932907288943) rotate(0 47 -2.3234820410164048)"><path d="M73.59 -0.78 C80.51 -3.65, 85.01 -5.47, 99.41 -8.66 M74.16 0.55 C82.42 -1.95, 91.27 -6.06, 97.86 -8.49" stroke="#ffffff" stroke-width="4" fill="none"></path></g><g transform="translate(137.57396697998047 138.95932907288943) rotate(0 47 -2.3234820410164048)"><path d="M73.18 -17.88 C80.12 -16.64, 84.73 -14.35, 99.41 -8.66 M73.75 -16.54 C82.23 -13.07, 91.23 -11.19, 97.86 -8.49" stroke="#ffffff" stroke-width="4" fill="none"></path></g></g><mask></mask><g stroke-linecap="round"><g transform="translate(131.57396697998047 158) rotate(0 57 2.5)"><path d="M-1.71 -1.97 C17.37 -1.39, 93.18 4.37, 112.88 5.5 M2.56 3.14 C21.31 2.62, 91.13 -0.01, 110.04 0.76" stroke="#1e1e1e" stroke-width="4" fill="none"></path></g><g transform="translate(131.57396697998047 158) rotate(0 57 2.5)"><path d="M85.16 8.57 C92.57 9.19, 97.76 3.39, 110.37 0.15 M86.16 9.69 C94.72 6.07, 104.27 3.11, 109.7 1.74" stroke="#1e1e1e" stroke-width="4" fill="none"></path></g><g transform="translate(131.57396697998047 158) rotate(0 57 2.5)"><path d="M85.12 -8.53 C92.66 -3.75, 97.87 -5.39, 110.37 0.15 M86.12 -7.41 C94.56 -4.58, 104.12 -1.09, 109.7 1.74" stroke="#1e1e1e" stroke-width="4" fill="none"></path></g></g><mask></mask><g transform="translate(22.621994018554688 288.5) rotate(0 57.595985412597656 17.5)"><text x="0" y="0" font-family="Virgil, Segoe UI Emoji" font-size="28px" fill="#1e1e1e" text-anchor="start" style="white-space: pre;" direction="ltr" dominant-baseline="text-before-edge">Message</text></g><g stroke-linecap="round"><g transform="translate(151.98694648891615 319.23387586921444) rotate(0 81 3.5)"><path d="M-0.26 -0.93 C26.78 0.09, 136.83 4.84, 163.42 6.43 M-3.84 -3.9 C22.84 -2.48, 133.88 8.44, 161.96 9.75" stroke="#1e1e1e" stroke-width="4" fill="none"></path></g><g transform="translate(151.98694648891615 319.23387586921444) rotate(0 81 3.5)"><path d="M137.22 17.52 C145.74 12.26, 155.59 12.33, 162.35 9.18 M137.38 17.24 C144.25 15.08, 151.88 13.29, 161.43 9.6" stroke="#1e1e1e" stroke-width="4" fill="none"></path></g><g transform="translate(151.98694648891615 319.23387586921444) rotate(0 81 3.5)"><path d="M138.51 0.47 C146.61 1.06, 156.01 7, 162.35 9.18 M138.67 0.19 C145.29 3.19, 152.53 6.57, 161.43 9.6" stroke="#1e1e1e" stroke-width="4" fill="none"></path></g></g><mask></mask></svg>