<svg version="1.1" xmlns="http://www.w3.org/2000/svg" viewBox="0 0 1268.6445017670248 680.5428337914858" width="2537.2890035340497" height="1361.0856675829716">
  <!-- svg-source:excalidraw -->
  
  <defs>
    <style class="style-fonts">
      @font-face {
        font-family: "Virgil";
        src: url("https://excalidraw.com/Virgil.woff2");
      }
      @font-face {
        font-family: "Cascadia";
        src: url("https://excalidraw.com/Cascadia.woff2");
      }
      @font-face {
        font-family: "Assistant";
        src: url("https://excalidraw.com/Assistant-Regular.woff2");
      }
    </style>
    
  </defs>
  <g stroke-linecap="round"><g transform="translate(431.13760790536435 11.550784844532586) rotate(0 73.75 1.25)"><path d="M-2.4 -1.55 C21.92 -1.55, 119.77 0.49, 144.76 1.39 M1.49 3.78 C26.74 4.04, 125.64 5.21, 149.68 4.42" stroke="#1e1e1e" stroke-width="4" fill="none"></path></g></g><mask></mask><g stroke-linecap="round"><g transform="translate(430.352795765275 82.22619691702596) rotate(0 79.375 -1.25)"><path d="M-2.74 -1.11 C24.13 -1.04, 132 -0.91, 158.79 -1.15 M0.98 -4.18 C27.69 -4.81, 130.76 -6.22, 156.57 -5.42" stroke="#1e1e1e" stroke-width="4" fill="none"></path></g></g><mask></mask><g stroke-linecap="round"><g transform="translate(423.2660917853045 144.31170017041256) rotate(0 81.875 -1.25)"><path d="M0.04 1.35 C27.67 1.12, 135.77 -1.72, 163.03 -2.51 M-3.38 -0.38 C24.06 -0.04, 132.88 1.18, 160.41 1.11" stroke="#1e1e1e" stroke-width="4" fill="none"></path></g></g><mask></mask><g stroke-linecap="round"><g transform="translate(421.066229527687 270.9220762086587) rotate(0 80 0)"><path d="M-0.72 -0.01 C25.92 -0.39, 132.72 -1.34, 159.88 -0.92 M4.09 -2.49 C30.34 -2.59, 131.32 2.08, 157.57 2.2" stroke="#1e1e1e" stroke-width="4" fill="none"></path></g></g><mask></mask><g stroke-linecap="round"><g transform="translate(414.685692397039 15.656673730341367) rotate(0 -2.5 113.125)"><path d="M-0.12 -0.92 C-0.47 37.2, -2.01 190.82, -2.79 228.7 M-3.64 -3.89 C-4.09 33.49, -3.35 186.12, -3.83 225.02" stroke="#1e1e1e" stroke-width="4" fill="none"></path></g></g><mask></mask><g stroke-linecap="round"><g transform="translate(596.2291341706932 37.980138618536216) rotate(0 -2.5 113.125)"><path d="M2.21 2.45 C1.43 40.33, -3.41 188.66, -4.82 226.35 M-0.03 1.32 C-1.16 39.77, -5.51 192.86, -6.95 230.04" stroke="#1e1e1e" stroke-width="4" fill="none"></path></g></g><mask></mask><g transform="translate(434.88760790536435 25.300784844532586) rotate(0 73.9759750366211 17.5)"><text x="0" y="0" font-family="Virgil, Segoe UI Emoji" font-size="28px" fill="#1971c2" text-anchor="start" style="white-space: pre;" direction="ltr" dominant-baseline="text-before-edge">User table</text></g><g transform="translate(454.5476497144464 101.55078484453259) rotate(0 24.559982299804688 12.5)"><text x="0" y="0" font-family="Virgil, Segoe UI Emoji" font-size="20px" fill="#1e1e1e" text-anchor="start" style="white-space: pre;" direction="ltr" dominant-baseline="text-before-edge">Email</text></g><g stroke-linecap="round"><g transform="translate(420.441229527687 208.12893011132826) rotate(0 81.875 -1.25)"><path d="M0.85 -1.4 C28.74 -1.79, 138.7 0.26, 166.08 0.02 M-2.13 4.02 C25.7 4.12, 137.4 -2.97, 165.1 -3.62" stroke="#1e1e1e" stroke-width="4" fill="none"></path></g></g><mask></mask><g transform="translate(456.57762560555966 159.0507848445326) rotate(0 43.56996154785156 12.5)"><text x="0" y="0" font-family="Virgil, Segoe UI Emoji" font-size="20px" fill="#1e1e1e" text-anchor="start" style="white-space: pre;" direction="ltr" dominant-baseline="text-before-edge">Address </text></g><g transform="translate(446.3176463575128 230.3007848445326) rotate(0 44.949951171875 12.5)"><text x="0" y="0" font-family="Virgil, Segoe UI Emoji" font-size="20px" fill="#1e1e1e" text-anchor="start" style="white-space: pre;" direction="ltr" dominant-baseline="text-before-edge">Postcode</text></g><g stroke-linecap="round"><g transform="translate(826.2206230009342 20.53079433322216) rotate(0 73.75 1.25)"><path d="M-0.58 -2.12 C23.67 -2.33, 121.09 -1.19, 145.62 -0.22 M4.3 2.9 C29.44 2.84, 127.67 2.62, 151 1.93" stroke="#1e1e1e" stroke-width="4" fill="none"></path></g></g><mask></mask><g stroke-linecap="round"><g transform="translate(829.1858108608449 98.7062064057153) rotate(0 79.375 -1.25)"><path d="M-1.88 -2.72 C24.52 -2.59, 130.68 -1.56, 157.84 -1.34 M2.29 1.97 C28.29 1.44, 128.73 -4.33, 155.1 -5.72" stroke="#1e1e1e" stroke-width="4" fill="none"></path></g></g><mask></mask><g stroke-linecap="round"><g transform="translate(822.0991068808744 160.79170965910214) rotate(0 81.875 -1.25)"><path d="M-0.91 1.16 C27.08 1.37, 139.08 -0.54, 166.07 -1.43 M3.78 -0.68 C31.78 -1.08, 137.99 -5.65, 165.09 -5.86" stroke="#1e1e1e" stroke-width="4" fill="none"></path></g></g><mask></mask><g stroke-linecap="round"><g transform="translate(819.8992446232605 287.4020856973483) rotate(0 80 0)"><path d="M2.32 1.07 C28.69 0.59, 131.45 -1.34, 157.29 -1.68 M0.13 -0.82 C27.4 -1.07, 135.12 0.63, 162.22 1.04" stroke="#1e1e1e" stroke-width="4" fill="none"></path></g></g><mask></mask><g stroke-linecap="round"><g transform="translate(813.5187074926089 32.13668321903094) rotate(0 -2.5 113.125)"><path d="M-2.71 -1.68 C-4.38 35.69, -7.03 187.18, -7.68 225.29 M1.01 3.58 C-0.04 41.25, -1.02 190.57, -2.73 228.39" stroke="#1e1e1e" stroke-width="4" fill="none"></path></g></g><mask></mask><g stroke-linecap="round"><g transform="translate(995.0621492662631 54.46014810722579) rotate(0 -2.5 113.125)"><path d="M-2.68 -0.96 C-3.32 37.15, -6.6 189.35, -6.59 226.98 M1.07 -3.96 C1.59 33.41, -0.35 183.85, -1.05 222.37" stroke="#1e1e1e" stroke-width="4" fill="none"></path></g></g><mask></mask><g transform="translate(839.9706230009342 25.53079433322216) rotate(0 63.1259765625 35)"><text x="0" y="0" font-family="Virgil, Segoe UI Emoji" font-size="28px" fill="#1971c2" text-anchor="start" style="white-space: pre;" direction="ltr" dominant-baseline="text-before-edge">Payment </text><text x="0" y="35" font-family="Virgil, Segoe UI Emoji" font-size="28px" fill="#1971c2" text-anchor="start" style="white-space: pre;" direction="ltr" dominant-baseline="text-before-edge">table</text></g><g transform="translate(853.3806648100162 118.03079433322216) rotate(0 24.559982299804688 12.5)"><text x="0" y="0" font-family="Virgil, Segoe UI Emoji" font-size="20px" fill="#1e1e1e" text-anchor="start" style="white-space: pre;" direction="ltr" dominant-baseline="text-before-edge">Email</text></g><g stroke-linecap="round"><g transform="translate(819.2742446232605 224.60893960001783) rotate(0 81.875 -1.25)"><path d="M-1.94 -0.15 C25.18 0.09, 137.03 0.68, 165.08 -0.04 M2.21 -2.7 C28.85 -3.07, 136.26 -3.77, 163.56 -3.72" stroke="#1e1e1e" stroke-width="4" fill="none"></path></g></g><mask></mask><g transform="translate(855.4106407011295 175.53079433322216) rotate(0 40.58997344970703 12.5)"><text x="0" y="0" font-family="Virgil, Segoe UI Emoji" font-size="20px" fill="#1e1e1e" text-anchor="start" style="white-space: pre;" direction="ltr" dominant-baseline="text-before-edge">User ID</text></g><g mask="url(#mask-j2ekKDYCpWQSc-Jlak9zX)" stroke-linecap="round"><g transform="translate(825.9821118688578 184.2928337914858) rotate(0 -110 -61.25)"><path d="M-1.02 -1.88 C-38.36 -22.47, -185.5 -101.64, -222.07 -121.62 M3.62 3.28 C-33.02 -18.38, -179.1 -105.9, -216.8 -126.15" stroke="#1971c2" stroke-width="4" fill="none"></path></g><g transform="translate(825.9821118688578 184.2928337914858) rotate(0 -110 -61.25)"><path d="M-193.5 -123.39 C-200.68 -123.91, -209.88 -124.59, -216.46 -125.28 M-192.12 -121.99 C-201.32 -123.81, -209.1 -124.03, -217.13 -125.5" stroke="#1971c2" stroke-width="4" fill="none"></path></g><g transform="translate(825.9821118688578 184.2928337914858) rotate(0 -110 -61.25)"><path d="M-201.99 -108.54 C-206.14 -114.53, -212.19 -120.71, -216.46 -125.28 M-200.61 -107.15 C-206.83 -114.25, -211.58 -119.76, -217.13 -125.5" stroke="#1971c2" stroke-width="4" fill="none"></path></g></g><mask id="mask-j2ekKDYCpWQSc-Jlak9zX"><rect x="0" y="0" fill="#fff" width="1145.9821118688578" height="406.7928337914858"></rect><rect x="641.8661450719828" y="105.54283379148592" fill="#000" width="148.23193359375" height="35" opacity="1"></rect></mask><g transform="translate(641.8661450719828 105.54283379148592) rotate(0 74.88975973825927 17.313052231073414)"><text x="74.115966796875" y="0" font-family="Virgil, Segoe UI Emoji" font-size="28px" fill="#1971c2" text-anchor="middle" style="white-space: pre;" direction="ltr" dominant-baseline="text-before-edge">References</text></g><g stroke-linecap="round" transform="translate(325.1071118688578 438.1678337914858) rotate(0 65.875 59.875)"><path d="M27.49 12.26 C34.62 6.62, 46.53 3.24, 56.83 1.58 C67.13 -0.09, 79.58 -0.9, 89.3 2.28 C99.01 5.47, 108.71 13.66, 115.14 20.69 C121.58 27.72, 125.71 35.61, 127.92 44.46 C130.13 53.32, 130.06 64.68, 128.42 73.82 C126.78 82.97, 124.55 92.66, 118.07 99.33 C111.59 106, 99.46 110.69, 89.54 113.83 C79.62 116.98, 68.62 119.06, 58.56 118.21 C48.5 117.37, 37.49 113.5, 29.17 108.76 C20.85 104.03, 13.42 97.99, 8.64 89.82 C3.86 81.65, 0.62 69, 0.49 59.72 C0.36 50.44, 2.34 42.84, 7.86 34.15 C13.39 25.46, 28.4 12.01, 33.65 7.57 C38.89 3.13, 39.2 6.35, 39.31 7.5 M11.08 27.83 C15.76 19.65, 25.88 8.38, 35.56 3.91 C45.25 -0.57, 58.75 0.07, 69.19 0.99 C79.63 1.9, 89.15 5.27, 98.18 9.4 C107.21 13.54, 117.65 18.81, 123.39 25.79 C129.12 32.77, 131.59 42.02, 132.58 51.3 C133.57 60.58, 133.06 72.44, 129.32 81.47 C125.59 90.5, 118.37 98.98, 110.18 105.48 C101.98 111.98, 90.78 118.28, 80.16 120.47 C69.53 122.66, 56.37 120.92, 46.42 118.63 C36.46 116.33, 27.34 113.17, 20.44 106.7 C13.54 100.24, 8.02 89, 5.03 79.83 C2.04 70.66, 0.94 60.49, 2.52 51.68 C4.1 42.88, 13.17 31.22, 14.5 27.01 C15.83 22.81, 9.91 26.53, 10.5 26.46" stroke="none" stroke-width="0" fill="#b2f2bb"></path><path d="M34.17 6.02 C42.51 0.87, 55.9 -1.98, 66.43 -1.77 C76.97 -1.57, 88.12 2.45, 97.37 7.25 C106.62 12.04, 116.38 19.35, 121.92 27 C127.46 34.65, 130.05 43.88, 130.61 53.16 C131.17 62.43, 129 74.27, 125.27 82.65 C121.55 91.03, 115.68 97.46, 108.25 103.44 C100.82 109.42, 90.37 115.84, 80.69 118.52 C71.02 121.2, 60.34 121.64, 50.21 119.54 C40.08 117.45, 27.73 112.31, 19.93 105.95 C12.13 99.6, 6.45 90.48, 3.43 81.41 C0.41 72.34, 0.48 60.59, 1.81 51.53 C3.13 42.47, 2.75 35.82, 11.37 27.06 C19.98 18.3, 42.82 3.38, 53.49 -1.02 C64.15 -5.43, 74.54 -0.36, 75.34 0.64 M62.2 -2.48 C71.43 -3.85, 82.71 1.01, 91.28 5.43 C99.85 9.86, 107.18 17.57, 113.62 24.06 C120.06 30.55, 127.43 35.65, 129.91 44.38 C132.39 53.1, 130.7 67.07, 128.51 76.42 C126.32 85.78, 123.4 93.65, 116.76 100.48 C110.11 107.31, 98.99 114.51, 88.63 117.4 C78.27 120.29, 65.06 119.42, 54.59 117.8 C44.13 116.18, 33.71 112.57, 25.83 107.68 C17.95 102.79, 11.63 96.87, 7.3 88.46 C2.96 80.05, 0.09 66.4, -0.18 57.22 C-0.45 48.04, 0.33 41.24, 5.7 33.39 C11.06 25.54, 22.67 15.91, 32 10.14 C41.33 4.37, 57.47 0.23, 61.68 -1.22 C65.88 -2.67, 57.14 -0.16, 57.25 1.45" stroke="#1e1e1e" stroke-width="4" fill="none"></path></g><g transform="translate(350.8114868378816 485.70481526794117) rotate(0 40.0899658203125 12.5)"><text x="40.0899658203125" y="0" font-family="Virgil, Segoe UI Emoji" font-size="20px" fill="#1e1e1e" text-anchor="middle" style="white-space: pre;" direction="ltr" dominant-baseline="text-before-edge">Payment</text></g><g stroke-linecap="round" transform="translate(115.10711186885783 430.6678337914858) rotate(0 65.875 59.875)"><path d="M57.48 2.24 C66.7 0.71, 79.05 1.76, 88.67 4.89 C98.29 8.03, 108.13 14.36, 115.2 21.05 C122.27 27.74, 128.57 35.73, 131.09 45.03 C133.6 54.32, 133.16 67.65, 130.3 76.82 C127.44 85.98, 121.22 93.17, 113.92 100.03 C106.62 106.88, 95.86 114.72, 86.51 117.94 C77.17 121.17, 67.95 120.7, 57.83 119.4 C47.71 118.1, 34.54 115.79, 25.8 110.17 C17.05 104.55, 9.77 94.54, 5.37 85.69 C0.96 76.84, -1.06 66.26, -0.63 57.05 C-0.2 47.83, 3.07 38.56, 7.92 30.4 C12.77 22.24, 15.96 12.88, 28.47 8.08 C40.97 3.28, 70.33 0.91, 82.93 1.59 C95.53 2.27, 104.34 10.81, 104.05 12.16 M14.88 23.81 C20.04 16.48, 31.42 8.28, 40.92 4.66 C50.42 1.05, 61.41 0.97, 71.89 2.1 C82.37 3.24, 95.31 6.86, 103.81 11.47 C112.32 16.07, 118.7 21.71, 122.92 29.73 C127.13 37.76, 128.61 50.02, 129.09 59.64 C129.58 69.25, 129.59 79.71, 125.84 87.42 C122.09 95.14, 114.36 101.05, 106.6 105.94 C98.83 110.84, 89.52 114.93, 79.23 116.79 C68.94 118.65, 54.53 119.76, 44.84 117.11 C35.16 114.45, 28.18 107.98, 21.1 100.85 C14.03 93.71, 5.7 82.78, 2.41 74.29 C-0.88 65.8, -0.86 58.17, 1.37 49.9 C3.6 41.64, 13.14 29.46, 15.79 24.69 C18.44 19.92, 16.64 21.05, 17.26 21.27" stroke="none" stroke-width="0" fill="#b2f2bb"></path><path d="M39.2 4.74 C47.24 0.2, 58.38 0.57, 68.16 1.43 C77.93 2.3, 88.9 5.7, 97.84 9.93 C106.79 14.16, 115.97 19.57, 121.83 26.8 C127.68 34.04, 132.1 43.61, 132.97 53.37 C133.84 63.12, 131.26 76.76, 127.04 85.32 C122.83 93.87, 115.43 99.26, 107.69 104.71 C99.95 110.17, 90.39 116.16, 80.59 118.03 C70.79 119.9, 59.3 118.52, 48.9 115.91 C38.5 113.3, 25.8 108.81, 18.19 102.38 C10.58 95.94, 6.1 86.33, 3.24 77.32 C0.38 68.31, -0.81 57.21, 1.03 48.31 C2.88 39.4, 6.54 31.73, 14.32 23.89 C22.1 16.05, 40.58 4.94, 47.71 1.28 C54.84 -2.39, 56.5 0.51, 57.12 1.89 M48.6 2.07 C58.2 -1.46, 70.13 -3.43, 79.76 -1.18 C89.39 1.07, 98.82 8.81, 106.37 15.58 C113.92 22.35, 121.09 31.01, 125.08 39.47 C129.08 47.92, 131.32 57.3, 130.34 66.3 C129.36 75.31, 124.51 86.19, 119.18 93.51 C113.85 100.83, 106.61 105.74, 98.34 110.23 C90.08 114.71, 80.09 119.7, 69.57 120.42 C59.06 121.13, 44.74 118.33, 35.25 114.52 C25.77 110.71, 18 104.74, 12.66 97.56 C7.32 90.37, 5.15 81.41, 3.2 71.42 C1.26 61.43, -2.32 47.11, 0.97 37.62 C4.26 28.14, 15.27 20.21, 22.95 14.53 C30.62 8.84, 42.76 5.53, 47.02 3.51 C51.29 1.49, 48.17 1.27, 48.55 2.42" stroke="#1e1e1e" stroke-width="4" fill="none"></path></g><g transform="translate(158.56147157909254 478.20481526794117) rotate(0 22.339981079101562 12.5)"><text x="22.339981079101562" y="0" font-family="Virgil, Segoe UI Emoji" font-size="20px" fill="#1e1e1e" text-anchor="middle" style="white-space: pre;" direction="ltr" dominant-baseline="text-before-edge">User</text></g><g stroke-linecap="round" transform="translate(536.6071118688578 493.0428337914858) rotate(0 99.375 88.75)"><path d="M7.86 8.16 C7.86 8.16, 7.86 8.16, 7.86 8.16 M7.86 8.16 C7.86 8.16, 7.86 8.16, 7.86 8.16 M0.91 40.54 C8.13 29.57, 21.32 20.37, 36.34 -0.21 M0.91 40.54 C12 27.02, 24.52 14.4, 36.34 -0.21 M1.18 64.62 C14.86 50.56, 29.22 34.34, 57.6 -0.28 M1.18 64.62 C16.22 50.64, 29.79 34.75, 57.6 -0.28 M0.79 89.46 C31.12 60.64, 56.97 20.3, 78.2 0.41 M0.79 89.46 C25.06 64.88, 49.74 37.2, 78.2 0.41 M1.05 113.54 C33.83 67.69, 71.87 29.46, 99.46 0.34 M1.05 113.54 C21.93 86.14, 44.52 60.26, 99.46 0.34 M0.66 138.38 C37.52 94.81, 72.83 54.91, 120.72 0.27 M0.66 138.38 C41.16 92.53, 83.93 40.56, 120.72 0.27 M2.9 160.2 C32.12 124.81, 58.27 90.31, 141.98 0.2 M2.9 160.2 C55.32 103, 105.61 46.26, 141.98 0.2 M13.01 172.96 C44.38 129.95, 82.04 96.58, 163.24 0.13 M13.01 172.96 C60.41 118.44, 108.55 60.85, 163.24 0.13 M30.33 177.42 C81.48 118.98, 134.36 57.27, 181.88 3.08 M30.33 177.42 C79.23 118.49, 126.52 64.65, 181.88 3.08 M50.93 178.1 C78.3 142.99, 110.94 106.43, 193.95 13.58 M50.93 178.1 C94.6 125.14, 141.08 70.46, 193.95 13.58 M72.19 178.03 C115.61 125.36, 154.66 75.73, 198.81 32.37 M72.19 178.03 C105.47 144.91, 133.93 108.27, 198.81 32.37 M93.45 177.96 C127.05 139.67, 163.08 96.88, 199.08 56.46 M93.45 177.96 C125.12 142.89, 155.54 106.48, 199.08 56.46 M114.71 177.9 C145.79 138.5, 176.78 101.71, 198.69 81.29 M114.71 177.9 C128.79 155.59, 147.36 136.16, 198.69 81.29 M135.97 177.83 C153.85 160.3, 176.32 135.33, 198.96 105.37 M135.97 177.83 C153.51 157.54, 169 139.32, 198.96 105.37 M157.23 177.76 C171.88 164.76, 182.36 157.97, 199.22 129.46 M157.23 177.76 C169.3 160.87, 186.31 148.4, 199.22 129.46 M179.81 176.18 C187.26 165.74, 193.48 162.15, 198.18 155.05 M179.81 176.18 C185.49 167.31, 193.06 157.72, 198.18 155.05" stroke="#b2f2bb" stroke-width="2" fill="none"></path><path d="M32 0 C72.04 -2.53, 107.6 1.67, 166.75 0 M32 0 C83.79 2.61, 138.88 0.19, 166.75 0 M166.75 0 C188.35 -0.88, 202.29 12.33, 198.75 32 M166.75 0 C188.69 -4.42, 194.47 11.56, 198.75 32 M198.75 32 C200.32 78.42, 196.74 114.36, 198.75 145.5 M198.75 32 C196.37 74.1, 195.67 113.34, 198.75 145.5 M198.75 145.5 C199.59 169.88, 190.82 178.64, 166.75 177.5 M198.75 145.5 C197.78 166.12, 190.1 174.77, 166.75 177.5 M166.75 177.5 C118.61 177.69, 69.96 180.73, 32 177.5 M166.75 177.5 C128.87 180.2, 91.18 180.12, 32 177.5 M32 177.5 C8.01 174.58, -3.7 165.22, 0 145.5 M32 177.5 C15.2 173.01, 3.07 168.72, 0 145.5 M0 145.5 C-0.42 104.45, -1.78 63.69, 0 32 M0 145.5 C-2.59 114.26, -2.24 79.28, 0 32 M0 32 C-3.56 13.19, 11.48 2.57, 32 0 M0 32 C3.22 15.21, 14.86 -0.49, 32 0" stroke="#1e1e1e" stroke-width="4" fill="none"></path></g><g transform="translate(548.300158438682 529.2928337914858) rotate(0 87.68195343017578 52.5)"><text x="87.68195343017578" y="0" font-family="Virgil, Segoe UI Emoji" font-size="28px" fill="#1e1e1e" text-anchor="middle" style="white-space: pre;" direction="ltr" dominant-baseline="text-before-edge">Email </text><text x="87.68195343017578" y="35" font-family="Virgil, Segoe UI Emoji" font-size="28px" fill="#1e1e1e" text-anchor="middle" style="white-space: pre;" direction="ltr" dominant-baseline="text-before-edge">confirmation </text><text x="87.68195343017578" y="70" font-family="Virgil, Segoe UI Emoji" font-size="28px" fill="#1e1e1e" text-anchor="middle" style="white-space: pre;" direction="ltr" dominant-baseline="text-before-edge">service</text></g><g mask="url(#mask-qix9KAI8eZryyLGCm3r90)" stroke-linecap="round"><g transform="translate(12.689180931747615 593.506687578977) rotate(0 233.75 -1.25)"><path d="M0.49 0.24 C78.49 -0.58, 390.38 -2.21, 468.59 -2.55 M-2.69 -2.09 C74.99 -1.21, 388.31 0.42, 466.94 1.04" stroke="#1971c2" stroke-width="4" fill="none"></path></g><g transform="translate(12.689180931747615 593.506687578977) rotate(0 233.75 -1.25)"><path d="M443.56 10.22 C450.82 8.29, 458.89 2.41, 467.84 0.17 M442.86 9.7 C451.37 6.65, 459.73 4.34, 466.22 1.01" stroke="#1971c2" stroke-width="4" fill="none"></path></g><g transform="translate(12.689180931747615 593.506687578977) rotate(0 233.75 -1.25)"><path d="M443.68 -6.88 C451.04 -3.33, 459.07 -3.73, 467.84 0.17 M442.97 -7.41 C451.32 -4.83, 459.65 -1.54, 466.22 1.01" stroke="#1971c2" stroke-width="4" fill="none"></path></g></g><mask id="mask-qix9KAI8eZryyLGCm3r90"><rect x="0" y="0" fill="#fff" width="580.1891809317476" height="696.006687578977"></rect><rect x="144.5892282339937" y="574.7566875789771" fill="#000" width="203.6999053955078" height="35" opacity="1"></rect></mask><g transform="translate(144.5892282339937 574.7566875789771) rotate(0 101.04847036156752 17.994808881543577)"><text x="101.8499526977539" y="0" font-family="Virgil, Segoe UI Emoji" font-size="28px" fill="#1971c2" text-anchor="middle" style="white-space: pre;" direction="ltr" dominant-baseline="text-before-edge">Events arriving</text></g><g mask="url(#mask-Ob_Q5brC0Apd5ge-PftAR)" stroke-linecap="round"><g transform="translate(648.0335942050442 488.0428337914858) rotate(0 -79.375 -95)"><path d="M0.69 1.4 C-26.2 -29.55, -134.55 -155.3, -161.27 -187.57 M-2.38 -0.3 C-28.43 -31.82, -129.64 -159.6, -156.24 -191.26" stroke="#1e1e1e" stroke-width="4" fill="none"></path></g><g transform="translate(648.0335942050442 488.0428337914858) rotate(0 -79.375 -95)"><path d="M-133.78 -180.22 C-139.43 -182.89, -149.21 -186.09, -155.98 -192.57 M-134.09 -177.61 C-141.83 -182.06, -148.97 -187.14, -155.74 -192.25" stroke="#1e1e1e" stroke-width="4" fill="none"></path></g><g transform="translate(648.0335942050442 488.0428337914858) rotate(0 -79.375 -95)"><path d="M-147.05 -169.44 C-148.63 -175.39, -154.4 -181.84, -155.98 -192.57 M-147.36 -166.82 C-150.77 -174.66, -153.64 -183.2, -155.74 -192.25" stroke="#1e1e1e" stroke-width="4" fill="none"></path></g></g><mask id="mask-Ob_Q5brC0Apd5ge-PftAR"><rect x="0" y="0" fill="#fff" width="906.7835942050442" height="778.0428337914858"></rect><rect x="501.3046131869778" y="375.5428337914859" fill="#000" width="134.7079620361328" height="35" opacity="1"></rect></mask><g transform="translate(501.3046131869778 375.5428337914859) rotate(0 66.4396746460352 17.57190947439517)"><text x="67.3539810180664" y="0" font-family="Virgil, Segoe UI Emoji" font-size="28px" fill="#1e1e1e" text-anchor="middle" style="white-space: pre;" direction="ltr" dominant-baseline="text-before-edge">Has table</text></g><g mask="url(#mask-DKkLPwXz9Q7CYsPBb-EIN)" stroke-linecap="round"><g transform="translate(650.3114748869448 482.4220148285841) rotate(0 86.25 -81.25)"><path d="M1.69 0.09 C20.87 -18.88, 84.63 -86.38, 113.22 -113.67 C141.8 -140.96, 163.67 -155.26, 173.2 -163.63 M-0.84 -2.33 C18.14 -22.1, 82.24 -91.15, 111.01 -117.62 C139.77 -144.09, 161.97 -153.73, 171.78 -161.14" stroke="#1e1e1e" stroke-width="4" fill="none"></path></g><g transform="translate(650.3114748869448 482.4220148285841) rotate(0 86.25 -81.25)"><path d="M156.64 -141.26 C161.51 -145.52, 162.86 -152.15, 170.76 -162.2 M156.63 -140.88 C162.92 -148.95, 168.5 -156.67, 171.95 -160.82" stroke="#1e1e1e" stroke-width="4" fill="none"></path></g><g transform="translate(650.3114748869448 482.4220148285841) rotate(0 86.25 -81.25)"><path d="M147.44 -155.68 C154.48 -156.62, 157.97 -159.89, 170.76 -162.2 M147.44 -155.29 C157.12 -158.08, 166.08 -160.49, 171.95 -160.82" stroke="#1e1e1e" stroke-width="4" fill="none"></path></g></g><mask id="mask-DKkLPwXz9Q7CYsPBb-EIN"><rect x="0" y="0" fill="#fff" width="922.8114748869448" height="744.9220148285841"></rect><rect x="696.1281308507914" y="349.2928337914857" fill="#000" width="134.7079620361328" height="35" opacity="1"></rect></mask><g transform="translate(696.1281308507914 349.2928337914857) rotate(0 40.366568339689366 51.35884750895207)"><text x="67.3539810180664" y="0" font-family="Virgil, Segoe UI Emoji" font-size="28px" fill="#1e1e1e" text-anchor="middle" style="white-space: pre;" direction="ltr" dominant-baseline="text-before-edge">Has table</text></g><g stroke-linecap="round"><g transform="translate(1091.1740122664523 252.64716164875142) rotate(0 73.75 1.25)"><path d="M-0.79 2.25 C23.77 2.49, 120.62 2.24, 145.49 2.14 M3.97 1.01 C29.59 1.63, 126.95 5.02, 150.81 5.58" stroke="#1e1e1e" stroke-width="4" fill="none"></path></g></g><mask></mask><g stroke-linecap="round"><g transform="translate(1090.389200126363 323.322573721245) rotate(0 79.375 -1.25)"><path d="M-2.01 -0.36 C24.74 -1.28, 133.12 -2.7, 159.69 -3.3 M2.1 -3.02 C28.63 -3.74, 132.5 -0.33, 157.96 -0.1" stroke="#1e1e1e" stroke-width="4" fill="none"></path></g></g><mask></mask><g stroke-linecap="round"><g transform="translate(1083.3024961463925 385.4080769746314) rotate(0 81.875 -1.25)"><path d="M0.94 -0.8 C28.34 -1.39, 135.69 -3.87, 162.4 -3.95 M-1.99 -3.69 C26.53 -3.91, 139.96 -0.7, 168.06 -1.11" stroke="#1e1e1e" stroke-width="4" fill="none"></path></g></g><mask></mask><g stroke-linecap="round"><g transform="translate(1074.722096758127 256.7530505345602) rotate(0 -3.125 66.875)"><path d="M-2.56 1.22 C-3.75 23.84, -7.5 112.22, -8.5 134.25 M1.24 -0.59 C1.04 21.25, -2.62 106.7, -3.31 129.51" stroke="#1e1e1e" stroke-width="4" fill="none"></path></g></g><mask></mask><g stroke-linecap="round"><g transform="translate(1256.2655385317812 279.0765154227555) rotate(0 -0.625 54.375)"><path d="M-2.25 0.5 C-2.41 18.36, -3.62 90.13, -3.52 108.38 M1.73 -1.7 C2.66 16.5, 2.55 94.01, 1.65 111.8" stroke="#1e1e1e" stroke-width="4" fill="none"></path></g></g><mask></mask><g transform="translate(1099.9240122664523 255.14716164875142) rotate(0 77.37797546386719 17.5)"><text x="0" y="0" font-family="Virgil, Segoe UI Emoji" font-size="28px" fill="#1971c2" text-anchor="start" style="white-space: pre;" direction="ltr" dominant-baseline="text-before-edge">Temp table</text></g><g transform="translate(1114.5840540755344 342.6471616487514) rotate(0 27.78998565673828 12.5)"><text x="0" y="0" font-family="Virgil, Segoe UI Emoji" font-size="20px" fill="#1e1e1e" text-anchor="start" style="white-space: pre;" direction="ltr" dominant-baseline="text-before-edge">BLOB</text></g><g stroke-linecap="round" transform="translate(1066.3571118688578 445.6678337914858) rotate(0 65.875 59.875)"><path d="M98.69 7.48 C107.8 10.78, 115.38 18.34, 120.83 26.21 C126.28 34.08, 130 45.22, 131.38 54.7 C132.77 64.19, 133.05 74.95, 129.16 83.12 C125.26 91.28, 116.02 97.74, 108.01 103.67 C99.99 109.6, 90.69 116.24, 81.05 118.7 C71.42 121.17, 60.19 120.86, 50.19 118.48 C40.18 116.09, 28.76 110.55, 21 104.41 C13.24 98.26, 7.18 90.22, 3.62 81.63 C0.06 73.03, -1.7 62.17, -0.36 52.84 C0.98 43.51, 5.67 33.52, 11.65 25.64 C17.62 17.76, 26.21 9.95, 35.48 5.55 C44.74 1.16, 54.37 -2.94, 67.25 -0.76 C80.13 1.43, 103.34 12.79, 112.74 18.68 C122.14 24.56, 124.46 33.91, 123.65 34.56 M79.65 -0.28 C88.91 0.11, 96.99 7.51, 104.47 13.4 C111.96 19.3, 119.91 27.06, 124.55 35.06 C129.19 43.07, 133.01 52.25, 132.29 61.45 C131.57 70.64, 125.59 82.11, 120.23 90.22 C114.88 98.32, 108.46 105.47, 100.18 110.09 C91.91 114.7, 80.58 117.19, 70.57 117.91 C60.57 118.63, 49.88 118.02, 40.17 114.42 C30.46 110.83, 18.65 103.94, 12.31 96.33 C5.98 88.72, 3.68 77.82, 2.15 68.75 C0.63 59.68, 0.64 50.29, 3.17 41.91 C5.7 33.53, 10.02 25.17, 17.33 18.46 C24.64 11.74, 36.79 4.6, 47.01 1.61 C57.24 -1.38, 73.68 0, 78.7 0.53 C83.73 1.06, 77.32 3.44, 77.14 4.81" stroke="none" stroke-width="0" fill="#b2f2bb"></path><path d="M99.83 10.74 C108.46 14.61, 116.27 21.66, 121.7 29.63 C127.14 37.6, 131.93 48.99, 132.46 58.54 C132.98 68.1, 129.76 78.98, 124.84 86.96 C119.91 94.95, 111.36 101.17, 102.91 106.46 C94.46 111.76, 84.16 116.93, 74.14 118.73 C64.11 120.53, 52.34 119.96, 42.78 117.26 C33.21 114.56, 23.81 109.68, 16.77 102.54 C9.73 95.4, 2.99 83.86, 0.54 74.42 C-1.91 64.98, -0.26 54.57, 2.04 45.9 C4.35 37.22, 8.03 29.57, 14.39 22.36 C20.76 15.15, 30.81 6, 40.23 2.64 C49.66 -0.72, 58.69 -0.9, 70.94 2.22 C83.19 5.34, 104.67 16.29, 113.73 21.35 C122.8 26.42, 125.64 31.95, 125.31 32.59 M119.51 26.17 C125.86 33.44, 129.11 44.48, 130.86 53.41 C132.61 62.35, 132.92 71.45, 130.02 79.79 C127.11 88.12, 121.2 96.71, 113.45 103.43 C105.7 110.16, 93.36 117.5, 83.5 120.13 C73.65 122.76, 64.2 121.58, 54.33 119.22 C44.46 116.85, 32.48 111.78, 24.28 105.96 C16.08 100.14, 9.11 92.98, 5.12 84.28 C1.13 75.58, -0.64 63.3, 0.36 53.75 C1.36 44.2, 5.56 34.64, 11.13 27 C16.71 19.37, 25.43 11.95, 33.8 7.94 C42.16 3.93, 51.23 3.35, 61.31 2.95 C71.39 2.55, 84.59 1.6, 94.28 5.53 C103.96 9.47, 115.15 23.41, 119.42 26.56 C123.69 29.71, 120.39 24.5, 119.9 24.45" stroke="#1e1e1e" stroke-width="4" fill="none"></path></g><g transform="translate(1092.0614868378816 493.20481526794117) rotate(0 40.0899658203125 12.5)"><text x="40.0899658203125" y="0" font-family="Virgil, Segoe UI Emoji" font-size="20px" fill="#1e1e1e" text-anchor="middle" style="white-space: pre;" direction="ltr" dominant-baseline="text-before-edge">Payment</text></g><g mask="url(#mask-utevMP2lfLfEfyNRBx5yK)" stroke-linecap="round"><g transform="translate(668.0335942050442 485.5428337914858) rotate(0 188.125 -75)"><path d="M-0.17 2.34 C19.79 -3.11, 57.99 -9.84, 120.41 -35.03 C182.84 -60.22, 331.28 -129.44, 374.37 -148.8 M-3.71 1.14 C15.92 -4.83, 54.85 -12.89, 118.84 -38.7 C182.82 -64.5, 337.93 -135.26, 380.19 -153.67" stroke="#1e1e1e" stroke-width="4" fill="none"></path></g><g transform="translate(668.0335942050442 485.5428337914858) rotate(0 188.125 -75)"><path d="M363.88 -135.43 C369.93 -143.25, 374.84 -145.58, 379.36 -152.2 M362.11 -135.97 C366.67 -141.46, 371.73 -145.14, 380.53 -152.77" stroke="#1e1e1e" stroke-width="4" fill="none"></path></g><g transform="translate(668.0335942050442 485.5428337914858) rotate(0 188.125 -75)"><path d="M356.92 -151.05 C365.09 -153.81, 372.24 -151.09, 379.36 -152.2 M355.15 -151.59 C361.62 -152.93, 368.54 -152.43, 380.53 -152.77" stroke="#1e1e1e" stroke-width="4" fill="none"></path></g></g><mask id="mask-utevMP2lfLfEfyNRBx5yK"><rect x="0" y="0" fill="#fff" width="1144.2835942050442" height="735.5428337914858"></rect><rect x="719.8781308507914" y="430.5428337914859" fill="#000" width="134.7079620361328" height="35" opacity="1"></rect></mask><g transform="translate(719.8781308507914 430.5428337914859) rotate(0 136.3914105295762 -20.668905962444796)"><text x="67.3539810180664" y="0" font-family="Virgil, Segoe UI Emoji" font-size="28px" fill="#1e1e1e" text-anchor="middle" style="white-space: pre;" direction="ltr" dominant-baseline="text-before-edge">Has table</text></g><g mask="url(#mask-CqMlcfbHXLQvbXXkXH7mK)" stroke-linecap="round"><g transform="translate(752.231299898287 631.8473360721754) rotate(0 177.5 -116.875)"><path d="M-2.59 0.41 C27.82 -13.48, 123.39 -46.16, 183.05 -85.51 C242.71 -124.86, 327.15 -211.44, 355.36 -235.7 M1.21 -1.84 C31.34 -15.2, 123.03 -44.17, 181.79 -82.81 C240.54 -121.45, 325.47 -208.18, 353.74 -233.66" stroke="#1971c2" stroke-width="4" fill="none"></path></g><g transform="translate(752.231299898287 631.8473360721754) rotate(0 177.5 -116.875)"><path d="M342.87 -210 C345.14 -218.14, 348.56 -227.54, 355.64 -234.83 M342.19 -211.73 C345.57 -215.76, 348.94 -222.22, 354.39 -234.18" stroke="#1971c2" stroke-width="4" fill="none"></path></g><g transform="translate(752.231299898287 631.8473360721754) rotate(0 177.5 -116.875)"><path d="M331.1 -222.41 C337.07 -226.44, 344.29 -231.83, 355.64 -234.83 M330.43 -224.14 C336.5 -225.2, 342.69 -228.69, 354.39 -234.18" stroke="#1971c2" stroke-width="4" fill="none"></path></g></g><mask id="mask-CqMlcfbHXLQvbXXkXH7mK"><rect x="0" y="0" fill="#fff" width="1207.231299898287" height="965.5973360721754"></rect><rect x="830.4981641149516" y="495.5428337914859" fill="#000" width="205.9678955078125" height="105" opacity="1"></rect></mask><g transform="translate(830.4981641149516 495.5428337914859) rotate(0 98.1180154495305 18.655869146697)"><text x="102.98394775390625" y="0" font-family="Virgil, Segoe UI Emoji" font-size="28px" fill="#1971c2" text-anchor="middle" style="white-space: pre;" direction="ltr" dominant-baseline="text-before-edge">Stash whilst </text><text x="102.98394775390625" y="35" font-family="Virgil, Segoe UI Emoji" font-size="28px" fill="#1971c2" text-anchor="middle" style="white-space: pre;" direction="ltr" dominant-baseline="text-before-edge">waiting on user</text><text x="102.98394775390625" y="70" font-family="Virgil, Segoe UI Emoji" font-size="28px" fill="#1971c2" text-anchor="middle" style="white-space: pre;" direction="ltr" dominant-baseline="text-before-edge">message</text></g></svg>