<svg version="1.1" xmlns="http://www.w3.org/2000/svg" viewBox="0 0 1266.7500000000005 782" width="2533.500000000001" height="1564">
  <!-- svg-source:excalidraw -->
  
  <defs>
    <style class="style-fonts">
      @font-face {
        font-family: "Virgil";
        src: url("https://excalidraw.com/Virgil.woff2");
      }
      @font-face {
        font-family: "Cascadia";
        src: url("https://excalidraw.com/Cascadia.woff2");
      }
      @font-face {
        font-family: "Assistant";
        src: url("https://excalidraw.com/Assistant-Regular.woff2");
      }
    </style>
    
  </defs>
  <g stroke-linecap="round" transform="translate(10 10) rotate(0 197.25 381)"><path d="M7.86 8.16 C7.86 8.16, 7.86 8.16, 7.86 8.16 M7.86 8.16 C7.86 8.16, 7.86 8.16, 7.86 8.16 M0.26 41.3 C11.82 27.1, 24.62 9.16, 36.34 -0.21 M0.26 41.3 C15.03 26.99, 28.75 9.27, 36.34 -0.21 M0.52 65.38 C10.48 47.34, 21.75 34.66, 57.6 -0.28 M0.52 65.38 C23.58 40.95, 41.84 15.51, 57.6 -0.28 M0.13 90.22 C19.22 76.03, 29.59 57.2, 78.2 0.41 M0.13 90.22 C28.52 60.83, 55.37 28.94, 78.2 0.41 M0.4 114.3 C29.79 77.16, 64 40.55, 99.46 0.34 M0.4 114.3 C27.38 83.9, 54.58 49.92, 99.46 0.34 M0.01 139.13 C42.68 99.88, 77.46 49.31, 120.72 0.27 M0.01 139.13 C24.84 112.19, 51.32 83.31, 120.72 0.27 M0.27 163.22 C40.76 118.63, 77.73 77.53, 141.98 0.2 M0.27 163.22 C38.11 118.31, 76.96 76.48, 141.98 0.2 M0.54 187.3 C50.69 123.4, 108.35 61.75, 163.24 0.13 M0.54 187.3 C55.27 124.41, 112.46 61.29, 163.24 0.13 M0.15 212.13 C58.23 143.67, 118.32 76.24, 184.5 0.06 M0.15 212.13 C61.33 137.61, 124.24 67.84, 184.5 0.06 M0.42 236.22 C55.83 171.51, 109.01 107.25, 205.76 -0.01 M0.42 236.22 C70.3 153.3, 143.16 67.97, 205.76 -0.01 M0.03 261.05 C58.5 201.67, 112.43 134.91, 227.02 -0.08 M0.03 261.05 C57.74 196.16, 113.76 128.36, 227.02 -0.08 M0.29 285.13 C88.15 183.76, 176.79 81.48, 248.28 -0.15 M0.29 285.13 C92.83 178.67, 182.81 72.19, 248.28 -0.15 M-0.1 309.97 C100.21 188.64, 206.65 67.34, 269.54 -0.22 M-0.1 309.97 C75.65 221.62, 153.61 132.58, 269.54 -0.22 M0.17 334.05 C107.4 208.98, 216.48 85.23, 290.8 -0.28 M0.17 334.05 C104.14 216.63, 206.34 97.65, 290.8 -0.28 M0.44 358.13 C117.49 221.8, 234.01 88.58, 311.41 0.4 M0.44 358.13 C88.05 259.53, 177.96 157.22, 311.41 0.4 M0.05 382.97 C117.16 251.11, 231.56 118.25, 332.67 0.33 M0.05 382.97 C76.95 298.47, 151.89 211.44, 332.67 0.33 M0.31 407.05 C95.72 301.35, 188.76 193.24, 353.93 0.26 M0.31 407.05 C136.71 250.48, 273.24 91.94, 353.93 0.26 M-0.08 431.89 C79.95 339.28, 161.59 245.28, 373.88 1.7 M-0.08 431.89 C119.49 292.27, 237.53 155.79, 373.88 1.7 M0.19 455.97 C122.09 309.59, 249.76 163.52, 387.26 10.69 M0.19 455.97 C123.47 314.03, 244.84 173.38, 387.26 10.69 M0.46 480.05 C153.3 298.98, 312.15 117.01, 394.09 27.23 M0.46 480.05 C119.09 336.67, 241.44 196.31, 394.09 27.23 M0.07 504.89 C121.26 363.77, 241.5 222.65, 395.01 50.55 M0.07 504.89 C112.32 380.88, 222.1 254.43, 395.01 50.55 M0.33 528.97 C88.37 427.12, 172.27 329.22, 394.62 75.39 M0.33 528.97 C126.33 384.96, 252.22 241.34, 394.62 75.39 M-0.06 553.81 C137.6 393.76, 275.59 232.48, 394.89 99.47 M-0.06 553.81 C109.13 430.75, 214.96 307.27, 394.89 99.47 M0.21 577.89 C98.3 465.16, 196.66 348.92, 395.16 123.55 M0.21 577.89 C152.91 396.49, 308.08 218.93, 395.16 123.55 M0.48 601.97 C116.02 466.17, 234.85 329.98, 394.77 148.39 M0.48 601.97 C149.28 431.49, 296.51 262.44, 394.77 148.39 M0.09 626.81 C86.74 528.96, 168.85 434.1, 395.03 172.47 M0.09 626.81 C86.03 527.75, 170.66 430.54, 395.03 172.47 M0.35 650.89 C147.19 485.06, 290.65 320.7, 394.64 197.31 M0.35 650.89 C98.45 536.5, 196.53 423.26, 394.64 197.31 M-0.04 675.72 C103.72 559.62, 202.54 445.29, 394.91 221.39 M-0.04 675.72 C84.77 582.17, 168.94 486.9, 394.91 221.39 M0.23 699.81 C98.83 583.1, 199.87 467.23, 395.18 245.47 M0.23 699.81 C101.17 584.95, 201.34 470.11, 395.18 245.47 M0.49 723.89 C102.87 601.51, 209.27 480.4, 394.79 270.31 M0.49 723.89 C93.44 619.02, 187.2 511.67, 394.79 270.31 M3.39 744.95 C111.99 621.35, 218.16 497.03, 395.05 294.39 M3.39 744.95 C130.17 601.93, 257.28 454.26, 395.05 294.39 M14.15 756.96 C158.04 585.1, 307.93 416.44, 394.66 319.22 M14.15 756.96 C124.89 631.76, 234.43 507, 394.66 319.22 M30.82 762.17 C108.21 676.29, 181.86 589.95, 394.93 343.31 M30.82 762.17 C133.65 641.21, 238.08 520.7, 394.93 343.31 M52.08 762.1 C144.79 653.41, 241.55 543.7, 395.2 367.39 M52.08 762.1 C186.35 606.15, 321.57 451.94, 395.2 367.39 M73.34 762.03 C149.78 676.66, 225.39 590.79, 394.81 392.22 M73.34 762.03 C187.37 633.87, 300.18 503.61, 394.81 392.22 M94.6 761.96 C165.55 676.34, 244.37 586.55, 395.07 416.31 M94.6 761.96 C188.63 652.26, 282.16 543.94, 395.07 416.31 M115.86 761.89 C174.11 694.53, 235.43 624.46, 394.68 441.14 M115.86 761.89 C177.16 691.41, 236.38 623.97, 394.68 441.14 M137.12 761.83 C231.13 655.56, 324.59 551.19, 394.95 465.22 M137.12 761.83 C204.48 685.33, 272.15 607.69, 394.95 465.22 M157.72 762.51 C205.36 705, 260.17 645.02, 395.21 489.31 M157.72 762.51 C241.89 666.25, 324.87 568.24, 395.21 489.31 M178.98 762.44 C238.34 690.57, 295.53 621.88, 394.82 514.14 M178.98 762.44 C256.57 671.49, 334.19 582.68, 394.82 514.14 M200.24 762.37 C272.89 680.94, 342.36 595.23, 395.09 538.22 M200.24 762.37 C268.9 688.24, 336.1 611.93, 395.09 538.22 M221.5 762.3 C262.83 712.61, 304.95 666.95, 394.7 563.06 M221.5 762.3 C288.4 681.64, 357 601.55, 394.7 563.06 M242.76 762.24 C274.25 724.31, 310.32 686.17, 394.97 587.14 M242.76 762.24 C292.33 704.95, 342.09 649.43, 394.97 587.14 M264.02 762.17 C299.96 711.41, 347.92 663.42, 395.23 611.22 M264.02 762.17 C300.04 719.61, 338.57 678.48, 395.23 611.22 M285.28 762.1 C324.47 712.47, 362.66 668.69, 394.84 636.06 M285.28 762.1 C326.21 717.56, 362.78 671.76, 394.84 636.06 M306.54 762.03 C334.74 732.73, 356.71 701.78, 395.11 660.14 M306.54 762.03 C336.29 728.06, 365.57 694.52, 395.11 660.14 M327.8 761.96 C348.79 746.46, 361.27 728.15, 394.72 684.98 M327.8 761.96 C346.73 741.26, 364.12 724.02, 394.72 684.98 M349.06 761.89 C357.47 747.47, 368.81 738.9, 394.99 709.06 M349.06 761.89 C359.08 749.02, 374.48 735.4, 394.99 709.06 M371.64 760.31 C382.12 754.45, 385.94 745.78, 394.6 733.9 M371.64 760.31 C378.13 750.71, 387.82 741.78, 394.6 733.9" stroke="#b2f2bb" stroke-width="2" fill="none"></path><path d="M32 0 C105.75 0.47, 180.07 1.57, 362.5 0 M32 0 C154.14 3.51, 278.76 4.39, 362.5 0 M362.5 0 C385.57 3.12, 398.39 13.56, 394.5 32 M362.5 0 C387.68 -3.85, 391.77 13.16, 394.5 32 M394.5 32 C393.61 250.42, 393.2 465.38, 394.5 730 M394.5 32 C397.18 220.55, 397.24 407.87, 394.5 730 M394.5 730 C396.54 751.51, 380.49 762.97, 362.5 762 M394.5 730 C393 748.22, 386.04 763.16, 362.5 762 M362.5 762 C255.41 765.3, 151.18 766.79, 32 762 M362.5 762 C288.04 765.49, 212.03 764.94, 32 762 M32 762 C14.01 758.31, -3.23 752.73, 0 730 M32 762 C9.52 766.34, 0.17 755.04, 0 730 M0 730 C-0.81 462.89, -3.41 195.26, 0 32 M0 730 C1.97 467.97, 2.71 206.64, 0 32 M0 32 C-1.26 14.2, 10.59 -2.57, 32 0 M0 32 C-0.11 9.73, 7.54 2.75, 32 0" stroke="#1971c2" stroke-width="4" fill="none"></path></g><g transform="translate(68.29005432128906 15) rotate(0 138.95994567871094 45)"><text x="138.95994567871094" y="0" font-family="Virgil, Segoe UI Emoji" font-size="36px" fill="#1971c2" text-anchor="middle" style="white-space: pre;" direction="ltr" dominant-baseline="text-before-edge">Final service in </text><text x="138.95994567871094" y="45" font-family="Virgil, Segoe UI Emoji" font-size="36px" fill="#1971c2" text-anchor="middle" style="white-space: pre;" direction="ltr" dominant-baseline="text-before-edge">enrichment chain</text></g><g stroke-linecap="round" transform="translate(594.0000000000005 234.83333333333394) rotate(0 115 108)"><path d="M194.71 31.5 C204.79 39.13, 212.25 52.37, 217.81 64.14 C223.38 75.92, 227.32 89.38, 228.12 102.15 C228.92 114.92, 226.45 128.14, 222.62 140.76 C218.8 153.39, 213.79 167.48, 205.16 177.88 C196.53 188.29, 182.98 197.3, 170.83 203.17 C158.69 209.05, 145.48 211.66, 132.26 213.15 C119.04 214.63, 105.22 214.5, 91.49 212.09 C77.77 209.69, 61.82 205.63, 49.89 198.72 C37.96 191.8, 27.73 181.33, 19.89 170.58 C12.06 159.84, 6 147.15, 2.88 134.25 C-0.24 121.36, -0.39 105.97, 1.18 93.21 C2.76 80.44, 5.6 69.15, 12.33 57.65 C19.06 46.14, 30.85 32.86, 41.57 24.18 C52.29 15.51, 63.43 9.84, 76.65 5.6 C89.87 1.36, 106.93 -2.09, 120.89 -1.26 C134.85 -0.44, 146.66 4.28, 160.41 10.55 C174.16 16.81, 195.63 30.45, 203.39 36.33 C211.15 42.22, 208.49 44.55, 206.99 45.86 M124.95 2.52 C138.62 1.62, 152.85 3.58, 164.98 8.44 C177.1 13.3, 188.33 21.48, 197.7 31.69 C207.07 41.91, 215.99 57.46, 221.21 69.74 C226.43 82.01, 229.2 92.95, 229.02 105.34 C228.84 117.72, 224.99 132.14, 220.13 144.03 C215.27 155.92, 208.99 166.51, 199.84 176.67 C190.7 186.83, 176.97 198.43, 165.26 204.99 C153.56 211.55, 143.28 214.62, 129.6 216.05 C115.92 217.48, 96.88 216.59, 83.18 213.56 C69.47 210.54, 58.32 205.68, 47.37 197.9 C36.42 190.13, 24.6 178, 17.5 166.93 C10.39 155.86, 7.11 144.02, 4.76 131.49 C2.41 118.96, 1.69 104.94, 3.4 91.76 C5.12 78.58, 7.89 63.92, 15.05 52.4 C22.21 40.89, 35.54 31.14, 46.36 22.68 C57.17 14.22, 66.58 5.03, 79.96 1.65 C93.33 -1.73, 119.01 2.76, 126.6 2.41 C134.2 2.06, 125.62 -2.31, 125.52 -0.45" stroke="none" stroke-width="0" fill="#b2f2bb"></path><path d="M171.17 12.14 C183.54 17.16, 194.58 31.15, 203.72 41.12 C212.85 51.09, 221.56 59.95, 225.97 71.96 C230.39 83.97, 231.42 99.82, 230.19 113.18 C228.96 126.54, 224.29 140.3, 218.59 152.14 C212.89 163.98, 205.72 174.91, 196.02 184.22 C186.31 193.53, 173.26 202.99, 160.36 207.98 C147.47 212.97, 132.55 214.06, 118.65 214.15 C104.76 214.24, 90.04 212.12, 76.99 208.51 C63.95 204.9, 50.8 200.33, 40.39 192.5 C29.97 184.66, 20.97 173.42, 14.51 161.5 C8.05 149.58, 3.61 133.84, 1.63 120.98 C-0.35 108.12, -0.65 96.39, 2.65 84.34 C5.95 72.3, 13.31 59.33, 21.45 48.69 C29.58 38.06, 40.27 28.05, 51.46 20.53 C62.65 13, 75.45 6.87, 88.57 3.53 C101.7 0.19, 113.96 -2.54, 130.22 0.5 C146.48 3.54, 175.53 16.43, 186.12 21.78 C196.7 27.13, 195.01 31.3, 193.74 32.58 M66.98 8.51 C78.99 2.48, 99.03 0.68, 112.81 0.47 C126.58 0.25, 137.24 3.49, 149.66 7.21 C162.08 10.94, 176.72 14.85, 187.32 22.82 C197.92 30.79, 206.65 42.76, 213.25 55.04 C219.85 67.31, 224.3 83.14, 226.92 96.48 C229.54 109.81, 232.27 123.21, 228.97 135.04 C225.66 146.86, 215.47 156.97, 207.09 167.41 C198.7 177.85, 189.83 189.78, 178.65 197.67 C167.48 205.57, 153.69 211.91, 140.05 214.77 C126.4 217.64, 110.05 216.92, 96.78 214.89 C83.51 212.85, 72.48 208.95, 60.44 202.56 C48.4 196.17, 34.04 186.57, 24.56 176.56 C15.09 166.55, 7.2 154.56, 3.59 142.52 C-0.03 130.47, 1.8 117.34, 2.88 104.27 C3.97 91.2, 5.29 76.18, 10.08 64.11 C14.86 52.04, 22.18 41.36, 31.57 31.86 C40.96 22.35, 60.49 10.53, 66.41 7.06 C72.33 3.59, 66.02 9.53, 67.07 11.05" stroke="#1e1e1e" stroke-width="4" fill="none"></path></g><g transform="translate(648.2827567846412 305.46580096518665) rotate(0 60.89996337890625 37.5)"><text x="60.89996337890625" y="0" font-family="Virgil, Segoe UI Emoji" font-size="20px" fill="#1e1e1e" text-anchor="middle" style="white-space: pre;" direction="ltr" dominant-baseline="text-before-edge">Core + </text><text x="60.89996337890625" y="25" font-family="Virgil, Segoe UI Emoji" font-size="20px" fill="#1e1e1e" text-anchor="middle" style="white-space: pre;" direction="ltr" dominant-baseline="text-before-edge">Technical + </text><text x="60.89996337890625" y="50" font-family="Virgil, Segoe UI Emoji" font-size="20px" fill="#1e1e1e" text-anchor="middle" style="white-space: pre;" direction="ltr" dominant-baseline="text-before-edge">Editorial</text></g><g transform="translate(679.0000000000005 184.83333333333394) rotate(0 38.863983154296875 17.5)"><text x="0" y="0" font-family="Virgil, Segoe UI Emoji" font-size="28px" fill="#1e1e1e" text-anchor="start" style="white-space: pre;" direction="ltr" dominant-baseline="text-before-edge">Event</text></g><g stroke-linecap="round"><g transform="translate(295.00000000000045 206.83333333333394) rotate(0 140.5 58.5)"><path d="M1.92 0.43 C48.84 19.71, 233.05 97.27, 279.46 116.8 M-0.48 -1.81 C47.56 17.84, 238.57 99.84, 285.03 120.32" stroke="#1e1e1e" stroke-width="4" fill="none"></path></g><g transform="translate(295.00000000000045 206.83333333333394) rotate(0 140.5 58.5)"><path d="M260.38 117.71 C265.56 118.55, 271.77 120.63, 286.06 120.45 M260.35 119.61 C267.08 119.62, 273.18 118.7, 285.08 120.28" stroke="#1e1e1e" stroke-width="4" fill="none"></path></g><g transform="translate(295.00000000000045 206.83333333333394) rotate(0 140.5 58.5)"><path d="M267.18 102.03 C270.89 106.44, 275.57 112.06, 286.06 120.45 M267.16 103.93 C272.22 107.9, 276.61 110.93, 285.08 120.28" stroke="#1e1e1e" stroke-width="4" fill="none"></path></g></g><mask></mask><g stroke-linecap="round"><g transform="translate(274.72888367623136 407.57726867546717) rotate(0 142.5 -21.5)"><path d="M0.57 -1.29 C47.36 -8.57, 235.58 -34.41, 283.17 -41.3 M-2.57 4.19 C44.91 -2.68, 240.66 -38.13, 288.57 -45.39" stroke="#1e1e1e" stroke-width="4" fill="none"></path></g><g transform="translate(274.72888367623136 407.57726867546717) rotate(0 142.5 -21.5)"><path d="M265.9 -34.38 C276.32 -37.09, 283.75 -42.01, 286.59 -46.96 M267.72 -33.21 C272.03 -36.18, 275.86 -37.6, 289.06 -45.57" stroke="#1e1e1e" stroke-width="4" fill="none"></path></g><g transform="translate(274.72888367623136 407.57726867546717) rotate(0 142.5 -21.5)"><path d="M263.07 -51.24 C274.73 -47.45, 283.25 -45.86, 286.59 -46.96 M264.89 -50.08 C269.79 -49.15, 274.27 -46.7, 289.06 -45.57" stroke="#1e1e1e" stroke-width="4" fill="none"></path></g></g><mask></mask><g stroke-linecap="round"><g transform="translate(281.997647504509 606.4360234629121) rotate(0 144.5 -100)"><path d="M-2.27 -1.3 C45.65 -34.14, 238.63 -164.13, 287.2 -197.25 M1.69 4.16 C50.54 -29.36, 245.01 -167.25, 292.62 -200.77" stroke="#1e1e1e" stroke-width="4" fill="none"></path></g><g transform="translate(281.997647504509 606.4360234629121) rotate(0 144.5 -100)"><path d="M277.43 -181.52 C284.45 -185.96, 286.58 -190.38, 294.45 -200.24 M278.4 -179.36 C281.35 -184.16, 284.37 -189.24, 292.69 -199.79" stroke="#1e1e1e" stroke-width="4" fill="none"></path></g><g transform="translate(281.997647504509 606.4360234629121) rotate(0 144.5 -100)"><path d="M267.57 -195.49 C277.41 -195.82, 282.38 -196.22, 294.45 -200.24 M268.53 -193.33 C273.53 -195.29, 278.54 -197.56, 292.69 -199.79" stroke="#1e1e1e" stroke-width="4" fill="none"></path></g></g><mask></mask><g stroke-linecap="round" transform="translate(1043.7500000000005 31.83333333333394) rotate(0 104.75 89.5)"><path d="M7.86 8.16 C7.86 8.16, 7.86 8.16, 7.86 8.16 M7.86 8.16 C7.86 8.16, 7.86 8.16, 7.86 8.16 M0.91 40.54 C6.84 29.35, 17.25 19.94, 36.34 -0.21 M0.91 40.54 C8.41 31.46, 14.1 22.27, 36.34 -0.21 M1.18 64.62 C26.93 41.88, 41.65 12.64, 57.6 -0.28 M1.18 64.62 C23.61 35.95, 47 12.07, 57.6 -0.28 M0.79 89.46 C32.5 55.02, 60.27 19.8, 78.2 0.41 M0.79 89.46 C22.61 67.75, 43.49 42.12, 78.2 0.41 M1.05 113.54 C21.51 87.23, 41.45 62.87, 99.46 0.34 M1.05 113.54 C35.68 73.15, 71.7 30.37, 99.46 0.34 M0.66 138.38 C44.26 87.25, 77.44 43.11, 120.72 0.27 M0.66 138.38 C47.41 86.51, 96.71 29.67, 120.72 0.27 M2.24 160.95 C32.21 127.68, 65.87 90.44, 141.98 0.2 M2.24 160.95 C49.09 105.64, 96.41 49.39, 141.98 0.2 M12.35 173.71 C76.8 107.54, 130.95 37.07, 163.24 0.13 M12.35 173.71 C62.99 118.87, 113.75 60.41, 163.24 0.13 M29.02 178.93 C64.32 142.53, 92.7 102.77, 183.85 0.81 M29.02 178.93 C86.56 114.45, 144.62 47.33, 183.85 0.81 M49.62 179.61 C100.44 123.46, 150.91 63.12, 199.86 6.78 M49.62 179.61 C84.73 140.29, 117.23 100.15, 199.86 6.78 M70.88 179.54 C103.01 137.04, 142.69 97.73, 208.65 21.05 M70.88 179.54 C121.58 123.9, 168.99 66.58, 208.65 21.05 M92.14 179.47 C115.68 150.08, 141.32 121.5, 209.58 44.38 M92.14 179.47 C137.13 127.26, 184.13 75.25, 209.58 44.38 M113.4 179.4 C146.53 141.18, 180.42 102.29, 209.84 68.46 M113.4 179.4 C132.86 155.61, 156.76 134.04, 209.84 68.46 M134.66 179.34 C156.91 152.8, 176.91 135.15, 209.45 93.3 M134.66 179.34 C161.22 151.37, 185.19 119.71, 209.45 93.3 M155.92 179.27 C170.55 155.43, 193.43 137.83, 209.72 117.38 M155.92 179.27 C172.44 156.51, 190.31 138.39, 209.72 117.38 M177.18 179.2 C190.16 168.21, 198.03 148.47, 209.33 142.22 M177.18 179.2 C188.54 165.42, 199.81 150.69, 209.33 142.22" stroke="#b2f2bb" stroke-width="2" fill="none"></path><path d="M32 0 C87.38 0.65, 133.81 -0.15, 177.5 0 M32 0 C70.66 -0.53, 107.54 -2.27, 177.5 0 M177.5 0 C198.23 1.41, 206.98 12.66, 209.5 32 M177.5 0 C196.72 -0.43, 212.32 8.28, 209.5 32 M209.5 32 C212.34 57.92, 207.73 89.81, 209.5 147 M209.5 32 C209.16 69.71, 209.27 104.35, 209.5 147 M209.5 147 C207.52 164.54, 200.51 178.93, 177.5 179 M209.5 147 C213.58 169.92, 194.24 178.41, 177.5 179 M177.5 179 C121.73 181.59, 68.59 174.91, 32 179 M177.5 179 C124.86 180.04, 72.11 178.32, 32 179 M32 179 C13.36 175.25, -1.12 165.5, 0 147 M32 179 C9.38 176.78, -4.33 165.35, 0 147 M0 147 C-0.27 105.14, -1.9 66.11, 0 32 M0 147 C1.92 118.47, 0.49 92.41, 0 32 M0 32 C-1.69 12.39, 9.17 2.57, 32 0 M0 32 C3.04 11.44, 14.53 2.4, 32 0" stroke="#1971c2" stroke-width="4" fill="none"></path></g><g transform="translate(1081.0360183715825 76.33333333333394) rotate(0 67.46398162841797 45)"><text x="67.46398162841797" y="0" font-family="Virgil, Segoe UI Emoji" font-size="36px" fill="#1971c2" text-anchor="middle" style="white-space: pre;" direction="ltr" dominant-baseline="text-before-edge">Search </text><text x="67.46398162841797" y="45" font-family="Virgil, Segoe UI Emoji" font-size="36px" fill="#1971c2" text-anchor="middle" style="white-space: pre;" direction="ltr" dominant-baseline="text-before-edge">service</text></g><g stroke-linecap="round" transform="translate(1047.2500000000005 287.33333333333394) rotate(0 104.75 89.5)"><path d="M7.86 8.16 C7.86 8.16, 7.86 8.16, 7.86 8.16 M7.86 8.16 C7.86 8.16, 7.86 8.16, 7.86 8.16 M0.91 40.54 C5.73 34.06, 13.88 19.33, 36.34 -0.21 M0.91 40.54 C13.46 22.93, 26.74 8.49, 36.34 -0.21 M1.18 64.62 C20.7 43.73, 44.01 20.18, 57.6 -0.28 M1.18 64.62 C11.83 50.37, 22.63 35.91, 57.6 -0.28 M0.79 89.46 C21.39 63.06, 45.05 42.13, 78.2 0.41 M0.79 89.46 C29.05 56.56, 54.89 25.08, 78.2 0.41 M1.05 113.54 C21.87 86.37, 45.59 60.93, 99.46 0.34 M1.05 113.54 C39.74 69.04, 76.17 29.94, 99.46 0.34 M0.66 138.38 C31.34 109.26, 60.12 73.73, 120.72 0.27 M0.66 138.38 C43.64 87.72, 84.9 39.02, 120.72 0.27 M2.24 160.95 C38.32 126.02, 73.69 81.24, 141.98 0.2 M2.24 160.95 C48.45 104.86, 98.99 51.75, 141.98 0.2 M12.35 173.71 C66.24 107.55, 124.69 45.85, 163.24 0.13 M12.35 173.71 C52.21 127.75, 93.51 80.23, 163.24 0.13 M29.02 178.93 C66.45 136.79, 112.27 88.04, 183.85 0.81 M29.02 178.93 C76.72 129.44, 124.31 74.37, 183.85 0.81 M49.62 179.61 C106.82 118.12, 160.37 59.78, 199.86 6.78 M49.62 179.61 C100.34 120.3, 152.5 59.71, 199.86 6.78 M70.88 179.54 C105.14 141.09, 134.96 106.43, 208.65 21.05 M70.88 179.54 C111.18 132.55, 150.37 89.58, 208.65 21.05 M92.14 179.47 C117.68 150.49, 150.3 117.06, 209.58 44.38 M92.14 179.47 C118.87 147.16, 146.95 117.44, 209.58 44.38 M113.4 179.4 C140.51 152.98, 168.44 116.82, 209.84 68.46 M113.4 179.4 C146.88 137.58, 181.83 97.81, 209.84 68.46 M134.66 179.34 C154.06 160.08, 169.25 134.83, 209.45 93.3 M134.66 179.34 C161.14 147.72, 186.58 117.98, 209.45 93.3 M155.92 179.27 C168.02 164.98, 180 147.27, 209.72 117.38 M155.92 179.27 C169.14 162.01, 184.9 147.29, 209.72 117.38 M177.18 179.2 C189.57 170.02, 193.65 157.97, 209.33 142.22 M177.18 179.2 C189.05 167.8, 199.17 156.46, 209.33 142.22" stroke="#b2f2bb" stroke-width="2" fill="none"></path><path d="M32 0 C82.98 -0.92, 137.72 3.44, 177.5 0 M32 0 C65.88 2.89, 95.67 1.17, 177.5 0 M177.5 0 C195.44 -3.95, 206.45 6.98, 209.5 32 M177.5 0 C196.76 -0.74, 211.69 8.71, 209.5 32 M209.5 32 C213.05 67.42, 209.47 108.07, 209.5 147 M209.5 32 C207.98 73.88, 208.37 119.44, 209.5 147 M209.5 147 C209.29 166.65, 200.65 175.33, 177.5 179 M209.5 147 C211.68 164.65, 196.01 178.02, 177.5 179 M177.5 179 C123.7 178.03, 76.28 180.93, 32 179 M177.5 179 C143.44 179.18, 110.42 180.37, 32 179 M32 179 C8.38 180.39, 3.13 165.82, 0 147 M32 179 C10.92 182.02, -1.57 168.87, 0 147 M0 147 C0.81 119.53, 2.19 97.18, 0 32 M0 147 C-2.36 110.46, 0.33 70.05, 0 32 M0 32 C-3.06 14.64, 14.44 -2.06, 32 0 M0 32 C-2.55 9.67, 7.03 -3.13, 32 0" stroke="#1971c2" stroke-width="4" fill="none"></path></g><g transform="translate(1092.4020385742192 331.83333333333394) rotate(0 59.59796142578125 45)"><text x="59.59796142578125" y="0" font-family="Virgil, Segoe UI Emoji" font-size="36px" fill="#1971c2" text-anchor="middle" style="white-space: pre;" direction="ltr" dominant-baseline="text-before-edge">Rails </text><text x="59.59796142578125" y="45" font-family="Virgil, Segoe UI Emoji" font-size="36px" fill="#1971c2" text-anchor="middle" style="white-space: pre;" direction="ltr" dominant-baseline="text-before-edge">service</text></g><g stroke-linecap="round" transform="translate(1041.2500000000005 547.3333333333339) rotate(0 104.75 89.5)"><path d="M7.86 8.16 C7.86 8.16, 7.86 8.16, 7.86 8.16 M7.86 8.16 C7.86 8.16, 7.86 8.16, 7.86 8.16 M8.78 31.49 C14.3 18.06, 29.14 14.32, 34.37 2.05 M8.78 31.49 C15.21 22.68, 26 15.88, 34.37 2.05 M8.39 56.32 C17.51 45.68, 28.75 33.19, 55.63 1.98 M8.39 56.32 C24.57 35.85, 41.24 17.27, 55.63 1.98 M8.66 80.4 C26.49 67.32, 36.41 49.97, 76.89 1.91 M8.66 80.4 C27.58 58.93, 43.88 37.81, 76.89 1.91 M8.27 105.24 C41.47 69.62, 71.68 41.7, 98.15 1.85 M8.27 105.24 C37.13 72.85, 64.42 41.32, 98.15 1.85 M8.54 129.32 C51.52 80.49, 98.93 32.47, 119.41 1.78 M8.54 129.32 C33.65 97.38, 58.46 66.92, 119.41 1.78 M2.24 160.95 C32.36 125.58, 65.96 87.13, 140.67 1.71 M2.24 160.95 C41.56 112.38, 82.22 63.72, 140.67 1.71 M11.69 174.47 C50.48 128.27, 91.68 82.39, 161.28 2.39 M11.69 174.47 C47.49 134.38, 81.03 96.18, 161.28 2.39 M25.08 183.45 C69.05 134.43, 117.14 78.39, 181.22 3.83 M25.08 183.45 C62.37 141.06, 103.14 95.28, 181.22 3.83 M42.41 187.91 C100.54 116.51, 160.72 41.09, 198.55 8.29 M42.41 187.91 C87.79 135.88, 133.63 85.65, 198.55 8.29 M63.67 187.84 C101.2 140.18, 145.75 95.99, 209.97 19.54 M63.67 187.84 C116.06 125.6, 170.92 62, 209.97 19.54 M84.93 187.78 C117.41 151.47, 147.34 116.5, 215.48 37.59 M84.93 187.78 C113.5 155.67, 144.71 119.92, 215.48 37.59 M106.19 187.71 C135.82 150.74, 171.52 106.97, 215.75 61.67 M106.19 187.71 C135.59 156.27, 164.5 122.22, 215.75 61.67 M127.45 187.64 C145.92 165.26, 166.62 142.77, 215.36 86.51 M127.45 187.64 C148.75 162.13, 170.2 134.67, 215.36 86.51 M148.05 188.32 C167.27 167.05, 189.86 136.76, 215.62 110.59 M148.05 188.32 C161.25 170.92, 178.95 153.85, 215.62 110.59 M169.31 188.25 C184.29 171.98, 195.56 159.88, 215.89 134.67 M169.31 188.25 C185.11 170.34, 200.54 154.12, 215.89 134.67" stroke="#b2f2bb" stroke-width="2" fill="none"></path><path d="M32 0 C75.3 3.23, 115.72 0.19, 177.5 0 M32 0 C80.92 0.66, 125.76 4.26, 177.5 0 M177.5 0 C202.47 -0.45, 208.29 7.26, 209.5 32 M177.5 0 C196.01 -0.38, 212.6 14.24, 209.5 32 M209.5 32 C211.76 77.75, 205.68 116.92, 209.5 147 M209.5 32 C207.29 67.84, 208.53 108.24, 209.5 147 M209.5 147 C206.8 168.13, 196.89 180.28, 177.5 179 M209.5 147 C212.55 171.04, 201.36 183.26, 177.5 179 M177.5 179 C125.09 175.91, 68.31 177.67, 32 179 M177.5 179 C145.96 178.3, 112.87 176.87, 32 179 M32 179 C13.8 175.27, 2.01 171.52, 0 147 M32 179 C8.24 176.57, -4.48 167.78, 0 147 M0 147 C2.93 102.85, 3.44 61.01, 0 32 M0 147 C1.2 113.79, 0.54 81.61, 0 32 M0 32 C3.91 11.47, 9.56 1.87, 32 0 M0 32 C1.86 9.39, 7.78 -2.71, 32 0" stroke="#1971c2" stroke-width="4" fill="none"></path></g><g transform="translate(1069.9680328369145 614.3333333333339) rotate(0 76.03196716308594 22.5)"><text x="76.03196716308594" y="0" font-family="Virgil, Segoe UI Emoji" font-size="36px" fill="#1971c2" text-anchor="middle" style="white-space: pre;" direction="ltr" dominant-baseline="text-before-edge">Playback</text></g><g stroke-linecap="round"><g transform="translate(806.1924647688668 283.33286610705) rotate(0 107.76820945368229 -72.31545170370009)"><path d="M-0.92 -0.09 C34.42 -23.71, 177.38 -117.81, 213.48 -141.99 M3.78 -2.6 C39.86 -26.92, 183.73 -122.28, 218.76 -145.56" stroke="#1e1e1e" stroke-width="4" fill="none"></path></g><g transform="translate(806.1924647688668 283.33286610705) rotate(0 107.76820945368229 -72.31545170370009)"><path d="M203.86 -126.92 C211.06 -132.37, 214.04 -140.55, 219.51 -147.49 M203.72 -124.51 C208.02 -129.51, 210.69 -134.94, 217.85 -146.48" stroke="#1e1e1e" stroke-width="4" fill="none"></path></g><g transform="translate(806.1924647688668 283.33286610705) rotate(0 107.76820945368229 -72.31545170370009)"><path d="M194.4 -141.16 C204.92 -141.57, 211.23 -144.72, 219.51 -147.49 M194.26 -138.76 C200.93 -140.26, 205.94 -142.17, 217.85 -146.48" stroke="#1e1e1e" stroke-width="4" fill="none"></path></g></g><mask></mask><g stroke-linecap="round"><g transform="translate(842.7035942405464 353.2749919637581) rotate(0 90.3213060728649 25.908284126610624)"><path d="M-0.46 0.77 C29.35 8.87, 148.23 40.58, 178.68 49.39 M-4.15 -1.28 C26.56 7, 153.11 43.31, 184.02 51.71" stroke="#1e1e1e" stroke-width="4" fill="none"></path></g><g transform="translate(842.7035942405464 353.2749919637581) rotate(0 90.3213060728649 25.908284126610624)"><path d="M159.64 52.2 C164.7 54.25, 175.07 54.12, 183.55 52.01 M159.92 52.66 C166.12 53.46, 172.49 51.79, 184.76 51.07" stroke="#1e1e1e" stroke-width="4" fill="none"></path></g><g transform="translate(842.7035942405464 353.2749919637581) rotate(0 90.3213060728649 25.908284126610624)"><path d="M164.26 35.74 C168 42.62, 177.02 47.34, 183.55 52.01 M164.54 36.19 C169.29 41.69, 174.36 44.67, 184.76 51.07" stroke="#1e1e1e" stroke-width="4" fill="none"></path></g></g><mask></mask><g stroke-linecap="round"><g transform="translate(806.0575324289443 430.614102504077) rotate(0 109.82421818671139 104.10941957046384)"><path d="M-0.24 0.87 C36.33 35.4, 183.1 174.34, 219.86 209.12 M-3.82 -1.12 C32.36 32.35, 180.63 170.29, 217.74 204.6" stroke="#1e1e1e" stroke-width="4" fill="none"></path></g><g transform="translate(806.0575324289443 430.614102504077) rotate(0 109.82421818671139 104.10941957046384)"><path d="M195.33 195.05 C202.69 198.46, 210.28 199.57, 216.72 205.73 M193.84 194.62 C201.73 198.15, 209.7 202.15, 216.81 203.98" stroke="#1e1e1e" stroke-width="4" fill="none"></path></g><g transform="translate(806.0575324289443 430.614102504077) rotate(0 109.82421818671139 104.10941957046384)"><path d="M206.96 182.51 C210.74 189.87, 214.65 194.94, 216.72 205.73 M205.47 182.08 C209.65 189.67, 213.85 197.73, 216.81 203.98" stroke="#1e1e1e" stroke-width="4" fill="none"></path></g></g><mask></mask><g stroke-linecap="round" transform="translate(130.7500000000009 118.83333333333394) rotate(0 79.5 82)"><path d="M25.8 19.49 C32.87 11.22, 46.88 5.8, 57.46 2.43 C68.04 -0.94, 78.44 -2.51, 89.26 -0.73 C100.08 1.05, 113.23 6.86, 122.38 13.13 C131.53 19.4, 138.31 27.73, 144.14 36.88 C149.98 46.03, 155.48 57.18, 157.41 68.03 C159.33 78.88, 157.93 91.4, 155.71 101.98 C153.49 112.57, 150.46 123.12, 144.1 131.52 C137.74 139.93, 127.41 147.19, 117.56 152.42 C107.71 157.64, 95.43 161.48, 85 162.89 C74.57 164.3, 65.29 164.22, 54.98 160.88 C44.68 157.54, 31.37 150.95, 23.18 142.84 C14.99 134.73, 9.81 122.45, 5.86 112.23 C1.91 102.02, -0.64 92.25, -0.54 81.54 C-0.44 70.83, 0.19 59.61, 6.46 47.99 C12.74 36.38, 30.14 18.3, 37.12 11.86 C44.1 5.41, 47.63 8, 48.34 9.32 M24.63 23.33 C31.06 14.85, 43.11 8.94, 53 5.02 C62.89 1.09, 73.64 -0.6, 83.97 -0.2 C94.3 0.2, 105.32 2.54, 114.96 7.42 C124.59 12.31, 135.2 19.94, 141.79 29.12 C148.39 38.3, 151.49 51.71, 154.53 62.5 C157.56 73.29, 161.23 83.65, 160.02 93.85 C158.81 104.06, 153.72 113.77, 147.25 123.73 C140.78 133.69, 130.52 146.98, 121.2 153.6 C111.88 160.23, 102.08 162.7, 91.36 163.47 C80.63 164.25, 67.01 161.37, 56.84 158.26 C46.68 155.14, 38 151.59, 30.36 144.79 C22.72 138, 15.69 126.87, 11.02 117.47 C6.34 108.07, 3.59 98.93, 2.32 88.39 C1.04 77.86, 0.17 64.66, 3.37 54.27 C6.56 43.88, 17.77 30.54, 21.47 26.06 C25.16 21.59, 23.83 26.52, 25.52 27.41" stroke="none" stroke-width="0" fill="#b2f2bb"></path><path d="M91.58 -0.68 C101.86 0.17, 113.14 9.18, 122.35 15.3 C131.55 21.42, 141.19 26.85, 146.82 36.04 C152.46 45.23, 154.65 59.16, 156.14 70.45 C157.64 81.74, 158.09 93.33, 155.81 103.78 C153.53 114.22, 149.38 124.24, 142.46 133.11 C135.53 141.98, 124.19 152.04, 114.26 157 C104.34 161.96, 93.41 162.32, 82.92 162.88 C72.42 163.43, 60.96 164.16, 51.29 160.3 C41.63 156.45, 32.56 147.64, 24.93 139.76 C17.29 131.89, 9.91 123.13, 5.48 113.07 C1.06 103, -2.49 90.74, -1.64 79.37 C-0.78 68, 5.14 55.37, 10.61 44.86 C16.08 34.35, 23.34 23.01, 31.18 16.32 C39.03 9.63, 43.13 5.47, 57.68 4.71 C72.23 3.95, 105.33 7.81, 118.48 11.76 C131.62 15.71, 137.11 27.56, 136.54 28.4 M69.95 -2.39 C79.64 -4.58, 92.7 0.16, 103.76 4.01 C114.82 7.87, 128.23 13.56, 136.3 20.72 C144.36 27.88, 148.86 36.78, 152.16 46.97 C155.46 57.16, 156.38 70.71, 156.1 81.86 C155.81 93.02, 154.27 103.61, 150.44 113.89 C146.61 124.17, 140.81 135.69, 133.11 143.55 C125.41 151.4, 114.85 157.83, 104.25 161 C93.65 164.17, 80.21 164.09, 69.48 162.56 C58.75 161.03, 48.65 157.02, 39.87 151.83 C31.09 146.65, 22.8 140.53, 16.8 131.46 C10.8 122.4, 5.99 108.34, 3.86 97.45 C1.72 86.55, 2.31 77.05, 3.99 66.11 C5.66 55.18, 7.91 40.91, 13.92 31.84 C19.93 22.76, 30.75 16.46, 40.04 11.67 C49.34 6.87, 64.19 4.61, 69.67 3.06 C75.16 1.51, 72.64 1.18, 72.95 2.37" stroke="#1e1e1e" stroke-width="4" fill="none"></path></g><g transform="translate(160.3850475167642 175.85057727603726) rotate(0 49.64996337890625 25)"><text x="49.64996337890625" y="0" font-family="Virgil, Segoe UI Emoji" font-size="20px" fill="#1e1e1e" text-anchor="middle" style="white-space: pre;" direction="ltr" dominant-baseline="text-before-edge">Technical </text><text x="49.64996337890625" y="25" font-family="Virgil, Segoe UI Emoji" font-size="20px" fill="#1e1e1e" text-anchor="middle" style="white-space: pre;" direction="ltr" dominant-baseline="text-before-edge">metadata</text></g><g stroke-linecap="round" transform="translate(127.25000000000091 329.83333333333394) rotate(0 79.5 82)"><path d="M91.92 0.89 C101.92 1.6, 112.58 8.79, 121.88 14.97 C131.18 21.15, 141.4 28.76, 147.7 37.97 C154.01 47.19, 158.36 59.47, 159.72 70.26 C161.08 81.04, 158.72 92.06, 155.86 102.71 C153.01 113.36, 149.68 125.47, 142.6 134.16 C135.53 142.84, 123.03 149.91, 113.42 154.83 C103.81 159.75, 95.39 162.9, 84.93 163.67 C74.47 164.45, 60.7 163.16, 50.66 159.45 C40.62 155.75, 32.59 149.4, 24.67 141.43 C16.75 133.45, 7.23 122.07, 3.13 111.61 C-0.97 101.16, -0.98 90.03, 0.05 78.68 C1.09 67.34, 4.49 53.53, 9.34 43.52 C14.2 33.52, 20.6 25.63, 29.2 18.67 C37.79 11.72, 44.61 2.67, 60.93 1.77 C77.26 0.87, 112.83 6.57, 127.16 13.27 C141.48 19.98, 147.63 40.76, 146.87 42.01 M118.93 7.47 C128.21 11.27, 136.44 22.7, 142.45 32.06 C148.46 41.43, 152.37 53.51, 154.97 63.67 C157.58 73.83, 159.42 82.05, 158.07 93.03 C156.72 104.02, 153.26 120.21, 146.88 129.59 C140.51 138.98, 129.17 143.34, 119.83 149.33 C110.49 155.33, 101.42 164.04, 90.84 165.58 C80.27 167.11, 66.34 161.88, 56.38 158.53 C46.43 155.19, 39.08 152.65, 31.11 145.51 C23.15 138.37, 14.27 125.36, 8.59 115.68 C2.92 106, -2.25 97.64, -2.94 87.43 C-3.62 77.22, -0.5 64.93, 4.48 54.44 C9.46 43.95, 18.94 32.34, 26.94 24.5 C34.94 16.66, 42.59 11.5, 52.49 7.39 C62.4 3.27, 75.2 -0.58, 86.36 -0.18 C97.52 0.23, 114.53 8.13, 119.43 9.81 C124.33 11.49, 117.3 8.36, 115.75 9.91" stroke="none" stroke-width="0" fill="#b2f2bb"></path><path d="M89.36 2.65 C99.76 2.83, 112.98 5.12, 122.61 11.03 C132.24 16.94, 141.21 28.51, 147.13 38.12 C153.05 47.72, 156.66 58.27, 158.11 68.65 C159.55 79.03, 158.4 89.58, 155.8 100.38 C153.2 111.17, 148.96 124.53, 142.49 133.42 C136.02 142.31, 126.27 148.89, 116.98 153.73 C107.69 158.56, 97.29 161.56, 86.76 162.44 C76.22 163.31, 63.88 162.42, 53.76 158.97 C43.64 155.52, 33.77 149.15, 26.02 141.73 C18.27 134.3, 11.49 125.05, 7.24 114.42 C2.99 103.78, 0.66 89.01, 0.51 77.92 C0.36 66.83, 1.91 57.84, 6.32 47.89 C10.73 37.94, 18.46 25.8, 26.96 18.22 C35.45 10.64, 43.8 4.42, 57.3 2.41 C70.8 0.41, 96.62 3.84, 107.95 6.19 C119.28 8.55, 125.78 15.21, 125.28 16.55 M92.5 -1.57 C103.33 -1.02, 115.73 8.14, 124.87 15.18 C134.01 22.21, 141.52 31.34, 147.34 40.64 C153.15 49.95, 158.81 60.33, 159.76 71.01 C160.71 81.69, 156.82 93.51, 153.05 104.73 C149.28 115.95, 144.05 130.23, 137.12 138.31 C130.2 146.38, 120.95 148.66, 111.52 153.17 C102.08 157.69, 91.26 164.57, 80.54 165.42 C69.81 166.27, 56.96 162.98, 47.16 158.27 C37.35 153.55, 28.97 145.3, 21.7 137.14 C14.42 128.97, 6.83 119.13, 3.52 109.31 C0.21 99.48, 0.45 89.69, 1.86 78.2 C3.27 66.7, 7.17 50.83, 11.97 40.32 C16.77 29.81, 22.12 21.87, 30.67 15.13 C39.21 8.4, 53.05 2.46, 63.23 -0.11 C73.41 -2.69, 86.65 -0.57, 91.74 -0.3 C96.83 -0.03, 93.65 0.05, 93.78 1.51" stroke="#1e1e1e" stroke-width="4" fill="none"></path></g><g transform="translate(159.935050568522 386.85057727603726) rotate(0 46.59996032714844 25)"><text x="46.59996032714844" y="0" font-family="Virgil, Segoe UI Emoji" font-size="20px" fill="#1e1e1e" text-anchor="middle" style="white-space: pre;" direction="ltr" dominant-baseline="text-before-edge">Editorial </text><text x="46.59996032714844" y="25" font-family="Virgil, Segoe UI Emoji" font-size="20px" fill="#1e1e1e" text-anchor="middle" style="white-space: pre;" direction="ltr" dominant-baseline="text-before-edge">Data</text></g><g stroke-linecap="round" transform="translate(117.25000000000091 563.8333333333339) rotate(0 79.5 82)"><path d="M99.28 0.94 C109.4 2.47, 119.74 12.5, 128.14 19.67 C136.53 26.84, 144.34 34.65, 149.66 43.95 C154.99 53.25, 159.04 64.18, 160.08 75.46 C161.11 86.74, 159.79 101.01, 155.87 111.62 C151.94 122.23, 144.37 131.48, 136.52 139.12 C128.67 146.76, 118.77 153.24, 108.78 157.46 C98.8 161.68, 87.28 164.81, 76.6 164.43 C65.92 164.05, 54.12 160.09, 44.7 155.18 C35.29 150.28, 26.96 143.27, 20.1 135.01 C13.24 126.75, 7.02 116.61, 3.53 105.62 C0.03 94.63, -2.02 80.44, -0.87 69.08 C0.29 57.73, 4.51 46.92, 10.45 37.48 C16.39 28.05, 25.19 18.24, 34.76 12.47 C44.34 6.7, 52.73 2.08, 67.91 2.86 C83.09 3.64, 112.91 11.24, 125.83 17.16 C138.76 23.09, 146.26 37.75, 145.47 38.41 M77.5 -0.08 C87.03 -1.51, 98.97 2.11, 108.62 6.54 C118.26 10.96, 127.78 18.55, 135.35 26.47 C142.92 34.4, 150.1 44.09, 154.06 54.08 C158.03 64.07, 160.25 75.14, 159.14 86.42 C158.03 97.69, 153.08 111.28, 147.39 121.74 C141.7 132.21, 133.05 142.93, 124.99 149.23 C116.93 155.53, 108.9 157.03, 99.03 159.55 C89.17 162.07, 77.03 165.56, 65.79 164.35 C54.55 163.15, 40.44 158.73, 31.59 152.32 C22.75 145.91, 17.61 135.85, 12.74 125.87 C7.88 115.9, 4.4 103.7, 2.41 92.44 C0.42 81.19, -1.91 68.51, 0.8 58.37 C3.52 48.23, 11.78 39.77, 18.7 31.6 C25.62 23.44, 32.16 14.82, 42.33 9.36 C52.51 3.9, 74.15 0.28, 79.74 -1.14 C85.34 -2.57, 75.81 -0.43, 75.91 0.82" stroke="none" stroke-width="0" fill="#b2f2bb"></path><path d="M51.29 7.35 C60.59 1.92, 72.3 -0.96, 82.43 -0.92 C92.57 -0.88, 102.77 2.66, 112.09 7.6 C121.41 12.54, 130.86 20.25, 138.36 28.7 C145.85 37.15, 153.96 47.48, 157.05 58.31 C160.14 69.15, 158.33 82.6, 156.9 93.71 C155.47 104.82, 154.18 115.82, 148.47 124.96 C142.77 134.09, 131.62 142.21, 122.69 148.5 C113.76 154.79, 105.57 160.59, 94.89 162.68 C84.21 164.77, 69.58 163.61, 58.63 161.05 C47.68 158.48, 37.46 154.16, 29.19 147.27 C20.92 140.38, 13.99 129.34, 9 119.72 C4.01 110.1, -0.2 100.76, -0.77 89.56 C-1.35 78.35, 1.7 63.02, 5.55 52.51 C9.4 41.99, 8.88 35.03, 22.32 26.47 C35.76 17.91, 70.31 3.34, 86.19 1.14 C102.07 -1.07, 117.72 12.15, 117.62 13.26 M30.29 21.5 C37.18 13.22, 48.24 5.09, 58.65 2.11 C69.06 -0.88, 82.34 1.49, 92.75 3.58 C103.17 5.68, 112.72 9.3, 121.14 14.68 C129.56 20.06, 137.41 26.41, 143.27 35.85 C149.13 45.28, 154.07 60.54, 156.29 71.26 C158.52 81.99, 158.65 89.47, 156.61 100.2 C154.56 110.94, 150.69 126.69, 144.04 135.65 C137.38 144.6, 126.3 148.99, 116.66 153.94 C107.02 158.89, 96.63 164.12, 86.2 165.38 C75.78 166.64, 64.07 165.22, 54.11 161.5 C44.15 157.77, 34.17 150.88, 26.44 143.02 C18.72 135.16, 12.48 124.73, 7.76 114.34 C3.04 103.95, -2.48 91.75, -1.89 80.66 C-1.3 69.56, 5.89 58.08, 11.33 47.75 C16.76 37.41, 27.64 22.89, 30.73 18.65 C33.82 14.42, 29.77 21.16, 29.88 22.32" stroke="#1e1e1e" stroke-width="4" fill="none"></path></g><g transform="translate(169.74502523893216 620.8505772760373) rotate(0 26.78998565673828 25)"><text x="26.78998565673828" y="0" font-family="Virgil, Segoe UI Emoji" font-size="20px" fill="#1e1e1e" text-anchor="middle" style="white-space: pre;" direction="ltr" dominant-baseline="text-before-edge">Core </text><text x="26.78998565673828" y="25" font-family="Virgil, Segoe UI Emoji" font-size="20px" fill="#1e1e1e" text-anchor="middle" style="white-space: pre;" direction="ltr" dominant-baseline="text-before-edge">Data</text></g></svg>