<svg xmlns="http://www.w3.org/2000/svg" width="650" height="465" viewBox="0 0 650 465">
  <path fill="#FFF" d="M247,155.47518 L316.47518,86 L358.901587,86 L247,197.901587 L247,155.47518 Z M247,226.185858 L387.185858,86 L388.132034,86 L408.87215,106.740115 L247,268.612265 L247,226.185858 Z M247,296.896536 L423.014285,120.882251 L444.227489,142.095454 L248.322943,338 L247,338 L247,296.896536 Z M276.607214,338 L458.369624,156.23759 L479.582828,177.450793 L319.033621,338 L276.607214,338 Z M347.317893,338 L493.724963,191.592929 L499,196.867966 L499,228.744299 L389.744299,338 L347.317893,338 Z"/>
  <path fill="#C61565" d="M434.5,101 C430.357864,101 427,97.6421356 427,93.5 C427,89.3578644 430.357864,86 434.5,86 C438.642136,86 442,89.3578644 442,93.5 C442,97.6421356 438.642136,101 434.5,101 Z M434.5,132 C430.357864,132 427,128.642136 427,124.5 C427,120.357864 430.357864,117 434.5,117 C438.642136,117 442,120.357864 442,124.5 C442,128.642136 438.642136,132 434.5,132 Z M434.5,163 C430.357864,163 427,159.642136 427,155.5 C427,151.357864 430.357864,148 434.5,148 C438.642136,148 442,151.357864 442,155.5 C442,159.642136 438.642136,163 434.5,163 Z M460.5,101 C456.357864,101 453,97.6421356 453,93.5 C453,89.3578644 456.357864,86 460.5,86 C464.642136,86 468,89.3578644 468,93.5 C468,97.6421356 464.642136,101 460.5,101 Z M460.5,132 C456.357864,132 453,128.642136 453,124.5 C453,120.357864 456.357864,117 460.5,117 C464.642136,117 468,120.357864 468,124.5 C468,128.642136 464.642136,132 460.5,132 Z M460.5,163 C456.357864,163 453,159.642136 453,155.5 C453,151.357864 456.357864,148 460.5,148 C464.642136,148 468,151.357864 468,155.5 C468,159.642136 464.642136,163 460.5,163 Z M487.5,101 C483.357864,101 480,97.6421356 480,93.5 C480,89.3578644 483.357864,86 487.5,86 C491.642136,86 495,89.3578644 495,93.5 C495,97.6421356 491.642136,101 487.5,101 Z M487.5,132 C483.357864,132 480,128.642136 480,124.5 C480,120.357864 483.357864,117 487.5,117 C491.642136,117 495,120.357864 495,124.5 C495,128.642136 491.642136,132 487.5,132 Z M487.5,163 C483.357864,163 480,159.642136 480,155.5 C480,151.357864 483.357864,148 487.5,148 C491.642136,148 495,151.357864 495,155.5 C495,159.642136 491.642136,163 487.5,163 Z M514.5,101 C510.357864,101 507,97.6421356 507,93.5 C507,89.3578644 510.357864,86 514.5,86 C518.642136,86 522,89.3578644 522,93.5 C522,97.6421356 518.642136,101 514.5,101 Z M514.5,132 C510.357864,132 507,128.642136 507,124.5 C507,120.357864 510.357864,117 514.5,117 C518.642136,117 522,120.357864 522,124.5 C522,128.642136 518.642136,132 514.5,132 Z M514.5,163 C510.357864,163 507,159.642136 507,155.5 C507,151.357864 510.357864,148 514.5,148 C518.642136,148 522,151.357864 522,155.5 C522,159.642136 518.642136,163 514.5,163 Z"/>
</svg>
