<svg xmlns="http://www.w3.org/2000/svg" width="650" height="465" viewBox="0 0 650 465">
  <path fill="#F8BF51" d="M355.5 158.5C341.140597 158.5 329.5 146.859403 329.5 132.5 329.5 118.140597 341.140597 106.5 355.5 106.5 369.859403 106.5 381.5 118.140597 381.5 132.5 381.5 146.859403 369.859403 158.5 355.5 158.5zM355.5 146.5C363.231986 146.5 369.5 140.231986 369.5 132.5 369.5 124.768014 363.231986 118.5 355.5 118.5 347.768014 118.5 341.5 124.768014 341.5 132.5 341.5 140.231986 347.768014 146.5 355.5 146.5zM355.5 188C324.848196 188 300 163.151804 300 132.5 300 101.848196 324.848196 77 355.5 77 386.151804 77 411 101.848196 411 132.5 411 163.151804 386.151804 188 355.5 188zM355.5 173C377.867532 173 396 154.867532 396 132.5 396 110.132468 377.867532 92 355.5 92 333.132468 92 315 110.132468 315 132.5 315 154.867532 333.132468 173 355.5 173zM567 342C533.31063 342 506 314.68937 506 281 506 247.31063 533.31063 220 567 220 600.68937 220 628 247.31063 628 281 628 314.68937 600.68937 342 567 342zM567 334C596.271092 334 620 310.271092 620 281 620 251.728908 596.271092 228 567 228 537.728908 228 514 251.728908 514 281 514 310.271092 537.728908 334 567 334z"/>
  <path fill="#FFF" d="M320,243 C313.372583,243 308,237.627417 308,231 C308,224.372583 313.372583,219 320,219 C326.627417,219 332,224.372583 332,231 C332,237.627417 326.627417,243 320,243 Z M320,295 C313.372583,295 308,289.627417 308,283 C308,276.372583 313.372583,271 320,271 C326.627417,271 332,276.372583 332,283 C332,289.627417 326.627417,295 320,295 Z M320,347 C313.372583,347 308,341.627417 308,335 C308,328.372583 313.372583,323 320,323 C326.627417,323 332,328.372583 332,335 C332,341.627417 326.627417,347 320,347 Z M364,243 C357.372583,243 352,237.627417 352,231 C352,224.372583 357.372583,219 364,219 C370.627417,219 376,224.372583 376,231 C376,237.627417 370.627417,243 364,243 Z M364,295 C357.372583,295 352,289.627417 352,283 C352,276.372583 357.372583,271 364,271 C370.627417,271 376,276.372583 376,283 C376,289.627417 370.627417,295 364,295 Z M364,347 C357.372583,347 352,341.627417 352,335 C352,328.372583 357.372583,323 364,323 C370.627417,323 376,328.372583 376,335 C376,341.627417 370.627417,347 364,347 Z M408,243 C401.372583,243 396,237.627417 396,231 C396,224.372583 401.372583,219 408,219 C414.627417,219 420,224.372583 420,231 C420,237.627417 414.627417,243 408,243 Z M408,295 C401.372583,295 396,289.627417 396,283 C396,276.372583 401.372583,271 408,271 C414.627417,271 420,276.372583 420,283 C420,289.627417 414.627417,295 408,295 Z M408,347 C401.372583,347 396,341.627417 396,335 C396,328.372583 401.372583,323 408,323 C414.627417,323 420,328.372583 420,335 C420,341.627417 414.627417,347 408,347 Z M452,243 C445.372583,243 440,237.627417 440,231 C440,224.372583 445.372583,219 452,219 C458.627417,219 464,224.372583 464,231 C464,237.627417 458.627417,243 452,243 Z M452,295 C445.372583,295 440,289.627417 440,283 C440,276.372583 445.372583,271 452,271 C458.627417,271 464,276.372583 464,283 C464,289.627417 458.627417,295 452,295 Z M452,347 C445.372583,347 440,341.627417 440,335 C440,328.372583 445.372583,323 452,323 C458.627417,323 464,328.372583 464,335 C464,341.627417 458.627417,347 452,347 Z"/>
</svg>
