<svg xmlns="http://www.w3.org/2000/svg" width="650" height="465" viewBox="0 0 650 465">
  <path fill="#FFF" d="M247,155.47518 L316.47518,86 L358.901587,86 L247,197.901587 L247,155.47518 Z M247,226.185858 L387.185858,86 L388.132034,86 L408.87215,106.740115 L247,268.612265 L247,226.185858 Z M247,296.896536 L423.014285,120.882251 L444.227489,142.095454 L248.322943,338 L247,338 L247,296.896536 Z M276.607214,338 L458.369624,156.23759 L479.582828,177.450793 L319.033621,338 L276.607214,338 Z M347.317893,338 L493.724963,191.592929 L499,196.867966 L499,228.744299 L389.744299,338 L347.317893,338 Z"/>
  <path fill="#2AB3BB" d="M437.5,300 C433.357864,300 430,296.642136 430,292.5 C430,288.357864 433.357864,285 437.5,285 C441.642136,285 445,288.357864 445,292.5 C445,296.642136 441.642136,300 437.5,300 Z M437.5,331 C433.357864,331 430,327.642136 430,323.5 C430,319.357864 433.357864,316 437.5,316 C441.642136,316 445,319.357864 445,323.5 C445,327.642136 441.642136,331 437.5,331 Z M437.5,362 C433.357864,362 430,358.642136 430,354.5 C430,350.357864 433.357864,347 437.5,347 C441.642136,347 445,350.357864 445,354.5 C445,358.642136 441.642136,362 437.5,362 Z M463.5,300 C459.357864,300 456,296.642136 456,292.5 C456,288.357864 459.357864,285 463.5,285 C467.642136,285 471,288.357864 471,292.5 C471,296.642136 467.642136,300 463.5,300 Z M463.5,331 C459.357864,331 456,327.642136 456,323.5 C456,319.357864 459.357864,316 463.5,316 C467.642136,316 471,319.357864 471,323.5 C471,327.642136 467.642136,331 463.5,331 Z M463.5,362 C459.357864,362 456,358.642136 456,354.5 C456,350.357864 459.357864,347 463.5,347 C467.642136,347 471,350.357864 471,354.5 C471,358.642136 467.642136,362 463.5,362 Z M490.5,300 C486.357864,300 483,296.642136 483,292.5 C483,288.357864 486.357864,285 490.5,285 C494.642136,285 498,288.357864 498,292.5 C498,296.642136 494.642136,300 490.5,300 Z M490.5,331 C486.357864,331 483,327.642136 483,323.5 C483,319.357864 486.357864,316 490.5,316 C494.642136,316 498,319.357864 498,323.5 C498,327.642136 494.642136,331 490.5,331 Z M490.5,362 C486.357864,362 483,358.642136 483,354.5 C483,350.357864 486.357864,347 490.5,347 C494.642136,347 498,350.357864 498,354.5 C498,358.642136 494.642136,362 490.5,362 Z M517.5,300 C513.357864,300 510,296.642136 510,292.5 C510,288.357864 513.357864,285 517.5,285 C521.642136,285 525,288.357864 525,292.5 C525,296.642136 521.642136,300 517.5,300 Z M517.5,331 C513.357864,331 510,327.642136 510,323.5 C510,319.357864 513.357864,316 517.5,316 C521.642136,316 525,319.357864 525,323.5 C525,327.642136 521.642136,331 517.5,331 Z M517.5,362 C513.357864,362 510,358.642136 510,354.5 C510,350.357864 513.357864,347 517.5,347 C521.642136,347 525,350.357864 525,354.5 C525,358.642136 521.642136,362 517.5,362 Z"/>
</svg>
