<svg xmlns="http://www.w3.org/2000/svg" viewBox="0 0 435.8 19.8">
  <path d="M244.57 4.93c.07-.15.15-.15.22 0l4.31 9.81c.06.11.05.19-.08.19h-.93c-.13 0-.17 0-.22-.13l-1-2.3h-4.41l-1 2.3c-.06.11-.09.13-.23.13h-1c-.09 0-.1-.07-.05-.2zM243 11.35h3.43l-1.64-3.88c-.06-.11-.09-.11-.13 0zm10.18 3.56c-.2 0-.24 0-.24-.23V5c0-.09 0-.14.1-.14h.93c.15 0 .18 0 .18.2v8.56c0 .07 0 .07.07.07h3.29c.13 0 .16 0 .16.17v.83c0 .13 0 .17-.16.17h-4.33zm10.62 0c-.11 0-.14 0-.14-.16V6.16c0-.12 0-.15-.11-.15h-3.15c-.11 0-.14 0-.14-.11V5c0-.1 0-.13.13-.13h7.8c.1 0 .14 0 .14.11v.92c0 .1 0 .11-.14.11H265c-.1 0-.11 0-.11.12v8.59c0 .13 0 .19-.11.19zm12.56-10.2a5.17 5.17 0 1 1-5.22 5.18 5.2 5.2 0 0 1 5.19-5.18zm0 9.21a4 4 0 1 0-4-4 4 4 0 0 0 3.97 4zm14.07 0a5.24 5.24 0 0 0 2.48-.5v-3.2c0-.13 0-.19-.14-.19H290c-.1 0-.14 0-.14-.16v-.8a.15.15 0 0 1 .17-.15h3.81c.2 0 .23 0 .23.18v4.83c0 .19 0 .23-.2.33a8.31 8.31 0 0 1-3.56.79 5 5 0 0 1-5.16-5.16 5.12 5.12 0 0 1 5.28-5.18 7 7 0 0 1 3.3.82c.12 0 .16.1.16.21v.86c0 .1-.07.16-.23 0a6.39 6.39 0 0 0-3.23-.8 4 4 0 0 0-4.05 4.05 4 4 0 0 0 4.02 4.07zM299.27 5c0-.1.05-.11.13-.11h4.94c.14 0 .18 0 .18.13v.84c0 .12 0 .14-.15.14h-3.86v3.15h3.88c.08 0 .13.06.13.17v.71c0 .19 0 .23-.15.23h-3.85v3.45h3.89c.11 0 .11.07.11.22v.71c0 .12 0 .19-.18.19h-4.91c-.11 0-.16 0-.16-.15V5zM312 14.91c-.11 0-.14 0-.14-.16V6.16c0-.12 0-.15-.11-.15h-3.15c-.11 0-.14 0-.14-.11V5c0-.1 0-.13.13-.13h7.8c.1 0 .15 0 .15.11v.92c0 .1-.05.11-.15.11h-3.16c-.1 0-.11 0-.11.12v8.59c0 .13 0 .19-.11.19zm8.88 0c-.11 0-.15 0-.15-.13V5.06c0-.13 0-.16.14-.16h.94c.09 0 .13 0 .13.13V9.2h4.48s.05 0 .05-.07V5c0-.09.06-.13.16-.13h.89c.13 0 .17.09.17.19v9.67c0 .09 0 .15-.13.15h-.89c-.15 0-.2-.05-.2-.19v-4.3c0-.06 0-.09-.08-.09H322v4.38c0 .11 0 .16-.14.16zM332.62 5c0-.1 0-.11.13-.11h4.93c.14 0 .19 0 .19.13v.84c0 .12 0 .14-.16.14h-3.86v3.15h3.88c.08 0 .13.06.13.17v.71c0 .19-.05.23-.15.23h-3.84c-.05 0-.06 0-.06.06v3.39h3.89c.11 0 .11.07.11.22v.71c0 .12-.05.19-.18.19h-4.9c-.12 0-.16 0-.16-.15V5zm12.15-.11c2.77 0 3.63 1.07 3.63 2.79a2.59 2.59 0 0 1-1.83 2.79l3.43 4.25c.06.07.07.19-.08.19h-1.13c-.12 0-.16-.05-.23-.13l-3.35-4.09h-1.31c-.15 0-.16 0-.16.16v3.89c0 .1 0 .17-.13.17h-.93c-.11 0-.14-.05-.14-.17V5.07c0-.14.06-.17.17-.17zm-1 4.52c0 .14 0 .17.15.17h.93c1.58 0 2.33-.55 2.33-1.8S346.37 6 344.8 6h-.9c-.14 0-.16 0-.16.16v3.26zm19.55 5.63a5.49 5.49 0 0 1-2.31-.47c-.12-.08-.14-.12-.14-.23v-.92c0-.08.07-.1.16 0a3.81 3.81 0 0 0 2 .6c1.45 0 2.16-.6 2.16-1.78 0-1.44-1.2-1.88-2.29-2.37a2.76 2.76 0 0 1-2-2.72c0-1.44.94-2.36 2.7-2.36a4.3 4.3 0 0 1 2.06.46.22.22 0 0 1 .12.2v.85c0 .07-.09.1-.15.06a3 3 0 0 0-1.81-.56c-1.19 0-1.7.54-1.7 1.38 0 1.05.82 1.41 1.8 1.86 1.13.53 2.41 1.18 2.41 3.13s-1.23 2.88-3.04 2.88zm15.91-.14c-.11 0-.14 0-.14-.19v-7c0-.1-.08-.08-.13 0l-3.36 4c-.15.16-.23.16-.34 0l-3.38-4c-.08-.08-.16 0-.16.1v6.94c0 .13 0 .15-.11.15h-.89c-.14 0-.17 0-.17-.17V4.94c0-.13.12-.11.16-.07l4.57 5.18c.12.14.16.14.26 0L380 4.94c.11-.13.2-.07.2.06v9.76c0 .1 0 .15-.12.15zm8.92-10c.07-.15.14-.15.22 0l4.31 9.81c.06.11.05.19-.08.19h-.93c-.13 0-.17 0-.22-.13l-1-2.3H386l-1 2.3c-.06.11-.09.13-.23.13h-1c-.09 0-.1-.07-.05-.2zm-1.6 6.42H390l-1.64-3.88c-.06-.11-.09-.11-.13 0zM399 4.9c2.78 0 3.64 1.07 3.64 2.79a2.6 2.6 0 0 1-1.83 2.79l3.46 4.24c.05.07.07.19-.09.19H403a.28.28 0 0 1-.23-.13l-3.34-4.09h-1.33c-.14 0-.16 0-.16.16v3.89c0 .1 0 .17-.13.17h-.93c-.11 0-.14-.05-.14-.17V5.07c0-.14.06-.17.17-.17zm-1 4.52c0 .14 0 .17.14.17h.86c1.58 0 2.33-.55 2.33-1.8S400.58 6 399 6h-.9c-.14 0-.15 0-.15.16v3.26zm12.25 5.49c-.12 0-.14 0-.14-.16V6.16c0-.12 0-.15-.12-.15h-3.19c-.12 0-.15 0-.15-.11V5c0-.1 0-.13.13-.13h7.81c.1 0 .14 0 .14.11v.92c0 .1 0 .11-.14.11h-3.16c-.1 0-.12 0-.12.12v8.59c0 .13 0 .19-.11.19zM418.66 5c0-.1 0-.11.13-.11h4.93c.15 0 .19 0 .19.13v.84c0 .12 0 .14-.16.14h-3.86v3.15h3.92c.09 0 .13.06.13.17v.71c0 .19 0 .23-.14.23h-3.85a.05.05 0 0 0-.06.06v3.39h3.94c.11 0 .11.07.11.22v.71a.17.17 0 0 1-.19.19h-4.9c-.11 0-.16 0-.16-.15V5zm11.87-.11c2.77 0 3.63 1.07 3.63 2.79a2.59 2.59 0 0 1-1.83 2.79l3.46 4.24c.06.07.07.19-.08.19h-1.13c-.12 0-.16-.05-.23-.13L431 10.69h-1.34c-.14 0-.16 0-.16.16v3.89c0 .1 0 .17-.13.17h-.93c-.11 0-.14-.05-.14-.17V5.07c0-.14.06-.17.17-.17zm-1 4.52c0 .14 0 .17.14.17h.93c1.59 0 2.33-.55 2.33-1.8S432.13 6 430.56 6h-.9c-.14 0-.16 0-.16.16v3.26z" fill="#252525"/>
  <path fill="#1d1d1b" d="M215.752 19.498l8.764-19.502.62.28-8.764 19.5z"/>
  <path d="M4.62 17.91A8 8 0 0 1 .73 17 7.51 7.51 0 0 1 0 13.33a.56.56 0 0 1 .87-.07c.46 1.49 2 3.59 3.94 3.59a2.27 2.27 0 0 0 2.47-2.31c0-1.85-1.74-2.95-3.11-3.64C2.52 10.08.71 8.7.71 6.44c0-2.59 2-4.38 5.31-4.38a9.43 9.43 0 0 1 2.61.37 4.83 4.83 0 0 0 .78.18 11.34 11.34 0 0 1 .41 3.28c-.11.27-.69.29-.89.07-.39-1.17-1.38-2.84-3-2.84a2.13 2.13 0 0 0-2.36 2.13 3.36 3.36 0 0 0 2.09 2.61l1.51.8c1.42.75 3.23 2.08 3.23 4.6-.01 2.81-2.32 4.65-5.78 4.65zm26-15.25a31.63 31.63 0 0 0 .27 3.57.63.63 0 0 1-.87.16 4.15 4.15 0 0 0-4.3-3.27c-2.55 0-5.27 2.17-5.27 6.73s2.63 7 5.38 7a5 5 0 0 0 4.67-3.55.66.66 0 0 1 .87.16 10.19 10.19 0 0 1-.87 3.6 17.17 17.17 0 0 1-4.65.85 10.45 10.45 0 0 1-6.15-1.74 7.19 7.19 0 0 1-2.91-6 7.56 7.56 0 0 1 2.74-6.07 10 10 0 0 1 6.34-2 27.41 27.41 0 0 1 4.72.56zm23 7.26c0 5-3.34 8-8.27 8-4.6 0-7.94-3-7.94-7.81a7.89 7.89 0 0 1 8.17-8c4.77-.05 8.04 3.16 8.04 7.81zm-8.22-6.8c-2.82 0-4.33 2.63-4.33 6.45 0 2.79 1 7.28 4.72 7.28 3 0 4.17-2.93 4.17-6.64.04-3.91-1.72-7.09-4.56-7.09zM65 4.15c0-.55 0-.67-.55-.67H63c-1.67 0-2.15.92-2.84 2.59a.63.63 0 0 1-.84-.21A28 28 0 0 0 60.05 2a.54.54 0 0 1 .32-.11.5.5 0 0 1 .32.09c.12.39.18.48 1.93.48h8.51c1.51 0 1.86 0 2.06-.51a.64.64 0 0 1 .3-.06.46.46 0 0 1 .34.16A16.48 16.48 0 0 0 73.49 6c-.11.2-.73.25-.85.06-.39-1.46-.71-2.54-2.42-2.54h-1.38c-.55 0-.62.07-.62.67v10.05c0 2.13.14 2.31 1.17 2.45l.92.12a.73.73 0 0 1 0 .8c-1.49-.05-2.64-.07-3.67-.07s-2.29 0-3.89.07a.66.66 0 0 1 0-.8l1-.12c1-.11 1.17-.32 1.17-2.45V4.15zm20.22 0c0-.55 0-.67-.55-.67H83.2c-1.67 0-2.15.92-2.84 2.59a.64.64 0 0 1-.85-.21A28.28 28.28 0 0 0 80.27 2a.54.54 0 0 1 .32-.11.52.52 0 0 1 .32.09c.11.39.18.48 1.92.48h8.52c1.51 0 1.85 0 2.06-.51a.64.64 0 0 1 .3-.06.46.46 0 0 1 .34.16A15.94 15.94 0 0 0 93.71 6c-.12.21-.73.26-.85.07-.39-1.46-.71-2.54-2.43-2.54h-1.37c-.55 0-.62.07-.62.67v10.04c0 2.13.14 2.31 1.17 2.45l.92.12a.73.73 0 0 1 0 .8c-1.49-.05-2.64-.07-3.67-.07s-2.29 0-3.89.07a.66.66 0 0 1 0-.8l1-.12c1-.11 1.17-.32 1.17-2.45V4.15zm22.47 1.71c0-2.4 0-2.77-1.49-2.88h-.57c-.14-.09-.09-.5 0-.57 1.29.05 2.07.07 3 .07s1.67 0 2.82-.07c.13.07.18.48 0 .57h-.55c-1.35.11-1.39.48-1.39 2.88v8c0 1.44.06 2 .48 2.47.25.25.68.53 2.49.53s2.43-.09 2.8-.3a4.94 4.94 0 0 0 1.51-2.27c.13-.11.57 0 .57.14a18.51 18.51 0 0 1-1 3.21c-1.17-.05-3.35-.07-5.7-.07h-2.06c-1 0-1.69 0-3 .07a.46.46 0 0 1 0-.58l.69-.06c1.33-.14 1.37-.46 1.37-2.86V5.86zm14.88 4.28a7.92 7.92 0 0 1 8.15-8.08 7.54 7.54 0 0 1 8 7.86 7.82 7.82 0 0 1-8 8c-5.13-.01-8.2-3.66-8.2-7.78zm13.81.49c0-3.78-1.67-7.86-6.05-7.86-2.38 0-5.47 1.63-5.47 6.64 0 3.39 1.65 7.79 6.16 7.79 2.7 0 5.31-2.06 5.31-6.57zm21.81 4.57c0 .92.14 1.47.55 1.63a.18.18 0 0 1 0 .27 5.57 5.57 0 0 0-1.12.21 17.89 17.89 0 0 1-4.1.6 9.52 9.52 0 0 1-7-2.55 7.21 7.21 0 0 1-2.11-5.19 7.9 7.9 0 0 1 2.06-5.43c1.54-1.6 3.8-2.68 7.26-2.68a13 13 0 0 1 2.91.35 5.8 5.8 0 0 0 1.42.2 26.62 26.62 0 0 0 .34 3.32c-.07.18-.48.21-.62.07-.64-2.47-2.36-3.25-4.69-3.25-4.44 0-6.39 3.16-6.39 6.59 0 4.4 2.27 7.86 6.87 7.86 1.42 0 2.27-.3 2.52-.69a2.6 2.6 0 0 0 .23-1.31v-.91c0-1.93-.07-2.06-1.49-2.22l-1-.12a.38.38 0 0 1 0-.57c.67 0 1.93.07 3.28.07.89 0 1.67 0 2.42-.07a.4.4 0 0 1 0 .57l-.37.05c-1 .11-1 .75-1 1.92v1.28zm9.76-9.29c0-2.43-.05-2.82-1.4-2.93h-.57c-.14-.09-.09-.5 0-.57 1.14.05 1.92.07 2.88.07s1.69 0 2.84-.07c.14.07.18.48 0 .57h-.57c-1.35.11-1.39.5-1.39 2.93v8.15c0 2.43 0 2.75 1.39 2.91l.57.06a.45.45 0 0 1 0 .58c-1.15-.05-1.92-.07-2.84-.07s-1.74 0-2.88.07a.45.45 0 0 1 0-.58l.57-.06c1.35-.16 1.4-.48 1.4-2.91zM180.47 4a9.83 9.83 0 0 1 6.18-1.95 17.59 17.59 0 0 1 4 .55 1.58 1.58 0 0 0 .64.09c0 .53.14 2 .32 3.37a.48.48 0 0 1-.62 0c-.34-1.55-1.37-3.34-4.69-3.34-3.5 0-6.48 2.22-6.48 7s3 7.46 6.8 7.46a4.89 4.89 0 0 0 4.79-3.27.48.48 0 0 1 .59.09 8.54 8.54 0 0 1-1.1 3.14 5.26 5.26 0 0 0-.8.23 13.55 13.55 0 0 1-3.62.53 10.07 10.07 0 0 1-5.7-1.54 7.38 7.38 0 0 1-3.25-6.29A7.6 7.6 0 0 1 180.47 4z" fill="#252525"/>
</svg>
