<svg xmlns="http://www.w3.org/2000/svg" viewBox="0 0 435 100" xml:space="preserve">
  <path d="M120.5 54.4h7.3c.3 6.3 4 9.3 11.8 9.3 6.5 0 9.9-2 9.9-6 0-4.4-4-5.1-11.3-6.8-11.1-2.6-16.4-4.8-16.4-12.3 0-8 6.1-11.8 16.5-11.8 11.7 0 17.5 4.9 17.7 14.8h-7.2c-.4-6.2-3.5-8.8-10.7-8.8-6.3 0-9.2 1.8-9.2 5.5 0 4.1 3.6 4.9 11.8 6.9 10.6 2.6 15.9 4.5 15.9 12 0 8-6.1 12.7-17.6 12.7-11.8 0-18.4-5-18.5-15.5zm40.2-1.8c0-9 3.6-17.3 16.7-17.3 10.3 0 15.2 5.5 15.2 13.9h-7.2c-.5-5.2-2.6-8.2-8.2-8.2-7.3 0-9.3 5-9.3 11.5 0 6.4 2 11.3 9.4 11.3 5.6 0 7.6-2.8 8-7.6h7.2c0 8.3-4.7 13.7-15 13.7-13.3 0-16.8-8.3-16.8-17.3zm35.1 0c0-8.9 3.5-17.3 16.7-17.3 13.1 0 16.7 8.4 16.7 17.3 0 9-3.6 17.3-16.8 17.3-13.2 0-16.6-8.3-16.6-17.3zm16.6 11.6c7.9 0 9.6-5.1 9.6-11.6 0-6.3-1.6-11.6-9.6-11.6-7.8 0-9.6 5.3-9.6 11.6.1 6.4 1.9 11.6 9.6 11.6zm23-4.4V41.4h-4.8v-4.2l4.8-1.5v-8.4h6.9v8.4h9v5.7h-8.8v18.4c0 3.2 1.5 4.6 8.8 4.3v5.7c-11.2.6-15.9-2-15.9-10zm22.6 0V41.4h-4.8v-5.6l4.8-.1v-8.4h6.9v8.4h9v5.7h-8.8v18.4c0 3.2 1.5 4.6 8.8 4.3v5.7c-11.2.6-15.9-2-15.9-10zm36.3-32.5h7.3v36.3h16v5.9h-23.3V27.3zm25.3 25.3c0-8.9 3.5-17.3 16.7-17.3 13.1 0 16.7 8.4 16.7 17.3 0 9-3.6 17.3-16.8 17.3-13.2 0-16.6-8.3-16.6-17.3zm16.7 11.6c7.9 0 9.6-5.1 9.6-11.6 0-6.3-1.6-11.6-9.6-11.6-7.8 0-9.6 5.3-9.6 11.6.1 6.4 1.8 11.6 9.6 11.6zm36.9 2c-7-1-10.2-1.3-10.2-3s2.2-1.8 9.2-2c12-.4 14.8-5.3 14.8-11.9 0-5.1-1.7-7.4-3.8-8.6l4.7-5v-.1h-14.8c-4.4 0-16.5 0-16.5 12.6 0 4.1 1.3 7.4 5.1 9.5-3.8.9-5.7 2.5-5.7 5.8 0 5.7 4.7 6.5 16.9 8.1 6.2.8 8.8 1.5 8.8 4.6 0 1.9-1.4 4.4-9.4 4.4-5.1 0-7.4-1-8.5-2.8h-8c1.2 5.5 5.5 8.7 16 8.7C385.7 86.7 389 81 389 76c0-8-8.6-8.8-15.8-9.8zm-1.5-24.3c6.6 0 7.9 2.8 7.9 6.7 0 4.3-1.5 7.3-7.9 7.3-6.6 0-8-3.1-8-7.1.1-4.2 1.5-6.9 8-6.9zM395.3 22c3 0 5 .9 5 4.3s-2 4.2-5 4.2c-3.2 0-5.2-.9-5.2-4.2 0-3.4 2.1-4.3 5.2-4.3zm-3.5 13.7h7v33.8h-7V35.7zm11.4 16.9c0-9 3.6-17.3 16.7-17.3 10.3 0 15.2 5.5 15.2 13.9h-7.2c-.5-5.2-2.6-8.2-8.2-8.2-7.3 0-9.3 5-9.3 11.5 0 6.4 2 11.3 9.4 11.3 5.6 0 7.6-2.8 8-7.6h7.2c0 8.3-4.7 13.7-15 13.7-13.4 0-16.8-8.3-16.8-17.3z" fill="#252525"/>
  <path fill="#ef8547" d="M21.9 4.2 0 1.8l2.7 24L0 84.5v1.1l26.4-56.5L46.3 1.8z"/>
  <path fill="#2bb3bb" d="M96.7 35.3 67.3 77.5 30.4 98.2l42.2-2.5 24.1 2.5L94 74.4z"/>
  <path fill="#c41565" d="M96.7 1.8H58.9L30.5 72.1.1 98.1h11.7l.1-.1 5.7.1 50-53.1 29.1-22.3V1.8z"/>
</svg>
