<?xml version="1.0" encoding="utf-8"?>
<!-- Generator: Adobe Illustrator 21.1.0, SVG Export Plug-In . SVG Version: 6.00 Build 0)  -->
<svg version="1.1" id="Layer_1" xmlns="http://www.w3.org/2000/svg" xmlns:xlink="http://www.w3.org/1999/xlink" x="0px" y="0px"
	 viewBox="0 0 158.7 13.3" style="enable-background:new 0 0 158.7 13.3;" xml:space="preserve">
<style type="text/css">
	.st0{fill:#000000;}
</style>
<title>footer-logo</title>
<g id="Layer_2">
	<g id="Layer_1-2">
		<path class="st0" d="M3.8,13.3c-1.1,0-2.2-0.2-3.2-0.7c-0.5-1-0.7-2-0.6-3.1c0.1-0.2,0.4-0.3,0.7-0.1c0,0,0,0,0.1,0.1
			c0.4,1.2,1.6,3,3.2,3c1,0.1,1.9-0.7,2-1.8c0-0.1,0-0.1,0-0.2c0-1.6-1.4-2.5-2.5-3C2.1,6.8,0.6,5.7,0.6,3.8c0-2.1,1.6-3.6,4.4-3.6
			c0.7,0,1.5,0.1,2.2,0.3c0.2,0.1,0.4,0.1,0.6,0.1C8,1.5,8.2,2.4,8.1,3.3C8,3.5,7.6,3.6,7.4,3.4C7.1,2.4,6.2,1,4.9,1
			C3.9,0.9,3.1,1.7,3,2.6c0,0.1,0,0.1,0,0.2c0.1,1,0.8,1.8,1.7,2.2l1.2,0.7c1.6,0.6,2.6,2.1,2.7,3.8C8.6,11.7,6.7,13.3,3.8,13.3z"/>
		<path class="st0" d="M25.3,0.7c0,1,0.1,2,0.2,3C25.3,3.9,25,4,24.8,3.8c-0.3-1.7-1.8-2.9-3.6-2.8c-2.1,0-4.4,1.8-4.4,5.6
			s2.2,5.8,4.4,5.8c1.8,0,3.4-1.2,3.9-2.9c0.2-0.2,0.6-0.1,0.7,0.1c-0.1,1-0.3,2.1-0.7,3c-1.2,0.4-2.5,0.6-3.8,0.7
			c-1.8,0.1-3.6-0.4-5.1-1.4c-1.6-1.2-2.5-3-2.4-5c-0.1-1.9,0.8-3.8,2.3-5c1.5-1.1,3.4-1.7,5.2-1.6C22.7,0.2,24,0.4,25.3,0.7z"/>
		<path class="st0" d="M44.3,6.7c0,4.1-2.8,6.6-6.8,6.6c-3.4,0.2-6.3-2.4-6.6-5.8c0-0.2,0-0.5,0-0.7c-0.1-3.6,2.8-6.6,6.4-6.6
			c0.1,0,0.3,0,0.4,0C41.1,0,44.1,2.6,44.3,6C44.3,6.2,44.3,6.5,44.3,6.7z M37.5,1c-2.3,0-3.6,2.2-3.6,5.3c0,2.3,0.8,6,3.9,6
			c2.5,0,3.4-2.4,3.4-5.5C41.3,3.7,39.8,1,37.5,1z"/>
		<path class="st0" d="M53.7,1.9c0-0.4,0-0.6-0.5-0.6H52c-1.4,0-1.8,0.8-2.3,2.1c-0.2,0.1-0.5,0.1-0.7-0.2c0.3-1.1,0.5-2.1,0.7-3.2
			C49.7,0,49.8,0,49.9,0c0.1,0,0.2,0,0.3,0.1c0.1,0.3,0.2,0.4,1.6,0.4h7c1.2,0,1.5,0,1.7-0.4C60.5,0,60.6,0,60.7,0
			c0.1,0,0.2,0.1,0.3,0.1c-0.2,1.1-0.3,2.2-0.3,3.3c-0.1,0.2-0.6,0.2-0.7,0.1c-0.3-1.2-0.6-2.1-2-2.1h-1.1c-0.5,0-0.5,0.1-0.5,0.5
			v8.3c0,1.8,0.1,1.9,1,2l0.8,0.1c0.1,0.2,0.1,0.5,0,0.7c-1.2,0-2.2-0.1-3-0.1s-1.9,0-3.2,0.1c-0.2-0.2-0.2-0.5,0-0.7l0.8-0.1
			c0.8-0.1,1-0.3,1-2L53.7,1.9z"/>
		<path class="st0" d="M70.4,1.9c0-0.4,0-0.6-0.4-0.6h-1.2c-1.4,0-1.8,0.8-2.3,2.1c-0.2,0.1-0.5,0.1-0.7-0.2
			c0.3-1.1,0.5-2.1,0.6-3.2C66.4,0,66.5,0,66.6,0c0.1,0,0.2,0,0.3,0.1c0.1,0.3,0.2,0.4,1.6,0.4h7c1.2,0,1.5,0,1.7-0.4
			C77.2,0,77.3,0,77.4,0c0.1,0,0.2,0.1,0.3,0.1c-0.2,1.1-0.3,2.2-0.3,3.3c-0.1,0.2-0.6,0.2-0.7,0.1c-0.3-1.2-0.6-2.1-2-2.1h-1.1
			c-0.4,0-0.5,0.1-0.5,0.5v8.3c0,1.8,0.1,1.9,1,2l0.8,0.1c0.1,0.2,0.1,0.5,0,0.7c-1.2,0-2.2-0.1-3-0.1s-1.9,0-3.2,0.1
			c-0.2-0.2-0.2-0.5,0-0.7l0.8-0.1c0.8-0.1,1-0.3,1-2L70.4,1.9z"/>
		<path class="st0" d="M88.9,3.3c0-2,0-2.3-1.2-2.4h-0.5c-0.1-0.1-0.1-0.4,0-0.5c1.1,0,1.7,0.1,2.5,0.1s1.4,0,2.3-0.1
			c0.1,0.1,0.2,0.4,0,0.5h-0.4c-1.1,0.1-1.2,0.4-1.2,2.4v6.6c0,1.2,0.1,1.7,0.4,2c0.2,0.2,0.6,0.4,2.1,0.4s2-0.1,2.3-0.2
			c0.6-0.5,1-1.1,1.2-1.9c0.1-0.1,0.5,0,0.5,0.1c-0.2,0.9-0.4,1.8-0.7,2.7c-1,0-2.8-0.1-4.7-0.1h-1.7c-0.8,0-1.4,0-2.5,0.1
			c-0.1-0.1-0.1-0.3,0-0.5l0.6-0.1c1.1-0.1,1.1-0.4,1.1-2.4L88.9,3.3z"/>
		<path class="st0" d="M101.2,6.8c-0.1-3.6,2.8-6.6,6.4-6.7c0.1,0,0.3,0,0.4,0c3.4-0.2,6.4,2.4,6.6,5.9c0,0.2,0,0.4,0,0.6
			c0.1,3.6-2.8,6.5-6.3,6.6c-0.1,0-0.2,0-0.2,0c-3.5,0.2-6.5-2.4-6.8-6C101.2,7.2,101.2,7,101.2,6.8z M112.6,7.2
			c0-3.1-1.4-6.5-5-6.5c-2,0-4.5,1.3-4.5,5.5c0,2.8,1.4,6.4,5.1,6.4C110.5,12.7,112.6,11,112.6,7.2L112.6,7.2z"/>
		<path class="st0" d="M130.7,11c0,0.8,0.1,1.2,0.4,1.3c0.1,0.1,0.1,0.2,0,0.2c0,0,0,0,0,0c-0.3,0-0.6,0.1-0.9,0.2
			c-1.1,0.3-2.2,0.5-3.4,0.5c-2.1,0.1-4.2-0.6-5.8-2.1c-1.1-1.1-1.8-2.7-1.7-4.3c0-1.7,0.6-3.2,1.7-4.5c1.6-1.6,3.8-2.4,6-2.2
			c0.8,0,1.6,0.1,2.4,0.3c0.4,0.1,0.8,0.2,1.2,0.2c0,0.9,0.1,1.8,0.3,2.7c-0.1,0.2-0.4,0.2-0.5,0.1c-0.5-2-1.9-2.7-3.9-2.7
			c-3.7,0-5.3,2.6-5.3,5.4c0,3.6,1.9,6.5,5.7,6.5c1.2,0,1.9-0.2,2.1-0.6c0.2-0.3,0.2-0.7,0.2-1.1v-0.8c0-1.6-0.1-1.7-1.2-1.8
			L127,8.3c-0.1-0.1-0.1-0.3,0-0.4c0,0,0,0,0,0c0.6,0,1.6,0.1,2.7,0.1c0.7,0,1.4,0,2-0.1c0.1,0.1,0.1,0.3,0,0.5c0,0,0,0,0,0h-0.3
			c-0.8,0.1-0.8,0.6-0.8,1.6L130.7,11z"/>
		<path class="st0" d="M138.7,3.3c0-2,0-2.3-1.1-2.4h-0.5c-0.1-0.1-0.1-0.4,0-0.5c0.9,0,1.6,0.1,2.4,0.1s1.4,0,2.3-0.1
			c0.1,0.1,0.1,0.4,0,0.5h-0.5c-1.1,0.1-1.1,0.4-1.1,2.4v6.7c0,2,0,2.3,1.1,2.4l0.5,0.1c0.1,0.1,0.1,0.4,0,0.5
			c-0.9,0-1.6-0.1-2.3-0.1s-1.4,0-2.4,0.1c-0.1-0.1-0.1-0.3,0-0.5l0.5-0.1c1.1-0.1,1.1-0.4,1.1-2.4V3.3z"/>
		<path class="st0" d="M149.1,1.8c1.5-1.1,3.3-1.7,5.1-1.6c1.1,0,2.3,0.2,3.4,0.4c0.2,0.1,0.3,0.1,0.5,0.1c0,0.4,0.1,1.6,0.3,2.8
			c-0.1,0.1-0.4,0.1-0.5,0c-0.3-1.2-1.1-2.7-3.8-2.7c-2.9,0-5.4,1.8-5.4,5.8s2.5,6.2,5.6,6.2c1.8,0.1,3.4-1,4-2.7
			c0.2-0.1,0.4-0.1,0.5,0.1c-0.1,0.9-0.4,1.8-0.9,2.6c-0.2,0-0.4,0.1-0.7,0.2c-1,0.3-2,0.4-3,0.4c-1.7,0.1-3.4-0.4-4.8-1.3
			c-1.7-1.2-2.7-3.1-2.7-5.2C146.7,4.8,147.6,3,149.1,1.8z"/>
	</g>
</g>
</svg>
