<?xml version="1.0" encoding="utf-8"?>
<!-- Generator: Adobe Illustrator 21.1.0, SVG Export Plug-In . SVG Version: 6.00 Build 0)  -->
<svg version="1.1" id="Layer_1" xmlns="http://www.w3.org/2000/svg" xmlns:xlink="http://www.w3.org/1999/xlink" x="0px" y="0px"
	 viewBox="0 0 76 76" style="enable-background:new 0 0 76 76;" xml:space="preserve">
<style type="text/css">
	.st0{fill:#FFFFFF;}
</style>
<g transform="translate(0,-952.36218)">
	<path class="st0" d="M29,952.4c-16,0-29,13-29,29c0,16,13,29,29,29c6.9,0,13.3-2.4,18.3-6.5l23.6,23.6c1.2,1.2,3.1,1.2,4.2,0
		c1.2-1.2,1.2-3.1,0-4.2l-23.6-23.6c4.1-5,6.5-11.4,6.5-18.3C58,965.4,45,952.4,29,952.4z M29,958.4c12.7,0,23,10.3,23,23
		c0,12.7-10.3,23-23,23s-23-10.3-23-23C6,968.6,16.3,958.4,29,958.4z"/>
</g>
</svg>
