<svg version="1.1" xmlns="http://www.w3.org/2000/svg" viewBox="0 0 787.5 312" width="1575" height="624">
  <!-- svg-source:excalidraw -->
  
  <defs>
    <style class="style-fonts">
      @font-face {
        font-family: "Virgil";
        src: url("https://excalidraw.com/Virgil.woff2");
      }
      @font-face {
        font-family: "Cascadia";
        src: url("https://excalidraw.com/Cascadia.woff2");
      }
    </style>
    
  </defs>
  <g stroke-opacity="0.3" fill-opacity="0.3" stroke-linecap="round" transform="translate(10 10) rotate(0 383.75 146)"><path d="M7.86 8.16 C7.86 8.16, 7.86 8.16, 7.86 8.16 M7.86 8.16 C7.86 8.16, 7.86 8.16, 7.86 8.16 M3.66 19.09 C6.87 14.82, 11.38 10.69, 18.1 2.48 M3.66 19.09 C7.27 13.12, 12.72 8.53, 18.1 2.48 M2.75 26.24 C6.9 22.57, 12.45 16.71, 24.4 1.33 M2.75 26.24 C10.89 16.76, 20.51 6.39, 24.4 1.33 M1.83 33.39 C10.82 23.7, 24.11 11.58, 30.7 0.18 M1.83 33.39 C10.45 25.02, 16.77 15.86, 30.7 0.18 M1.57 39.79 C12.31 28.74, 20.52 15.81, 34.37 2.05 M1.57 39.79 C8.91 31.4, 14.58 25.4, 34.37 2.05 M1.96 45.43 C16.5 29.54, 28.05 14.58, 39.36 2.41 M1.96 45.43 C14.58 30.87, 26.11 17.4, 39.36 2.41 M1.7 51.83 C14.35 38.67, 27.74 22.56, 45 2.02 M1.7 51.83 C18.28 32.06, 36.15 12.24, 45 2.02 M2.1 57.47 C13.58 45.33, 26.89 30.69, 49.99 2.38 M2.1 57.47 C12.98 47.23, 21.6 35.42, 49.99 2.38 M1.83 63.87 C23.06 40.21, 41.93 17.73, 55.63 1.98 M1.83 63.87 C20.07 42.76, 37.54 23.13, 55.63 1.98 M1.57 70.27 C22.47 46.06, 39.15 26.27, 60.62 2.34 M1.57 70.27 C20.73 48.45, 40.2 27.78, 60.62 2.34 M1.97 75.91 C27.51 48.19, 49.1 19.85, 66.26 1.95 M1.97 75.91 C19.33 54.1, 38.02 33.05, 66.26 1.95 M1.71 82.31 C14.33 63.17, 31.66 48.17, 71.25 2.31 M1.71 82.31 C19.58 61.85, 38.48 40.37, 71.25 2.31 M2.1 87.95 C17.88 70.21, 34.11 51.17, 76.89 1.91 M2.1 87.95 C30.85 53.46, 60.18 20.29, 76.89 1.91 M1.84 94.35 C21.2 73.11, 38.27 51.64, 81.88 2.27 M1.84 94.35 C26.18 67.81, 49.52 40.85, 81.88 2.27 M1.58 100.75 C26.49 71.92, 48.54 45.77, 87.52 1.88 M1.58 100.75 C23.87 75.19, 48.11 48.41, 87.52 1.88 M1.97 106.39 C34.57 67.6, 69.49 28.61, 92.51 2.24 M1.97 106.39 C24.17 79.98, 46.56 55.18, 92.51 2.24 M1.71 112.79 C31.61 77.99, 62.52 46.55, 98.15 1.85 M1.71 112.79 C38.66 68.19, 77.04 25.81, 98.15 1.85 M2.1 118.43 C42.89 74.18, 77.92 29.68, 103.14 2.21 M2.1 118.43 C27 89.58, 52.36 59.9, 103.14 2.21 M1.84 124.83 C44.1 76.81, 84.63 26.84, 108.78 1.81 M1.84 124.83 C39.26 79.5, 79.52 36.48, 108.78 1.81 M2.24 130.47 C29.31 99.49, 54.45 70.4, 113.77 2.17 M2.24 130.47 C25.2 106.3, 47.33 80.53, 113.77 2.17 M1.98 136.87 C26.36 108.18, 49.68 83.32, 119.41 1.78 M1.98 136.87 C49.85 82.55, 94.96 29.64, 119.41 1.78 M1.72 143.27 C32.25 107.8, 66.28 72.63, 124.4 2.14 M1.72 143.27 C34.13 108.01, 66.62 70.39, 124.4 2.14 M2.11 148.91 C40.33 103.73, 80.15 57.18, 130.04 1.74 M2.11 148.91 C29.43 115.66, 58.73 81.94, 130.04 1.74 M1.85 155.31 C33.73 117.65, 67.37 81.95, 135.03 2.1 M1.85 155.31 C51.68 95.88, 101.58 39.73, 135.03 2.1 M2.24 160.95 C39.49 117.18, 78.23 72.78, 140.67 1.71 M2.24 160.95 C35.2 120.67, 69.03 83.31, 140.67 1.71 M1.98 167.35 C45.07 114.8, 90.1 64.82, 145.66 2.07 M1.98 167.35 C57.58 104.36, 110.4 42.76, 145.66 2.07 M1.72 173.75 C58.6 110.49, 112.89 48.25, 150.65 2.43 M1.72 173.75 C52.36 114.91, 103.54 56.65, 150.65 2.43 M2.11 179.39 C42.27 133.43, 80.55 89.66, 156.29 2.03 M2.11 179.39 C41.25 135.21, 80.6 89.14, 156.29 2.03 M1.85 185.79 C39.53 138.25, 81.2 93.63, 161.28 2.39 M1.85 185.79 C38.79 142.77, 75.95 100.38, 161.28 2.39 M2.25 191.43 C65.93 116.43, 132.86 41.42, 166.92 2 M2.25 191.43 C51.87 134.41, 100.41 77.86, 166.92 2 M1.99 197.83 C52.99 140.82, 102.77 82.01, 171.91 2.36 M1.99 197.83 C70.71 120.23, 137.41 43.34, 171.91 2.36 M2.38 203.47 C56.76 142.14, 109.42 83.44, 177.55 1.96 M2.38 203.47 C61.9 132.09, 124.21 61.87, 177.55 1.96 M2.12 209.87 C50.54 156.6, 97.19 99.28, 182.54 2.32 M2.12 209.87 C52.15 148.98, 103.92 89.83, 182.54 2.32 M1.86 216.27 C59.5 151.9, 113.79 87.15, 188.18 1.93 M1.86 216.27 C68.2 142.91, 133.06 68.84, 188.18 1.93 M2.25 221.91 C42.66 176.34, 82.46 129.92, 193.17 2.29 M2.25 221.91 C63.51 151.61, 125.03 79.9, 193.17 2.29 M1.99 228.31 C76.8 143.01, 147.03 60.9, 198.81 1.9 M1.99 228.31 C79.86 140.45, 156.49 50.93, 198.81 1.9 M2.39 233.95 C81.55 143.14, 160.25 50.46, 203.8 2.26 M2.39 233.95 C71.44 158.63, 138.45 80.59, 203.8 2.26 M2.12 240.35 C49.58 185.84, 94.82 132.35, 209.44 1.86 M2.12 240.35 C59.25 175.34, 115.58 111.02, 209.44 1.86 M1.86 246.75 C80.07 156.65, 157.68 65.08, 214.43 2.22 M1.86 246.75 C61.18 179.21, 119.32 111.12, 214.43 2.22 M2.26 252.39 C50.53 193.14, 100.42 138.05, 220.07 1.83 M2.26 252.39 C75.21 168.42, 148.75 83.67, 220.07 1.83 M2 258.79 C66.67 181.43, 133.17 103.88, 225.06 2.19 M2 258.79 C77.15 170.41, 153.24 82.96, 225.06 2.19 M2.39 264.43 C71.29 184.64, 140.81 103.37, 230.7 1.79 M2.39 264.43 C56.56 203.87, 109.05 141.99, 230.7 1.79 M2.79 270.07 C54.07 206.03, 109.42 146.06, 235.69 2.15 M2.79 270.07 C57.63 207.52, 112.24 145.86, 235.69 2.15 M4.49 274.21 C56.6 213.67, 107.99 153.26, 241.33 1.76 M4.49 274.21 C91.26 173.28, 178.3 72.54, 241.33 1.76 M4.89 279.85 C59.18 216.7, 114.49 154.32, 246.32 2.12 M4.89 279.85 C77.41 197.4, 148.46 115.35, 246.32 2.12 M7.91 282.47 C77.57 199.52, 149.07 117.03, 251.96 1.72 M7.91 282.47 C64.53 215.03, 121.98 148.7, 251.96 1.72 M10.27 285.85 C63.23 223.83, 118.83 159.24, 256.95 2.08 M10.27 285.85 C109.01 173.68, 206.01 61.96, 256.95 2.08 M13.29 288.48 C82.58 209.09, 150.88 129.06, 262.59 1.69 M13.29 288.48 C88.9 201.97, 163.07 116.33, 262.59 1.69 M16.96 290.35 C114.41 178.6, 210.73 68.35, 267.58 2.05 M16.96 290.35 C72.78 226.7, 128.17 164.56, 267.58 2.05 M20.64 292.22 C91.81 207.71, 164.41 126.88, 272.56 2.41 M20.64 292.22 C94.37 204.94, 170.05 118.49, 272.56 2.41 M25.62 292.58 C110.9 193.73, 199.16 91.82, 278.21 2.01 M25.62 292.58 C124.72 180.11, 222.28 68.86, 278.21 2.01 M29.95 293.69 C101.99 213.01, 170.7 130.91, 283.19 2.37 M29.95 293.69 C119.39 190.53, 209.05 86.07, 283.19 2.37 M34.94 294.05 C126.13 188.23, 217.74 83.82, 288.84 1.98 M34.94 294.05 C119.65 193.24, 207.07 93.61, 288.84 1.98 M39.93 294.41 C134.49 189.38, 228.61 80.31, 293.82 2.34 M39.93 294.41 C107.69 218.32, 174.99 140.07, 293.82 2.34 M45.57 294.02 C140.07 185.41, 234.86 76.46, 299.47 1.94 M45.57 294.02 C112.28 218.22, 178.14 142.52, 299.47 1.94 M50.56 294.38 C126.05 205.2, 203.54 114.52, 304.45 2.3 M50.56 294.38 C151.22 178.87, 252.5 63.01, 304.45 2.3 M56.2 293.98 C139.68 198, 223.13 103.52, 310.1 1.91 M56.2 293.98 C139.59 197.1, 224.06 99.67, 310.1 1.91 M61.19 294.34 C161.77 178.78, 262.21 63.1, 315.08 2.27 M61.19 294.34 C113.73 234.58, 165.44 174.81, 315.08 2.27 M66.18 294.7 C133.95 218.62, 198.94 141.4, 320.73 1.88 M66.18 294.7 C140.73 210.04, 215.35 124.41, 320.73 1.88 M71.82 294.31 C170.86 177.92, 272.29 59.99, 325.71 2.24 M71.82 294.31 C151.01 202.97, 229.59 111.49, 325.71 2.24 M76.81 294.67 C131.32 228.5, 186.02 166.16, 331.36 1.84 M76.81 294.67 C146.6 213.89, 218.77 130.92, 331.36 1.84 M82.45 294.27 C137.97 234.28, 189.27 174.28, 336.34 2.2 M82.45 294.27 C136.72 229.09, 192.56 165.65, 336.34 2.2 M87.44 294.63 C172.18 195.36, 255.72 97.33, 341.99 1.81 M87.44 294.63 C185.59 183.32, 283.24 71.6, 341.99 1.81 M93.08 294.24 C190.28 183.8, 287 74.12, 346.97 2.17 M93.08 294.24 C143.81 235.77, 196.31 177, 346.97 2.17 M98.07 294.6 C186.52 194.38, 275.39 92.08, 352.62 1.77 M98.07 294.6 C174.6 205.29, 251.18 116.93, 352.62 1.77 M103.71 294.21 C157.29 232.8, 209.17 173.56, 357.6 2.13 M103.71 294.21 C161.64 228.95, 217.37 163.75, 357.6 2.13 M108.7 294.57 C184.02 208.17, 258.04 123.46, 363.25 1.74 M108.7 294.57 C175.15 217.02, 242.8 139.02, 363.25 1.74 M114.34 294.17 C176.06 225.62, 237.53 153.56, 368.23 2.1 M114.34 294.17 C165.28 235.58, 217.08 175.16, 368.23 2.1 M119.33 294.53 C171.14 233.85, 224.2 173.09, 373.88 1.7 M119.33 294.53 C203.81 198.66, 288.34 102.24, 373.88 1.7 M124.97 294.14 C219.83 184.44, 314.59 73.24, 378.86 2.06 M124.97 294.14 C215.86 190.52, 307.44 84.99, 378.86 2.06 M129.96 294.5 C184.03 231.26, 239.08 168.92, 383.85 2.42 M129.96 294.5 C200.78 210.8, 272.16 127.89, 383.85 2.42 M135.6 294.1 C226.61 189.67, 315.61 85.38, 389.49 2.03 M135.6 294.1 C206.8 214.06, 275.94 134.25, 389.49 2.03 M140.59 294.46 C204.05 219.65, 268.59 145.78, 394.48 2.39 M140.59 294.46 C224.81 196.25, 310.1 98.34, 394.48 2.39 M146.23 294.07 C216.36 212.83, 285.68 132.71, 400.12 1.99 M146.23 294.07 C199.49 233.7, 252.43 173.23, 400.12 1.99 M151.22 294.43 C238.36 192.61, 328.53 89.7, 405.11 2.35 M151.22 294.43 C207.22 231.09, 262.92 166.87, 405.11 2.35 M156.86 294.03 C227.12 216.93, 294.97 138.21, 410.75 1.96 M156.86 294.03 C257.26 178.84, 358.36 64.19, 410.75 1.96 M161.85 294.39 C245.16 197.51, 329.41 102.22, 415.74 2.32 M161.85 294.39 C240.04 206.92, 316.37 119.89, 415.74 2.32 M167.49 294 C226.36 225.36, 285.68 156.98, 421.38 1.93 M167.49 294 C257.1 190.15, 347.81 85.83, 421.38 1.93 M172.48 294.36 C253.81 199.39, 335.11 106.52, 426.37 2.29 M172.48 294.36 C241.24 214.55, 310.28 134.73, 426.37 2.29 M178.12 293.96 C253.83 207.17, 330.1 120.14, 432.01 1.89 M178.12 293.96 C274.08 184.31, 369.23 73.94, 432.01 1.89 M183.11 294.32 C245.44 221.52, 309.56 148.17, 437 2.25 M183.11 294.32 C245.35 223.2, 308.47 151.65, 437 2.25 M188.09 294.68 C281.9 188.02, 371.25 82.18, 442.64 1.86 M188.09 294.68 C244.97 228.49, 302.66 161.36, 442.64 1.86 M193.74 294.29 C279.59 194.13, 365.56 95.51, 447.63 2.22 M193.74 294.29 C261.75 214.69, 330.08 135.25, 447.63 2.22 M198.72 294.65 C284.77 193.83, 371.99 94.49, 453.27 1.82 M198.72 294.65 C264.61 220.08, 327.73 146.47, 453.27 1.82 M204.37 294.25 C257.91 235.55, 309.38 174.17, 458.26 2.18 M204.37 294.25 C258.34 233.43, 311.38 172.51, 458.26 2.18 M209.35 294.61 C294.37 194.25, 381.4 96.85, 463.9 1.79 M209.35 294.61 C275.8 215.38, 344.57 136.34, 463.9 1.79 M215 294.22 C310.22 185.79, 405.37 76.72, 468.89 2.15 M215 294.22 C282.78 216.1, 350.43 138.75, 468.89 2.15 M219.98 294.58 C290.42 215.66, 359.32 135.65, 474.53 1.75 M219.98 294.58 C290.59 212.3, 360.51 131.43, 474.53 1.75 M225.63 294.19 C315.21 191.48, 404.79 86.06, 479.52 2.11 M225.63 294.19 C290.57 220.27, 356.25 146.03, 479.52 2.11 M230.61 294.55 C288.61 230.21, 345.77 164.88, 485.17 1.72 M230.61 294.55 C318.43 191.75, 407.09 90.18, 485.17 1.72 M236.26 294.15 C332.42 182.99, 425.91 74.83, 490.15 2.08 M236.26 294.15 C320.4 197.03, 405.44 100.72, 490.15 2.08 M241.24 294.51 C322.55 199.18, 405.79 104.66, 495.8 1.68 M241.24 294.51 C325.39 197.46, 410 100.14, 495.8 1.68 M246.89 294.12 C307.41 223.8, 368.12 154.88, 500.78 2.04 M246.89 294.12 C316.44 214.78, 385.56 135.29, 500.78 2.04 M251.87 294.48 C313.45 219.16, 378.61 145.8, 505.77 2.4 M251.87 294.48 C345.13 188.95, 436.54 83.62, 505.77 2.4 M257.52 294.08 C327.56 214.18, 396.23 134.56, 511.41 2.01 M257.52 294.08 C351.13 185.42, 445.25 76.31, 511.41 2.01 M262.5 294.44 C346.74 197.95, 430.31 100.46, 516.4 2.37 M262.5 294.44 C346.86 197.81, 431.33 100.51, 516.4 2.37 M268.15 294.05 C361.53 186.41, 458.54 74.49, 522.04 1.98 M268.15 294.05 C360.76 186.36, 455.24 78.34, 522.04 1.98 M273.13 294.41 C331.77 227.32, 388.82 161.24, 527.03 2.34 M273.13 294.41 C330.97 227.53, 389.25 159.5, 527.03 2.34 M278.78 294.01 C370.95 185.91, 465.18 78.65, 532.67 1.94 M278.78 294.01 C359.21 201.71, 439.97 109.34, 532.67 1.94 M283.76 294.37 C351.76 213.77, 420.23 134.63, 537.66 2.3 M283.76 294.37 C338 234.31, 390.7 173.39, 537.66 2.3 M289.41 293.98 C353.41 220.23, 416.77 146.36, 543.3 1.91 M289.41 293.98 C363.86 208.28, 439.15 121.92, 543.3 1.91 M294.39 294.34 C380.37 195.21, 465.8 98.05, 548.29 2.27 M294.39 294.34 C371.17 205.7, 447.67 117.4, 548.29 2.27 M299.38 294.7 C382.12 197.95, 467.3 100.59, 553.93 1.87 M299.38 294.7 C379.06 202.69, 458.95 110.57, 553.93 1.87 M305.02 294.3 C389.57 195.66, 474.51 99.16, 558.92 2.23 M305.02 294.3 C383.58 203.21, 464.47 111.55, 558.92 2.23 M310.01 294.66 C392.13 201.03, 473.91 105.31, 564.56 1.84 M310.01 294.66 C364.46 233.66, 416.43 173.04, 564.56 1.84 M315.65 294.27 C402.08 198.75, 485.48 100.06, 569.55 2.2 M315.65 294.27 C401.7 193.92, 488.07 94.47, 569.55 2.2 M320.64 294.63 C376.9 227.85, 434.99 160.68, 575.19 1.8 M320.64 294.63 C408.01 195.67, 494.16 95.37, 575.19 1.8 M326.28 294.24 C388.17 220.22, 453.43 146.93, 580.18 2.16 M326.28 294.24 C384.69 226.01, 445.26 155.59, 580.18 2.16 M331.27 294.6 C390.91 223.87, 452.7 151.93, 585.82 1.77 M331.27 294.6 C406.15 205.59, 482.93 118.25, 585.82 1.77 M336.92 294.2 C426.67 190.69, 515.35 87.85, 590.81 2.13 M336.92 294.2 C425.07 194.27, 512.75 92.6, 590.81 2.13 M341.9 294.56 C411.99 215.31, 482.17 136.25, 596.45 1.73 M341.9 294.56 C444.05 179, 545.16 62.18, 596.45 1.73 M347.55 294.17 C436.45 190.82, 524.15 89.68, 601.44 2.09 M347.55 294.17 C446.44 182.47, 543.87 70.48, 601.44 2.09 M352.53 294.53 C404.41 231.61, 459.38 168.08, 607.08 1.7 M352.53 294.53 C449.68 182.04, 547.39 69.37, 607.08 1.7 M358.18 294.13 C436.96 205, 511.75 117.14, 612.07 2.06 M358.18 294.13 C445.82 194.23, 533.54 95.31, 612.07 2.06 M363.16 294.49 C429.14 214.71, 496.84 137.15, 617.06 2.42 M363.16 294.49 C442.32 203.58, 522.51 110.21, 617.06 2.42 M368.81 294.1 C448.18 201.82, 529.42 107.93, 622.7 2.02 M368.81 294.1 C468.26 182, 567.46 68.97, 622.7 2.02 M373.79 294.46 C432.37 227.98, 490.05 162.77, 627.69 2.38 M373.79 294.46 C448.94 208.96, 523.48 122.81, 627.69 2.38 M379.44 294.06 C446.3 216.91, 513.06 140.87, 633.33 1.99 M379.44 294.06 C472.95 186.79, 567.2 79.61, 633.33 1.99 M384.42 294.42 C485.42 179.76, 585.25 66.99, 638.32 2.35 M384.42 294.42 C472.81 194.95, 559.27 94, 638.32 2.35 M390.07 294.03 C448.5 225.54, 509.17 155.36, 643.96 1.96 M390.07 294.03 C469.34 203.15, 547.35 114.69, 643.96 1.96 M395.05 294.39 C459.24 221.06, 524.31 146.77, 648.95 2.32 M395.05 294.39 C471.43 204.48, 549.63 115.05, 648.95 2.32 M400.7 293.99 C474.25 207.32, 548.09 122.59, 654.59 1.92 M400.7 293.99 C478.08 206.33, 553.41 118.54, 654.59 1.92 M405.68 294.35 C507.37 178.8, 607.65 61.73, 659.58 2.28 M405.68 294.35 C498.19 190.06, 589.82 85.29, 659.58 2.28 M410.67 294.71 C495.92 196.95, 581.35 96.95, 665.22 1.89 M410.67 294.71 C466.84 228.85, 522.82 164.63, 665.22 1.89 M416.31 294.32 C473.11 229.97, 529.19 166.09, 670.21 2.25 M416.31 294.32 C493.56 205.42, 570.08 117.55, 670.21 2.25 M421.3 294.68 C480.21 229.28, 537.95 163.57, 675.85 1.85 M421.3 294.68 C479.44 229.64, 536.88 162.86, 675.85 1.85 M426.94 294.28 C481.06 233.84, 533.08 171.4, 680.84 2.21 M426.94 294.28 C492.72 218.67, 559.7 142.21, 680.84 2.21 M431.93 294.65 C496.07 219.7, 558.68 147.32, 686.48 1.82 M431.93 294.65 C493.06 222.56, 555.43 151.9, 686.48 1.82 M437.57 294.25 C501.57 222.41, 565.27 149.97, 691.47 2.18 M437.57 294.25 C539.07 177.54, 638.52 62.37, 691.47 2.18 M442.56 294.61 C511.02 215.87, 578.89 138.38, 697.11 1.78 M442.56 294.61 C512.66 213.45, 582.14 132.88, 697.11 1.78 M448.2 294.22 C531.32 197.75, 615.38 101.93, 702.1 2.14 M448.2 294.22 C544.57 182.57, 640.94 71.95, 702.1 2.14 M453.19 294.58 C546.56 185.96, 638.84 79.94, 707.74 1.75 M453.19 294.58 C530.01 205.23, 606.55 116.47, 707.74 1.75 M458.83 294.18 C516.44 227.84, 575.46 159.82, 712.73 2.11 M458.83 294.18 C541.29 197.09, 624.17 101.59, 712.73 2.11 M463.82 294.54 C516.47 235.64, 567.27 176.15, 718.37 1.71 M463.82 294.54 C563.05 183.22, 660.58 69.49, 718.37 1.71 M469.46 294.15 C528.6 227.54, 589.03 158.06, 723.36 2.07 M469.46 294.15 C539.6 214.47, 607.71 135.47, 723.36 2.07 M474.45 294.51 C542.37 220.7, 609.09 142.79, 729 1.68 M474.45 294.51 C566.79 189.06, 657.85 83.71, 729 1.68 M480.09 294.11 C534.07 229.53, 592.1 166.27, 735.96 -0.22 M480.09 294.11 C545.82 216.01, 613.41 138.24, 735.96 -0.22 M485.08 294.47 C582.98 180.36, 680.12 67.81, 740.29 0.89 M485.08 294.47 C568.92 196.24, 653.22 98.92, 740.29 0.89 M490.72 294.08 C585.03 185.86, 680.33 76.86, 745.27 1.25 M490.72 294.08 C565.66 206.3, 642.27 118.79, 745.27 1.25 M495.71 294.44 C563.93 215.19, 632.14 137.5, 749.61 2.37 M495.71 294.44 C595.47 179.66, 695.4 64.17, 749.61 2.37 M501.35 294.04 C567.85 217.05, 633.64 142.13, 753.28 4.24 M501.35 294.04 C600.81 181.98, 699.87 68.23, 753.28 4.24 M506.34 294.4 C593.49 193.9, 683.32 91.37, 756.96 6.1 M506.34 294.4 C586.45 205.94, 663.84 115.67, 756.96 6.1 M511.98 294.01 C607.03 189.5, 697.2 82.38, 759.97 8.73 M511.98 294.01 C582.05 216.24, 651.12 136.69, 759.97 8.73 M516.97 294.37 C597.21 202.49, 675.25 113.46, 762.34 12.11 M516.97 294.37 C570.9 231.81, 624.83 169.94, 762.34 12.11 M522.61 293.97 C613.63 190.46, 704.54 86.66, 765.36 14.73 M522.61 293.97 C601.03 202.58, 679.18 112.41, 765.36 14.73 M527.6 294.33 C580.23 237.32, 630.45 178.49, 767.06 18.87 M527.6 294.33 C610.24 201.27, 691.23 108.02, 767.06 18.87 M532.59 294.69 C588.29 229.78, 642.97 164.09, 767.46 24.51 M532.59 294.69 C586.26 233.44, 639.46 172.36, 767.46 24.51 M538.23 294.3 C609.79 214.74, 679.5 134.23, 768.51 29.4 M538.23 294.3 C600.56 224.06, 661.25 153.74, 768.51 29.4 M543.22 294.66 C619.11 207.34, 694.6 119.57, 769.56 34.29 M543.22 294.66 C611.47 216.09, 680.08 138.05, 769.56 34.29 M548.86 294.27 C603.22 232.92, 657.1 171.78, 769.95 39.93 M548.86 294.27 C608.99 227.14, 667.08 160.45, 769.95 39.93 M553.85 294.63 C630.35 210.4, 703.01 125.04, 769.69 46.33 M553.85 294.63 C641.8 195.17, 726.89 96.62, 769.69 46.33 M559.49 294.23 C624.38 221.65, 685.32 150.19, 770.09 51.97 M559.49 294.23 C642.16 198.73, 723.56 104.51, 770.09 51.97 M564.48 294.59 C628.45 219.79, 694.4 144.14, 769.82 58.37 M564.48 294.59 C644.67 203.56, 724.66 110.19, 769.82 58.37 M570.12 294.2 C627.87 222.5, 688.62 155.03, 769.56 64.76 M570.12 294.2 C641.73 210.57, 713.11 128.56, 769.56 64.76 M575.11 294.56 C621.95 243.56, 667.69 189.61, 769.96 70.41 M575.11 294.56 C627.24 231.96, 681.12 170.11, 769.96 70.41 M580.75 294.16 C643.85 220.76, 706.76 147.83, 769.7 76.81 M580.75 294.16 C633.31 234.03, 685.89 174.54, 769.7 76.81 M585.74 294.52 C634.58 240.67, 682.77 184.96, 770.09 82.45 M585.74 294.52 C636.06 235.81, 688.11 176.98, 770.09 82.45 M591.38 294.13 C631.39 246.9, 670.24 200.94, 769.83 88.85 M591.38 294.13 C646.91 230.09, 702.35 165, 769.83 88.85 M596.37 294.49 C638.84 245.34, 682.22 195.28, 769.57 95.24 M596.37 294.49 C658.25 223.9, 719.69 152.98, 769.57 95.24 M602.01 294.09 C643.82 248.76, 686.3 200.68, 769.96 100.89 M602.01 294.09 C642.49 249.83, 681.11 205.43, 769.96 100.89 M607 294.45 C651.7 245.02, 693.82 191.98, 769.7 107.29 M607 294.45 C651.08 242.85, 696.37 190.3, 769.7 107.29 M612.64 294.06 C648.07 252.09, 682.73 213.44, 770.1 112.93 M612.64 294.06 C651.76 248.76, 690.58 202.41, 770.1 112.93 M617.63 294.42 C661 243.06, 703.43 194.31, 769.83 119.33 M617.63 294.42 C672.91 230.77, 727.53 166.92, 769.83 119.33 M623.27 294.02 C653.73 257.16, 689.09 220.84, 769.57 125.72 M623.27 294.02 C680.64 230, 737.46 163.64, 769.57 125.72 M628.26 294.38 C661.95 254.69, 695.3 216, 769.97 131.37 M628.26 294.38 C676 241.53, 722.98 187.41, 769.97 131.37 M633.9 293.99 C669.88 251.65, 707.2 210.31, 769.71 137.76 M633.9 293.99 C676.1 243.7, 719.73 193.78, 769.71 137.76 M638.89 294.35 C663.67 262.97, 691.37 232.4, 770.1 143.41 M638.89 294.35 C672.8 256.44, 705.45 219.53, 770.1 143.41 M643.88 294.71 C674.34 260.11, 703.72 226.97, 769.84 149.81 M643.88 294.71 C684.36 249, 721.66 204.45, 769.84 149.81 M649.52 294.32 C677.77 260.73, 705.42 229.47, 769.58 156.2 M649.52 294.32 C675.13 266.26, 697.99 239.3, 769.58 156.2 M654.51 294.68 C693.46 251.92, 731.41 205.47, 769.97 161.85 M654.51 294.68 C687.49 255.22, 719.44 218.16, 769.97 161.85 M660.15 294.28 C689.44 258.11, 721.98 222.35, 769.71 168.24 M660.15 294.28 C703.27 245.69, 745.28 195.5, 769.71 168.24 M665.14 294.64 C690.27 269.64, 712.17 239.34, 770.11 173.89 M665.14 294.64 C705.35 250.63, 743.45 206.96, 770.11 173.89 M670.78 294.25 C700.86 259.44, 727.33 227.99, 769.84 180.29 M670.78 294.25 C697.37 262.64, 724.42 230.82, 769.84 180.29 M675.77 294.61 C705.63 258.46, 736.95 224.59, 769.58 186.68 M675.77 294.61 C708.07 257.13, 741.09 219.11, 769.58 186.68 M681.41 294.21 C710.27 262.91, 737.53 229.65, 769.98 192.33 M681.41 294.21 C698.08 273.71, 717.32 252.41, 769.98 192.33 M686.4 294.57 C712.18 265.81, 739.67 232.34, 769.72 198.72 M686.4 294.57 C717.41 259.11, 749.02 221.57, 769.72 198.72 M692.04 294.18 C711.09 273.19, 729.01 254.59, 770.11 204.37 M692.04 294.18 C720.71 261.5, 750.16 228.07, 770.11 204.37 M697.03 294.54 C723.53 261.88, 751.93 231.64, 769.85 210.76 M697.03 294.54 C719.65 266.72, 743.63 240.58, 769.85 210.76 M702.67 294.14 C726.34 268.66, 750.55 239.1, 769.59 217.16 M702.67 294.14 C723.28 272.66, 742.6 249, 769.59 217.16 M707.66 294.5 C720.31 279.15, 732.29 264.43, 769.98 222.81 M707.66 294.5 C731.88 266.03, 754.91 238.88, 769.98 222.81 M713.3 294.11 C724.28 281.18, 739.57 266.43, 769.72 229.2 M713.3 294.11 C731.82 273.4, 750.77 251.28, 769.72 229.2 M718.29 294.47 C736.53 273, 755.08 247.54, 770.11 234.85 M718.29 294.47 C731.55 278.5, 745.43 263.88, 770.11 234.85 M723.93 294.07 C737.96 277.02, 753.21 258.36, 769.85 241.24 M723.93 294.07 C738.56 277.5, 754.44 258.68, 769.85 241.24 M728.92 294.43 C744.44 276.96, 758.59 261.34, 769.59 247.64 M728.92 294.43 C738.46 282.98, 747.07 273.98, 769.59 247.64 M735.87 292.53 C746.58 280.57, 754.53 274.1, 769.99 253.29 M735.87 292.53 C743.49 283.82, 750 276.27, 769.99 253.29 M742.17 291.38 C751.09 280.26, 760.06 270.89, 768.41 261.19 M742.17 291.38 C747.42 283.92, 753.33 277.77, 768.41 261.19 M747.81 290.99 C756.35 281.91, 764.26 275.13, 767.5 268.34 M747.81 290.99 C756.13 281.54, 762.32 273.96, 767.5 268.34" stroke="#a5d8ff" stroke-width="0.5" fill="none"></path><path d="M32 0 C279.36 -1.91, 526.34 -0.96, 735.5 0 M32 0 C260 2.35, 487.5 2.21, 735.5 0 M735.5 0 C756.13 1.55, 768.49 11.14, 767.5 32 M735.5 0 C757.89 -2.28, 769.03 12.17, 767.5 32 M767.5 32 C766.55 114.22, 767.75 197.47, 767.5 260 M767.5 32 C768.35 89.99, 767.75 149.32, 767.5 260 M767.5 260 C766.67 280.21, 756.43 291.81, 735.5 292 M767.5 260 C766.04 283.34, 755.66 291.07, 735.5 292 M735.5 292 C458.45 293.67, 180.63 294.05, 32 292 M735.5 292 C528.93 290.69, 321.99 290.31, 32 292 M32 292 C9.57 291.02, -1.53 280.65, 0 260 M32 292 C11.04 290.12, -1.69 283.24, 0 260 M0 260 C1.57 207.03, -0.92 155.65, 0 32 M0 260 C-0.78 206.24, -1.6 153.64, 0 32 M0 32 C-1.18 9.63, 10.2 -0.82, 32 0 M0 32 C1.27 11.21, 9.08 1.02, 32 0" stroke="#2f9e44" stroke-width="1" fill="none"></path></g><g stroke-linecap="round"><g transform="translate(59.5 77.5) rotate(0 88.2643190359986 -0.7584993464057419)"><path d="M-0.12 0 C29.27 -0.25, 146.95 -1.29, 176.38 -1.52 M0.09 -0.12 C29.52 -0.35, 147.28 -1.1, 176.65 -1.34" stroke="#1e1e1e" stroke-width="1" fill="none"></path></g></g><mask></mask><g stroke-linecap="round"><g transform="translate(58.127417105920586 128.3178826522082) rotate(0 88.25766511137869 -0.8076142975053671)"><path d="M-0.09 -0.04 C29.33 -0.32, 147.19 -1.35, 176.6 -1.57 M0.14 -0.19 C29.54 -0.46, 147.12 -1.19, 176.54 -1.42" stroke="#1e1e1e" stroke-width="1" fill="none"></path></g></g><mask></mask><g stroke-linecap="round"><g transform="translate(59.188780223205754 177.71015436165032) rotate(0 88.17633924245973 -0.7614604721530611)"><path d="M-0.1 0.03 C29.3 -0.2, 147.01 -1.1, 176.46 -1.36 M0.12 -0.08 C29.49 -0.36, 146.92 -1.33, 176.32 -1.55" stroke="#1e1e1e" stroke-width="1" fill="none"></path></g></g><mask></mask><g stroke-linecap="round"><g transform="translate(118 36) rotate(0 -1.4012327713513741 95.17590582298538)"><path d="M-0.06 -0.15 C-0.54 31.6, -2.45 158.62, -2.91 190.37 M0.19 0.11 C-0.3 31.89, -2.48 158.77, -2.99 190.5" stroke="#1e1e1e" stroke-width="1" fill="none"></path></g></g><mask></mask><g stroke-linecap="round"><g transform="translate(183.71834302157174 34.328421662561624) rotate(0 -1.5376863559728235 95.16619268839725)"><path d="M0.05 -0.01 C-0.45 31.71, -2.5 158.61, -3 190.36 M-0.11 -0.15 C-0.63 31.59, -2.64 158.69, -3.12 190.48" stroke="#1e1e1e" stroke-width="1" fill="none"></path></g></g><mask></mask><g stroke-linecap="round"><g transform="translate(70 56) rotate(0 73.9871938374929 0.48545703335554435)"><path d="M0.15 0.01 C24.78 0.15, 123.28 0.75, 147.93 0.93 M0.04 -0.11 C24.64 0.04, 123.12 0.93, 147.78 1.08" stroke="#2f9e44" stroke-width="1" fill="none"></path></g><g transform="translate(70 56) rotate(0 73.9871938374929 0.48545703335554435)"><path d="M119.51 11.12 C130.77 6.95, 141.85 3.24, 147.78 1.08 M119.51 11.12 C129.12 7.58, 138.46 4.43, 147.78 1.08" stroke="#2f9e44" stroke-width="1" fill="none"></path></g><g transform="translate(70 56) rotate(0 73.9871938374929 0.48545703335554435)"><path d="M119.67 -9.4 C130.89 -5.4, 141.9 -0.95, 147.78 1.08 M119.67 -9.4 C129.24 -6.06, 138.52 -2.33, 147.78 1.08" stroke="#2f9e44" stroke-width="1" fill="none"></path></g></g><mask></mask><g stroke-linecap="round"><g transform="translate(312.6879721733368 76.66438751976006) rotate(0 88.21447415247115 -0.7337144138497393)"><path d="M0.01 0.07 C29.43 -0.14, 147.18 -1.09, 176.59 -1.35 M-0.17 -0.02 C29.23 -0.27, 147.09 -1.33, 176.52 -1.54" stroke="#1e1e1e" stroke-width="1" fill="none"></path></g></g><mask></mask><g stroke-linecap="round"><g transform="translate(311.3153892792576 127.48227017196825) rotate(0 88.24146927784614 -0.665593030519986)"><path d="M0.09 0.15 C29.51 -0.11, 147.13 -1.22, 176.52 -1.48 M-0.04 0.09 C29.36 -0.15, 147.02 -0.99, 176.42 -1.28" stroke="#1e1e1e" stroke-width="1" fill="none"></path></g></g><mask></mask><g stroke-linecap="round"><g transform="translate(312.37675239654266 176.87454188141032) rotate(0 88.15572414579697 -0.7945657582894512)"><path d="M0.02 0.02 C29.42 -0.24, 147.05 -1.13, 176.46 -1.4 M-0.15 -0.1 C29.22 -0.33, 146.9 -1.38, 176.32 -1.61" stroke="#1e1e1e" stroke-width="1" fill="none"></path></g></g><mask></mask><g stroke-linecap="round"><g transform="translate(371.1879721733368 35.164387519760055) rotate(0 -1.4797124809418278 95.28173510888524)"><path d="M-0.04 0.1 C-0.55 31.83, -2.57 158.65, -3.04 190.4 M0.22 0.02 C-0.32 31.77, -2.66 158.83, -3.17 190.54" stroke="#1e1e1e" stroke-width="1" fill="none"></path></g></g><mask></mask><g stroke-linecap="round"><g transform="translate(436.90631519490864 33.49280918232171) rotate(0 -1.338476188358868 95.23430982946822)"><path d="M-0.04 -0.1 C-0.51 31.64, -2.37 158.79, -2.85 190.57 M0.22 0.18 C-0.25 31.87, -2.36 158.65, -2.9 190.34" stroke="#1e1e1e" stroke-width="1" fill="none"></path></g></g><mask></mask><g stroke-linecap="round"><g transform="translate(337.6879721733368 49.164387519760055) rotate(0 0.2910871481171853 81.7660343031346)"><path d="M0.14 0.07 C0.24 27.34, 0.48 136.3, 0.55 163.56 M0.03 -0.02 C0.12 27.21, 0.38 136.09, 0.46 163.33" stroke="#2f9e44" stroke-width="1" fill="none"></path></g><g transform="translate(337.6879721733368 49.164387519760055) rotate(0 0.2910871481171853 81.7660343031346)"><path d="M-9.88 135.16 C-6.91 143.03, -4.08 150.8, 0.46 163.33 M-9.88 135.16 C-5.81 146.29, -1.68 157.24, 0.46 163.33" stroke="#2f9e44" stroke-width="1" fill="none"></path></g><g transform="translate(337.6879721733368 49.164387519760055) rotate(0 0.2910871481171853 81.7660343031346)"><path d="M10.65 135.11 C7.94 143.02, 5.1 150.81, 0.46 163.33 M10.65 135.11 C6.65 146.25, 2.72 157.23, 0.46 163.33" stroke="#2f9e44" stroke-width="1" fill="none"></path></g></g><mask></mask><g stroke-linecap="round"><g transform="translate(547.7174289329441 73.32388729720373) rotate(0 88.22014404883703 -0.7199461435976247)"><path d="M-0.13 -0.14 C29.32 -0.38, 147.13 -1.13, 176.57 -1.36 M0.07 0.11 C29.52 -0.17, 147.1 -1.31, 176.49 -1.55" stroke="#1e1e1e" stroke-width="1" fill="none"></path></g></g><mask></mask><g stroke-linecap="round"><g transform="translate(546.344846038865 124.14176994941192) rotate(0 88.22533173801696 -0.6807770371416098)"><path d="M0.07 0.14 C29.51 -0.09, 147.14 -1.2, 176.52 -1.5 M-0.07 0.08 C29.36 -0.11, 146.96 -1.04, 176.42 -1.31" stroke="#1e1e1e" stroke-width="1" fill="none"></path></g></g><mask></mask><g stroke-linecap="round"><g transform="translate(547.40620915615 173.534041658854) rotate(0 88.25471321478244 -0.8243440146436569)"><path d="M0.02 0 C29.41 -0.3, 146.95 -1.4, 176.38 -1.65 M-0.15 -0.13 C29.28 -0.35, 147.2 -1.33, 176.66 -1.53" stroke="#1e1e1e" stroke-width="1" fill="none"></path></g></g><mask></mask><g stroke-linecap="round"><g transform="translate(606.2174289329441 31.823887297203726) rotate(0 -1.4092257404058728 95.27377940774585)"><path d="M-0.12 -0.15 C-0.6 31.6, -2.37 158.74, -2.86 190.5 M0.1 0.1 C-0.4 31.88, -2.37 158.95, -2.91 190.7" stroke="#1e1e1e" stroke-width="1" fill="none"></path></g></g><mask></mask><g stroke-linecap="round"><g transform="translate(671.935771954516 30.152308959765378) rotate(0 -1.5349894635813826 95.2409217429992)"><path d="M0.14 0 C-0.35 31.77, -2.51 158.7, -3.06 190.44 M0.02 -0.13 C-0.48 31.67, -2.73 158.82, -3.21 190.61" stroke="#1e1e1e" stroke-width="1" fill="none"></path></g></g><mask></mask><g stroke-linecap="round"><g transform="translate(572.7174289329441 45.823887297203726) rotate(0 0.2797753714190776 81.70435538536735)"><path d="M-0.06 -0.05 C-0.02 27.19, 0.29 136.18, 0.36 163.45 M0.18 -0.21 C0.25 27.05, 0.54 136.36, 0.62 163.62" stroke="#2f9e44" stroke-width="1" fill="none"></path></g><g transform="translate(572.7174289329441 45.823887297203726) rotate(0 0.2797753714190776 81.70435538536735)"><path d="M-9.72 135.45 C-5.8 146.14, -1.76 157.1, 0.62 163.62 M-9.72 135.45 C-5.94 145.44, -2.24 155.65, 0.62 163.62" stroke="#2f9e44" stroke-width="1" fill="none"></path></g><g transform="translate(572.7174289329441 45.823887297203726) rotate(0 0.2797753714190776 81.70435538536735)"><path d="M10.8 135.4 C6.73 146.1, 2.78 157.08, 0.62 163.62 M10.8 135.4 C7.25 145.4, 3.61 155.63, 0.62 163.62" stroke="#2f9e44" stroke-width="1" fill="none"></path></g></g><mask></mask><g stroke-linecap="round"><g transform="translate(640.073226048155 50.125145575720836) rotate(0 0.26153074391038444 81.70233268514052)"><path d="M0.06 0 C0.13 27.22, 0.28 136.17, 0.35 163.39 M-0.09 -0.12 C0.02 27.11, 0.53 136.27, 0.61 163.53" stroke="#2f9e44" stroke-width="1" fill="none"></path></g><g transform="translate(640.073226048155 50.125145575720836) rotate(0 0.26153074391038444 81.70233268514052)"><path d="M-9.76 135.38 C-6.93 142.73, -4.32 150.65, 0.61 163.53 M-9.76 135.38 C-7.7 141.19, -5.31 147.03, 0.61 163.53" stroke="#2f9e44" stroke-width="1" fill="none"></path></g><g transform="translate(640.073226048155 50.125145575720836) rotate(0 0.26153074391038444 81.70233268514052)"><path d="M10.76 135.3 C8.03 142.68, 5.07 150.63, 0.61 163.53 M10.76 135.3 C8.53 141.14, 6.63 147, 0.61 163.53" stroke="#2f9e44" stroke-width="1" fill="none"></path></g></g><mask></mask><g stroke-linecap="round"><g transform="translate(571.6006756762695 54.61864433961918) rotate(0 74.03268740381463 0.5331434407002433)"><path d="M-0.13 0.11 C24.53 0.26, 123.22 0.88, 147.91 1.04 M0.08 0.03 C24.78 0.13, 123.55 0.6, 148.19 0.79" stroke="#2f9e44" stroke-width="1" fill="none"></path></g><g transform="translate(571.6006756762695 54.61864433961918) rotate(0 74.03268740381463 0.5331434407002433)"><path d="M119.94 10.88 C128.54 7.73, 136.82 4.91, 148.19 0.79 M119.94 10.88 C128.93 7.56, 138.11 4.32, 148.19 0.79" stroke="#2f9e44" stroke-width="1" fill="none"></path></g><g transform="translate(571.6006756762695 54.61864433961918) rotate(0 74.03268740381463 0.5331434407002433)"><path d="M120.06 -9.64 C128.65 -6.68, 136.88 -3.4, 148.19 0.79 M120.06 -9.64 C129.03 -6.39, 138.18 -3.05, 148.19 0.79" stroke="#2f9e44" stroke-width="1" fill="none"></path></g></g><mask></mask><g stroke-linecap="round"><g transform="translate(573.2263574044778 101.74843922402403) rotate(0 73.98469782288748 0.4347126474083609)"><path d="M-0.02 -0.04 C24.62 0.15, 123.23 0.88, 147.9 1.06 M-0.21 -0.19 C24.47 -0.03, 123.5 0.6, 148.18 0.82" stroke="#2f9e44" stroke-width="1" fill="none"></path></g><g transform="translate(573.2263574044778 101.74843922402403) rotate(0 73.98469782288748 0.4347126474083609)"><path d="M119.91 10.87 C129.96 7.08, 140.26 3.63, 148.18 0.82 M119.91 10.87 C128 8.07, 136.41 5.14, 148.18 0.82" stroke="#2f9e44" stroke-width="1" fill="none"></path></g><g transform="translate(573.2263574044778 101.74843922402403) rotate(0 73.98469782288748 0.4347126474083609)"><path d="M120.06 -9.65 C130.04 -6.1, 140.29 -2.2, 148.18 0.82 M120.06 -9.65 C128.12 -6.49, 136.49 -3.45, 148.18 0.82" stroke="#2f9e44" stroke-width="1" fill="none"></path></g></g><mask></mask><g stroke-linecap="round"><g transform="translate(576.1248335275056 149.53570580493658) rotate(0 73.96143773778522 0.501428836610387)"><path d="M-0.06 0.03 C24.6 0.18, 123.31 0.76, 147.99 0.93 M0.18 -0.08 C24.82 0.08, 123.24 0.93, 147.86 1.08" stroke="#2f9e44" stroke-width="1" fill="none"></path></g><g transform="translate(576.1248335275056 149.53570580493658) rotate(0 73.96143773778522 0.501428836610387)"><path d="M119.6 11.13 C127.84 8.21, 135.8 5.32, 147.86 1.08 M119.6 11.13 C129.3 7.61, 138.83 4.28, 147.86 1.08" stroke="#2f9e44" stroke-width="1" fill="none"></path></g><g transform="translate(576.1248335275056 149.53570580493658) rotate(0 73.96143773778522 0.501428836610387)"><path d="M119.75 -9.39 C127.96 -6.37, 135.88 -3.33, 147.86 1.08 M119.75 -9.39 C129.4 -5.95, 138.88 -2.33, 147.86 1.08" stroke="#2f9e44" stroke-width="1" fill="none"></path></g></g><mask></mask><g transform="translate(306.5 246.08630258423693) rotate(0 87.6682357788086 15.192637902044765)"><text x="0" y="0" font-family="Virgil, Segoe UI Emoji" font-size="12.154110321635807px" fill="#1e1e1e" text-anchor="start" style="white-space: pre;" direction="ltr" dominant-baseline="text-before-edge">Single field, lots of instances</text><text x="0" y="15.192637902044758" font-family="Virgil, Segoe UI Emoji" font-size="12.154110321635807px" fill="#1e1e1e" text-anchor="start" style="white-space: pre;" direction="ltr" dominant-baseline="text-before-edge">(column based)</text></g><g transform="translate(58.30207061767578 243.8073620979552) rotate(0 83.40966796875 22.788956853067134)"><text x="0" y="0" font-family="Virgil, Segoe UI Emoji" font-size="12.154110321635807px" fill="#1e1e1e" text-anchor="start" style="white-space: pre;" direction="ltr" dominant-baseline="text-before-edge">Lots of fields, one instance</text><text x="0" y="15.192637902044758" font-family="Virgil, Segoe UI Emoji" font-size="12.154110321635807px" fill="#1e1e1e" text-anchor="start" style="white-space: pre;" direction="ltr" dominant-baseline="text-before-edge">e.g. data about 1 customer</text><text x="0" y="30.385275804089517" font-family="Virgil, Segoe UI Emoji" font-size="12.154110321635807px" fill="#1e1e1e" text-anchor="start" style="white-space: pre;" direction="ltr" dominant-baseline="text-before-edge">(row based)</text></g><g transform="translate(554.09033203125 249.71104314693287) rotate(0 98.23265838623047 15.192637902044765)"><text x="0" y="0" font-family="Virgil, Segoe UI Emoji" font-size="12.154110321635807px" fill="#1e1e1e" text-anchor="start" style="white-space: pre;" direction="ltr" dominant-baseline="text-before-edge">Lots of fields, lots of instances</text><text x="0" y="15.192637902044758" font-family="Virgil, Segoe UI Emoji" font-size="12.154110321635807px" fill="#1e1e1e" text-anchor="start" style="white-space: pre;" direction="ltr" dominant-baseline="text-before-edge">(table)</text></g></svg>