<svg version="1.1" xmlns="http://www.w3.org/2000/svg" viewBox="0 0 437.9999999999999 108.5" width="875.9999999999998" height="217">
  <!-- svg-source:excalidraw -->
  
  <defs>
    <style class="style-fonts">
      @font-face {
        font-family: "Virgil";
        src: url("https://excalidraw.com/Virgil.woff2");
      }
      @font-face {
        font-family: "Cascadia";
        src: url("https://excalidraw.com/Cascadia.woff2");
      }
    </style>
    
  </defs>
  <g stroke-linecap="round" transform="translate(10 11.25) rotate(0 43.5 42.75)"><path d="M21.38 0 C35.92 0.08, 47.87 3.38, 65.63 0 C79.63 2.75, 83.77 6.71, 87 21.38 C87.82 32.87, 88.15 48.82, 87 64.13 C83.93 81.07, 83.07 86.23, 65.63 85.5 C53.83 84.99, 46.11 88.5, 21.38 85.5 C3.56 82.17, 0.28 77.11, 0 64.13 C2.07 51.06, 0.87 30.52, 0 21.38 C-3.37 6.37, 5.82 1.1, 21.38 0" stroke="none" stroke-width="0" fill="#a5d8ff"></path><path d="M21.38 0 C37.23 1.59, 55.14 -1.54, 65.63 0 M21.38 0 C31.43 -0.32, 42.9 -0.86, 65.63 0 M65.63 0 C81.09 -0.11, 85.77 6, 87 21.38 M65.63 0 C79.98 -1.76, 84.85 6.11, 87 21.38 M87 21.38 C88.12 31.99, 88.15 43.65, 87 64.13 M87 21.38 C86.8 37.76, 86.62 53.77, 87 64.13 M87 64.13 C88.07 77.59, 80.05 86.82, 65.63 85.5 M87 64.13 C88.8 77.26, 79.9 86.14, 65.63 85.5 M65.63 85.5 C55.31 86.15, 46.68 86.03, 21.38 85.5 M65.63 85.5 C55.37 85.17, 47.35 84.61, 21.38 85.5 M21.38 85.5 C8.94 86.71, -0.96 77.54, 0 64.13 M21.38 85.5 C4.95 84.59, -1.11 79.44, 0 64.13 M0 64.13 C0.62 56.26, 0.18 45.66, 0 21.38 M0 64.13 C0.92 54.36, -1.03 43.43, 0 21.38 M0 21.38 C1 5.94, 6.32 1.92, 21.38 0 M0 21.38 C-0.46 5.17, 8.19 0.54, 21.38 0" stroke="#9c36b5" stroke-width="2" fill="none"></path></g><g transform="translate(33.84400939941406 44) rotate(0 19.655990600585938 10)"><text x="19.655990600585938" y="0" font-family="Virgil, Segoe UI Emoji" font-size="16px" fill="#9c36b5" text-anchor="middle" style="white-space: pre;" direction="ltr" dominant-baseline="text-before-edge">Rate</text></g><g stroke-linecap="round" transform="translate(114.99999999999989 10.5) rotate(0 43.5 42.75)"><path d="M21.38 0 C34 2.1, 43.9 -1.07, 65.63 0 C80.68 -1.94, 88.28 8.36, 87 21.38 C84.27 34.19, 90.53 42.33, 87 64.13 C85.23 77.5, 79.12 84.81, 65.63 85.5 C49.21 82.87, 40.2 84.93, 21.38 85.5 C9.03 81.99, -3.35 79.7, 0 64.13 C-3.39 48.15, -1.33 34.78, 0 21.38 C1.94 8.51, 5.83 -3.12, 21.38 0" stroke="none" stroke-width="0" fill="#ffc9c9"></path><path d="M21.38 0 C37.75 0.87, 55.9 -1.56, 65.63 0 M21.38 0 C33.52 0.36, 43.84 -0.15, 65.63 0 M65.63 0 C79.97 -1.53, 85.13 6.24, 87 21.38 M65.63 0 C79.33 0.45, 86.42 8.32, 87 21.38 M87 21.38 C89.02 33.3, 87.11 40.75, 87 64.13 M87 21.38 C87.22 32.7, 86.77 45.48, 87 64.13 M87 64.13 C88.56 77.4, 79.89 86.06, 65.63 85.5 M87 64.13 C85.02 78.32, 79.86 84.52, 65.63 85.5 M65.63 85.5 C49.24 85.26, 36.29 84.26, 21.38 85.5 M65.63 85.5 C54.82 85.7, 41.71 84.68, 21.38 85.5 M21.38 85.5 C5.23 84.71, -0.97 79.3, 0 64.13 M21.38 85.5 C4.94 83.65, -1.34 78.69, 0 64.13 M0 64.13 C-0.94 49.52, -1.4 36.52, 0 21.38 M0 64.13 C0.93 46.51, 0.02 31.05, 0 21.38 M0 21.38 C-0.4 5.43, 8.05 0.47, 21.38 0 M0 21.38 C0.52 4.94, 5.96 0.18, 21.38 0" stroke="#9c36b5" stroke-width="2" fill="none"></path></g><g transform="translate(130.85201263427723 43.25) rotate(0 27.647987365722656 10)"><text x="27.647987365722656" y="0" font-family="Virgil, Segoe UI Emoji" font-size="16px" fill="#9c36b5" text-anchor="middle" style="white-space: pre;" direction="ltr" dominant-baseline="text-before-edge">Quality</text></g><g stroke-linecap="round" transform="translate(225.9999999999999 10) rotate(0 43.5 42.75)"><path d="M21.38 0 C38.84 -1.85, 55.97 1.33, 65.63 0 C77.59 1.56, 86.88 4.06, 87 21.38 C85.92 36.53, 86.93 52.74, 87 64.13 C86.66 81.08, 83.04 81.94, 65.63 85.5 C58.35 81.71, 43.92 86.54, 21.38 85.5 C9.14 85.62, -3.44 75.01, 0 64.13 C2.22 53.59, -1.02 37.15, 0 21.38 C-2.33 10.72, 3.92 2.89, 21.38 0" stroke="none" stroke-width="0" fill="#b2f2bb"></path><path d="M21.38 0 C35.18 -0.43, 48.7 1.62, 65.63 0 M21.38 0 C34.46 -0.52, 46.52 -0.19, 65.63 0 M65.63 0 C79.4 0.39, 86.5 8.16, 87 21.38 M65.63 0 C78.49 1.23, 85.44 9.18, 87 21.38 M87 21.38 C86.46 36.32, 85.17 55.28, 87 64.13 M87 21.38 C87.82 32.03, 87.05 43.93, 87 64.13 M87 64.13 C85.28 78.33, 79.87 84.65, 65.63 85.5 M87 64.13 C87.75 78.36, 80.49 83.58, 65.63 85.5 M65.63 85.5 C52.43 86.96, 38.82 87.01, 21.38 85.5 M65.63 85.5 C48.72 84.92, 33.23 85.78, 21.38 85.5 M21.38 85.5 C5.23 83.89, -1.17 78.65, 0 64.13 M21.38 85.5 C8.16 85.31, -1.07 77.26, 0 64.13 M0 64.13 C2.27 49, 1.91 38.85, 0 21.38 M0 64.13 C-0.03 52.98, 0.64 43.77, 0 21.38 M0 21.38 C0.45 5.23, 6.11 0.15, 21.38 0 M0 21.38 C-0.21 5.82, 9.03 -0.16, 21.38 0" stroke="#9c36b5" stroke-width="2" fill="none"></path></g><g transform="translate(231.8680191040038 32.75) rotate(0 37.631980895996094 20)"><text x="37.631980895996094" y="0" font-family="Virgil, Segoe UI Emoji" font-size="16px" fill="#9c36b5" text-anchor="middle" style="white-space: pre;" direction="ltr" dominant-baseline="text-before-edge">Sensitive?</text><text x="37.631980895996094" y="20" font-family="Virgil, Segoe UI Emoji" font-size="16px" fill="#9c36b5" text-anchor="middle" style="white-space: pre;" direction="ltr" dominant-baseline="text-before-edge">(e.g. PII)</text></g><g stroke-linecap="round" transform="translate(340.9999999999999 13) rotate(0 43.5 42.75)"><path d="M21.38 0 C29.98 1.29, 43.04 -3.34, 65.63 0 C82.57 3.2, 87.73 5.36, 87 21.38 C86.49 35.86, 90 41.39, 87 64.13 C83.67 78.65, 78.61 87.4, 65.63 85.5 C58.68 85.92, 44.26 82.43, 21.38 85.5 C6.37 84.19, 1.1 80.32, 0 64.13 C-2.05 53.25, -2.92 38.07, 0 21.38 C2.99 6.29, 4.92 2.03, 21.38 0" stroke="none" stroke-width="0" fill="#ffec99"></path><path d="M21.38 0 C32.7 -1.5, 43.12 -0.18, 65.63 0 M21.38 0 C31.03 0.39, 40.9 0.71, 65.63 0 M65.63 0 C78.67 1.07, 85.64 8.91, 87 21.38 M65.63 0 C81.81 -0.13, 85.72 6.53, 87 21.38 M87 21.38 C85.83 31.21, 87.94 42.27, 87 64.13 M87 21.38 C86.14 32.1, 87 42.44, 87 64.13 M87 64.13 C87.65 78.36, 80.41 83.83, 65.63 85.5 M87 64.13 C86.59 78.47, 78.31 84.69, 65.63 85.5 M65.63 85.5 C49.66 84.94, 30.43 84.01, 21.38 85.5 M65.63 85.5 C53.15 84.9, 41.99 85.84, 21.38 85.5 M21.38 85.5 C8.03 85.33, -0.93 77.4, 0 64.13 M21.38 85.5 C7.29 83.85, 2.18 80.63, 0 64.13 M0 64.13 C-1.53 54.75, 1.58 46.59, 0 21.38 M0 64.13 C0.03 53.98, -0.71 45.8, 0 21.38 M0 21.38 C-0.18 5.99, 8.78 -0.14, 21.38 0 M0 21.38 C1.76 5.06, 6.86 0.51, 21.38 0" stroke="#9c36b5" stroke-width="2" fill="none"></path></g><g transform="translate(348.35601806640614 25.75) rotate(0 36.14398193359375 30)"><text x="36.14398193359375" y="0" font-family="Virgil, Segoe UI Emoji" font-size="16px" fill="#9c36b5" text-anchor="middle" style="white-space: pre;" direction="ltr" dominant-baseline="text-before-edge">Type:</text><text x="36.14398193359375" y="20" font-family="Virgil, Segoe UI Emoji" font-size="16px" fill="#9c36b5" text-anchor="middle" style="white-space: pre;" direction="ltr" dominant-baseline="text-before-edge">State vs</text><text x="36.14398193359375" y="40" font-family="Virgil, Segoe UI Emoji" font-size="16px" fill="#9c36b5" text-anchor="middle" style="white-space: pre;" direction="ltr" dominant-baseline="text-before-edge">value</text></g></svg>