<svg version="1.1" xmlns="http://www.w3.org/2000/svg" viewBox="0 0 782.5 503" width="1565" height="1006">
  <!-- svg-source:excalidraw -->
  
  <defs>
    <style class="style-fonts">
      @font-face {
        font-family: "Virgil";
        src: url("https://excalidraw.com/Virgil.woff2");
      }
      @font-face {
        font-family: "Cascadia";
        src: url("https://excalidraw.com/Cascadia.woff2");
      }
    </style>
    
  </defs>
  <g stroke-linecap="round" transform="translate(494 10) rotate(0 76 78)"><path d="M30.48 15.9 C30.48 15.9, 30.48 15.9, 30.48 15.9 M30.48 15.9 C30.48 15.9, 30.48 15.9, 30.48 15.9 M6.6 49.46 C13.64 41.61, 24.3 29.92, 39.41 11.73 M6.6 49.46 C18.24 35.75, 31.01 19.89, 39.41 11.73 M4.37 58.13 C19.72 37.71, 35.08 21.42, 48.98 6.81 M4.37 58.13 C16.12 45.9, 25.74 32.59, 48.98 6.81 M2.14 66.79 C22.82 41.5, 43.81 20.67, 57.91 2.64 M2.14 66.79 C15.65 51.85, 28.45 36.17, 57.91 2.64 M-0.09 75.45 C24.94 47.95, 47.31 20.64, 64.86 0.73 M-0.09 75.45 C21.8 50.57, 42.33 26.76, 64.86 0.73 M0.96 80.34 C15.5 64.54, 32.06 45.24, 69.85 1.09 M0.96 80.34 C25.01 50.61, 51.56 22.94, 69.85 1.09 M1.36 85.98 C18.26 67.33, 35.34 44.45, 74.84 1.45 M1.36 85.98 C21.96 62.31, 43.68 37.49, 74.84 1.45 M2.41 90.87 C26.13 63.21, 49.29 37.02, 79.82 1.81 M2.41 90.87 C22.04 69.48, 42.83 45.25, 79.82 1.81 M3.46 95.76 C24.47 67.56, 50.3 41.88, 84.81 2.17 M3.46 95.76 C25.5 72.17, 47.66 47.53, 84.81 2.17 M4.51 100.65 C33.75 66.11, 62.55 35.13, 90.45 1.78 M4.51 100.65 C29.7 71.92, 53.57 44.33, 90.45 1.78 M5.56 105.54 C34.6 71.28, 66.59 33.65, 95.44 2.14 M5.56 105.54 C31.05 75.69, 57.29 45.49, 95.44 2.14 M5.96 111.18 C26.9 84.11, 50.19 61.61, 99.12 4.01 M5.96 111.18 C40.57 69.09, 76.14 28.09, 99.12 4.01 M8.32 114.56 C30.36 89.88, 48.77 66.8, 102.79 5.88 M8.32 114.56 C31.18 88, 52.95 64.7, 102.79 5.88 M11.34 117.18 C39.78 84.25, 67.76 54.22, 106.47 7.75 M11.34 117.18 C46.26 75.86, 82.82 33.53, 106.47 7.75 M13.7 120.56 C38.71 92.43, 61.76 63.75, 109.48 10.37 M13.7 120.56 C41.44 88.54, 69.59 56.59, 109.48 10.37 M16.06 123.94 C36.16 99.05, 59.49 72.28, 113.16 12.24 M16.06 123.94 C42.37 93.42, 68.96 64.12, 113.16 12.24 M19.08 126.56 C52.7 87.54, 83.92 48.45, 116.83 14.11 M19.08 126.56 C47.2 92.82, 76.41 59.28, 116.83 14.11 M21.44 129.94 C55.21 92.82, 90.48 49.87, 120.51 15.98 M21.44 129.94 C54.31 92.09, 88.19 54.13, 120.51 15.98 M23.81 133.32 C56.09 97.82, 87.53 61.44, 124.18 17.85 M23.81 133.32 C62.95 88.59, 100.48 43.88, 124.18 17.85 M26.17 136.7 C62.33 94.69, 97.5 56.47, 127.2 20.48 M26.17 136.7 C46.85 112.5, 69.09 87.64, 127.2 20.48 M29.85 138.57 C66.72 92.95, 107.57 48.03, 129.57 23.85 M29.85 138.57 C65.52 98.32, 99.42 59.74, 129.57 23.85 M32.86 141.19 C68.13 104.87, 98.02 64.27, 131.93 27.23 M32.86 141.19 C55.37 114.4, 77.44 89.4, 131.93 27.23 M36.54 143.06 C64.98 112.9, 88.98 83.57, 134.29 30.61 M36.54 143.06 C62.14 112.95, 86.43 84.31, 134.29 30.61 M40.21 144.93 C60.17 123.69, 81.58 100.26, 136.65 33.99 M40.21 144.93 C69.2 110.49, 98.64 77.52, 136.65 33.99 M43.89 146.8 C68.67 116.43, 92.16 87.25, 139.02 37.37 M43.89 146.8 C69.92 116.13, 96.95 85.08, 139.02 37.37 M47.56 148.67 C70.44 122.2, 93.75 97.65, 141.38 40.75 M47.56 148.67 C84.91 106.09, 120.8 64.2, 141.38 40.75 M51.24 150.54 C68.3 128.49, 87.73 106.44, 143.74 44.13 M51.24 150.54 C76.43 124.41, 98.61 96.77, 143.74 44.13 M54.91 152.41 C88.56 111.34, 125.55 70.98, 146.11 47.51 M54.91 152.41 C80.95 124.67, 106.16 94.63, 146.11 47.51 M59.24 153.53 C82.41 125.65, 106.17 98.71, 146.5 53.15 M59.24 153.53 C83.79 128.42, 107.05 101.55, 146.5 53.15 M64.23 153.89 C88.62 128.76, 112.51 100.96, 147.55 58.04 M64.23 153.89 C96.1 119.4, 126.3 83.6, 147.55 58.04 M69.87 153.49 C100.07 116.71, 130.48 80.24, 148.6 62.93 M69.87 153.49 C93.33 125.23, 118.43 95.79, 148.6 62.93 M74.86 153.85 C94.08 128.4, 116.74 105.99, 149.65 67.81 M74.86 153.85 C96.65 129.22, 117.99 102.6, 149.65 67.81 M79.85 154.21 C97.16 134.08, 118.86 112.05, 150.7 72.7 M79.85 154.21 C97.65 133.84, 113.12 114.62, 150.7 72.7 M85.49 153.82 C100.43 140.07, 113.94 125.02, 151.75 77.59 M85.49 153.82 C106.71 128.85, 128.61 103.66, 151.75 77.59 M90.48 154.18 C106.8 131.8, 124.88 110.95, 150.18 85.5 M90.48 154.18 C104.29 139.48, 116.78 123.41, 150.18 85.5 M99.4 150.01 C119.25 127.19, 137.42 105.11, 147.95 94.16 M99.4 150.01 C115.7 130.4, 133.76 110.92, 147.95 94.16 M108.33 145.84 C118.17 130.76, 130.41 119.4, 146.38 102.07 M108.33 145.84 C115.67 136.59, 125.12 125.96, 146.38 102.07 M117.25 141.67 C124.01 131.34, 136.09 120.57, 144.15 110.73 M117.25 141.67 C124.13 133.59, 131.74 124.31, 144.15 110.73" stroke="#fff9db" stroke-width="0.5" fill="none"></path><path d="M61.58 0.63 C71.58 -2.85, 84.13 -0.96, 94.81 1.98 C105.48 4.92, 117.22 10.9, 125.63 18.28 C134.04 25.66, 140.93 36.16, 145.27 46.27 C149.6 56.37, 151.99 67.63, 151.64 78.91 C151.29 90.19, 148.26 103.81, 143.19 113.95 C138.11 124.09, 129.98 133.07, 121.18 139.75 C112.39 146.43, 101.22 151.75, 90.42 154.03 C79.63 156.3, 66.95 156.17, 56.4 153.4 C45.86 150.63, 35.57 144.49, 27.17 137.41 C18.76 130.34, 10.64 121.34, 5.97 110.96 C1.3 100.58, -1.08 86.52, -0.83 75.14 C-0.59 63.76, 2.2 52.52, 7.42 42.65 C12.64 32.78, 20.39 22.82, 30.47 15.91 C40.56 8.99, 60.66 3.58, 67.95 1.14 C75.24 -1.29, 74.29 0.23, 74.22 1.28 M57.97 1.51 C67.83 -2.12, 81.97 -1.65, 92.7 0.74 C103.43 3.13, 113.58 8.81, 122.36 15.86 C131.14 22.91, 140.27 32.67, 145.38 43.03 C150.49 53.39, 153.18 66.65, 153.02 78.05 C152.87 89.45, 149.17 101.55, 144.45 111.43 C139.74 121.31, 133.02 130.08, 124.75 137.31 C116.47 144.53, 105.56 151.74, 94.82 154.78 C84.08 157.83, 71.17 158.1, 60.31 155.57 C49.45 153.05, 38.47 146.61, 29.65 139.65 C20.82 132.69, 12.11 123.89, 7.36 113.82 C2.6 103.76, 1.24 90.4, 1.11 79.23 C0.98 68.07, 2.21 57.01, 6.57 46.82 C10.93 36.62, 18.76 25.33, 27.26 18.05 C35.76 10.78, 52.4 5.47, 57.56 3.17 C62.73 0.87, 57.86 2.92, 58.25 4.26" stroke="#1971c2" stroke-width="1" fill="none"></path></g><g transform="translate(521.7839172225958 47.8456710674493) rotate(0 47.97596740722656 40)"><text x="47.97596740722656" y="0" font-family="Virgil, Segoe UI Emoji" font-size="16px" fill="#1971c2" text-anchor="middle" style="white-space: pre;" direction="ltr" dominant-baseline="text-before-edge">Block cyber </text><text x="47.97596740722656" y="20" font-family="Virgil, Segoe UI Emoji" font-size="16px" fill="#1971c2" text-anchor="middle" style="white-space: pre;" direction="ltr" dominant-baseline="text-before-edge">attack </text><text x="47.97596740722656" y="40" font-family="Virgil, Segoe UI Emoji" font-size="16px" fill="#1971c2" text-anchor="middle" style="white-space: pre;" direction="ltr" dominant-baseline="text-before-edge">based on </text><text x="47.97596740722656" y="60" font-family="Virgil, Segoe UI Emoji" font-size="16px" fill="#1971c2" text-anchor="middle" style="white-space: pre;" direction="ltr" dominant-baseline="text-before-edge">user and IP</text></g><g stroke-opacity="0.8" fill-opacity="0.8" stroke-linecap="round" transform="translate(10 173.5) rotate(0 87.5 90.5)"><path d="M17.71 33.95 C17.71 33.95, 17.71 33.95, 17.71 33.95 M17.71 33.95 C17.71 33.95, 17.71 33.95, 17.71 33.95 M11.55 47.14 C25.14 34.99, 34.11 19.56, 40.41 13.93 M11.55 47.14 C20.52 35.04, 31.43 24.78, 40.41 13.93 M5.38 60.33 C16.95 44.45, 28.78 32.67, 49.34 9.76 M5.38 60.33 C20.27 43.19, 37.21 24.08, 49.34 9.76 M2.49 69.74 C21.41 44.8, 44.24 22.06, 56.95 7.1 M2.49 69.74 C19.09 51.23, 35.2 32.52, 56.95 7.1 M2.23 76.14 C18.23 54.79, 37.5 38.46, 63.9 5.2 M2.23 76.14 C16.02 60.63, 30.23 43.95, 63.9 5.2 M1.97 82.54 C20.71 61.82, 34.75 41.63, 71.51 2.54 M1.97 82.54 C21.52 58.4, 41.67 36.86, 71.51 2.54 M1.71 88.94 C28.9 58.93, 55 29.4, 78.47 0.64 M1.71 88.94 C25.36 61.18, 50.07 31.96, 78.47 0.64 M1.45 95.34 C19.8 72.49, 37.4 51.4, 83.46 1 M1.45 95.34 C18.5 74.43, 34.19 55.42, 83.46 1 M1.84 100.98 C29.34 70.45, 54.28 40.8, 88.44 1.36 M1.84 100.98 C27.32 71.23, 54.11 40.9, 88.44 1.36 M3.55 105.11 C36.12 68.56, 68.19 31.67, 92.77 2.47 M3.55 105.11 C32.78 71.7, 61.79 37.01, 92.77 2.47 M4.6 110 C29.16 82.27, 55.38 54.34, 97.76 2.83 M4.6 110 C42.15 68.09, 79.41 26.83, 97.76 2.83 M6.31 114.13 C27.09 89.88, 52.02 64.5, 102.75 3.19 M6.31 114.13 C40.38 76.09, 72.51 38.79, 102.75 3.19 M7.36 119.02 C38.61 83.18, 65.68 48.59, 107.74 3.55 M7.36 119.02 C43.83 76.75, 80.82 34.4, 107.74 3.55 M9.07 123.16 C32.08 94.01, 56.76 69.87, 112.07 4.67 M9.07 123.16 C41.59 86.58, 74.03 49.82, 112.07 4.67 M10.12 128.04 C48.2 87.01, 84.56 41.48, 115.74 6.54 M10.12 128.04 C42.39 89.72, 74.8 50.62, 115.74 6.54 M11.82 132.18 C39.88 97.47, 71.44 65.17, 119.42 8.41 M11.82 132.18 C45.52 90.31, 80.93 50.19, 119.42 8.41 M13.53 136.31 C52.89 90.52, 94.04 48.02, 123.75 9.52 M13.53 136.31 C48.05 95.58, 85.05 53.01, 123.75 9.52 M15.89 139.69 C53.7 93.8, 94.01 50.05, 127.42 11.39 M15.89 139.69 C41.41 108.68, 70.11 77.9, 127.42 11.39 M18.25 143.07 C54.21 101.77, 90.52 61.74, 131.1 13.26 M18.25 143.07 C63.43 91.96, 106.01 43.43, 131.1 13.26 M21.27 145.69 C56.79 107.77, 93.55 65.84, 134.77 15.13 M21.27 145.69 C62.4 99.37, 102.25 54.05, 134.77 15.13 M23.64 149.07 C48.79 118.41, 73.08 90.38, 138.45 17 M23.64 149.07 C54.63 115.16, 84.33 79.18, 138.45 17 M26 152.45 C57.8 116.13, 88.07 78.28, 142.12 18.87 M26 152.45 C61.37 113.39, 97.71 71.9, 142.12 18.87 M28.36 155.83 C62.07 115.94, 98.36 74.04, 144.48 22.25 M28.36 155.83 C60.15 119.08, 92.66 83.05, 144.48 22.25 M30.72 159.21 C63.04 121.7, 93.04 88.79, 147.5 24.87 M30.72 159.21 C75.11 108, 119.94 55, 147.5 24.87 M33.09 162.59 C61.69 131.43, 90.29 100.04, 149.87 28.25 M33.09 162.59 C62.78 127.96, 93.98 90.98, 149.87 28.25 M36.76 164.46 C79.03 116.37, 120.94 70.5, 152.23 31.63 M36.76 164.46 C65.66 130.24, 94.88 96.64, 152.23 31.63 M40.44 166.33 C76.63 127.06, 108.61 86.77, 154.59 35.01 M40.44 166.33 C68.89 136.42, 94.79 105.82, 154.59 35.01 M44.11 168.2 C82.27 123.31, 119.56 83.25, 156.95 38.39 M44.11 168.2 C87.97 120.32, 131.41 70.36, 156.95 38.39 M47.79 170.07 C90.73 119.98, 136.9 65.74, 159.32 41.77 M47.79 170.07 C85.24 125.27, 125.41 81.54, 159.32 41.77 M51.46 171.94 C74.93 147.7, 94.71 120.38, 161.68 45.15 M51.46 171.94 C75.43 143.74, 99.94 116.09, 161.68 45.15 M55.14 173.81 C84.23 137.25, 114.74 100.88, 163.39 49.28 M55.14 173.81 C86.66 136.33, 118.2 99.82, 163.39 49.28 M58.81 175.68 C89.9 138.58, 122.19 102.73, 165.09 53.41 M58.81 175.68 C86.32 144.41, 113.11 115.02, 165.09 53.41 M62.49 177.54 C93.19 140.21, 126.37 103.9, 166.8 57.55 M62.49 177.54 C98.25 137.47, 132.39 95.7, 166.8 57.55 M66.82 178.66 C86.78 151.91, 109.52 129.65, 167.85 62.43 M66.82 178.66 C97.55 141.98, 130.29 105.12, 167.85 62.43 M71.8 179.02 C99.52 146.78, 128.7 117.07, 169.56 66.57 M71.8 179.02 C96.67 151.17, 121.37 120.48, 169.56 66.57 M76.79 179.38 C95.23 154.94, 117.42 132.9, 171.26 70.7 M76.79 179.38 C103.6 147.64, 131.25 113.9, 171.26 70.7 M81.78 179.74 C102.96 160.03, 118.86 138.1, 172.31 75.59 M81.78 179.74 C101.79 156.88, 122.43 135.24, 172.31 75.59 M86.77 180.1 C108.9 159.11, 127.6 133.41, 173.37 80.48 M86.77 180.1 C107.12 157.99, 125.65 136.11, 173.37 80.48 M91.75 180.46 C118.46 149.91, 148.45 117.11, 173.1 86.88 M91.75 180.46 C115.23 152.26, 139.86 124.19, 173.1 86.88 M96.74 180.82 C118.89 154.65, 143.8 124.63, 172.84 93.27 M96.74 180.82 C126.44 147.07, 154.56 113.53, 172.84 93.27 M103.04 179.67 C127.32 150.09, 149.19 126.39, 171.92 100.43 M103.04 179.67 C126.73 151.69, 151.73 123.22, 171.92 100.43 M110.65 177.01 C131.23 155.24, 151.75 130.48, 171.66 106.82 M110.65 177.01 C134.31 148.34, 159.58 121.53, 171.66 106.82 M118.92 173.6 C135.18 154.86, 153.53 131.9, 171.4 113.22 M118.92 173.6 C139.6 150.19, 158.59 128.32, 171.4 113.22 M126.53 170.94 C136.12 157.97, 148.3 145.21, 167.86 123.39 M126.53 170.94 C141.13 154.39, 155.38 136.89, 167.86 123.39 M140.04 161.49 C142.57 156.27, 150.02 150.65, 162.35 135.83 M140.04 161.49 C145.6 154.77, 153.33 147.46, 162.35 135.83" stroke="#ebfbee" stroke-width="0.5" fill="none"></path><path d="M77.04 0.42 C87.48 -2.05, 100.27 0.78, 111.16 3.86 C122.05 6.95, 133.79 11.8, 142.38 18.92 C150.97 26.05, 157.53 36.67, 162.7 46.63 C167.88 56.59, 172.02 67.43, 173.44 78.67 C174.86 89.9, 174.02 102.67, 171.23 114.03 C168.45 125.4, 163.6 137.65, 156.74 146.84 C149.87 156.04, 139.71 163.52, 130.06 169.19 C120.41 174.86, 110 179.4, 98.86 180.87 C87.71 182.34, 74.13 181.1, 63.2 178 C52.28 174.9, 41.81 169.45, 33.31 162.27 C24.82 155.09, 17.51 145.07, 12.22 134.92 C6.92 124.77, 3.16 112.75, 1.52 101.39 C-0.12 90.04, -0.32 78, 2.37 66.77 C5.06 55.54, 10.79 43.28, 17.65 34.02 C24.52 24.75, 32.14 17, 43.56 11.17 C54.97 5.33, 77.41 0.4, 86.13 -0.99 C94.84 -2.38, 95.66 1.07, 95.85 2.83 M99.4 2.03 C110.52 2.17, 124.27 7.41, 133.91 13.43 C143.56 19.45, 151.08 29.1, 157.28 38.14 C163.47 47.17, 168.3 56.89, 171.07 67.62 C173.84 78.35, 175.45 91.11, 173.9 102.5 C172.36 113.89, 167.66 125.92, 161.82 135.98 C155.98 146.04, 147.86 155.85, 138.86 162.85 C129.87 169.85, 118.59 175.28, 107.85 178 C97.11 180.72, 85.17 180.83, 74.4 179.17 C63.64 177.52, 52.99 174.01, 43.28 168.08 C33.56 162.14, 22.86 153.06, 16.1 143.58 C9.34 134.09, 5.21 121.99, 2.7 111.15 C0.19 100.31, -0.51 89.78, 1.04 78.54 C2.58 67.29, 6.35 53.91, 11.95 43.68 C17.54 33.44, 25.46 23.74, 34.62 17.12 C43.79 10.51, 55.79 6.42, 66.95 3.97 C78.1 1.52, 96.01 2.59, 101.56 2.44 C107.11 2.3, 100.59 1.99, 100.24 3.09" stroke="#2f9e44" stroke-width="1" fill="none"></path></g><g stroke-opacity="0.8" fill-opacity="0.8" transform="translate(41.244192107602885 224.00683630261744) rotate(0 56.38396453857422 40)"><text x="56.38396453857422" y="0" font-family="Virgil, Segoe UI Emoji" font-size="16px" fill="#2f9e44" text-anchor="middle" style="white-space: pre;" direction="ltr" dominant-baseline="text-before-edge">Aggregate a </text><text x="56.38396453857422" y="20" font-family="Virgil, Segoe UI Emoji" font-size="16px" fill="#2f9e44" text-anchor="middle" style="white-space: pre;" direction="ltr" dominant-baseline="text-before-edge">user's data </text><text x="56.38396453857422" y="40" font-family="Virgil, Segoe UI Emoji" font-size="16px" fill="#2f9e44" text-anchor="middle" style="white-space: pre;" direction="ltr" dominant-baseline="text-before-edge">for a subject</text><text x="56.38396453857422" y="60" font-family="Virgil, Segoe UI Emoji" font-size="16px" fill="#2f9e44" text-anchor="middle" style="white-space: pre;" direction="ltr" dominant-baseline="text-before-edge">acess request</text></g><g stroke-opacity="0.8" fill-opacity="0.8" stroke-linecap="round" transform="translate(127.5 249.5) rotate(0 87.5 90.5)"><path d="M36.38 15.73 C36.38 15.73, 36.38 15.73, 36.38 15.73 M36.38 15.73 C36.38 15.73, 36.38 15.73, 36.38 15.73 M17.1 44.01 C26.33 36.96, 33.17 27.48, 44.65 12.31 M17.1 44.01 C25.53 34.85, 33.64 24.04, 44.65 12.31 M12.9 54.94 C27.1 39.47, 40.58 22.19, 52.92 8.9 M12.9 54.94 C25.38 41.91, 37.46 27.16, 52.92 8.9 M8.7 65.86 C29.96 41.09, 50.97 16.65, 61.84 4.73 M8.7 65.86 C26.17 45.18, 43.78 25.28, 61.84 4.73 M4.5 76.79 C21.55 57, 37.96 37.95, 68.14 3.58 M4.5 76.79 C23.3 56.2, 42.39 33.35, 68.14 3.58 M4.9 82.43 C26.75 54.74, 49.17 30.04, 73.78 3.19 M4.9 82.43 C23 62.03, 41.07 43.08, 73.78 3.19 M4.64 88.83 C26.64 61.34, 48.67 39.38, 78.77 3.55 M4.64 88.83 C29.9 59.86, 55.47 30.96, 78.77 3.55 M5.03 94.47 C21.75 74.22, 39.58 52.68, 84.41 3.15 M5.03 94.47 C35.48 60.69, 63.7 26.79, 84.41 3.15 M5.43 100.12 C24.12 76.95, 47.55 52.02, 90.06 2.76 M5.43 100.12 C35.8 66.85, 64.66 32.88, 90.06 2.76 M5.16 106.51 C25.9 83.94, 47.94 60.55, 95.04 3.12 M5.16 106.51 C35.81 69.24, 66.94 34.39, 95.04 3.12 M4.9 112.91 C29.19 85.16, 52.38 57.14, 100.69 2.73 M4.9 112.91 C38.27 71.92, 74.25 32.2, 100.69 2.73 M6.61 117.05 C37.97 79.16, 71.17 42.59, 105.02 3.84 M6.61 117.05 C43.97 73.66, 81.76 30.66, 105.02 3.84 M8.32 121.18 C48.48 77.51, 85.34 33.79, 108.69 5.71 M8.32 121.18 C36.47 89.14, 63.52 58.64, 108.69 5.71 M10.02 125.31 C36.94 92.42, 67.08 56, 113.02 6.82 M10.02 125.31 C35.01 93.98, 61.92 64.12, 113.02 6.82 M11.73 129.45 C49.07 84.94, 87.15 39.62, 116.7 8.69 M11.73 129.45 C47.09 87.99, 84.32 46.4, 116.7 8.69 M13.44 133.58 C54.87 83.22, 99.84 36.41, 120.37 10.56 M13.44 133.58 C40.65 102.63, 66.65 71.12, 120.37 10.56 M15.14 137.71 C38.77 110.69, 61.04 82.49, 124.7 11.68 M15.14 137.71 C42.53 104.78, 71.5 71.91, 124.7 11.68 M16.19 142.6 C47.8 108.68, 77.54 74.92, 128.38 13.55 M16.19 142.6 C44.23 109.71, 73.79 76.86, 128.38 13.55 M18.56 145.98 C39.5 118.08, 63.82 90.87, 132.71 14.66 M18.56 145.98 C47.88 110.97, 77.12 77.72, 132.71 14.66 M21.58 148.61 C48.25 119.34, 72.04 86.15, 136.39 16.53 M21.58 148.61 C48.48 118.12, 75.85 86.79, 136.39 16.53 M24.59 151.23 C60.87 110.26, 100.06 65.33, 139.4 19.16 M24.59 151.23 C51.19 119.38, 79.46 88.22, 139.4 19.16 M27.61 153.85 C69.74 108.89, 108.29 58.95, 142.42 21.78 M27.61 153.85 C70.15 104.16, 114.65 53, 142.42 21.78 M29.98 157.23 C74.38 109.66, 113.47 59.45, 144.79 25.16 M29.98 157.23 C56.54 127.26, 82.37 97.94, 144.79 25.16 M32.99 159.86 C57.34 132.13, 83.44 103.71, 147.8 27.78 M32.99 159.86 C73.69 113.48, 114.28 64.86, 147.8 27.78 M36.01 162.48 C69.01 123.87, 100.16 86.94, 150.82 30.41 M36.01 162.48 C73.93 119.3, 112.03 75.74, 150.82 30.41 M39.03 165.11 C83.42 117.33, 122.35 71.14, 153.84 33.03 M39.03 165.11 C66.19 131.01, 96.04 99.65, 153.84 33.03 M42.05 167.73 C71.91 134.66, 101.33 100.92, 156.86 35.66 M42.05 167.73 C84.46 121.01, 126.14 71.21, 156.86 35.66 M45.73 169.6 C90.6 120.08, 134.59 68.78, 159.22 39.04 M45.73 169.6 C70.31 139.34, 95.34 112.18, 159.22 39.04 M50.06 170.71 C90.38 125.19, 129.68 77.97, 161.59 42.41 M50.06 170.71 C77.02 143.08, 100.53 114.09, 161.59 42.41 M53.73 172.58 C84.36 133.56, 121.27 94.59, 163.29 46.55 M53.73 172.58 C81.04 141.5, 108.12 110.96, 163.29 46.55 M58.06 173.7 C90.69 132.74, 125.21 94.54, 165 50.68 M58.06 173.7 C94.67 130.9, 131.9 88.62, 165 50.68 M62.39 174.81 C100.56 129.2, 142.01 83.89, 166.71 54.82 M62.39 174.81 C104.58 126.03, 145.61 78.33, 166.71 54.82 M66.07 176.68 C102.88 130.42, 143.68 86.14, 169.07 58.19 M66.07 176.68 C87.47 151.32, 108.23 128.03, 169.07 58.19 M70.4 177.8 C94.62 149.09, 122.02 118.73, 170.78 62.33 M70.4 177.8 C103.1 140.37, 137.57 101.13, 170.78 62.33 M74.07 179.67 C96.25 155.04, 115.24 130.04, 172.48 66.46 M74.07 179.67 C98.08 152.69, 120.96 126.92, 172.48 66.46 M79.06 180.03 C105.74 151.39, 128.69 124.41, 174.19 70.6 M79.06 180.03 C102.89 155.21, 125.37 128.2, 174.19 70.6 M84.7 179.63 C104.32 157.2, 125.24 135.29, 174.58 76.24 M84.7 179.63 C112.68 146.22, 140.46 114.42, 174.58 76.24 M89.69 179.99 C114.8 152.15, 139.28 122.65, 174.32 82.64 M89.69 179.99 C112 155.71, 134.36 129.03, 174.32 82.64 M94.68 180.35 C113.16 157.35, 131.19 137.75, 174.72 88.28 M94.68 180.35 C115.5 156.21, 136.54 133.33, 174.72 88.28 M100.32 179.96 C123.53 150.15, 147.88 124.29, 175.11 93.92 M100.32 179.96 C120.45 156.06, 140.69 133.38, 175.11 93.92 M105.31 180.32 C132.82 147.02, 159.78 118.99, 174.85 100.32 M105.31 180.32 C130.76 151.14, 154.48 123.52, 174.85 100.32 M109.64 181.43 C129.42 155.8, 151.44 132.96, 175.9 105.21 M109.64 181.43 C131.18 156.68, 153.65 130.49, 175.9 105.21 M119.22 176.51 C135.93 157.36, 150.88 139.86, 171.05 116.89 M119.22 176.51 C131.69 161.46, 142.51 148.54, 171.05 116.89 M129.45 170.83 C140.55 159.18, 153.47 144.16, 166.19 128.57 M129.45 170.83 C144.8 153.39, 158.81 136.96, 166.19 128.57" stroke="#b2f2bb" stroke-width="0.5" fill="none"></path><path d="M67.09 2.59 C77.26 -1.07, 91.01 -0.35, 102.14 1.6 C113.28 3.55, 124.6 8.31, 133.92 14.3 C143.23 20.28, 151.48 28.2, 158.05 37.51 C164.61 46.81, 170.54 58.92, 173.31 70.1 C176.07 81.29, 176.7 93.3, 174.63 104.62 C172.57 115.94, 167.1 128.2, 160.92 138.02 C154.73 147.84, 146.43 156.62, 137.51 163.54 C128.59 170.46, 118.13 176.94, 107.4 179.51 C96.68 182.08, 84.12 180.88, 73.16 178.95 C62.21 177.03, 51.23 174, 41.67 167.97 C32.12 161.95, 22.23 152.21, 15.81 142.8 C9.4 133.4, 5.48 122.9, 3.18 111.54 C0.87 100.18, 0.15 86.2, 1.99 74.64 C3.83 63.08, 8.55 51.94, 14.23 42.18 C19.91 32.42, 25.94 23.12, 36.08 16.08 C46.22 9.03, 67.27 2.38, 75.1 -0.08 C82.92 -2.55, 82.83 -0.34, 83.01 1.29 M95.13 -0.06 C105.83 -0.39, 119.25 5.96, 129.42 11.29 C139.59 16.61, 149.29 23.06, 156.15 31.89 C163.01 40.72, 167.72 52.84, 170.56 64.27 C173.39 75.7, 173.98 88.85, 173.15 100.45 C172.33 112.05, 170.82 123.79, 165.63 133.88 C160.44 143.97, 150.62 153.61, 142 160.97 C133.37 168.33, 124.2 174.92, 113.89 178.05 C103.59 181.17, 91.53 180.98, 80.14 179.72 C68.76 178.45, 55.55 175.85, 45.58 170.45 C35.62 165.06, 27.5 156.24, 20.35 147.35 C13.19 138.47, 6.17 128.14, 2.65 117.14 C-0.88 106.13, -2.26 93.06, -0.8 81.32 C0.66 69.58, 5.89 57.05, 11.41 46.69 C16.93 36.34, 23.65 26.09, 32.32 19.21 C40.99 12.33, 52.62 8.53, 63.43 5.41 C74.24 2.29, 91.85 0.94, 97.18 0.49 C102.51 0.04, 95.86 1.38, 95.4 2.71" stroke="#2f9e44" stroke-width="1" fill="none"></path></g><g stroke-opacity="0.8" fill-opacity="0.8" transform="translate(160.63219259588413 310.00683630261744) rotate(0 54.49596405029297 30)"><text x="54.49596405029297" y="0" font-family="Virgil, Segoe UI Emoji" font-size="16px" fill="#2f9e44" text-anchor="middle" style="white-space: pre;" direction="ltr" dominant-baseline="text-before-edge">Segment </text><text x="54.49596405029297" y="20" font-family="Virgil, Segoe UI Emoji" font-size="16px" fill="#2f9e44" text-anchor="middle" style="white-space: pre;" direction="ltr" dominant-baseline="text-before-edge">customer for </text><text x="54.49596405029297" y="40" font-family="Virgil, Segoe UI Emoji" font-size="16px" fill="#2f9e44" text-anchor="middle" style="white-space: pre;" direction="ltr" dominant-baseline="text-before-edge">marketing</text></g><g stroke-opacity="0.8" fill-opacity="0.8" stroke-linecap="round" transform="translate(271 323.5) rotate(0 96.75 84.75)"><path d="M26.39 28.24 C26.39 28.24, 26.39 28.24, 26.39 28.24 M26.39 28.24 C26.39 28.24, 26.39 28.24, 26.39 28.24 M5.14 58.79 C11.18 48.37, 22.45 41.45, 39.25 19.55 M5.14 58.79 C15.45 47.02, 25.99 35.09, 39.25 19.55 M3.57 66.7 C15.63 49.4, 29.3 35.35, 52.77 10.1 M3.57 66.7 C17.13 51.82, 29.53 35.75, 52.77 10.1 M2.65 73.85 C14.92 61.12, 28.05 47.15, 60.38 7.44 M2.65 73.85 C17.69 55.01, 34.37 37.46, 60.38 7.44 M1.07 81.76 C21.21 58.02, 45.12 30.71, 66.68 6.29 M1.07 81.76 C24.5 55.22, 46.89 28.44, 66.68 6.29 M0.81 88.16 C17.53 68.14, 34.64 48.34, 73.64 4.39 M0.81 88.16 C25.73 62.08, 48.89 33.18, 73.64 4.39 M1.86 93.05 C26.42 65.21, 53.16 34.53, 79.93 3.24 M1.86 93.05 C22.83 67.28, 44.47 45, 79.93 3.24 M2.91 97.93 C33.55 64.17, 59.95 28.15, 86.89 1.33 M2.91 97.93 C31.57 66.43, 61.83 32.82, 86.89 1.33 M4.62 102.07 C30.52 70.88, 55.62 39.5, 93.19 0.18 M4.62 102.07 C27.25 74.2, 52.41 46.13, 93.19 0.18 M5.67 106.96 C33.5 76.98, 55.72 48.82, 97.52 1.3 M5.67 106.96 C29.63 79.99, 53.87 52.93, 97.52 1.3 M6.72 111.84 C36.55 77.76, 67.11 44.56, 102.51 1.66 M6.72 111.84 C44.41 69.13, 82.77 24.72, 102.51 1.66 M7.77 116.73 C45.25 75.3, 83 33.26, 106.84 2.77 M7.77 116.73 C44.05 74.36, 80.98 33.03, 106.84 2.77 M9.48 120.87 C37.67 89.26, 62.92 60.33, 111.83 3.13 M9.48 120.87 C44.04 81.55, 78.29 40.92, 111.83 3.13 M11.84 124.25 C46.61 85.31, 79.91 48.05, 116.16 4.25 M11.84 124.25 C34.52 98.7, 55.6 72.2, 116.16 4.25 M14.21 127.62 C39.86 94.59, 67.9 64.09, 121.14 4.61 M14.21 127.62 C41.3 96.9, 67.79 64.86, 121.14 4.61 M16.57 131 C43.01 100.2, 69.75 67.12, 125.47 5.72 M16.57 131 C45.3 96.47, 72.78 63.56, 125.47 5.72 M19.59 133.63 C48.69 102.31, 76.35 68.37, 130.46 6.08 M19.59 133.63 C58.63 88.96, 97.76 44.41, 130.46 6.08 M21.95 137.01 C45.55 108.54, 68.11 82.12, 134.14 7.95 M21.95 137.01 C52.98 100.27, 82.75 66.05, 134.14 7.95 M24.31 140.39 C69.24 89.66, 113.96 35.59, 137.81 9.82 M24.31 140.39 C53.56 108.31, 82.98 75.02, 137.81 9.82 M27.33 143.01 C56.53 110.42, 86.52 74.87, 141.49 11.69 M27.33 143.01 C63.36 102.45, 100.72 61.13, 141.49 11.69 M29.69 146.39 C65.32 107.71, 103.17 64.88, 145.16 13.56 M29.69 146.39 C60.58 110.34, 93.86 72.66, 145.16 13.56 M32.71 149.01 C78.84 97.75, 125.94 43.43, 148.18 16.18 M32.71 149.01 C70.37 105.43, 106.93 63.95, 148.18 16.18 M36.39 150.88 C82.23 98.01, 124.31 48.27, 151.85 18.05 M36.39 150.88 C75.33 105.51, 116.38 58.73, 151.85 18.05 M40.06 152.75 C70.24 118.23, 99.17 87.34, 155.53 19.92 M40.06 152.75 C81.89 104.04, 123.55 55.56, 155.53 19.92 M43.74 154.62 C80.33 112.69, 116.26 73.18, 159.2 21.79 M43.74 154.62 C77.44 119.12, 108.66 80.99, 159.2 21.79 M47.41 156.49 C88.57 107.92, 127.72 61.65, 162.88 23.66 M47.41 156.49 C94.18 104.37, 139.91 52.06, 162.88 23.66 M51.09 158.36 C89.6 117.11, 126.05 71.86, 165.9 26.29 M51.09 158.36 C82.1 121.04, 115.24 84.18, 165.9 26.29 M54.76 160.23 C91.92 119.5, 125 79.39, 168.26 29.67 M54.76 160.23 C84.68 127.28, 115.13 90.73, 168.26 29.67 M58.44 162.1 C97.28 115.84, 133.61 73.77, 171.28 32.29 M58.44 162.1 C88.25 127.3, 119.06 91.69, 171.28 32.29 M62.11 163.97 C104.89 114.07, 148.69 63.56, 173.64 35.67 M62.11 163.97 C95.91 123.17, 131.53 82.33, 173.64 35.67 M67.1 164.33 C97.78 126.41, 128.94 90.69, 176.66 38.29 M67.1 164.33 C106.86 120.29, 147.17 73.88, 176.66 38.29 M71.43 165.44 C108.62 121.6, 143.65 81.34, 179.02 41.67 M71.43 165.44 C94.43 139.58, 117.9 113.66, 179.02 41.67 M76.42 165.8 C111.06 124.71, 143.51 84.24, 182.04 44.3 M76.42 165.8 C114.88 121.79, 152.67 77.37, 182.04 44.3 M80.75 166.92 C103.44 141.16, 130.01 111.07, 184.41 47.68 M80.75 166.92 C109.42 132.69, 138.02 98.78, 184.41 47.68 M85.74 167.28 C108.65 139.38, 131.39 112.67, 186.77 51.05 M85.74 167.28 C113.92 135.91, 141.8 103.26, 186.77 51.05 M90.72 167.64 C122.18 132.58, 153.71 95.48, 187.82 55.94 M90.72 167.64 C128.5 123.99, 166 79, 187.82 55.94 M95.05 168.75 C118.09 146.27, 137.7 122.83, 189.53 60.08 M95.05 168.75 C115.41 145.54, 135.43 121.18, 189.53 60.08 M100.04 169.11 C122.03 144.36, 139.26 121.79, 190.58 64.96 M100.04 169.11 C124.21 142.58, 146.61 114.9, 190.58 64.96 M105.03 169.47 C131.19 141.32, 156.02 109.27, 191.63 69.85 M105.03 169.47 C130.68 138.21, 157.66 108.36, 191.63 69.85 M111.98 167.57 C141.13 134.81, 174.89 96.57, 193.33 73.99 M111.98 167.57 C140 134.14, 169.74 99.14, 193.33 73.99 M118.28 166.42 C145.89 134.48, 175.66 100.59, 194.38 78.87 M118.28 166.42 C142.14 139.11, 165.12 112.57, 194.38 78.87 M125.24 164.52 C148.86 138.39, 170.63 111.77, 192.81 86.78 M125.24 164.52 C151.73 132.57, 178.61 102.26, 192.81 86.78 M131.54 163.37 C147.3 144.18, 168.47 122.23, 191.24 94.69 M131.54 163.37 C147.81 146.48, 163.72 127.77, 191.24 94.69 M138.49 161.46 C152.27 144.29, 168.51 127.17, 189.66 102.6 M138.49 161.46 C151.12 146.54, 164.96 133.49, 189.66 102.6 M150.69 153.52 C158.6 143.15, 165.12 137.5, 188.09 110.5 M150.69 153.52 C160.35 142.56, 170.03 133.05, 188.09 110.5 M162.9 145.58 C168.65 137.71, 172.4 134.11, 176.68 129.73 M162.9 145.58 C166.53 142.13, 169.83 139.55, 176.68 129.73" stroke="#ffc9c9" stroke-width="0.5" fill="none"></path><path d="M55.44 8.34 C65.54 3, 80.91 0.55, 93.27 0.09 C105.64 -0.36, 118.07 1.78, 129.64 5.62 C141.21 9.46, 153.38 16.02, 162.68 23.12 C171.99 30.22, 180.22 38.68, 185.46 48.21 C190.7 57.75, 193.88 69.3, 194.15 80.34 C194.41 91.37, 191.36 104.2, 187.04 114.43 C182.72 124.65, 176.42 133.86, 168.23 141.67 C160.04 149.48, 149.04 156.7, 137.91 161.31 C126.77 165.92, 113.9 168.89, 101.42 169.33 C88.94 169.76, 74.84 167.52, 63.01 163.91 C51.17 160.31, 39.5 154.91, 30.42 147.7 C21.34 140.48, 13.59 130.64, 8.53 120.64 C3.48 110.64, 0.57 98.6, 0.07 87.7 C-0.44 76.79, 1.12 65.12, 5.53 55.2 C9.93 45.27, 16.85 36.36, 26.48 28.14 C36.12 19.93, 55.78 9.7, 63.32 5.89 C70.87 2.08, 71.26 3.99, 71.75 5.26 M77.8 3.09 C88.67 -0.34, 102.4 -0.11, 114.18 1.56 C125.96 3.23, 138.31 7.09, 148.5 13.11 C158.69 19.14, 168.35 28.87, 175.29 37.71 C182.23 46.55, 187.12 55.88, 190.11 66.15 C193.11 76.41, 195.5 88.64, 193.25 99.28 C190.99 109.92, 183.67 120.93, 176.57 129.97 C169.46 139.01, 160.74 147.25, 150.61 153.52 C140.48 159.79, 127.58 165.27, 115.78 167.61 C103.97 169.94, 91.85 169.68, 79.78 167.53 C67.71 165.38, 53.75 160.72, 43.38 154.69 C33.01 148.67, 24.24 140.05, 17.55 131.35 C10.86 122.65, 5.7 112.71, 3.24 102.49 C0.77 92.26, 0.79 80.88, 2.74 70 C4.7 59.12, 8.52 46.41, 14.96 37.21 C21.41 28, 31.23 20.76, 41.43 14.75 C51.62 8.73, 70.06 3.12, 76.15 1.12 C82.23 -0.89, 77.34 1.19, 77.95 2.73" stroke="#e03131" stroke-width="1" fill="none"></path></g><g stroke-opacity="0.8" fill-opacity="0.8" transform="translate(304.6614545647328 388.3227002944401) rotate(0 63.17596435546875 20)"><text x="63.17596435546875" y="0" font-family="Virgil, Segoe UI Emoji" font-size="16px" fill="#e03131" text-anchor="middle" style="white-space: pre;" direction="ltr" dominant-baseline="text-before-edge">Generate </text><text x="63.17596435546875" y="20" font-family="Virgil, Segoe UI Emoji" font-size="16px" fill="#e03131" text-anchor="middle" style="white-space: pre;" direction="ltr" dominant-baseline="text-before-edge">recommendations</text></g><g stroke-opacity="0.8" fill-opacity="0.8" stroke-linecap="round" transform="translate(281.5 206.25) rotate(0 87.75 84.75)"><path d="M19.45 32.81 C19.45 32.81, 19.45 32.81, 19.45 32.81 M19.45 32.81 C19.45 32.81, 19.45 32.81, 19.45 32.81 M10 49.77 C21.85 34.78, 34.87 19.33, 43.46 11.28 M10 49.77 C17.17 40.89, 26.89 31.6, 43.46 11.28 M2.52 64.47 C20.8 44.81, 37.5 26.48, 48.45 11.64 M2.52 64.47 C16.04 49.49, 29.44 32.95, 48.45 11.64 M2.26 70.87 C15.05 57.15, 28.8 42.25, 55.4 9.74 M2.26 70.87 C15.93 54.52, 31.59 39.45, 55.4 9.74 M2.66 76.51 C21.83 55.31, 41.41 30.72, 61.7 8.59 M2.66 76.51 C20.16 55.49, 39.41 33.28, 61.7 8.59 M2.4 82.91 C26.65 56.07, 46.38 31.36, 68.66 6.68 M2.4 82.91 C17.86 66.23, 32.55 48.67, 68.66 6.68 M2.13 89.31 C24.63 63.96, 48.77 35.38, 75.61 4.78 M2.13 89.31 C21 66.54, 41.31 44.57, 75.61 4.78 M2.53 94.95 C19.5 72.06, 40.41 52.4, 83.22 2.12 M2.53 94.95 C24.13 69.81, 46.8 45.61, 83.22 2.12 M3.58 99.84 C31.78 65.91, 61.8 31.84, 88.21 2.48 M3.58 99.84 C28.08 71.84, 52.68 43.11, 88.21 2.48 M5.29 103.97 C33.33 70.85, 65.6 35.78, 93.2 2.84 M5.29 103.97 C32.6 70.46, 61.03 37.74, 93.2 2.84 M6.99 108.1 C41.74 66.6, 77.62 26.75, 97.53 3.95 M6.99 108.1 C37.22 73.01, 67.32 39.16, 97.53 3.95 M8.7 112.24 C45.63 68.57, 85.3 26.11, 102.52 4.31 M8.7 112.24 C44.41 70.92, 81.25 28.9, 102.52 4.31 M10.41 116.37 C41.17 80.23, 72.79 45.39, 106.85 5.43 M10.41 116.37 C36.41 86.45, 62.77 55.29, 106.85 5.43 M12.11 120.51 C31.65 95.12, 56.58 70.18, 111.83 5.79 M12.11 120.51 C33.41 95.03, 57.53 68.08, 111.83 5.79 M13.82 124.64 C41.89 91.4, 72.32 57.79, 116.82 6.15 M13.82 124.64 C55.25 77.85, 96.2 31.32, 116.82 6.15 M15.53 128.77 C53.52 86.98, 92.49 41.22, 121.15 7.26 M15.53 128.77 C48.82 91.46, 81.69 54.93, 121.15 7.26 M17.23 132.91 C39.25 104.37, 61.84 77.97, 124.17 9.89 M17.23 132.91 C52.71 90.12, 89.4 47.25, 124.17 9.89 M20.25 135.53 C43.98 109.08, 63.46 83.56, 127.85 11.76 M20.25 135.53 C48.32 103.39, 74.29 73.59, 127.85 11.76 M23.27 138.15 C61.37 96.08, 97.4 55.59, 131.52 13.63 M23.27 138.15 C63.65 93.02, 102.46 47.81, 131.52 13.63 M25.63 141.53 C62.84 99.95, 95.24 60.63, 134.54 16.25 M25.63 141.53 C64.85 95.56, 103.25 52.98, 134.54 16.25 M28.65 144.16 C60.99 108.12, 97.06 67.65, 138.21 18.12 M28.65 144.16 C53.29 114.42, 79.87 85.17, 138.21 18.12 M31.67 146.78 C65.64 111.26, 97.88 71.88, 141.23 20.75 M31.67 146.78 C64.34 107.28, 98.25 67.95, 141.23 20.75 M34.03 150.16 C58.84 121.05, 83.66 95.05, 144.91 22.62 M34.03 150.16 C76.57 101.6, 117.58 55.01, 144.91 22.62 M37.05 152.79 C67.84 116.7, 95.97 83.17, 148.58 24.48 M37.05 152.79 C68.67 119.12, 97.49 84.21, 148.58 24.48 M40.07 155.41 C73.18 118.91, 103.84 86.15, 151.6 27.11 M40.07 155.41 C75.04 115.93, 108.62 77.08, 151.6 27.11 M42.43 158.79 C72.67 127.81, 99.03 95.74, 153.96 30.49 M42.43 158.79 C82.93 112.35, 125.38 63.74, 153.96 30.49 M46.77 159.9 C73.41 129.78, 97.62 101.91, 156.33 33.87 M46.77 159.9 C89.78 108.84, 132.67 60.45, 156.33 33.87 M51.1 161.02 C89.03 113.75, 129.81 70.39, 158.69 37.25 M51.1 161.02 C75.85 133.8, 100.69 105.99, 158.69 37.25 M54.77 162.89 C92.32 115.45, 130.82 70.22, 161.05 40.62 M54.77 162.89 C89.58 122.8, 124.42 84.93, 161.05 40.62 M59.1 164 C79.83 139.89, 106.23 111.67, 163.42 44 M59.1 164 C81.18 136.77, 105.69 111.22, 163.42 44 M63.43 165.12 C100.93 120.18, 140.89 77.92, 165.78 47.38 M63.43 165.12 C84.03 140.27, 105.4 115.15, 165.78 47.38 M67.11 166.99 C101.61 128.64, 134.63 87.37, 168.14 50.76 M67.11 166.99 C87.83 141.24, 110.63 114.49, 168.14 50.76 M71.44 168.1 C94.72 141.84, 115.17 118.81, 170.5 54.14 M71.44 168.1 C99.77 135.49, 129.79 102.23, 170.5 54.14 M75.77 169.22 C105.53 136.4, 134.25 100.18, 170.9 59.78 M75.77 169.22 C101.34 141.41, 127.52 111.18, 170.9 59.78 M81.41 168.82 C106.5 139.8, 133.56 107.59, 171.95 64.67 M81.41 168.82 C101.66 142.57, 124.56 117.6, 171.95 64.67 M87.06 168.43 C113.06 142.09, 135.64 109.51, 173 69.56 M87.06 168.43 C110.61 141.14, 134.47 113.34, 173 69.56 M92.7 168.03 C109.4 147.56, 129.05 122.23, 174.05 74.45 M92.7 168.03 C113.51 146.46, 131.75 123.07, 174.05 74.45 M97.69 168.39 C116.49 145.09, 137.19 124.38, 175.1 79.34 M97.69 168.39 C124.26 138.81, 149.47 108.71, 175.1 79.34 M103.33 168 C129.52 139.82, 152.14 113.3, 176.15 84.23 M103.33 168 C126.49 141.12, 149.24 115.94, 176.15 84.23 M108.97 167.6 C127.34 144.13, 152.34 119.97, 176.55 89.87 M108.97 167.6 C124.64 149.23, 139.84 131.91, 176.55 89.87 M113.96 167.96 C135.48 140.23, 159.27 115.47, 174.32 98.53 M113.96 167.96 C128.55 152.75, 140.67 137.79, 174.32 98.53 M124.19 162.29 C136.78 145.07, 150.07 130.82, 172.74 106.44 M124.19 162.29 C137.78 145.81, 151.63 129.06, 172.74 106.44 M133.77 157.36 C145.49 144.04, 154.65 129.95, 170.51 115.1 M133.77 157.36 C145.67 144.07, 157.37 130.79, 170.51 115.1" stroke="#ffa94d" stroke-width="0.5" fill="none"></path><path d="M118.5 5.35 C129.71 8.15, 140.74 16.89, 149.07 24.8 C157.4 32.72, 164.14 42.24, 168.48 52.84 C172.82 63.44, 175.39 76.91, 175.13 88.4 C174.86 99.9, 172.02 111.67, 166.89 121.82 C161.75 131.98, 153.38 141.87, 144.3 149.32 C135.21 156.76, 123.93 163.26, 112.37 166.47 C100.8 169.68, 86.7 170.06, 74.9 168.57 C63.1 167.07, 51.41 163.7, 41.58 157.51 C31.75 151.31, 22.48 141.21, 15.92 131.39 C9.36 121.58, 4.57 109.75, 2.24 98.6 C-0.09 87.46, -0.87 75.46, 1.95 64.55 C4.77 53.64, 11.85 42.37, 19.14 33.16 C26.43 23.95, 35.26 14.77, 45.69 9.29 C56.12 3.8, 68.65 0.59, 81.72 0.25 C94.8 -0.1, 116.1 5.11, 124.11 7.21 C132.12 9.31, 130.2 11.57, 129.76 12.85 M130.29 9.36 C140.87 13.17, 150.43 23.26, 157.34 32.58 C164.24 41.89, 168.9 54.09, 171.73 65.26 C174.56 76.44, 176.05 88.39, 174.32 99.65 C172.59 110.91, 168.04 123.21, 161.35 132.83 C154.67 142.45, 144.23 151.46, 134.21 157.38 C124.19 163.3, 113.16 166.98, 101.21 168.35 C89.27 169.71, 74.01 168.45, 62.53 165.57 C51.06 162.69, 41.37 158.42, 32.38 151.07 C23.39 143.73, 13.84 131.9, 8.6 121.51 C3.35 111.12, 1.18 100.07, 0.92 88.75 C0.65 77.44, 2.76 64.6, 6.99 53.6 C11.23 42.61, 17.8 30.64, 26.33 22.79 C34.86 14.94, 47.18 10.38, 58.19 6.52 C69.2 2.65, 80.59 -0.9, 92.38 -0.4 C104.17 0.09, 122.9 7.59, 128.92 9.48 C134.94 11.38, 129.14 9.88, 128.5 10.97" stroke="#f08c00" stroke-width="1" fill="none"></path></g><g stroke-opacity="0.8" fill-opacity="0.8" transform="translate(314.48141687714997 271.0727002944401) rotate(0 54.71996307373047 20)"><text x="54.71996307373047" y="0" font-family="Virgil, Segoe UI Emoji" font-size="16px" fill="#f08c00" text-anchor="middle" style="white-space: pre;" direction="ltr" dominant-baseline="text-before-edge">Analysing user</text><text x="54.71996307373047" y="20" font-family="Virgil, Segoe UI Emoji" font-size="16px" fill="#f08c00" text-anchor="middle" style="white-space: pre;" direction="ltr" dominant-baseline="text-before-edge">journeys</text></g><g stroke-opacity="0.8" fill-opacity="0.8" stroke-linecap="round" transform="translate(424.25 290.75) rotate(0 87.75 84.75)"><path d="M24.03 26.19 C24.03 26.19, 24.03 26.19, 24.03 26.19 M24.03 26.19 C24.03 26.19, 24.03 26.19, 24.03 26.19 M11.31 46.93 C19.48 34.89, 31.27 26.01, 35.58 19.01 M11.31 46.93 C18.28 40.31, 23.72 32.64, 35.58 19.01 M7.11 57.86 C20.84 42.45, 29.61 28.55, 47.13 11.82 M7.11 57.86 C19.63 43.19, 30.62 29.8, 47.13 11.82 M6.19 65.01 C23.38 44.58, 42.01 25.93, 56.05 7.65 M6.19 65.01 C25.32 42, 43.43 19.37, 56.05 7.65 M4.62 72.92 C16.79 59.81, 26.97 47.66, 62.35 6.5 M4.62 72.92 C27.26 46.66, 50.18 23.24, 62.35 6.5 M3.7 80.07 C21.96 57.33, 38.89 39.11, 68.65 5.35 M3.7 80.07 C23.05 56.44, 42.89 34.06, 68.65 5.35 M0.16 90.24 C29.46 57.93, 55.94 26.83, 75.61 3.45 M0.16 90.24 C20.27 67.44, 40.41 43.96, 75.61 3.45 M1.87 94.37 C24.28 68.92, 44.79 46.14, 81.91 2.3 M1.87 94.37 C21.37 72.5, 40.84 49.23, 81.91 2.3 M2.92 99.26 C29.87 65.94, 59.43 35.6, 88.2 1.15 M2.92 99.26 C26.22 72.05, 50.39 44.52, 88.2 1.15 M4.62 103.4 C31.46 71.26, 62.18 40.74, 93.19 1.51 M4.62 103.4 C26.67 79.22, 47.39 55.8, 93.19 1.51 M5.67 108.28 C29.16 82.28, 47.14 60.73, 97.52 2.62 M5.67 108.28 C23.88 87.39, 44.15 64.65, 97.52 2.62 M7.38 112.42 C28.59 90.34, 47.17 68.84, 101.85 3.74 M7.38 112.42 C33.27 82.88, 57.85 55.2, 101.85 3.74 M8.43 117.31 C27.67 96.04, 50.22 69.97, 106.18 4.85 M8.43 117.31 C30.79 91.86, 52.55 67.17, 106.18 4.85 M10.14 121.44 C35.51 91.99, 63.03 59.75, 110.52 5.97 M10.14 121.44 C39.63 86.48, 71.08 50.02, 110.52 5.97 M11.85 125.57 C48.73 81.84, 87.14 36.74, 114.85 7.08 M11.85 125.57 C51.97 77.1, 92.92 32.54, 114.85 7.08 M14.21 128.95 C51.47 88.41, 85.33 47.21, 119.83 7.44 M14.21 128.95 C45.7 91.61, 77.21 54.95, 119.83 7.44 M17.23 131.58 C47.32 100.09, 77.11 63.81, 124.16 8.56 M17.23 131.58 C52.88 91.87, 86.28 51.87, 124.16 8.56 M19.59 134.96 C46.22 101.06, 75.28 67.68, 128.5 9.67 M19.59 134.96 C41.97 108.94, 64.72 81.75, 128.5 9.67 M21.95 138.33 C46.49 111, 70.39 83.39, 131.51 12.3 M21.95 138.33 C58.21 96.9, 94.6 56.15, 131.51 12.3 M24.97 140.96 C64.94 91.62, 106.48 44.75, 134.53 14.92 M24.97 140.96 C58.21 104.49, 90.37 67.1, 134.53 14.92 M27.33 144.34 C65.55 98.2, 107.12 55.45, 137.55 17.55 M27.33 144.34 C57.6 108.8, 89.59 74.03, 137.55 17.55 M30.35 146.96 C55.41 115.95, 80.4 91.78, 141.23 19.42 M30.35 146.96 C58.12 112.59, 86 79.97, 141.23 19.42 M32.72 150.34 C74.92 102.69, 116.31 55.02, 144.25 22.04 M32.72 150.34 C67.93 107.56, 105.74 65.3, 144.25 22.04 M35.73 152.96 C58.41 123.18, 87.66 92.7, 147.26 24.66 M35.73 152.96 C74.11 110.56, 111.04 67.05, 147.26 24.66 M39.41 154.83 C69.16 122.23, 95.38 93.81, 150.28 27.29 M39.41 154.83 C61.05 126.82, 84.57 100.66, 150.28 27.29 M43.08 156.7 C70.27 125.07, 95.39 99.01, 153.3 29.91 M43.08 156.7 C85.49 108.18, 128.89 58.61, 153.3 29.91 M46.76 158.57 C75.43 129.56, 97.75 97.01, 156.32 32.54 M46.76 158.57 C85.05 115.72, 122.49 72.18, 156.32 32.54 M50.43 160.44 C91.34 114.57, 130.91 70.22, 158.68 35.92 M50.43 160.44 C92.5 110.22, 135.31 62.24, 158.68 35.92 M54.11 162.31 C88.07 123.85, 118.69 87.66, 160.39 40.05 M54.11 162.31 C85.44 127.27, 115.93 91.06, 160.39 40.05 M57.78 164.18 C95.09 120.87, 133.32 78.11, 162.75 43.43 M57.78 164.18 C96.26 120, 135.98 74.65, 162.75 43.43 M62.12 165.3 C98.74 126.63, 133.12 85.5, 164.46 47.56 M62.12 165.3 C96.37 125.38, 131.52 86.5, 164.46 47.56 M65.79 167.17 C91.43 139.18, 115.39 110.14, 166.82 50.94 M65.79 167.17 C91.5 137.14, 115.82 108.26, 166.82 50.94 M69.46 169.04 C99.93 134.47, 126.49 102.66, 169.19 54.32 M69.46 169.04 C100.23 134.31, 129.48 99.54, 169.19 54.32 M74.45 169.4 C98.78 143.49, 124.37 115.67, 170.89 58.45 M74.45 169.4 C111.43 127.26, 150.94 82.42, 170.89 58.45 M79.44 169.76 C103.9 144.45, 124.1 117.71, 173.26 61.83 M79.44 169.76 C107.77 137.54, 135.54 105.22, 173.26 61.83 M84.43 170.12 C110.8 140.73, 137.35 111.26, 173.65 67.48 M84.43 170.12 C110.81 139.28, 136.02 109.96, 173.65 67.48 M89.41 170.48 C116.15 137.72, 143.51 105.62, 174.04 73.12 M89.41 170.48 C107.87 148.29, 129.8 123.21, 174.04 73.12 M94.4 170.84 C116.38 143.22, 139.53 117.8, 174.44 78.76 M94.4 170.84 C117.38 145.13, 137.58 121.42, 174.44 78.76 M100.04 170.44 C116.61 149.07, 136.87 132.72, 174.83 84.41 M100.04 170.44 C120.31 146.63, 141.07 122.32, 174.83 84.41 M105.69 170.05 C127.87 145.94, 148.22 124.6, 175.23 90.05 M105.69 170.05 C130.3 141.13, 154.11 113.72, 175.23 90.05 M113.95 166.63 C132.19 147.73, 146.75 124.47, 174.31 97.2 M113.95 166.63 C134.22 141.53, 156.77 118.6, 174.31 97.2 M122.88 162.47 C136.11 144.25, 154.18 127.09, 170.77 107.37 M122.88 162.47 C134.9 149.63, 145.95 136.13, 170.77 107.37 M131.14 159.05 C146.15 141.97, 158.44 125.07, 166.57 118.3 M131.14 159.05 C142.27 146.73, 152.29 134.96, 166.57 118.3 M139.41 155.64 C146.02 149.49, 150.51 144.23, 163.03 128.47 M139.41 155.64 C146.59 147.25, 154 139.96, 163.03 128.47" stroke="#fa5252" stroke-width="0.5" fill="none"></path><path d="M126.31 7.72 C136.86 11.29, 146.8 21.88, 154.29 30.65 C161.77 39.42, 167.85 49.28, 171.21 60.32 C174.57 71.37, 175.93 85.24, 174.42 96.92 C172.92 108.59, 168.29 120.87, 162.18 130.39 C156.06 139.91, 147.42 147.61, 137.71 154.01 C128.01 160.42, 115.78 166.68, 103.95 168.81 C92.12 170.95, 78.58 169.8, 66.74 166.81 C54.9 163.82, 42.16 157.82, 32.89 150.88 C23.62 143.94, 16.58 135.3, 11.11 125.18 C5.64 115.06, 0.96 101.65, 0.06 90.17 C-0.84 78.68, 1.71 66.91, 5.69 56.27 C9.66 45.63, 15.72 34.53, 23.93 26.31 C32.14 18.1, 43.82 11.47, 54.93 6.98 C66.04 2.49, 76.35 -2.42, 90.61 -0.63 C104.87 1.15, 130.1 12.54, 140.5 17.69 C150.91 22.83, 153.9 29.14, 153.02 30.22 M115.8 4.53 C126.61 6.63, 137.31 13.66, 146.29 21.18 C155.27 28.7, 164.69 39.08, 169.67 49.66 C174.66 60.23, 176.46 72.69, 176.19 84.61 C175.92 96.53, 172.94 110.77, 168.06 121.17 C163.19 131.58, 155.9 139.57, 146.95 147.06 C138 154.55, 126.15 162.41, 114.38 166.11 C102.6 169.8, 88.22 170.67, 76.3 169.21 C64.39 167.75, 52.67 163.43, 42.89 157.36 C33.1 151.29, 24.26 142.32, 17.58 132.79 C10.9 123.27, 5.51 111.32, 2.81 100.21 C0.11 89.09, -0.93 77.25, 1.39 66.11 C3.71 54.97, 9.78 42.35, 16.75 33.38 C23.72 24.4, 32.82 17.82, 43.21 12.25 C53.59 6.68, 67.15 1.33, 79.06 -0.05 C90.97 -1.42, 108.81 2.96, 114.65 3.99 C120.49 5.02, 114.18 4.89, 114.1 6.14" stroke="#e03131" stroke-width="1" fill="none"></path></g><g stroke-opacity="0.8" fill-opacity="0.8" transform="translate(473.64740198457184 355.5727002944401) rotate(0 38.303977966308594 20)"><text x="38.303977966308594" y="0" font-family="Virgil, Segoe UI Emoji" font-size="16px" fill="#e03131" text-anchor="middle" style="white-space: pre;" direction="ltr" dominant-baseline="text-before-edge">Train AI </text><text x="38.303977966308594" y="20" font-family="Virgil, Segoe UI Emoji" font-size="16px" fill="#e03131" text-anchor="middle" style="white-space: pre;" direction="ltr" dominant-baseline="text-before-edge">model</text></g><g stroke-opacity="0.8" fill-opacity="0.8" stroke-linecap="round" transform="translate(386.25 116.25) rotate(0 80 80.5)"><path d="M11.6 39.24 C11.6 39.24, 11.6 39.24, 11.6 39.24 M11.6 39.24 C11.6 39.24, 11.6 39.24, 11.6 39.24 M8.72 48.65 C16.98 39.9, 23.87 30.49, 39.55 13.18 M8.72 48.65 C17.18 39.17, 23.99 30.43, 39.55 13.18 M5.83 58.07 C19.62 43.4, 29.14 31.21, 47.82 9.77 M5.83 58.07 C19.3 43.6, 31.28 28.69, 47.82 9.77 M2.29 68.24 C15.78 53.91, 31 38, 56.09 6.36 M2.29 68.24 C22.51 44.99, 45.24 19.45, 56.09 6.36 M1.37 75.39 C18.1 58.99, 30.84 40.84, 64.36 2.94 M1.37 75.39 C20.52 53.8, 38.9 32.28, 64.36 2.94 M1.77 81.04 C22.12 58.54, 42.68 35.98, 70 2.55 M1.77 81.04 C22.01 57.3, 41.05 35.09, 70 2.55 M2.16 86.68 C25.12 58.44, 48.63 30.76, 74.99 2.91 M2.16 86.68 C17.91 67.71, 37 45.89, 74.99 2.91 M3.21 91.57 C24.43 64.84, 46.8 40.31, 80.63 2.51 M3.21 91.57 C25.47 66.7, 44.97 43.79, 80.63 2.51 M3.61 97.21 C21.89 73.94, 43.81 55.68, 85.62 2.87 M3.61 97.21 C25.84 71.07, 48.58 44.49, 85.62 2.87 M4 102.86 C31.57 72.73, 57.13 45.38, 91.26 2.48 M4 102.86 C34.84 66.69, 64.98 31.99, 91.26 2.48 M5.05 107.74 C32.2 78.05, 56 44.17, 96.9 2.08 M5.05 107.74 C36.37 70.02, 69.91 34.45, 96.9 2.08 M7.42 111.12 C34.89 76.68, 66.75 43.65, 100.58 3.95 M7.42 111.12 C30.07 85.87, 51.73 60.17, 100.58 3.95 M9.12 115.26 C48.13 70.71, 84.31 26.34, 104.91 5.07 M9.12 115.26 C38.15 83.02, 65.47 51.35, 104.91 5.07 M11.49 118.64 C36.45 92.3, 59.02 66.25, 108.58 6.94 M11.49 118.64 C40.43 85.68, 69.39 53.59, 108.58 6.94 M13.85 122.01 C41.74 93.61, 67.35 60.9, 112.26 8.81 M13.85 122.01 C41.73 90.64, 70.27 58.53, 112.26 8.81 M15.55 126.15 C41.28 100.04, 61.83 72.74, 115.93 10.68 M15.55 126.15 C51.57 85.02, 87.76 43.4, 115.93 10.68 M17.92 129.53 C56.18 82.62, 98.73 37.86, 120.26 11.79 M17.92 129.53 C40.22 105.93, 61.56 80.76, 120.26 11.79 M20.28 132.91 C50.28 97.51, 80.88 63.35, 123.94 13.66 M20.28 132.91 C59.69 88.79, 99.97 42.49, 123.94 13.66 M22.64 136.28 C56.24 98.6, 85.02 63.29, 127.61 15.53 M22.64 136.28 C58.84 96.18, 91.77 56.51, 127.61 15.53 M25.66 138.91 C52.37 112.19, 74.7 82.68, 129.98 18.91 M25.66 138.91 C59.02 100.93, 92.83 60.9, 129.98 18.91 M29.34 140.78 C58.01 109.02, 82.36 80.24, 132.34 22.29 M29.34 140.78 C65.71 98.81, 100.49 56.2, 132.34 22.29 M32.36 143.4 C70.66 99.05, 107.32 59.58, 135.36 24.91 M32.36 143.4 C62.67 106.93, 95.34 70.7, 135.36 24.91 M35.37 146.03 C55.81 123.51, 75.12 100.92, 137.72 28.29 M35.37 146.03 C75 99.09, 113.57 53.7, 137.72 28.29 M39.05 147.9 C78.17 102.23, 117.67 56.51, 140.74 30.92 M39.05 147.9 C64.71 118.35, 90.43 87.74, 140.74 30.92 M42.07 150.52 C82.48 102.37, 122.21 59.25, 143.1 34.3 M42.07 150.52 C64.75 126.14, 85.77 101, 143.1 34.3 M45.09 153.14 C79.99 114.05, 114.58 73.57, 145.46 37.67 M45.09 153.14 C68.15 127.29, 88.79 101.67, 145.46 37.67 M48.76 155.01 C84.53 113.23, 123.49 72.53, 148.48 40.3 M48.76 155.01 C87.05 109.33, 127.9 62.35, 148.48 40.3 M53.09 156.13 C75.38 131.28, 95.44 105.04, 150.19 44.43 M53.09 156.13 C79.64 125.5, 107.03 93.29, 150.19 44.43 M58.08 156.49 C95.85 115.85, 131.15 74.13, 151.24 49.32 M58.08 156.49 C90.6 118.79, 124.32 79.24, 151.24 49.32 M62.41 157.6 C92.39 124.23, 121.9 86.99, 152.95 53.45 M62.41 157.6 C84.74 130.84, 108.39 103.8, 152.95 53.45 M66.74 158.72 C101.09 118.29, 132.34 82.2, 154.65 57.59 M66.74 158.72 C93.55 127.29, 122.32 95.8, 154.65 57.59 M71.73 159.08 C103.58 123.51, 137.73 86.79, 155.7 62.48 M71.73 159.08 C103.99 123.62, 135.13 86.57, 155.7 62.48 M76.06 160.19 C93.47 142.49, 107.94 124.43, 157.41 66.61 M76.06 160.19 C103.36 128.48, 131.34 94.91, 157.41 66.61 M81.05 160.55 C110.65 128.03, 140.75 94.71, 159.12 70.74 M81.05 160.55 C97.09 143.72, 112.26 125.79, 159.12 70.74 M86.69 160.16 C114.46 127.48, 138.9 97.86, 159.51 76.39 M86.69 160.16 C111.14 134.74, 132.72 106.64, 159.51 76.39 M92.99 159.01 C112.04 138.29, 133.8 114.76, 158.6 83.54 M92.99 159.01 C112.7 134.02, 134.29 109.81, 158.6 83.54 M99.29 157.86 C120.36 134.96, 141.87 110.3, 158.33 89.94 M99.29 157.86 C121.81 132.63, 143.15 106.5, 158.33 89.94 M105.59 156.71 C121.83 137.53, 137.06 122.38, 158.07 96.33 M105.59 156.71 C119.16 142.25, 132 127.22, 158.07 96.33 M111.89 155.56 C123.13 140.51, 134.71 125.06, 157.81 102.73 M111.89 155.56 C123.71 144.7, 133.97 132.35, 157.81 102.73 M127.37 143.85 C129.25 137.9, 133.46 133.18, 146.4 121.96 M127.37 143.85 C133.87 136.05, 140.52 129.89, 146.4 121.96" stroke="#ffec99" stroke-width="0.5" fill="none"></path><path d="M97.29 1.89 C107.4 2.85, 117.5 8.16, 125.99 14.57 C134.48 20.98, 142.77 30.92, 148.25 40.35 C153.73 49.78, 157.47 60.27, 158.87 71.14 C160.26 82, 160 95.01, 156.64 105.55 C153.28 116.08, 145.89 126.12, 138.7 134.35 C131.51 142.57, 123.23 150.53, 113.49 154.88 C103.74 159.23, 91.27 160.54, 80.22 160.46 C69.17 160.37, 57.09 158.67, 47.17 154.35 C37.25 150.03, 28.01 142.78, 20.7 134.54 C13.39 126.29, 6.62 115.13, 3.33 104.9 C0.04 94.68, -0.39 84.08, 0.96 73.17 C2.3 62.27, 6.17 49.03, 11.4 39.47 C16.62 29.92, 23.79 21.97, 32.3 15.84 C40.82 9.72, 51.35 4.82, 62.5 2.72 C73.64 0.62, 92.69 2.92, 99.19 3.24 C105.7 3.57, 101.76 3.47, 101.53 4.68 M113 7.92 C122.96 11.05, 133.22 19.47, 140.28 27.31 C147.35 35.15, 152.39 44.87, 155.37 54.96 C158.35 65.05, 158.96 77, 158.16 87.84 C157.36 98.69, 155.79 110.73, 150.56 120.04 C145.34 129.36, 135.6 137.46, 126.82 143.74 C118.04 150.02, 108.52 155.14, 97.9 157.72 C87.27 160.29, 73.77 161.19, 63.06 159.2 C52.34 157.2, 42.43 152.05, 33.63 145.76 C24.83 139.46, 15.75 130.92, 10.25 121.43 C4.74 111.94, 1.81 99.48, 0.61 88.81 C-0.59 78.15, 0 67.85, 3.04 57.43 C6.07 47, 11.74 34.69, 18.83 26.27 C25.92 17.85, 35.66 11.26, 45.58 6.9 C55.51 2.54, 67.18 0.03, 78.38 0.09 C89.57 0.15, 107.54 5.96, 112.76 7.28 C117.97 8.61, 110.43 6.77, 109.66 8.05" stroke="#f08c00" stroke-width="1" fill="none"></path></g><g stroke-opacity="0.8" fill-opacity="0.8" transform="translate(420.44548796161916 176.82790411448286) rotate(0 45.73596954345703 20)"><text x="45.73596954345703" y="0" font-family="Virgil, Segoe UI Emoji" font-size="16px" fill="#f08c00" text-anchor="middle" style="white-space: pre;" direction="ltr" dominant-baseline="text-before-edge">BI monthly </text><text x="45.73596954345703" y="20" font-family="Virgil, Segoe UI Emoji" font-size="16px" fill="#f08c00" text-anchor="middle" style="white-space: pre;" direction="ltr" dominant-baseline="text-before-edge">sales query</text></g><g stroke-opacity="0.8" fill-opacity="0.8" stroke-linecap="round" transform="translate(620.5 30.5) rotate(0 76 78)"><path d="M14.93 30.2 C14.93 30.2, 14.93 30.2, 14.93 30.2 M14.93 30.2 C14.93 30.2, 14.93 30.2, 14.93 30.2 M9.42 42.64 C14.8 32.8, 22.72 24.95, 33.69 14.71 M9.42 42.64 C16.14 36.41, 22.38 28.93, 33.69 14.71 M4.56 54.32 C14.58 41.16, 25.88 29.03, 44.58 8.28 M4.56 54.32 C14.5 44.11, 23.45 32.48, 44.58 8.28 M1.68 63.73 C13.97 51.16, 24.78 39.73, 51.54 6.38 M1.68 63.73 C15.24 50.56, 27.55 34.73, 51.54 6.38 M2.07 69.38 C14.81 55.39, 30.17 38.96, 58.49 4.47 M2.07 69.38 C21.84 44.76, 42.86 21.06, 58.49 4.47 M2.47 75.02 C19.83 55.82, 31.81 38.99, 64.79 3.32 M2.47 75.02 C17.57 55.26, 34.77 38.16, 64.79 3.32 M2.86 80.66 C19.48 60.98, 31.09 46.8, 71.75 1.42 M2.86 80.66 C23.05 58.16, 42.79 32.93, 71.75 1.42 M3.26 86.31 C23.3 65.22, 41.2 42.87, 77.39 1.03 M3.26 86.31 C32.39 53.47, 60.53 21.06, 77.39 1.03 M3.65 91.95 C31.31 62.31, 57.54 29.28, 81.72 2.14 M3.65 91.95 C27.09 67.05, 50.13 40.56, 81.72 2.14 M4.05 97.59 C27.57 74.51, 48.96 46.39, 86.05 3.25 M4.05 97.59 C23.4 73.92, 43.63 51.5, 86.05 3.25 M5.75 101.73 C29.33 72.73, 50.6 45.85, 90.38 4.37 M5.75 101.73 C29.34 74.84, 52.76 47.47, 90.38 4.37 M7.46 105.86 C24.29 85.84, 43.15 64.09, 94.72 5.48 M7.46 105.86 C28.15 81.13, 47 57.84, 94.72 5.48 M9.17 109.99 C36.6 80.64, 60.52 50.59, 99.7 5.84 M9.17 109.99 C38.65 76.78, 68.73 42.53, 99.7 5.84 M10.87 114.13 C41 81.18, 70.19 44.14, 104.03 6.96 M10.87 114.13 C36.77 86.15, 61.75 54.83, 104.03 6.96 M12.58 118.26 C33.69 96.03, 52.83 71.35, 107.71 8.83 M12.58 118.26 C44.28 80.99, 78.21 43.88, 107.71 8.83 M14.29 122.4 C35.91 99.8, 54.41 77.33, 111.38 10.7 M14.29 122.4 C41.65 92.37, 66.69 62.7, 111.38 10.7 M16.65 125.77 C42.84 96.2, 66.56 69.58, 114.4 13.32 M16.65 125.77 C38.88 102.98, 59.69 79.1, 114.4 13.32 M19.01 129.15 C53.28 86.39, 89.69 48.07, 118.08 15.19 M19.01 129.15 C40.41 105.11, 60.51 81.58, 118.08 15.19 M22.03 131.78 C63.48 84.72, 102.31 40.35, 121.1 17.82 M22.03 131.78 C45.95 103.8, 70.42 74.75, 121.1 17.82 M25.05 134.4 C48.94 104.81, 75.66 76.56, 124.11 20.44 M25.05 134.4 C56.08 98.7, 87.03 63.87, 124.11 20.44 M28.07 137.03 C49.18 113.19, 73.75 85.55, 127.79 22.31 M28.07 137.03 C56.75 102.47, 87.33 67.96, 127.79 22.31 M31.74 138.9 C53.2 115.33, 74.05 94.79, 130.81 24.93 M31.74 138.9 C58.48 107.31, 85.17 76.9, 130.81 24.93 M34.76 141.52 C59.41 112.55, 81.31 83.74, 134.48 26.8 M34.76 141.52 C66.31 107.33, 96.62 71.11, 134.48 26.8 M37.78 144.14 C70.05 105.27, 102.71 66.74, 136.85 30.18 M37.78 144.14 C75.9 100.8, 114.54 56.6, 136.85 30.18 M40.8 146.77 C60.87 124.59, 80.67 99.85, 138.55 34.32 M40.8 146.77 C69.63 114.04, 98.39 79.78, 138.55 34.32 M43.82 149.39 C70.58 121.24, 95.08 95.11, 140.26 38.45 M43.82 149.39 C68.71 119.96, 92.18 93.08, 140.26 38.45 M48.15 150.51 C85.21 109.34, 121.35 68.38, 142.62 41.83 M48.15 150.51 C67.45 127.22, 87.96 105.12, 142.62 41.83 M52.48 151.62 C79.31 118.95, 108.36 85.69, 144.33 45.96 M52.48 151.62 C77.85 122.02, 104.98 93.59, 144.33 45.96 M57.47 151.98 C80.93 124.76, 100.32 102.36, 146.04 50.1 M57.47 151.98 C82.51 123.86, 108.57 95.88, 146.04 50.1 M61.8 153.1 C94.12 118.13, 122.55 82.68, 147.74 54.23 M61.8 153.1 C91.92 119.8, 120.76 85.24, 147.74 54.23 M66.13 154.21 C87.25 129.6, 107.65 107.8, 150.11 57.61 M66.13 154.21 C85.73 131.71, 104.93 109.84, 150.11 57.61 M70.46 155.33 C90.05 133.67, 105.31 114.61, 150.5 63.25 M70.46 155.33 C98.25 121.95, 125.46 89.31, 150.5 63.25 M75.45 155.69 C91.67 139.26, 106.5 118.96, 150.24 69.65 M75.45 155.69 C99.82 130.05, 121.46 103.4, 150.24 69.65 M80.43 156.05 C106.38 125.24, 133.8 93.79, 149.98 76.05 M80.43 156.05 C100.76 131.78, 121.33 108.79, 149.98 76.05 M87.39 154.14 C108.28 132.22, 127.19 108.51, 149.72 82.45 M87.39 154.14 C101.23 137.98, 115.09 122.41, 149.72 82.45 M94.35 152.24 C115.29 127.05, 136.26 104.66, 150.11 88.09 M94.35 152.24 C113.96 129.22, 133.39 106.9, 150.11 88.09 M100.64 151.09 C117.55 130.56, 135.97 107.22, 149.19 95.24 M100.64 151.09 C111.88 138.93, 121.48 127.53, 149.19 95.24 M107.6 149.19 C116.58 138.12, 128.62 128.14, 144.99 106.17 M107.6 149.19 C116.18 139.15, 124.22 130.83, 144.99 106.17 M120.46 140.49 C127.78 133.65, 134.32 126.3, 140.14 117.85 M120.46 140.49 C128 132.08, 135.29 122.22, 140.14 117.85" stroke="#15aabf" stroke-width="0.5" fill="none"></path><path d="M41.06 8.72 C49.92 2.77, 64.01 0.51, 75.02 0.36 C86.03 0.22, 97 3.21, 107.1 7.84 C117.2 12.46, 128.37 19.45, 135.62 28.1 C142.88 36.75, 148.33 48.61, 150.63 59.73 C152.93 70.85, 151.76 83.75, 149.43 94.83 C147.1 105.9, 143.1 117.37, 136.65 126.19 C130.2 135.02, 120.7 142.82, 110.72 147.78 C100.75 152.75, 87.89 155.69, 76.8 155.95 C65.72 156.21, 54.24 154.13, 44.21 149.35 C34.18 144.57, 23.45 136.09, 16.61 127.26 C9.77 118.44, 5.77 107.27, 3.18 96.41 C0.58 85.54, -0.95 73.15, 1.04 62.08 C3.03 51.01, 7.68 39.17, 15.11 30 C22.53 20.82, 39.67 10.91, 45.6 7.04 C51.54 3.17, 50.09 5.76, 50.72 6.78 M108.22 7.83 C118.24 11.1, 127.55 18.75, 134.6 27.26 C141.64 35.76, 148.08 47.52, 150.51 58.88 C152.93 70.23, 151.64 84.14, 149.16 95.4 C146.68 106.65, 142.09 117.66, 135.63 126.41 C129.17 135.17, 120.03 143.11, 110.39 147.93 C100.76 152.75, 88.94 155.09, 77.82 155.36 C66.71 155.62, 53.84 153.96, 43.71 149.52 C33.58 145.08, 24.11 137.54, 17.02 128.72 C9.92 119.9, 3.66 107.72, 1.14 96.62 C-1.38 85.52, -0.67 73, 1.88 62.13 C4.43 51.25, 9.68 40.56, 16.44 31.38 C23.19 22.21, 32.83 12.07, 42.41 7.08 C51.99 2.09, 62.88 1.61, 73.92 1.45 C84.97 1.28, 102.93 4.68, 108.7 6.1 C114.48 7.53, 109.27 8.4, 108.58 9.99" stroke="#6741d9" stroke-width="1" fill="none"></path></g><g stroke-opacity="0.8" fill-opacity="0.8" transform="translate(652.1639144760138 68.3456710674493) rotate(0 44.095970153808594 40)"><text x="44.095970153808594" y="0" font-family="Virgil, Segoe UI Emoji" font-size="16px" fill="#6741d9" text-anchor="middle" style="white-space: pre;" direction="ltr" dominant-baseline="text-before-edge">Real time </text><text x="44.095970153808594" y="20" font-family="Virgil, Segoe UI Emoji" font-size="16px" fill="#6741d9" text-anchor="middle" style="white-space: pre;" direction="ltr" dominant-baseline="text-before-edge">promotions </text><text x="44.095970153808594" y="40" font-family="Virgil, Segoe UI Emoji" font-size="16px" fill="#6741d9" text-anchor="middle" style="white-space: pre;" direction="ltr" dominant-baseline="text-before-edge">based on </text><text x="44.095970153808594" y="60" font-family="Virgil, Segoe UI Emoji" font-size="16px" fill="#6741d9" text-anchor="middle" style="white-space: pre;" direction="ltr" dominant-baseline="text-before-edge">activity</text></g><g stroke-opacity="0.8" fill-opacity="0.8" stroke-linecap="round" transform="translate(524.75 139.25) rotate(0 76 78)"><path d="M26.29 18.88 C26.29 18.88, 26.29 18.88, 26.29 18.88 M26.29 18.88 C26.29 18.88, 26.29 18.88, 26.29 18.88 M7 47.16 C19.26 35.45, 27.16 24.15, 36.52 13.2 M7 47.16 C18.46 34.81, 27.18 22.34, 36.52 13.2 M5.43 55.07 C13.09 44.47, 21.18 36.46, 46.76 7.52 M5.43 55.07 C15.54 42.5, 26.25 31.75, 46.76 7.52 M3.85 62.98 C15.6 51.97, 26.31 39.34, 55.68 3.35 M3.85 62.98 C20.73 43.44, 38.45 23.58, 55.68 3.35 M2.28 70.88 C22.98 47.58, 38.93 28.21, 61.33 2.96 M2.28 70.88 C19.15 51.65, 35.55 32.18, 61.33 2.96 M0.71 78.79 C22.22 56.26, 40.78 35.24, 66.97 2.56 M0.71 78.79 C23.78 52.9, 45.96 27.56, 66.97 2.56 M0.45 85.19 C17.22 64.78, 33.02 45.46, 72.61 2.17 M0.45 85.19 C20.06 63.26, 37.28 41.62, 72.61 2.17 M2.15 89.32 C29.67 55.7, 57.48 24.55, 78.26 1.78 M2.15 89.32 C29.77 57.37, 57.25 26.72, 78.26 1.78 M3.2 94.21 C24.27 66.18, 46.41 41.04, 83.9 1.38 M3.2 94.21 C32.91 61.01, 62.26 27.55, 83.9 1.38 M4.91 98.34 C38.96 58.89, 68.59 25.52, 88.89 1.74 M4.91 98.34 C30.63 67.64, 57.98 36.56, 88.89 1.74 M5.96 103.23 C26.99 75.95, 48.81 50.41, 93.22 2.86 M5.96 103.23 C27.38 77.77, 50.59 51.99, 93.22 2.86 M7.67 107.37 C27.83 83.11, 47.98 61.31, 96.89 4.73 M7.67 107.37 C29.81 84.25, 50.69 60.7, 96.89 4.73 M9.37 111.5 C42.9 73.61, 74.07 34.61, 100.57 6.59 M9.37 111.5 C28.45 87.04, 49.93 64.34, 100.57 6.59 M11.08 115.63 C33.9 93.33, 53.77 68.48, 104.24 8.46 M11.08 115.63 C31.04 89.94, 52.43 66.49, 104.24 8.46 M13.44 119.01 C37.93 89.42, 63.82 60.91, 108.57 9.58 M13.44 119.01 C37.79 91.25, 61.7 63.25, 108.57 9.58 M15.81 122.39 C53.13 78.87, 93.65 36.01, 112.25 11.45 M15.81 122.39 C42.88 89.59, 71.71 58.7, 112.25 11.45 M18.82 125.02 C53.98 80.18, 94.78 37.47, 115.92 13.32 M18.82 125.02 C48.77 90.99, 78.41 56.4, 115.92 13.32 M21.19 128.39 C45.66 101.47, 67.14 78.25, 119.6 15.19 M21.19 128.39 C55.69 85.83, 92.34 45.32, 119.6 15.19 M23.55 131.77 C51.35 100.24, 76.92 72.06, 122.62 17.81 M23.55 131.77 C48.45 101.25, 74.31 73.26, 122.62 17.81 M26.57 134.4 C56.4 101.53, 84.21 66.17, 124.98 21.19 M26.57 134.4 C49.97 107.51, 72 83.16, 124.98 21.19 M28.93 137.78 C67.27 95.31, 107.27 47.76, 127.34 24.57 M28.93 137.78 C66.65 94.25, 105.73 51.55, 127.34 24.57 M31.29 141.16 C55.88 114.03, 75.81 88.11, 130.36 27.19 M31.29 141.16 C54.42 116.59, 75.31 91.09, 130.36 27.19 M34.97 143.02 C70.37 106.04, 102.4 67.74, 132.72 30.57 M34.97 143.02 C59.04 113.86, 82.9 86.7, 132.72 30.57 M38.64 144.89 C73.48 103.07, 110.36 64.35, 135.74 33.2 M38.64 144.89 C69.35 108.57, 99.83 73.64, 135.74 33.2 M42.98 146.01 C66.57 119.84, 88.81 96.94, 138.1 36.58 M42.98 146.01 C64.88 121.67, 84.59 97.3, 138.1 36.58 M46.65 147.88 C72.5 117.26, 100.76 84.39, 141.12 39.2 M46.65 147.88 C70.36 120.16, 92.7 93.74, 141.12 39.2 M50.33 149.75 C78.63 113.36, 110.43 79.84, 142.83 43.33 M50.33 149.75 C84.12 108.92, 117.97 70.3, 142.83 43.33 M54.66 150.86 C79.57 120.69, 110.28 87.59, 144.54 47.47 M54.66 150.86 C90.7 110.55, 125.49 68.82, 144.54 47.47 M58.33 152.73 C90.56 115.06, 127.19 76.29, 145.59 52.36 M58.33 152.73 C90.24 116.5, 122.77 81.12, 145.59 52.36 M62.66 153.85 C90.88 124.52, 117.08 92.43, 147.29 56.49 M62.66 153.85 C87.63 126.95, 111.02 98.85, 147.29 56.49 M67.65 154.21 C94.82 125.41, 119.48 92.5, 149 60.62 M67.65 154.21 C97.91 121.14, 126.09 87.49, 149 60.62 M73.29 153.81 C105.49 119.64, 133.33 84.48, 150.05 65.51 M73.29 153.81 C94.89 128.09, 118.21 102.27, 150.05 65.51 M78.94 153.42 C105.75 122.5, 132.8 88.54, 151.76 69.65 M78.94 153.42 C102.01 126.87, 124.94 99.69, 151.76 69.65 M84.58 153.02 C97.26 137.43, 112.88 118.8, 152.81 74.53 M84.58 153.02 C108.07 127.14, 130.88 100.97, 152.81 74.53 M90.22 152.63 C108.66 134.23, 123.67 116.37, 151.24 82.44 M90.22 152.63 C107.96 131.05, 126.63 110.4, 151.24 82.44 M95.86 152.23 C113.98 126.94, 136.22 105.83, 149.66 90.35 M95.86 152.23 C116.89 127.95, 138.84 103.31, 149.66 90.35 M103.48 149.58 C118.47 132.57, 131.33 116.88, 147.43 99.01 M103.48 149.58 C120.93 131.39, 136.15 111.2, 147.43 99.01 M114.37 143.14 C124.51 132.11, 135.47 120.22, 145.2 107.67 M114.37 143.14 C125.47 129.75, 137.42 115.95, 145.2 107.67" stroke="#a5d8ff" stroke-width="0.5" fill="none"></path><path d="M54.31 3.19 C64.03 -0.73, 78.11 -0.6, 88.94 1.32 C99.77 3.25, 110.51 8.19, 119.3 14.75 C128.09 21.32, 136.14 30.86, 141.7 40.72 C147.26 50.58, 152.08 62.78, 152.66 73.91 C153.24 85.04, 149.69 97.24, 145.21 107.52 C140.73 117.79, 133.74 128.1, 125.77 135.57 C117.79 143.03, 107.76 149.18, 97.35 152.3 C86.94 155.43, 74.26 156.16, 63.29 154.31 C52.32 152.47, 40.45 147.81, 31.53 141.22 C22.61 134.64, 15.07 124.6, 9.77 114.8 C4.46 105.01, 0.22 93.72, -0.31 82.46 C-0.83 71.21, 2.14 57.9, 6.61 47.27 C11.07 36.63, 16.55 26.57, 26.48 18.66 C36.41 10.74, 57.66 2.76, 66.19 -0.24 C74.71 -3.23, 77.52 -0.78, 77.63 0.69 M70.02 1.55 C80.41 -0.4, 95.26 0.64, 105.72 4.74 C116.18 8.83, 125.73 17.8, 132.77 26.12 C139.82 34.44, 145.18 43.8, 148 54.66 C150.82 65.53, 151.31 79.77, 149.7 91.32 C148.08 102.86, 144.57 114.85, 138.3 123.93 C132.02 133.01, 121.51 140.68, 112.04 145.79 C102.56 150.9, 92.47 153.96, 81.46 154.58 C70.46 155.21, 56.3 153.72, 46.03 149.54 C35.76 145.36, 27.2 137.6, 19.85 129.48 C12.49 121.37, 4.87 111.5, 1.92 100.84 C-1.04 90.18, -0.07 76.68, 2.12 65.54 C4.32 54.41, 9.08 43.36, 15.09 34.05 C21.1 24.75, 28.95 15.1, 38.2 9.7 C47.44 4.29, 64.96 2.82, 70.57 1.62 C76.19 0.41, 71.83 1.42, 71.9 2.46" stroke="#9c36b5" stroke-width="1" fill="none"></path></g><g stroke-opacity="0.8" fill-opacity="0.8" transform="translate(552.3819244247443 167.0956710674493) rotate(0 48.127960205078125 50)"><text x="48.127960205078125" y="0" font-family="Virgil, Segoe UI Emoji" font-size="16px" fill="#9c36b5" text-anchor="middle" style="white-space: pre;" direction="ltr" dominant-baseline="text-before-edge">Real time  </text><text x="48.127960205078125" y="20" font-family="Virgil, Segoe UI Emoji" font-size="16px" fill="#9c36b5" text-anchor="middle" style="white-space: pre;" direction="ltr" dominant-baseline="text-before-edge">analysis on </text><text x="48.127960205078125" y="40" font-family="Virgil, Segoe UI Emoji" font-size="16px" fill="#9c36b5" text-anchor="middle" style="white-space: pre;" direction="ltr" dominant-baseline="text-before-edge">shares/sale</text><text x="48.127960205078125" y="60" font-family="Virgil, Segoe UI Emoji" font-size="16px" fill="#9c36b5" text-anchor="middle" style="white-space: pre;" direction="ltr" dominant-baseline="text-before-edge">s volume to</text><text x="48.127960205078125" y="80" font-family="Virgil, Segoe UI Emoji" font-size="16px" fill="#9c36b5" text-anchor="middle" style="white-space: pre;" direction="ltr" dominant-baseline="text-before-edge">predict price</text></g></svg>