<svg version="1.1" xmlns="http://www.w3.org/2000/svg" viewBox="0 0 1512.7567132872637 291.2499999999998" width="3025.5134265745273" height="582.4999999999995">
  <!-- svg-source:excalidraw -->
  
  <defs>
    <style class="style-fonts">
      @font-face {
        font-family: "Virgil";
        src: url("https://excalidraw.com/Virgil.woff2");
      }
      @font-face {
        font-family: "Cascadia";
        src: url("https://excalidraw.com/Cascadia.woff2");
      }
    </style>
    
  </defs>
  <g stroke-linecap="round" transform="translate(39.006713287263665 84.58333333333314) rotate(0 365 96.66666666666669)"><path d="M32 0 C221.02 -2.93, 408.6 -3.3, 698 0 C721.93 2.9, 726.77 12.13, 730 32 C733.94 76.33, 732.1 127.7, 730 161.33 C732.41 181.81, 717.61 190.21, 698 193.33 C465.54 199.05, 235.72 199.36, 32 193.33 C9.08 190.02, 1.21 183.74, 0 161.33 C0.69 135.88, 0.31 105.55, 0 32 C-1.48 11.87, 7.9 2.94, 32 0" stroke="none" stroke-width="0" fill="#b2f2bb"></path><path d="M32 0 C197.62 2.24, 362.42 1.74, 698 0 M32 0 C214.28 -0.62, 395.66 -0.69, 698 0 M698 0 C717.4 -1.94, 728.59 12.6, 730 32 M698 0 C720.53 -0.09, 731.09 11.34, 730 32 M730 32 C731.69 79.92, 729.01 125.01, 730 161.33 M730 32 C731.09 63.76, 730.7 95.58, 730 161.33 M730 161.33 C728.46 183.01, 717.35 193.34, 698 193.33 M730 161.33 C729.67 181.08, 717.93 194.12, 698 193.33 M698 193.33 C496.61 191.7, 296.57 191.18, 32 193.33 M698 193.33 C544.69 192.71, 390.9 193.29, 32 193.33 M32 193.33 C9.16 193.36, -0.61 182.31, 0 161.33 M32 193.33 C11.01 193.28, -0.51 183.73, 0 161.33 M0 161.33 C-1.82 112.47, -0.11 66.83, 0 32 M0 161.33 C1.6 133.41, 1.34 106.32, 0 32 M0 32 C1.13 10.35, 9.48 -0.87, 32 0 M0 32 C-0.2 9.63, 9.59 0.66, 32 0" stroke="#2f9e44" stroke-width="1" fill="none"></path></g><g stroke-linecap="round" transform="translate(44.840046620596695 177.9166666666664) rotate(0 335 51.666666666666686)"><path d="M294.86 -0.49 C320.5 -1.72, 351.1 -0.47, 378.68 0.27 C406.26 1.02, 434.42 2.24, 460.36 3.96 C486.3 5.68, 511.89 8.01, 534.33 10.58 C556.76 13.15, 577.45 16.16, 594.97 19.37 C612.49 22.58, 627.72 26.1, 639.44 29.85 C651.17 33.6, 660.34 37.72, 665.32 41.86 C670.29 45.99, 671.39 50.47, 669.27 54.66 C667.16 58.85, 661.54 62.74, 652.65 67 C643.76 71.26, 631.02 76.34, 615.94 80.22 C600.86 84.1, 582.28 87.51, 562.17 90.3 C542.05 93.09, 519.41 95.06, 495.26 96.96 C471.11 98.87, 444.39 100.72, 417.28 101.73 C390.16 102.74, 360.62 102.94, 332.6 103 C304.57 103.05, 275.82 103.2, 249.11 102.07 C222.4 100.94, 196.43 98.44, 172.34 96.21 C148.25 93.97, 124.79 91.41, 104.57 88.64 C84.35 85.88, 65.94 83, 51.03 79.61 C36.12 76.23, 23.51 72.6, 15.1 68.33 C6.68 64.05, 1.9 58.41, 0.52 53.99 C-0.86 49.56, 1.29 45.8, 6.79 41.76 C12.3 37.72, 21.67 33.55, 33.54 29.76 C45.4 25.98, 60.32 22.25, 78 19.04 C95.68 15.84, 117 13.2, 139.62 10.55 C162.23 7.9, 185.56 4.84, 213.69 3.14 C241.81 1.44, 290.01 0.85, 308.37 0.35 C326.72 -0.16, 323.35 -0.85, 323.81 0.1 M428.22 3.09 C455.11 3.24, 480.86 3.88, 504.53 5.97 C528.2 8.05, 550.38 12.35, 570.23 15.6 C590.09 18.86, 609.2 22.13, 623.66 25.49 C638.13 28.86, 649.52 31.53, 657.02 35.81 C664.53 40.08, 667.89 46.81, 668.69 51.13 C669.5 55.45, 667.87 57.87, 661.86 61.73 C655.86 65.58, 645.19 70.04, 632.66 74.28 C620.12 78.52, 604.8 83.84, 586.66 87.15 C568.52 90.46, 546.78 91.71, 523.81 94.14 C500.84 96.56, 474.8 100.27, 448.83 101.7 C422.85 103.13, 395.38 102.54, 367.94 102.71 C340.5 102.88, 311.66 103.23, 284.2 102.7 C256.73 102.17, 228.67 101.37, 203.15 99.53 C177.64 97.68, 153 94.1, 131.1 91.62 C109.21 89.14, 89.03 87.81, 71.8 84.65 C54.57 81.5, 39.21 76.82, 27.73 72.7 C16.25 68.58, 7.32 64.1, 2.9 59.95 C-1.51 55.8, -1.7 51.87, 1.24 47.82 C4.19 43.77, 11.25 39.82, 20.55 35.64 C29.84 31.47, 41.88 26.67, 57 22.79 C72.13 18.91, 90.59 15.44, 111.32 12.36 C132.06 9.27, 156.7 6, 181.43 4.28 C206.16 2.56, 232.65 2.79, 259.73 2.05 C286.81 1.31, 315.81 -0.02, 343.91 -0.16 C372.02 -0.29, 415.02 0.82, 428.35 1.23 C441.68 1.63, 425.53 1.19, 423.88 2.26" stroke="none" stroke-width="0" fill="#a5d8ff"></path><path d="M429.79 2.97 C456.49 3.25, 482.53 5.43, 506.23 7.56 C529.93 9.69, 552.51 12.66, 572.01 15.76 C591.5 18.86, 609.16 22.67, 623.18 26.17 C637.2 29.67, 648.29 32.79, 656.12 36.76 C663.94 40.73, 669.3 45.64, 670.14 49.98 C670.98 54.32, 667.49 58.5, 661.16 62.81 C654.83 67.12, 644.91 72.08, 632.16 75.84 C619.41 79.6, 602.85 82.27, 584.66 85.38 C566.47 88.49, 545.84 91.87, 523.05 94.5 C500.25 97.12, 474.04 99.69, 447.88 101.13 C421.73 102.57, 393.72 102.93, 366.1 103.12 C338.49 103.32, 309.82 102.91, 282.2 102.3 C254.57 101.7, 226.12 101.12, 200.35 99.5 C174.58 97.89, 149.33 95.26, 127.59 92.6 C105.85 89.94, 86.6 86.92, 69.92 83.55 C53.24 80.17, 38.68 76.26, 27.52 72.34 C16.37 68.43, 7.14 64.31, 2.98 60.06 C-1.17 55.8, -0.37 51.03, 2.59 46.81 C5.55 42.59, 11.28 38.87, 20.73 34.74 C30.18 30.6, 43.71 25.5, 59.31 22.01 C74.92 18.51, 93.64 16.41, 114.35 13.77 C135.06 11.12, 158.77 8.23, 183.55 6.14 C208.34 4.04, 235.79 2.39, 263.04 1.21 C290.29 0.04, 317.58 -1.26, 347.05 -0.93 C376.52 -0.6, 423.55 2.54, 439.87 3.2 C456.2 3.87, 446.99 2.23, 445.02 3.06 M386.12 0.78 C413.18 0.42, 443.06 1, 468.39 2.8 C493.73 4.6, 516.19 8.87, 538.12 11.59 C560.05 14.32, 582.9 16.09, 599.99 19.14 C617.08 22.2, 629.82 25.84, 640.66 29.92 C651.5 33.99, 660.48 39.02, 665.03 43.58 C669.58 48.14, 670.56 52.98, 667.96 57.28 C665.36 61.57, 658.57 65.29, 649.41 69.34 C640.26 73.39, 628.41 77.97, 613.01 81.58 C597.61 85.2, 577.89 88.27, 557 91.03 C536.11 93.8, 512.15 96.4, 487.68 98.19 C463.21 99.97, 437.01 100.8, 410.2 101.74 C383.39 102.68, 354.74 103.84, 326.84 103.84 C298.93 103.85, 269.86 103.06, 242.75 101.8 C215.64 100.54, 188.28 98.41, 164.18 96.28 C140.08 94.15, 117.57 91.91, 98.17 89.03 C78.78 86.16, 61.68 82.84, 47.83 79.03 C33.98 75.22, 23.21 70.45, 15.07 66.19 C6.93 61.94, 0.21 57.58, -1 53.5 C-2.2 49.41, 1.61 45.87, 7.82 41.68 C14.04 37.49, 23.62 32.36, 36.3 28.36 C48.97 24.36, 65.87 21.17, 83.87 17.7 C101.87 14.23, 121.46 10.15, 144.29 7.55 C167.12 4.96, 194.7 3.54, 220.86 2.15 C247.02 0.77, 273.92 -0.37, 301.23 -0.76 C328.54 -1.16, 370.85 -0.62, 384.73 -0.23 C398.61 0.16, 385.07 0.74, 384.51 1.56" stroke="#6741d9" stroke-width="2" fill="none"></path></g><g transform="translate(342.45328584839626 212.04948297202816) rotate(0 37.50598907470703 17.5)"><text x="37.50598907470703" y="0" font-family="Virgil, Segoe UI Emoji" font-size="28px" fill="#1e1e1e" text-anchor="middle" style="white-space: pre;" direction="ltr" dominant-baseline="text-before-edge">Data</text></g><g stroke-linecap="round" transform="translate(86.50671328726366 23.749999999999545) rotate(0 73.33333333333337 46.666666666666686)"><path d="M92.5 11.75 C102.41 20.94, 114.29 25.4, 128.17 35.25 C148.93 48.19, 146.4 44.31, 128.17 58.75 C121.89 62.31, 107.56 69.19, 92.5 81.58 C73.47 95.78, 75.65 92.41, 55.5 81.58 C41.31 74.59, 27.02 62.38, 18.5 58.75 C0.79 49.32, -0.84 46.73, 18.5 35.25 C24.56 32.18, 35.87 27.43, 55.5 11.75 C73.05 0.26, 73.49 -1.09, 92.5 11.75" stroke="none" stroke-width="0" fill="#a18072"></path><path d="M92.5 11.75 C102.21 16.9, 109.32 21.49, 128.17 35.25 M92.5 11.75 C101.84 19.34, 112.97 25.27, 128.17 35.25 M128.17 35.25 C147.3 47.59, 144.87 48, 128.17 58.75 M128.17 35.25 C146.5 45.37, 146.72 47.25, 128.17 58.75 M128.17 58.75 C119.43 63.45, 105.57 70.49, 92.5 81.58 M128.17 58.75 C115.99 65.57, 105.96 73.09, 92.5 81.58 M92.5 81.58 C72.77 94.3, 75.98 95.24, 55.5 81.58 M92.5 81.58 C72.76 91.56, 72.1 92.28, 55.5 81.58 M55.5 81.58 C47.77 77.76, 38.26 70.85, 18.5 58.75 M55.5 81.58 C42.12 72.93, 31.39 66.58, 18.5 58.75 M18.5 58.75 C-1.35 48.74, -0.89 45.19, 18.5 35.25 M18.5 58.75 C2.26 48.84, 2.09 46.45, 18.5 35.25 M18.5 35.25 C28.86 30.64, 37.1 23.25, 55.5 11.75 M18.5 35.25 C27 29.97, 35.37 24.94, 55.5 11.75 M55.5 11.75 C75.51 1.17, 75.91 -0.35, 92.5 11.75 M55.5 11.75 C75.8 -0.89, 72.28 2.23, 92.5 11.75" stroke="#a18072" stroke-width="1" fill="none"></path></g><g stroke-linecap="round" transform="translate(91.50671328726389 68.74999999999966) rotate(0 68.75 52.91666666666663)"><path d="M-0.06 1.69 L137.19 0.15 L138.76 105.62 L0.04 104.09" stroke="none" stroke-width="0" fill="#a18072"></path><path d="M0 0 C38.9 1.51, 72.44 0.15, 137.5 0 M0 0 C52.09 1.12, 103.57 1.51, 137.5 0 M137.5 0 C138.86 39.24, 136.46 77.54, 137.5 105.83 M137.5 0 C136.69 32.68, 136.27 64.46, 137.5 105.83 M137.5 105.83 C95.01 106.34, 54.49 105.09, 0 105.83 M137.5 105.83 C92.4 107.6, 46.52 106.47, 0 105.83 M0 105.83 C-1.68 67.89, -0.55 30, 0 0 M0 105.83 C0.33 74.05, -0.02 41.61, 0 0" stroke="#a18072" stroke-width="1" fill="none"></path></g><g transform="translate(106.67874087515452 73.74999999999966) rotate(0 53.577972412109375 17.5)"><text x="53.577972412109375" y="0" font-family="Virgil, Segoe UI Emoji" font-size="28px" fill="#1e1e1e" text-anchor="middle" style="white-space: pre;" direction="ltr" dominant-baseline="text-before-edge">Analysis</text></g><g stroke-linecap="round" transform="translate(146.0900466205967 111.66666666666652) rotate(0 12.916666666666629 27.916666666666686)"><path d="M6.46 0 C9.71 -0.49, 16.68 0.98, 19.37 0 C24.83 0.7, 23.87 2.29, 25.83 6.46 C25.67 20.33, 24.23 35.46, 25.83 49.38 C23.88 55.08, 22.5 57.44, 19.37 55.83 C16.76 56.34, 11.72 54.78, 6.46 55.83 C2.41 56.56, -0.78 54.84, 0 49.38 C0.55 38.13, 0.33 30.67, 0 6.46 C-0.47 1.63, 3.41 0.61, 6.46 0" stroke="none" stroke-width="0" fill="#d2bab0"></path><path d="M6.46 0 C9.42 -0.29, 12.88 -0.13, 19.37 0 M6.46 0 C9.27 -0.14, 11.96 -0.1, 19.37 0 M19.37 0 C23.59 -0.32, 25.4 2.38, 25.83 6.46 M19.37 0 C23.17 0.3, 26.34 1.79, 25.83 6.46 M25.83 6.46 C25.78 16.64, 26.03 26.57, 25.83 49.38 M25.83 6.46 C25.56 19.68, 25.58 32.78, 25.83 49.38 M25.83 49.38 C25.69 54.11, 23.52 56.14, 19.37 55.83 M25.83 49.38 C26.02 53.39, 23.71 56.27, 19.37 55.83 M19.37 55.83 C16.15 56.08, 13.12 55.62, 6.46 55.83 M19.37 55.83 C16.51 55.97, 13.84 55.99, 6.46 55.83 M6.46 55.83 C1.7 55.77, -0.43 53.31, 0 49.38 M6.46 55.83 C2.01 55.9, 0.03 53.57, 0 49.38 M0 49.38 C0.09 38.69, 0.31 27.46, 0 6.46 M0 49.38 C0.11 34.39, 0.14 19.27, 0 6.46 M0 6.46 C0.02 2.55, 2.06 0.03, 6.46 0 M0 6.46 C-0.07 2.36, 2.54 -0.33, 6.46 0" stroke="#a18072" stroke-width="1" fill="none"></path></g><g stroke-linecap="round" transform="translate(433.17337995392995 10) rotate(0 73.33333333333337 46.666666666666686)"><path d="M92.5 11.75 C104.24 19.21, 115.87 30.72, 128.17 35.25 C143.96 43.86, 148.77 49.36, 128.17 58.75 C118.18 63.54, 112.38 70.07, 92.5 81.58 C74.29 91.12, 71.47 96.62, 55.5 81.58 C43.72 72.06, 28.55 63.64, 18.5 58.75 C-0.17 46.27, -1.09 45.67, 18.5 35.25 C26.25 26.07, 40.72 21.54, 55.5 11.75 C71.71 2.06, 76.75 1.72, 92.5 11.75" stroke="none" stroke-width="0" fill="#d2bab0"></path><path d="M92.5 11.75 C105.69 21.35, 116.28 30.45, 128.17 35.25 M92.5 11.75 C101.44 17.75, 110.34 22.25, 128.17 35.25 M128.17 35.25 C148.46 48.05, 147.9 46.56, 128.17 58.75 M128.17 35.25 C144.38 45.67, 147.87 46.45, 128.17 58.75 M128.17 58.75 C118.36 63.84, 110.76 70.53, 92.5 81.58 M128.17 58.75 C117.91 66.5, 107.33 73.11, 92.5 81.58 M92.5 81.58 C75.71 93.76, 75.82 94.36, 55.5 81.58 M92.5 81.58 C75.66 92.31, 72.34 93.15, 55.5 81.58 M55.5 81.58 C43.08 73.42, 31.02 64.8, 18.5 58.75 M55.5 81.58 C45.12 75.01, 32.64 68.61, 18.5 58.75 M18.5 58.75 C1.77 48.78, 2 48.43, 18.5 35.25 M18.5 58.75 C0.8 45.89, 0.37 46.83, 18.5 35.25 M18.5 35.25 C31.94 25.8, 45.46 17.76, 55.5 11.75 M18.5 35.25 C26.87 31, 34.58 24.84, 55.5 11.75 M55.5 11.75 C75.46 -1.56, 74.79 1.44, 92.5 11.75 M55.5 11.75 C71.83 -0.23, 76.1 0.54, 92.5 11.75" stroke="#a18072" stroke-width="1" fill="none"></path></g><g stroke-linecap="round" transform="translate(439.0067132872639 55) rotate(0 68.75 52.91666666666663)"><path d="M1.77 1.78 L139.5 1.43 L138.2 104.86 L0.32 105.68" stroke="none" stroke-width="0" fill="#d2bab0"></path><path d="M0 0 C34.97 1.14, 71.75 -0.99, 137.5 0 M0 0 C36.47 -1.24, 72.59 0.28, 137.5 0 M137.5 0 C136.11 39.33, 136.79 75.21, 137.5 105.83 M137.5 0 C138.04 29.29, 138.74 59.44, 137.5 105.83 M137.5 105.83 C90.4 108.59, 41.56 108.36, 0 105.83 M137.5 105.83 C94.01 106.1, 48.36 106.46, 0 105.83 M0 105.83 C0.04 69.56, 0.62 32.58, 0 0 M0 105.83 C0.64 74.45, -0.75 43.19, 0 0" stroke="#a18072" stroke-width="1" fill="none"></path></g><g transform="translate(488.64672030630686 60) rotate(0 19.10999298095703 17.5)"><text x="19.10999298095703" y="0" font-family="Virgil, Segoe UI Emoji" font-size="28px" fill="#1e1e1e" text-anchor="middle" style="white-space: pre;" direction="ltr" dominant-baseline="text-before-edge">ML</text></g><g stroke-linecap="round" transform="translate(493.59004662059647 97.91666666666697) rotate(0 12.916666666666629 27.916666666666686)"><path d="M6.46 0 C12.38 0.98, 15.48 -0.14, 19.37 0 C25.3 -1.48, 25.61 1.53, 25.83 6.46 C24.42 22.95, 27 33.91, 25.83 49.38 C27.57 54.25, 22.55 55.25, 19.37 55.83 C15.92 55.32, 13.09 55.66, 6.46 55.83 C3.45 54.18, -1.15 54.23, 0 49.38 C1.85 37.26, 0.73 24.53, 0 6.46 C-1.11 3.01, 1.35 -0.91, 6.46 0" stroke="none" stroke-width="0" fill="#a18072"></path><path d="M6.46 0 C11.47 0.1, 16.76 0.19, 19.37 0 M6.46 0 C9.13 -0.05, 11.48 -0.1, 19.37 0 M19.37 0 C23.92 -0.11, 25.53 2.06, 25.83 6.46 M19.37 0 C24.07 -0.38, 25.71 1.95, 25.83 6.46 M25.83 6.46 C26.17 21.55, 26.05 36.55, 25.83 49.38 M25.83 6.46 C26.12 19.76, 26.08 32.73, 25.83 49.38 M25.83 49.38 C25.51 53.64, 23.87 55.93, 19.37 55.83 M25.83 49.38 C25.48 53.75, 23.65 56.06, 19.37 55.83 M19.37 55.83 C16.06 56.04, 12.91 55.64, 6.46 55.83 M19.37 55.83 C14.68 55.96, 9.74 55.79, 6.46 55.83 M6.46 55.83 C2.23 55.8, 0.31 54.11, 0 49.38 M6.46 55.83 C2.49 55.84, -0.15 53.66, 0 49.38 M0 49.38 C0.21 36.69, 0.46 23.64, 0 6.46 M0 49.38 C0.02 38.25, -0.28 26.77, 0 6.46 M0 6.46 C0.41 2.26, 2.3 0.41, 6.46 0 M0 6.46 C0.16 2.08, 2.13 -0.11, 6.46 0" stroke="#a18072" stroke-width="1" fill="none"></path></g><g stroke-linecap="round" transform="translate(644.8400466205967 39.99999999999977) rotate(0 73.33333333333337 46.666666666666686)"><path d="M92.5 11.75 C106.06 22.09, 114.11 27.58, 128.17 35.25 C147.76 43.55, 147.08 48.57, 128.17 58.75 C118.44 64.02, 102.97 74.12, 92.5 81.58 C75.49 95.74, 74.03 93.29, 55.5 81.58 C41.57 71.86, 33.59 69.68, 18.5 58.75 C2.64 44.21, 1.65 49.01, 18.5 35.25 C33.71 23.83, 47.03 19.74, 55.5 11.75 C77.42 1.21, 70.83 3.14, 92.5 11.75" stroke="none" stroke-width="0" fill="#d2bab0"></path><path d="M92.5 11.75 C106.6 20.32, 121.48 29.9, 128.17 35.25 M92.5 11.75 C100.37 17.06, 108.28 23.09, 128.17 35.25 M128.17 35.25 C146.69 45.48, 147.11 45.3, 128.17 58.75 M128.17 35.25 C145.24 48.49, 144.79 48.23, 128.17 58.75 M128.17 58.75 C120.55 62.1, 110.5 67.6, 92.5 81.58 M128.17 58.75 C115.85 65.53, 103.23 74.58, 92.5 81.58 M92.5 81.58 C74.68 92.49, 75.26 95.19, 55.5 81.58 M92.5 81.58 C71.88 94.87, 74.02 91.69, 55.5 81.58 M55.5 81.58 C43.45 76.88, 32.37 68.08, 18.5 58.75 M55.5 81.58 C46.63 75.36, 37.34 70.65, 18.5 58.75 M18.5 58.75 C0.29 47.62, -0.51 48.86, 18.5 35.25 M18.5 58.75 C-1.98 44.95, -0.06 46.49, 18.5 35.25 M18.5 35.25 C27.28 28.23, 35.23 23.39, 55.5 11.75 M18.5 35.25 C28.69 28.32, 37.79 22.37, 55.5 11.75 M55.5 11.75 C74.79 -0.31, 73.27 -1.19, 92.5 11.75 M55.5 11.75 C73.11 -0.87, 71.8 -0.74, 92.5 11.75" stroke="#a18072" stroke-width="1" fill="none"></path></g><g stroke-linecap="round" transform="translate(650.6733799539306 84.99999999999977) rotate(0 68.75 52.91666666666663)"><path d="M0.29 0.62 L136.99 1.86 L135.77 104.05 L-0.05 105.39" stroke="none" stroke-width="0" fill="#d2bab0"></path><path d="M0 0 C37.58 0.32, 70.91 0.5, 137.5 0 M0 0 C53 0.58, 106.87 -1.16, 137.5 0 M137.5 0 C137.9 32.45, 137.67 66.79, 137.5 105.83 M137.5 0 C136.46 36.67, 136.56 75.06, 137.5 105.83 M137.5 105.83 C87.16 104.79, 40.76 106.34, 0 105.83 M137.5 105.83 C101.11 107.78, 66.57 106.39, 0 105.83 M0 105.83 C-1.82 76.94, -2.24 44.24, 0 0 M0 105.83 C1.27 78.59, 1.42 52.73, 0 0" stroke="#a18072" stroke-width="1" fill="none"></path></g><g transform="translate(666.0834065042236 89.99999999999977) rotate(0 53.33997344970703 17.5)"><text x="53.33997344970703" y="0" font-family="Virgil, Segoe UI Emoji" font-size="28px" fill="#1e1e1e" text-anchor="middle" style="white-space: pre;" direction="ltr" dominant-baseline="text-before-edge">Reports</text></g><g stroke-linecap="round" transform="translate(705.2567132872628 127.91666666666674) rotate(0 12.916666666666629 27.916666666666686)"><path d="M6.46 0 C10.91 0.71, 15.86 -0.87, 19.37 0 C21.95 1.96, 24.46 2.62, 25.83 6.46 C26.03 18.66, 26.24 31.5, 25.83 49.38 C27.68 52.36, 21.84 56.53, 19.37 55.83 C15.5 56.47, 11.56 55.82, 6.46 55.83 C3.73 56.37, -1.04 53.66, 0 49.38 C-2.23 34.53, -1.95 16.32, 0 6.46 C0.7 2.83, 2.31 -1.03, 6.46 0" stroke="none" stroke-width="0" fill="#e8590c"></path><path d="M6.46 0 C10.52 -0.07, 14.14 -0.13, 19.37 0 M6.46 0 C11.64 -0.1, 16.66 0.12, 19.37 0 M19.37 0 C23.31 0.24, 25.52 2.39, 25.83 6.46 M19.37 0 C23.64 0.14, 25.34 1.82, 25.83 6.46 M25.83 6.46 C25.5 15.62, 25.51 24.71, 25.83 49.38 M25.83 6.46 C26.01 21.1, 25.66 35.47, 25.83 49.38 M25.83 49.38 C25.84 53.36, 23.63 56.07, 19.37 55.83 M25.83 49.38 C26.23 53.35, 24.09 55.39, 19.37 55.83 M19.37 55.83 C15.79 55.92, 12.37 55.96, 6.46 55.83 M19.37 55.83 C14.35 55.98, 9.27 55.71, 6.46 55.83 M6.46 55.83 C2.14 55.73, -0.36 53.9, 0 49.38 M6.46 55.83 C1.93 56.02, -0.52 53.8, 0 49.38 M0 49.38 C0.36 40.32, -0.2 30.68, 0 6.46 M0 49.38 C-0.12 37.79, -0.13 26.4, 0 6.46 M0 6.46 C-0.43 2.01, 2.2 -0.14, 6.46 0 M0 6.46 C-0.07 2.54, 2.58 -0.05, 6.46 0" stroke="#a18072" stroke-width="1" fill="none"></path></g><g stroke-linecap="round"><g transform="translate(44.840046620596695 219.58333333333326) rotate(0 1.9117043327200918 -66.4227827978961)"><path d="M0.03 -0.05 C0.77 -22.14, 3.5 -110.74, 4.16 -132.8 M-0.34 -0.35 C0.37 -22.39, 3.23 -110.6, 3.91 -132.54" stroke="#846358" stroke-width="4" fill="none"></path></g></g><mask></mask><g stroke-linecap="round"><g transform="translate(47.34004662059692 215.41666666666652) rotate(0 2.975726165687888 -62.83399364972945)"><path d="M0.23 0.27 C1.25 -20.73, 5.07 -104.91, 6 -125.94 M-0.05 0.12 C0.95 -20.83, 4.89 -104.62, 5.83 -125.57" stroke="#846358" stroke-width="4" fill="none"></path></g></g><mask></mask><g stroke-linecap="round"><g transform="translate(55.67337995393018 87.91666666666652) rotate(0 20.473381689736584 22.811431442527862)"><path d="M-0.46 0.2 C6.46 7.82, 34.3 38.38, 41.41 46.02 M0.77 -0.4 C7.57 6.94, 33.78 36.79, 40.64 44.7" stroke="#2f9e44" stroke-width="4" fill="none"></path></g></g><mask></mask><g stroke-linecap="round"><g transform="translate(58.17455207591661 104.12686882380387) rotate(0 16.007697066464402 21.51944942211037)"><path d="M-0.2 -0.5 C5.14 6.67, 26.89 36.3, 32.21 43.54 M0.75 0.49 C6.04 7.72, 26.94 35.49, 32.04 42.64" stroke="#2f9e44" stroke-width="4" fill="none"></path></g></g><mask></mask><g stroke-linecap="round"><g transform="translate(61.909378767862336 116.13208065169545) rotate(0 13.658173074457295 19.181531336602745)"><path d="M-0.36 -0.31 C4.21 6.18, 22.96 32.2, 27.68 38.67 M0.39 0.65 C4.88 7.01, 22.79 31.78, 27.37 37.94" stroke="#2f9e44" stroke-width="4" fill="none"></path></g></g><mask></mask><g stroke-linecap="round"><g transform="translate(39.92275057321194 92.00249670085805) rotate(0 -13.402137792901271 20.3390840624445)"><path d="M0.48 -0.5 C-3.95 6.27, -22.3 33.72, -26.81 40.64 M0.12 0.33 C-4.38 7.17, -22.78 34.55, -27.28 41.18" stroke="#2f9e44" stroke-width="4" fill="none"></path></g></g><mask></mask><g stroke-linecap="round"><g transform="translate(36.92307449459213 109.5785056321198) rotate(0 -13.266951294729097 20.323308720219927)"><path d="M-0.35 0.12 C-4.9 6.81, -22.6 33.73, -26.92 40.46 M0.39 -0.26 C-4.03 6.46, -21.46 34.05, -25.92 40.91" stroke="#2f9e44" stroke-width="4" fill="none"></path></g></g><mask></mask><g stroke-linecap="round"><g transform="translate(40.28313191452753 122.1955211789408) rotate(0 -13.291584769720885 20.52359262653573)"><path d="M0.38 -0.48 C-4.13 6.26, -22.02 34.06, -26.6 40.87 M-0.04 0.36 C-4.64 7.16, -22.61 34.81, -26.96 41.53" stroke="#2f9e44" stroke-width="4" fill="none"></path></g></g><mask></mask><g stroke-linecap="round"><g transform="translate(262.03805332141405 179.0012653324751) rotate(0 2.002602854767929 -66.16037803360825)"><path d="M0.18 -0.24 C0.88 -22.39, 3.46 -110.63, 4.12 -132.65 M-0.11 0.33 C0.55 -21.8, 3.17 -110.1, 3.84 -132.32" stroke="#846358" stroke-width="4" fill="none"></path></g></g><mask></mask><g stroke-linecap="round"><g transform="translate(264.5380533214145 174.83459866580836) rotate(0 2.6439412149279633 -62.89890607350537)"><path d="M-0.05 -0.16 C0.88 -21.07, 4.83 -104.77, 5.77 -125.74 M-0.48 0.47 C0.39 -20.52, 4.35 -105.25, 5.47 -126.27" stroke="#846358" stroke-width="4" fill="none"></path></g></g><mask></mask><g stroke-linecap="round"><g transform="translate(272.87138665474754 47.33459866580836) rotate(0 21.1856722715429 23.01033130532454)"><path d="M-0.16 0.23 C6.7 7.88, 34.08 37.92, 41.05 45.51 M1.22 -0.36 C8.34 7.44, 35.89 38.54, 42.54 46.38" stroke="#2f9e44" stroke-width="4" fill="none"></path></g></g><mask></mask><g stroke-linecap="round"><g transform="translate(275.37255877673374 63.544800822945604) rotate(0 15.594853477002175 21.584839904401463)"><path d="M-0.44 -0.23 C4.85 6.96, 26.26 36.02, 31.63 43.3 M0.38 -0.84 C5.6 6.43, 25.98 36.53, 31.17 44.01" stroke="#2f9e44" stroke-width="4" fill="none"></path></g></g><mask></mask><g stroke-linecap="round"><g transform="translate(279.1073854686799 75.5500126508374) rotate(0 13.478217529063159 19.301756948176262)"><path d="M-0.03 -0.03 C4.64 6.4, 23.09 31.97, 27.62 38.4 M-0.66 -0.49 C3.98 6.05, 22.46 32.73, 27.28 39.1" stroke="#2f9e44" stroke-width="4" fill="none"></path></g></g><mask></mask><g stroke-linecap="round"><g transform="translate(257.1207572740293 51.42042869999989) rotate(0 -13.437937096379073 20.374845441298078)"><path d="M0.12 0.07 C-4.38 6.92, -22.61 34.22, -26.99 41.08 M-0.43 -0.33 C-4.76 6.38, -21.73 33.53, -26.03 40.32" stroke="#2f9e44" stroke-width="4" fill="none"></path></g></g><mask></mask><g stroke-linecap="round"><g transform="translate(254.1210811954095 68.99643763126153) rotate(0 -12.955945572674182 20.573424744796853)"><path d="M-0.33 0.25 C-4.71 7.1, -21.76 34.52, -26.18 41.21 M0.42 -0.06 C-4 6.65, -21.72 33.72, -26.33 40.52" stroke="#2f9e44" stroke-width="4" fill="none"></path></g></g><mask></mask><g stroke-linecap="round"><g transform="translate(257.4811386153449 81.61345317808275) rotate(0 -13.43697480725723 20.486107855543878)"><path d="M0.48 0.38 C-3.94 7.07, -22.36 33.63, -26.86 40.41 M0.12 0.13 C-4.36 6.86, -22.87 34.15, -27.36 40.84" stroke="#2f9e44" stroke-width="4" fill="none"></path></g></g><mask></mask><g stroke-linecap="round"><g transform="translate(625.452643362828 203.35507852009175) rotate(0 1.9240100259211204 -66.30476962679774)"><path d="M-0.19 0.21 C0.45 -21.91, 3.29 -110.7, 4.03 -132.82 M0.3 0.04 C0.87 -22.05, 3.07 -110.54, 3.72 -132.58" stroke="#846358" stroke-width="4" fill="none"></path></g></g><mask></mask><g stroke-linecap="round"><g transform="translate(627.9526433628284 199.18841185342478) rotate(0 2.9207442657161664 -62.82956077242068)"><path d="M-0.14 -0.33 C0.89 -21.35, 5 -105, 5.98 -125.87 M0.4 0.21 C1.41 -20.77, 4.94 -104.42, 5.79 -125.47" stroke="#846358" stroke-width="4" fill="none"></path></g></g><mask></mask><g stroke-linecap="round"><g transform="translate(636.2859766961615 71.68841185342478) rotate(0 20.49226111331643 22.78119512419778)"><path d="M0.35 -0.1 C7.31 7.77, 34.58 38.79, 41.43 46.41 M-0.44 -0.85 C6.42 6.87, 33.8 37.41, 40.67 45.29" stroke="#2f9e44" stroke-width="4" fill="none"></path></g></g><mask></mask><g stroke-linecap="round"><g transform="translate(638.7871488181477 87.89861401056203) rotate(0 15.658850033654176 21.992003293658172)"><path d="M-0.17 0.41 C5.04 7.62, 26.16 36.08, 31.49 43.2 M0.79 0.13 C5.89 7.43, 25.82 36.62, 30.94 43.86" stroke="#2f9e44" stroke-width="4" fill="none"></path></g></g><mask></mask><g stroke-linecap="round"><g transform="translate(642.5219755100939 99.90382583845383) rotate(0 13.730082196528315 19.00900617727808)"><path d="M-0.16 -0.12 C4.47 6.17, 22.94 31.75, 27.62 38.11 M0.69 -0.63 C5.28 5.7, 22.76 32.13, 27.28 38.65" stroke="#2f9e44" stroke-width="4" fill="none"></path></g></g><mask></mask><g stroke-linecap="round"><g transform="translate(620.5353473154432 75.77424188761631) rotate(0 -13.175899334109772 20.41407157873482)"><path d="M0.12 -0.22 C-4.24 6.56, -21.76 33.63, -26.28 40.55 M-0.43 0.76 C-4.8 7.61, -22.22 34.41, -26.47 41.05" stroke="#2f9e44" stroke-width="4" fill="none"></path></g></g><mask></mask><g stroke-linecap="round"><g transform="translate(617.5356712368234 93.35025081887795) rotate(0 -13.293121975259623 20.512386668503666)"><path d="M0.39 -0.28 C-4.12 6.64, -22.53 34.43, -26.98 41.31 M-0.02 0.66 C-4.38 7.47, -21.61 34.09, -26.01 40.66" stroke="#2f9e44" stroke-width="4" fill="none"></path></g></g><mask></mask><g stroke-linecap="round"><g transform="translate(620.8957286567588 105.96726636569917) rotate(0 -13.013799095076365 20.636109079681944)"><path d="M-0.31 0.47 C-4.76 7.35, -21.83 34.27, -26.28 40.99 M0.45 0.28 C-4.06 7.03, -22.07 33.34, -26.47 40.19" stroke="#2f9e44" stroke-width="4" fill="none"></path></g></g><mask></mask><g stroke-linecap="round" transform="translate(912.3400466205967 94.58333333333314) rotate(0 81.25000000000023 64.58333333333331)"><path d="M32 0 C61.76 3.74, 93.52 1.94, 130.5 0 C146.52 2.61, 166.1 13.12, 162.5 32 C161.09 57.32, 166.11 74.6, 162.5 97.17 C163.25 114.01, 150.53 125.12, 130.5 129.17 C113.43 130.86, 85.82 125.02, 32 129.17 C5.78 126.72, -4.13 116.36, 0 97.17 C-5.32 81.56, -2.62 57.39, 0 32 C1.38 5.24, 15.24 -2.79, 32 0" stroke="none" stroke-width="0" fill="#1971c2"></path><path d="M32 0 C57.55 -1.39, 90.46 -1.72, 130.5 0 M32 0 C62.92 1.1, 92.1 -0.43, 130.5 0 M130.5 0 C151.07 3.36, 161.63 12.91, 162.5 32 M130.5 0 C150.49 1.02, 161.37 14.24, 162.5 32 M162.5 32 C162.42 53.89, 165.1 78.98, 162.5 97.17 M162.5 32 C162.3 45.43, 163.55 60.24, 162.5 97.17 M162.5 97.17 C165.41 116.86, 150.84 125.42, 130.5 129.17 M162.5 97.17 C164.47 116.97, 150.94 128.18, 130.5 129.17 M130.5 129.17 C105.18 129.71, 73.78 131.63, 32 129.17 M130.5 129.17 C101 128.16, 69.16 126.62, 32 129.17 M32 129.17 C11.08 129.21, 2.28 116.65, 0 97.17 M32 129.17 C8.65 133.7, -1.32 122.86, 0 97.17 M0 97.17 C-3.76 79.46, 2.72 58.26, 0 32 M0 97.17 C-0.5 73.22, 1.64 45.61, 0 32 M0 32 C3.81 12.03, 13.09 -0.83, 32 0 M0 32 C-1.26 6.78, 11.83 -4.57, 32 0" stroke="#e9ecef" stroke-width="4" fill="none"></path></g><g transform="translate(964.4000518085854 141.66666666666652) rotate(0 29.18999481201172 17.5)"><text x="29.18999481201172" y="0" font-family="Virgil, Segoe UI Emoji" font-size="28px" fill="#e9ecef" text-anchor="middle" style="white-space: pre;" direction="ltr" dominant-baseline="text-before-edge">CDP</text></g><g stroke-linecap="round" transform="translate(1126.9233799539297 71.66666666666652) rotate(0 81.25000000000023 64.58333333333331)"><path d="M32 0 C61.18 -0.08, 87.79 -2.37, 130.5 0 C156.17 3.34, 164.66 11.7, 162.5 32 C165.67 54.76, 158 81.2, 162.5 97.17 C161.62 115.09, 148.45 134.24, 130.5 129.17 C105.23 128.85, 87.63 125.18, 32 129.17 C10.13 134.58, -1.93 122.4, 0 97.17 C5.34 82.41, 1.43 55.33, 0 32 C-2.18 14.47, 8.66 2.79, 32 0" stroke="none" stroke-width="0" fill="#ffc9c9"></path><path d="M32 0 C68.07 -3.27, 109.74 -1.24, 130.5 0 M32 0 C65.11 0.94, 100.44 3.57, 130.5 0 M130.5 0 C155.79 -0.4, 158.72 13.34, 162.5 32 M130.5 0 C155.49 0.36, 164.98 6.78, 162.5 32 M162.5 32 C160.67 53.69, 157.72 76.07, 162.5 97.17 M162.5 32 C161.84 52.39, 163.94 76.29, 162.5 97.17 M162.5 97.17 C162.12 122.25, 151.04 130.95, 130.5 129.17 M162.5 97.17 C158.87 114.17, 147.34 131.65, 130.5 129.17 M130.5 129.17 C97.58 133.82, 67.87 131.39, 32 129.17 M130.5 129.17 C107.09 132.68, 86.51 131.42, 32 129.17 M32 129.17 C9.54 125.2, 0.54 117.41, 0 97.17 M32 129.17 C8.98 129.43, 1.73 115.16, 0 97.17 M0 97.17 C-2.89 80.66, 3.15 65.83, 0 32 M0 97.17 C-2.46 78.64, -1.78 63.39, 0 32 M0 32 C-1.48 11.93, 13.82 -3.56, 32 0 M0 32 C-3.53 9.04, 11.21 2.33, 32 0" stroke="#f08c00" stroke-width="4" fill="none"></path></g><g transform="translate(1150.5074024759028 118.74999999999977) rotate(0 57.665977478027344 17.5)"><text x="57.665977478027344" y="0" font-family="Virgil, Segoe UI Emoji" font-size="28px" fill="#f08c00" text-anchor="middle" style="white-space: pre;" direction="ltr" dominant-baseline="text-before-edge">Realtime</text></g><g stroke-linecap="round" transform="translate(1340.2567132872632 136.6666666666664) rotate(0 81.25000000000023 64.58333333333331)"><path d="M32 0 C65.42 2.06, 95.57 2.48, 130.5 0 C150.04 5.1, 162.78 12.49, 162.5 32 C155.31 51.42, 163.03 81.5, 162.5 97.17 C159.92 118.42, 152.03 132.05, 130.5 129.17 C97.01 132.7, 55.77 127.57, 32 129.17 C6.8 132.22, 0.12 123.16, 0 97.17 C5.42 73.65, -2.39 51.15, 0 32 C-0.24 13.16, 10.49 3.36, 32 0" stroke="none" stroke-width="0" fill="#ffec99"></path><path d="M32 0 C55.78 -1.17, 71.7 -2.21, 130.5 0 M32 0 C61.78 -1.35, 93.07 -1.83, 130.5 0 M130.5 0 C154.91 -3.79, 161.14 12.38, 162.5 32 M130.5 0 C150.53 -2.11, 158.6 6.84, 162.5 32 M162.5 32 C161.15 50.57, 164.01 73.25, 162.5 97.17 M162.5 32 C163.08 44.64, 161.08 58.62, 162.5 97.17 M162.5 97.17 C166.01 119.79, 155.59 129.75, 130.5 129.17 M162.5 97.17 C159.95 121.13, 148.54 129.87, 130.5 129.17 M130.5 129.17 C106.98 131.2, 80.67 129.23, 32 129.17 M130.5 129.17 C106.72 130.26, 85.97 129.23, 32 129.17 M32 129.17 C7.65 132.08, 1.89 122.46, 0 97.17 M32 129.17 C14.23 133.08, 2.28 120.16, 0 97.17 M0 97.17 C-1.15 83.26, 1.86 67.24, 0 32 M0 97.17 C1.63 74.99, -0.18 51.74, 0 32 M0 32 C-3.98 7.1, 11.55 3.21, 32 0 M0 32 C0.37 6.68, 11.46 1.68, 32 0" stroke="#2f9e44" stroke-width="4" fill="none"></path></g><g transform="translate(1371.4987329405835 183.74999999999977) rotate(0 50.00798034667969 17.5)"><text x="50.00798034667969" y="0" font-family="Virgil, Segoe UI Emoji" font-size="28px" fill="#2f9e44" text-anchor="middle" style="white-space: pre;" direction="ltr" dominant-baseline="text-before-edge">Metrics</text></g></svg>