<svg version="1.1" xmlns="http://www.w3.org/2000/svg" viewBox="0 0 552.5 108.5" width="1105" height="217">
  <!-- svg-source:excalidraw -->
  
  <defs>
    <style class="style-fonts">
      @font-face {
        font-family: "Virgil";
        src: url("https://excalidraw.com/Virgil.woff2");
      }
      @font-face {
        font-family: "Cascadia";
        src: url("https://excalidraw.com/Cascadia.woff2");
      }
    </style>
    
  </defs>
  <g stroke-linecap="round" transform="translate(10 11.25) rotate(0 43.5 42.75)"><path d="M21.38 0 C35.17 3.38, 45.77 1.39, 65.63 0 C78.81 -1.85, 89.87 4.17, 87 21.38 C86.93 36.03, 84.62 52.95, 87 64.13 C86.51 79.21, 77.88 87.81, 65.63 85.5 C51.77 89.19, 34.23 84.1, 21.38 85.5 C4.27 85.02, -0.59 79.26, 0 64.13 C3.18 55.38, -1.8 41.68, 0 21.38 C3.02 10.59, 9.69 -2.51, 21.38 0" stroke="none" stroke-width="0" fill="#a5d8ff"></path><path d="M21.38 0 C39.23 -1.08, 54.94 -0.65, 65.63 0 M21.38 0 C30.66 0.98, 41.71 0.79, 65.63 0 M65.63 0 C80.48 -0.33, 88.14 5.38, 87 21.38 M65.63 0 C81.98 0.47, 88.47 9.12, 87 21.38 M87 21.38 C88.1 33.85, 88.44 42.2, 87 64.13 M87 21.38 C86.38 32.81, 86.81 44.51, 87 64.13 M87 64.13 C86.98 76.51, 81.59 85.22, 65.63 85.5 M87 64.13 C89.13 77.32, 82.09 86.06, 65.63 85.5 M65.63 85.5 C53.73 84.9, 44.93 85.11, 21.38 85.5 M65.63 85.5 C50.31 85.08, 36.43 85.09, 21.38 85.5 M21.38 85.5 C5.54 85.03, 0.67 78.79, 0 64.13 M21.38 85.5 C8.24 83.67, -0.91 76.09, 0 64.13 M0 64.13 C1.6 52.69, -1.35 44.38, 0 21.38 M0 64.13 C-0.54 48.05, 0.78 31.94, 0 21.38 M0 21.38 C0.21 8.6, 7.81 0.41, 21.38 0 M0 21.38 C0.06 4.96, 4.84 1.03, 21.38 0" stroke="#9c36b5" stroke-width="2" fill="none"></path></g><g transform="translate(19.13201904296875 44) rotate(0 34.36798095703125 10)"><text x="34.36798095703125" y="0" font-family="Virgil, Segoe UI Emoji" font-size="16px" fill="#9c36b5" text-anchor="middle" style="white-space: pre;" direction="ltr" dominant-baseline="text-before-edge">Accuracy</text></g><g stroke-linecap="round" transform="translate(115 10.5) rotate(0 43.5 42.75)"><path d="M21.38 0 C33.96 1.77, 49.02 3.97, 65.63 0 C78.7 2.25, 87.03 6.93, 87 21.38 C84.17 32.17, 85.46 38.74, 87 64.13 C88.77 74.97, 79.29 87.92, 65.63 85.5 C51.91 86.2, 36.34 83.83, 21.38 85.5 C10.43 85.58, -2.71 79.8, 0 64.13 C-3.13 58.71, -2.07 45.97, 0 21.38 C-2.34 4.23, 4.63 3.46, 21.38 0" stroke="none" stroke-width="0" fill="#ffc9c9"></path><path d="M21.38 0 C38.21 1.9, 57.68 1.65, 65.63 0 M21.38 0 C30.85 -0.15, 41.72 -0.41, 65.63 0 M65.63 0 C78.05 1.57, 88.33 5.61, 87 21.38 M65.63 0 C78.3 -1.95, 86.49 6.2, 87 21.38 M87 21.38 C85.9 31.53, 85.65 43.23, 87 64.13 M87 21.38 C87.31 33.5, 86.96 43.63, 87 64.13 M87 64.13 C86.08 77.63, 79.8 83.87, 65.63 85.5 M87 64.13 C86.57 80.62, 79.83 87.18, 65.63 85.5 M65.63 85.5 C56.09 83.86, 46.33 84.1, 21.38 85.5 M65.63 85.5 C55.43 84.81, 46.04 85.88, 21.38 85.5 M21.38 85.5 C5.62 84.24, -1 78.02, 0 64.13 M21.38 85.5 C6.65 83.86, 2.05 78.21, 0 64.13 M0 64.13 C2.08 55.29, 0.66 44.44, 0 21.38 M0 64.13 C0.54 53.3, 0.57 41.38, 0 21.38 M0 21.38 C1.75 7.05, 7.78 0.27, 21.38 0 M0 21.38 C1.37 8.75, 4.9 -2.19, 21.38 0" stroke="#9c36b5" stroke-width="2" fill="none"></path></g><g transform="translate(127.97200775146484 43.25) rotate(0 30.527992248535156 10)"><text x="30.527992248535156" y="0" font-family="Virgil, Segoe UI Emoji" font-size="16px" fill="#9c36b5" text-anchor="middle" style="white-space: pre;" direction="ltr" dominant-baseline="text-before-edge">Latency</text></g><g stroke-linecap="round" transform="translate(226 10) rotate(0 43.5 42.75)"><path d="M21.38 0 C38.76 -2.24, 53.99 1.09, 65.63 0 C79.85 1.75, 84.28 6.91, 87 21.38 C83.86 30.91, 88.94 45.95, 87 64.13 C84.94 77.95, 82.45 84.67, 65.63 85.5 C50.78 84.14, 34.67 82.44, 21.38 85.5 C4.71 87.57, -0.84 80.92, 0 64.13 C-1.52 54.1, 0.17 49.59, 0 21.38 C-0.92 3.93, 9.01 -3.21, 21.38 0" stroke="none" stroke-width="0" fill="#b2f2bb"></path><path d="M21.38 0 C40.22 0.83, 56.73 1.74, 65.63 0 M21.38 0 C35.97 -0.62, 48.82 0.8, 65.63 0 M65.63 0 C81.16 -1.46, 87.11 7.94, 87 21.38 M65.63 0 C80.98 -0.89, 85.19 6.7, 87 21.38 M87 21.38 C88.76 35.84, 86.41 54.13, 87 64.13 M87 21.38 C87.1 31.79, 85.92 43.22, 87 64.13 M87 64.13 C86.77 76.51, 79.6 84.76, 65.63 85.5 M87 64.13 C85.94 80.22, 79.81 84.79, 65.63 85.5 M65.63 85.5 C50.31 84.42, 32.31 84.88, 21.38 85.5 M65.63 85.5 C53.79 85.8, 42.99 84.47, 21.38 85.5 M21.38 85.5 C7.91 85.3, -0.95 77.66, 0 64.13 M21.38 85.5 C5.78 85.81, 1.57 76.97, 0 64.13 M0 64.13 C1.5 46.26, -0.9 31.76, 0 21.38 M0 64.13 C-0.19 49.59, -0.59 33.06, 0 21.38 M0 21.38 C-0.93 6.74, 6.29 1.3, 21.38 0 M0 21.38 C0.97 9.17, 4.84 -1.92, 21.38 0" stroke="#9c36b5" stroke-width="2" fill="none"></path></g><g transform="translate(232.62801361083984 42.75) rotate(0 36.871986389160156 10)"><text x="36.871986389160156" y="0" font-family="Virgil, Segoe UI Emoji" font-size="16px" fill="#9c36b5" text-anchor="middle" style="white-space: pre;" direction="ltr" dominant-baseline="text-before-edge">Retention</text></g><g stroke-linecap="round" transform="translate(341 13) rotate(0 43.5 42.75)"><path d="M21.38 0 C33.99 -0.5, 40.41 2.1, 65.63 0 C80.4 -3, 85.69 5.55, 87 21.38 C87.54 31.09, 85.45 43.16, 87 64.13 C84.41 79.39, 80.56 88.86, 65.63 85.5 C51.57 83.67, 37.55 87.24, 21.38 85.5 C6 85.01, 0.04 78.23, 0 64.13 C2.49 50.74, 0.89 40.41, 0 21.38 C0.71 5.81, 4.32 -3.25, 21.38 0" stroke="none" stroke-width="0" fill="#ffec99"></path><path d="M21.38 0 C33.11 0.41, 45.57 -0.84, 65.63 0 M21.38 0 C33.64 -0.98, 45.28 0.42, 65.63 0 M65.63 0 C81.65 -1.21, 86.1 5.81, 87 21.38 M65.63 0 C81.76 -1.49, 86.55 8.14, 87 21.38 M87 21.38 C86.38 33.83, 86.66 49.64, 87 64.13 M87 21.38 C86.46 34.41, 87.45 47.45, 87 64.13 M87 64.13 C87.49 77.81, 81.39 85.91, 65.63 85.5 M87 64.13 C86.76 79.85, 79.05 84.26, 65.63 85.5 M65.63 85.5 C49.62 84.91, 30.07 84.62, 21.38 85.5 M65.63 85.5 C49.02 85.42, 34.61 85.21, 21.38 85.5 M21.38 85.5 C7.28 85.95, 0.55 76.62, 0 64.13 M21.38 85.5 C7.77 84.21, -0.77 77.99, 0 64.13 M0 64.13 C-0.96 51.76, 1.25 39.93, 0 21.38 M0 64.13 C0.04 50.28, 0.14 35.97, 0 21.38 M0 21.38 C-1.57 7.81, 7.68 -1.84, 21.38 0 M0 21.38 C0.92 6.93, 8.19 -1.18, 21.38 0" stroke="#9c36b5" stroke-width="2" fill="none"></path></g><g transform="translate(346.41202545166016 25.75) rotate(0 38.087974548339844 30)"><text x="38.087974548339844" y="0" font-family="Virgil, Segoe UI Emoji" font-size="16px" fill="#9c36b5" text-anchor="middle" style="white-space: pre;" direction="ltr" dominant-baseline="text-before-edge">Data </text><text x="38.087974548339844" y="20" font-family="Virgil, Segoe UI Emoji" font-size="16px" fill="#9c36b5" text-anchor="middle" style="white-space: pre;" direction="ltr" dominant-baseline="text-before-edge">array </text><text x="38.087974548339844" y="40" font-family="Virgil, Segoe UI Emoji" font-size="16px" fill="#9c36b5" text-anchor="middle" style="white-space: pre;" direction="ltr" dominant-baseline="text-before-edge">dimensions</text></g><g stroke-linecap="round" transform="translate(455.5 12.5) rotate(0 43.5 42.75)"><path d="M21.38 0 C38.25 -2.65, 49.67 -2.38, 65.63 0 C83.4 2.92, 88.27 6.81, 87 21.38 C89.7 29.42, 84.31 42.98, 87 64.13 C85.76 80.95, 77.84 87.65, 65.63 85.5 C49.18 85.09, 32.39 86.3, 21.38 85.5 C4.45 88.92, -2.21 77.66, 0 64.13 C-2.54 46.62, -2.44 31.98, 0 21.38 C-2.29 4.13, 10.32 -0.66, 21.38 0" stroke="none" stroke-width="0" fill="#eaddd7"></path><path d="M21.38 0 C37.65 0.29, 50.04 0.95, 65.63 0 M21.38 0 C31.33 -0.63, 38.57 -0.36, 65.63 0 M65.63 0 C79.64 -1.17, 88.02 8.11, 87 21.38 M65.63 0 C79.65 2.11, 87.84 6.43, 87 21.38 M87 21.38 C88.24 37.47, 85.79 54.21, 87 64.13 M87 21.38 C87.71 33.35, 86.49 45.7, 87 64.13 M87 64.13 C87.39 78.19, 78.54 87.36, 65.63 85.5 M87 64.13 C85.47 77.12, 81.56 83.71, 65.63 85.5 M65.63 85.5 C51.9 84.21, 42.08 85.29, 21.38 85.5 M65.63 85.5 C54.33 85.31, 43.75 85.06, 21.38 85.5 M21.38 85.5 C6.42 86.32, -0.78 77.89, 0 64.13 M21.38 85.5 C6.52 86.75, 1.24 78.31, 0 64.13 M0 64.13 C0.46 48.53, -2.18 30.36, 0 21.38 M0 64.13 C0.11 52.22, -0.3 42.1, 0 21.38 M0 21.38 C-1.45 7.33, 8.08 0.75, 21.38 0 M0 21.38 C2.15 8.77, 6.95 -1.12, 21.38 0" stroke="#9c36b5" stroke-width="2" fill="none"></path></g><g transform="translate(481.12801361083984 45.25) rotate(0 17.871986389160156 10)"><text x="17.871986389160156" y="0" font-family="Virgil, Segoe UI Emoji" font-size="16px" fill="#9c36b5" text-anchor="middle" style="white-space: pre;" direction="ltr" dominant-baseline="text-before-edge">User</text></g></svg>