<?xml version="1.0" encoding="utf-8"?>
<!-- Generator: Adobe Illustrator 27.1.0, SVG Export Plug-In . SVG Version: 6.00 Build 0)  -->
<svg version="1.1" id="Layer_1" xmlns="http://www.w3.org/2000/svg" xmlns:xlink="http://www.w3.org/1999/xlink" x="0px" y="0px"
	 viewBox="0 0 800 500" style="enable-background:new 0 0 800 500;" xml:space="preserve">
<style type="text/css">
	.st0{clip-path:url(#SVGID_00000121982010910616493250000011350818388258037912_);}
	.st1{fill:none;stroke:#333333;stroke-width:0.2;}
	.st2{fill:#2BB3BB;}
	.st3{clip-path:url(#SVGID_00000093151056269330689020000003772231485634639765_);fill:none;}
	.st4{clip-path:url(#SVGID_00000021804085779624385230000001119111400288602267_);fill:none;}
	.st5{clip-path:url(#SVGID_00000163068430714378193910000006493745112611949971_);fill:none;}
	.st6{clip-path:url(#SVGID_00000058551035935463657400000008842775338581395074_);fill:none;}
	.st7{clip-path:url(#SVGID_00000026126078044160099940000013792194360658326146_);fill:none;}
	.st8{clip-path:url(#SVGID_00000088128005502678250520000004144828763379865218_);fill:none;}
	.st9{clip-path:url(#SVGID_00000154383772110515323450000010345089881615671487_);fill:none;}
	.st10{clip-path:url(#SVGID_00000078754388867142630800000013841554557599530676_);fill:none;}
	.st11{fill:none;stroke:#333333;stroke-width:0.5;}
	.st12{fill:#333333;}
	.st13{font-family:'ObjektivMk1-Regular';}
	.st14{font-size:10px;}
	.st15{enable-background:new    ;}
	.st16{font-size:12.5px;}
</style>
<g id="Bar_Chart">
	<g>
		<g>
			<g>
				<defs>
					<rect id="SVGID_1_" width="800" height="500"/>
				</defs>
				<clipPath id="SVGID_00000054980251468101320490000011006499717807461278_">
					<use xlink:href="#SVGID_1_"  style="overflow:visible;"/>
				</clipPath>
				
					<g transform="translate(0,0)" xmlns:ns1="http://www.datylon.com/dbi" style="clip-path:url(#SVGID_00000054980251468101320490000011006499717807461278_);">
					<g>
						<g transform="translate(192.1276397705078, 30)">
							<g>
								<g transform="translate(0,0)">
									<line class="st1" x1="0" y1="0" x2="0" y2="417.9"/>
								</g>
								<g transform="translate(107.01340004249855,0)">
									<line class="st1" x1="0" y1="0" x2="0" y2="417.9"/>
								</g>
								<g transform="translate(214.0268000849971,0)">
									<line class="st1" x1="0" y1="0" x2="0" y2="417.9"/>
								</g>
								<g transform="translate(321.04020012749567,0)">
									<line class="st1" x1="0" y1="0" x2="0" y2="417.9"/>
								</g>
								<g transform="translate(428.0536001699942,0)">
									<line class="st1" x1="0" y1="0" x2="0" y2="417.9"/>
								</g>
								<g transform="translate(535.0670002124928,0)">
									<line class="st1" x1="0" y1="0" x2="0" y2="417.9"/>
								</g>
							</g>
							<g>
								<g>
									<g>
										<g>
											<path class="st2" d="M0,0h577.9l0,0v38l0,0H0l0,0V0z"/>
											<g>
												<defs>
													<polygon id="SVGID_00000171703619745129352170000010195632883369438872_" points="0,0 577.9,0 577.9,0 577.9,38 
														577.9,38 0,38 0,38 													"/>
												</defs>
												<clipPath id="SVGID_00000109016267442531875910000017415739695357447809_">
													<use xlink:href="#SVGID_00000171703619745129352170000010195632883369438872_"  style="overflow:visible;"/>
												</clipPath>
												<path style="clip-path:url(#SVGID_00000109016267442531875910000017415739695357447809_);fill:none;" d="M0,0h577.9l0,0
													v38l0,0H0l0,0V0z"/>
											</g>
										</g>
									</g>
									<g>
										<g>
											<path class="st2" d="M0,54.3h363.8l0,0v38l0,0H0l0,0C0,92.3,0,54.3,0,54.3z"/>
											<g>
												<defs>
													<polygon id="SVGID_00000125598228906618341630000010374890429305915792_" points="0,54.3 363.8,54.3 363.8,54.3 
														363.8,92.3 363.8,92.3 0,92.3 0,92.3 													"/>
												</defs>
												<clipPath id="SVGID_00000030488810679024466980000008293897228224484018_">
													<use xlink:href="#SVGID_00000125598228906618341630000010374890429305915792_"  style="overflow:visible;"/>
												</clipPath>
												<path style="clip-path:url(#SVGID_00000030488810679024466980000008293897228224484018_);fill:none;" d="M0,54.3h363.8
													l0,0v38l0,0H0l0,0C0,92.3,0,54.3,0,54.3z"/>
											</g>
										</g>
									</g>
									<g>
										<g>
											<path class="st2" d="M0,108.5h363.8l0,0v38l0,0H0l0,0V108.5z"/>
											<g>
												<defs>
													<polygon id="SVGID_00000174559706793877795480000005278434065620963988_" points="0,108.5 363.8,108.5 363.8,108.5 
														363.8,146.5 363.8,146.5 0,146.5 0,146.5 													"/>
												</defs>
												<clipPath id="SVGID_00000017485960949567216950000010278350341457468086_">
													<use xlink:href="#SVGID_00000174559706793877795480000005278434065620963988_"  style="overflow:visible;"/>
												</clipPath>
												<path style="clip-path:url(#SVGID_00000017485960949567216950000010278350341457468086_);fill:none;" d="M0,108.5h363.8
													l0,0v38l0,0H0l0,0V108.5z"/>
											</g>
										</g>
									</g>
									<g>
										<g>
											<path class="st2" d="M0,162.8h321l0,0v38l0,0H0l0,0V162.8z"/>
											<g>
												<defs>
													<polygon id="SVGID_00000159446345941453354510000000444517050594281383_" points="0,162.8 321,162.8 321,162.8 
														321,200.8 321,200.8 0,200.8 0,200.8 													"/>
												</defs>
												<clipPath id="SVGID_00000129910704866522987110000000473287956908373921_">
													<use xlink:href="#SVGID_00000159446345941453354510000000444517050594281383_"  style="overflow:visible;"/>
												</clipPath>
												<path style="clip-path:url(#SVGID_00000129910704866522987110000000473287956908373921_);fill:none;" d="M0,162.8h321
													l0,0v38l0,0H0l0,0V162.8z"/>
											</g>
										</g>
									</g>
									<g>
										<g>
											<path class="st2" d="M0,217.1h214l0,0v38l0,0H0l0,0V217.1z"/>
											<g>
												<defs>
													<polygon id="SVGID_00000012449984548220248120000016174102780781313928_" points="0,217.1 214,217.1 214,217.1 
														214,255.1 214,255.1 0,255.1 0,255.1 													"/>
												</defs>
												<clipPath id="SVGID_00000059280056235946502210000014368815411199230100_">
													<use xlink:href="#SVGID_00000012449984548220248120000016174102780781313928_"  style="overflow:visible;"/>
												</clipPath>
												<path style="clip-path:url(#SVGID_00000059280056235946502210000014368815411199230100_);fill:none;" d="M0,217.1h214
													l0,0v38l0,0H0l0,0V217.1z"/>
											</g>
										</g>
									</g>
									<g>
										<g>
											<path class="st2" d="M0,271.4h214l0,0v38l0,0H0l0,0V271.4z"/>
											<g>
												<defs>
													<polygon id="SVGID_00000017487557557864734870000006283400393986209941_" points="0,271.4 214,271.4 214,271.4 
														214,309.4 214,309.4 0,309.4 0,309.4 													"/>
												</defs>
												<clipPath id="SVGID_00000010277779734699187130000005984113643390758037_">
													<use xlink:href="#SVGID_00000017487557557864734870000006283400393986209941_"  style="overflow:visible;"/>
												</clipPath>
												<path style="clip-path:url(#SVGID_00000010277779734699187130000005984113643390758037_);fill:none;" d="M0,271.4h214
													l0,0v38l0,0H0l0,0V271.4z"/>
											</g>
										</g>
									</g>
									<g>
										<g>
											<path class="st2" d="M0,325.6h42.8l0,0v38l0,0H0l0,0V325.6z"/>
											<g>
												<defs>
													<polygon id="SVGID_00000029756848637002234600000011587026238539675036_" points="0,325.6 42.8,325.6 42.8,325.6 
														42.8,363.6 42.8,363.6 0,363.6 0,363.6 													"/>
												</defs>
												<clipPath id="SVGID_00000034788612321631725170000001839508700849944210_">
													<use xlink:href="#SVGID_00000029756848637002234600000011587026238539675036_"  style="overflow:visible;"/>
												</clipPath>
												<path style="clip-path:url(#SVGID_00000034788612321631725170000001839508700849944210_);fill:none;" d="M0,325.6h42.8
													l0,0v38l0,0H0l0,0V325.6z"/>
											</g>
										</g>
									</g>
									<g>
										<g>
											<path class="st2" d="M0,379.9h21.4l0,0v38l0,0H0l0,0V379.9z"/>
											<g>
												<defs>
													<polygon id="SVGID_00000096030513881386810660000009686730641922091136_" points="0,379.9 21.4,379.9 21.4,379.9 
														21.4,417.9 21.4,417.9 0,417.9 0,417.9 													"/>
												</defs>
												<clipPath id="SVGID_00000176015532127118029150000007654960389898524560_">
													<use xlink:href="#SVGID_00000096030513881386810660000009686730641922091136_"  style="overflow:visible;"/>
												</clipPath>
												<path style="clip-path:url(#SVGID_00000176015532127118029150000007654960389898524560_);fill:none;" d="M0,379.9h21.4
													l0,0v38l0,0H0l0,0V379.9z"/>
											</g>
										</g>
									</g>
								</g>
							</g>
							<g transform="translate(0, 417.896240234375)">
								<path class="st11" d="M-0.3,0h578.1"/>
								<g transform="translate(0,5)">
									<line class="st11" x1="0" y1="-5" x2="0" y2="2"/>
									<g id="gtext">
										<text transform="matrix(1 0 0 1 -6.59 14.1)" class="st12 st13 st14">0</text>
										<text transform="matrix(1 0 0 1 -1.14 14.1)" class="st12 st13 st14">%</text>
									</g>
								</g>
								<g transform="translate(107.01340004249855,5)">
									<line class="st11" x1="0" y1="-5" x2="0" y2="2"/>
									<g id="gtext_00000049900355164882105990000007072069873392094651_">
										<text transform="matrix(1 0 0 1 -6.59 14.1)" class="st12 st13 st14">5</text>
										<text transform="matrix(1 0 0 1 -1.14 14.1)" class="st12 st13 st14">%</text>
									</g>
								</g>
								<g transform="translate(214.0268000849971,5)">
									<line class="st11" x1="0" y1="-5" x2="0" y2="2"/>
									<g id="gtext_00000000217236646976315370000002682630935337613997_">
										<text transform="matrix(1 0 0 1 -9.315 14.1)" class="st12 st13 st14">10</text>
										<text transform="matrix(1 0 0 1 1.585 14.1)" class="st12 st13 st14">%</text>
									</g>
								</g>
								<g transform="translate(321.04020012749567,5)">
									<line class="st11" x1="0" y1="-5" x2="0" y2="2"/>
									<g id="gtext_00000032606082268011095120000017763570740446132110_">
										<text transform="matrix(1 0 0 1 -9.3149 14.1)" class="st12 st13 st14">15</text>
										<text transform="matrix(1 0 0 1 1.585 14.1)" class="st12 st13 st14">%</text>
									</g>
								</g>
								<g transform="translate(428.0536001699942,5)">
									<line class="st11" x1="0" y1="-5" x2="0" y2="2"/>
									<g id="gtext_00000090979017438789030540000004922527324132778887_">
										<text transform="matrix(1 0 0 1 -9.315 14.1)" class="st12 st13 st14">20</text>
										<text transform="matrix(1 0 0 1 1.585 14.1)" class="st12 st13 st14">%</text>
									</g>
								</g>
								<g transform="translate(535.0670002124928,5)">
									<line class="st11" x1="0" y1="-5" x2="0" y2="2"/>
									<g id="gtext_00000155117135271170002130000004443843700194592936_">
										<text transform="matrix(1 0 0 1 -9.315 14.1)" class="st12 st13 st14">25</text>
										<text transform="matrix(1 0 0 1 1.585 14.1)" class="st12 st13 st14">%</text>
									</g>
								</g>
							</g>
							<g transform="translate(0, 0)">
								<path class="st11" d="M0,0v417.6"/>
								<g transform="translate(10,18.995283647017043)">
									<path class="st11" d="M-10,0"/>
								</g>
								<g transform="translate(10,73.26752263849431)">
									<line class="st11" x1="-10" y1="0" x2="-10" y2="0"/>
								</g>
								<g transform="translate(10,127.5397616299716)">
									<line class="st11" x1="-10" y1="0" x2="-10" y2="0"/>
								</g>
								<g transform="translate(10,181.81200062144885)">
									<line class="st11" x1="-10" y1="0" x2="-10" y2="0"/>
								</g>
								<g transform="translate(10,236.08423961292613)">
									<line class="st11" x1="-10" y1="0" x2="-10" y2="0"/>
								</g>
								<g transform="translate(10,290.35647860440343)">
									<line class="st11" x1="-10" y1="0" x2="-10" y2="0"/>
								</g>
								<g transform="translate(10,344.6287175958807)">
									<line class="st11" x1="-10" y1="0" x2="-10" y2="0"/>
								</g>
								<g transform="translate(10,398.900956587358)">
									<line class="st11" x1="-10" y1="0" x2="-10" y2="0"/>
								</g>
							</g>
							<g>
								<g transform="translate(-10, 18.995283647017043)">
									<g id="gtext_00000008835334480086121170000015051363749388192399_">
										<text transform="matrix(1 0 0 1 -121.0737 -5.1188)" class="st15"><tspan x="0" y="0" class="st12 st13 st16">Career progression</tspan><tspan x="43.7" y="17.5" class="st12 st13 st16">and support</tspan></text>
									</g>
								</g>
								<g transform="translate(-10, 73.26752263849431)">
									<g id="gtext_00000019641456582390888050000000712147787606408370_">
										<text transform="matrix(1 0 0 1 -178.0854 3.6311)" class="st12 st13 st16">A supportive working culture</text>
									</g>
								</g>
								<g transform="translate(-10, 127.5397616299716)">
									<g id="gtext_00000029015656496991315830000005674129857369072516_">
										<text transform="matrix(1 0 0 1 -158.4482 3.6316)" class="st12 st13 st16">Alignment with my values</text>
									</g>
								</g>
								<g transform="translate(-10, 181.81200062144885)">
									<g id="gtext_00000107586515660925640230000004953999998559302321_">
										<text transform="matrix(1 0 0 1 -117.9609 -5.1184)" class="st15"><tspan x="0" y="0" class="st12 st13 st16">Driven by purpose,</tspan><tspan x="33.2" y="17.5" class="st12 st13 st16">not just profit</tspan></text>
									</g>
								</g>
								<g transform="translate(-10, 236.08423961292613)">
									<g id="gtext_00000056402723769696891590000009755682193856892036_">
										<text transform="matrix(1 0 0 1 -172.6783 3.6312)" class="st12 st13 st16">Staff wellbeing as a priority</text>
									</g>
								</g>
								<g transform="translate(-10, 290.35647860440343)">
									<g id="gtext_00000010307551673636277440000001625802932701589894_">
										<text transform="matrix(1 0 0 1 -139.7857 -5.1183)" class="st15"><tspan x="0" y="0" class="st12 st13 st16">Diversity and Inclusion</tspan><tspan x="6.7" y="17.5" class="st12 st13 st16">as a strategic priority</tspan></text>
									</g>
								</g>
								<g transform="translate(-10, 344.6287175958807)">
									<g id="gtext_00000130616730524945036640000009960719231095030931_">
										<text transform="matrix(1 0 0 1 -38.7996 3.631)" class="st12 st13 st16">Other</text>
									</g>
								</g>
								<g transform="translate(-10, 398.900956587358)">
									<g id="gtext_00000088090467948937709270000014366987189488317366_">
										<text transform="matrix(1 0 0 1 -122.6734 3.6316)" class="st12 st13 st16">Diverse role models</text>
									</g>
								</g>
							</g>
						</g>
					</g>
				</g>
			</g>
		</g>
	</g>
</g>
</svg>
