<?xml version="1.0" encoding="utf-8"?>
<!-- Generator: Adobe Illustrator 27.1.0, SVG Export Plug-In . SVG Version: 6.00 Build 0)  -->
<svg version="1.1" id="Layer_1" xmlns="http://www.w3.org/2000/svg" xmlns:xlink="http://www.w3.org/1999/xlink" x="0px" y="0px"
	 viewBox="0 0 772.9 557.3" style="enable-background:new 0 0 772.9 557.3;" xml:space="preserve">
<style type="text/css">
	.st0{clip-path:url(#SVGID_00000073722568919802817120000007972117466905259684_);}
	.st1{fill:none;stroke:#333333;stroke-width:0.2;}
	.st2{fill:#2BB3BB;}
	.st3{clip-path:url(#SVGID_00000133529150966110622220000001816292606300046735_);fill:none;}
	.st4{clip-path:url(#SVGID_00000171682502181136247740000001952183825147392183_);fill:none;}
	.st5{clip-path:url(#SVGID_00000046322508532784072010000007681994779720396429_);fill:none;}
	.st6{clip-path:url(#SVGID_00000122002417400998347210000014210843155389699998_);fill:none;}
	.st7{clip-path:url(#SVGID_00000183217496176925232560000000683063803437860009_);fill:none;}
	.st8{clip-path:url(#SVGID_00000161624854862592459240000007873702108452955012_);fill:none;}
	.st9{clip-path:url(#SVGID_00000013884283008010655090000012021073618153577369_);fill:none;}
	.st10{clip-path:url(#SVGID_00000145776615877964889100000015408272271364472225_);fill:none;}
	.st11{fill:none;stroke:#333333;stroke-width:0.5;}
	.st12{fill:#333333;}
	.st13{font-family:'PTSans-Regular';}
	.st14{font-size:10px;}
	.st15{enable-background:new    ;}
	.st16{font-family:'ObjektivMk1-Regular';}
	.st17{font-size:12.5px;}
	.st18{fill:none;}
	.st19{font-family:'ObjektivMk1-Medium';}
	.st20{font-size:18px;}
</style>
<g id="Bar_Chart">
	<g>
		<g>
			<g>
				<defs>
					<rect id="SVGID_1_" y="57.3" width="800" height="500"/>
				</defs>
				<clipPath id="SVGID_00000040558614046053040920000007877860760893761927_">
					<use xlink:href="#SVGID_1_"  style="overflow:visible;"/>
				</clipPath>
				
					<g transform="translate(0,0)" xmlns:ns1="http://www.datylon.com/dbi" style="clip-path:url(#SVGID_00000040558614046053040920000007877860760893761927_);">
					<g>
						<g transform="translate(146.60851287841797, 30)">
							<g>
								<g transform="translate(0,0)">
									<line class="st1" x1="0" y1="57.3" x2="0" y2="475.2"/>
								</g>
								<g transform="translate(175.60323580889636,0)">
									<line class="st1" x1="0" y1="57.3" x2="0" y2="475.2"/>
								</g>
								<g transform="translate(351.2064716177927,0)">
									<line class="st1" x1="0" y1="57.3" x2="0" y2="475.2"/>
								</g>
								<g transform="translate(526.809707426689,0)">
									<line class="st1" x1="0" y1="57.3" x2="0" y2="475.2"/>
								</g>
							</g>
							<g>
								<g>
									<g>
										<g>
											<path class="st2" d="M0,57.3h623.4l0,0v38l0,0H0l0,0V57.3z"/>
											<g>
												<defs>
													<polygon id="SVGID_00000049219726443717137820000002795578918559027874_" points="0,57.3 623.4,57.3 623.4,57.3 
														623.4,95.3 623.4,95.3 0,95.3 0,95.3 													"/>
												</defs>
												<clipPath id="SVGID_00000165224356744930977710000014278301622800524169_">
													<use xlink:href="#SVGID_00000049219726443717137820000002795578918559027874_"  style="overflow:visible;"/>
												</clipPath>
												<path style="clip-path:url(#SVGID_00000165224356744930977710000014278301622800524169_);fill:none;" d="M0,57.3h623.4
													l0,0v38l0,0H0l0,0V57.3z"/>
											</g>
										</g>
									</g>
									<g>
										<g>
											<path class="st2" d="M0,111.6h535.6l0,0v38l0,0H0l0,0V111.6z"/>
											<g>
												<defs>
													<polygon id="SVGID_00000021805432676346860150000012792305535815054222_" points="0,111.6 535.6,111.6 535.6,111.6 
														535.6,149.6 535.6,149.6 0,149.6 0,149.6 													"/>
												</defs>
												<clipPath id="SVGID_00000137121953850614112580000011017988423412340870_">
													<use xlink:href="#SVGID_00000021805432676346860150000012792305535815054222_"  style="overflow:visible;"/>
												</clipPath>
												<path style="clip-path:url(#SVGID_00000137121953850614112580000011017988423412340870_);fill:none;" d="M0,111.6h535.6
													l0,0v38l0,0H0l0,0V111.6z"/>
											</g>
										</g>
									</g>
									<g>
										<g>
											<path class="st2" d="M0,165.9h535.6l0,0v38l0,0H0l0,0V165.9z"/>
											<g>
												<defs>
													<polygon id="SVGID_00000060026510841045670310000013431963118896691106_" points="0,165.9 535.6,165.9 535.6,165.9 
														535.6,203.8 535.6,203.8 0,203.8 0,203.8 													"/>
												</defs>
												<clipPath id="SVGID_00000049941575007569914740000009918037703093264020_">
													<use xlink:href="#SVGID_00000060026510841045670310000013431963118896691106_"  style="overflow:visible;"/>
												</clipPath>
												<path style="clip-path:url(#SVGID_00000049941575007569914740000009918037703093264020_);fill:none;" d="M0,165.9h535.6
													l0,0v38l0,0H0l0,0V165.9z"/>
											</g>
										</g>
									</g>
									<g>
										<g>
											<path class="st2" d="M0,220.1h360l0,0v38l0,0H0l0,0V220.1z"/>
											<g>
												<defs>
													<polygon id="SVGID_00000155117805603861146350000002639372897896856985_" points="0,220.1 360,220.1 360,220.1 
														360,258.1 360,258.1 0,258.1 0,258.1 													"/>
												</defs>
												<clipPath id="SVGID_00000041270411519429937380000014908911735347626647_">
													<use xlink:href="#SVGID_00000155117805603861146350000002639372897896856985_"  style="overflow:visible;"/>
												</clipPath>
												<path style="clip-path:url(#SVGID_00000041270411519429937380000014908911735347626647_);fill:none;" d="M0,220.1h360
													l0,0v38l0,0H0l0,0V220.1z"/>
											</g>
										</g>
									</g>
									<g>
										<g>
											<path class="st2" d="M0,274.4h263.4l0,0v38l0,0H0l0,0V274.4z"/>
											<g>
												<defs>
													<polygon id="SVGID_00000060012847008038542160000012599624169227260340_" points="0,274.4 263.4,274.4 263.4,274.4 
														263.4,312.4 263.4,312.4 0,312.4 0,312.4 													"/>
												</defs>
												<clipPath id="SVGID_00000057848561498119593500000002753221742213811840_">
													<use xlink:href="#SVGID_00000060012847008038542160000012599624169227260340_"  style="overflow:visible;"/>
												</clipPath>
												<path style="clip-path:url(#SVGID_00000057848561498119593500000002753221742213811840_);fill:none;" d="M0,274.4h263.4
													l0,0v38l0,0H0l0,0V274.4z"/>
											</g>
										</g>
									</g>
									<g>
										<g>
											<path class="st2" d="M0,328.7h122.9l0,0v38l0,0H0l0,0V328.7z"/>
											<g>
												<defs>
													<polygon id="SVGID_00000021094868582519556760000007615633607898241208_" points="0,328.7 122.9,328.7 122.9,328.7 
														122.9,366.6 122.9,366.6 0,366.6 0,366.6 													"/>
												</defs>
												<clipPath id="SVGID_00000052818668214061539020000005515198635800589741_">
													<use xlink:href="#SVGID_00000021094868582519556760000007615633607898241208_"  style="overflow:visible;"/>
												</clipPath>
												<path style="clip-path:url(#SVGID_00000052818668214061539020000005515198635800589741_);fill:none;" d="M0,328.7h122.9
													l0,0v38l0,0H0l0,0V328.7z"/>
											</g>
										</g>
									</g>
									<g>
										<g>
											<path class="st2" d="M0,382.9h79l0,0v38l0,0H0l0,0V382.9L0,382.9z"/>
											<g>
												<defs>
													<polygon id="SVGID_00000152249634217597345010000009357770315467793043_" points="0,382.9 79,382.9 79,382.9 79,420.9 
														79,420.9 0,420.9 0,420.9 0,382.9 													"/>
												</defs>
												<clipPath id="SVGID_00000154416441169532994420000011276584958935477640_">
													<use xlink:href="#SVGID_00000152249634217597345010000009357770315467793043_"  style="overflow:visible;"/>
												</clipPath>
												<path style="clip-path:url(#SVGID_00000154416441169532994420000011276584958935477640_);fill:none;" d="M0,382.9h79
													l0,0v38l0,0H0l0,0V382.9L0,382.9z"/>
											</g>
										</g>
									</g>
									<g>
										<g>
											<path class="st2" d="M0,437.2L0,437.2L0,437.2l0,38l0,0h0l0,0V437.2L0,437.2z"/>
											<g>
												<defs>
													<polygon id="SVGID_00000103230250134266613980000009138660653915815053_" points="0,437.2 0,437.2 0,437.2 0,475.2 
														0,475.2 0,475.2 0,475.2 0,437.2 													"/>
												</defs>
												<clipPath id="SVGID_00000133530852556990555550000018371844264668118414_">
													<use xlink:href="#SVGID_00000103230250134266613980000009138660653915815053_"  style="overflow:visible;"/>
												</clipPath>
												<path style="clip-path:url(#SVGID_00000133530852556990555550000018371844264668118414_);fill:none;" d="M0,437.2
													L0,437.2L0,437.2l0,38l0,0h0l0,0V437.2L0,437.2z"/>
											</g>
										</g>
									</g>
								</g>
							</g>
							<g transform="translate(0, 417.8407287597656)">
								<path class="st11" d="M-0.3,57.3h623.6"/>
								<g transform="translate(0,5)">
									<line class="st11" x1="0" y1="52.3" x2="0" y2="59.3"/>
									<g id="gtext">
										<text transform="matrix(1 0 0 1 -6.59 71.4289)" class="st12 st13 st14">0</text>
										<text transform="matrix(1 0 0 1 -1.14 71.4289)" class="st12 st13 st14">%</text>
									</g>
								</g>
								<g transform="translate(175.60323580889636,5)">
									<line class="st11" x1="0" y1="52.3" x2="0" y2="59.3"/>
									<g id="gtext_00000180330795574908306710000012217960735372455809_">
										<text transform="matrix(1 0 0 1 -9.315 71.4289)" class="st12 st13 st14">20</text>
										<text transform="matrix(1 0 0 1 1.585 71.4289)" class="st12 st13 st14">%</text>
									</g>
								</g>
								<g transform="translate(351.2064716177927,5)">
									<line class="st11" x1="0" y1="52.3" x2="0" y2="59.3"/>
									<g id="gtext_00000121959683564129098760000013720688090602630586_">
										<text transform="matrix(1 0 0 1 -9.315 71.4289)" class="st12 st13 st14">40</text>
										<text transform="matrix(1 0 0 1 1.585 71.4289)" class="st12 st13 st14">%</text>
									</g>
								</g>
								<g transform="translate(526.809707426689,5)">
									<line class="st11" x1="0" y1="52.3" x2="0" y2="59.3"/>
									<g id="gtext_00000047048634977959059880000008321461868787477430_">
										<text transform="matrix(1 0 0 1 -9.3149 71.4289)" class="st12 st13 st14">60</text>
										<text transform="matrix(1 0 0 1 1.585 71.4289)" class="st12 st13 st14">%</text>
									</g>
								</g>
							</g>
							<g transform="translate(0, 0)">
								<path class="st11" d="M0,57.3v417.6"/>
								<g transform="translate(10,18.992760398171164)">
									<line class="st11" x1="-10" y1="57.3" x2="-10" y2="57.3"/>
								</g>
								<g transform="translate(10,73.25779010723164)">
									<line class="st11" x1="-10" y1="57.3" x2="-10" y2="57.3"/>
								</g>
								<g transform="translate(10,127.5228198162921)">
									<line class="st11" x1="-10" y1="57.3" x2="-10" y2="57.3"/>
								</g>
								<g transform="translate(10,181.78784952535258)">
									<line class="st11" x1="-10" y1="57.3" x2="-10" y2="57.3"/>
								</g>
								<g transform="translate(10,236.05287923441304)">
									<line class="st11" x1="-10" y1="57.3" x2="-10" y2="57.3"/>
								</g>
								<g transform="translate(10,290.3179089434735)">
									<line class="st11" x1="-10" y1="57.3" x2="-10" y2="57.3"/>
								</g>
								<g transform="translate(10,344.58293865253404)">
									<line class="st11" x1="-10" y1="57.3" x2="-10" y2="57.3"/>
								</g>
								<g transform="translate(10,398.8479683615945)">
									<line class="st11" x1="-10" y1="57.3" x2="-10" y2="57.3"/>
								</g>
							</g>
							<g>
								<g transform="translate(-10, 18.992760398171164)">
									<g id="gtext_00000088098190712175166980000011983057545000826265_">
										<text transform="matrix(1 0 0 1 -125.0065 52.3598)" class="st15"><tspan x="0" y="0" class="st12 st16 st17"> Career progression </tspan><tspan x="46.5" y="17.5" class="st12 st16 st17">and support</tspan></text>
									</g>
								</g>
								<g transform="translate(-10, 73.25779010723164)">
									<g id="gtext_00000054944897222757620910000000616004455183183744_">
										<text transform="matrix(1 0 0 1 -44.0082 60.9602)" class="st12 st16 st17">Salary</text>
									</g>
								</g>
								<g transform="translate(-10, 127.5228198162921)">
									<g id="gtext_00000088128942829032593510000010160660237291588279_">
										<text transform="matrix(1 0 0 1 -109.5823 60.96)" class="st12 st16 st17">Company culture</text>
									</g>
								</g>
								<g transform="translate(-10, 181.78784952535258)">
									<g id="gtext_00000034084278532105129300000015282308181764387754_">
										<text transform="matrix(1 0 0 1 -57.171 52.2103)" class="st15"><tspan x="0" y="0" class="st12 st16 st17">Flexible/ </tspan><tspan x="-38.2" y="17.5" class="st12 st16 st17">hybrid working</tspan></text>
									</g>
								</g>
								<g transform="translate(-10, 236.05287923441304)">
									<g id="gtext_00000101811463463615258930000005476097224027299726_">
										<text transform="matrix(1 0 0 1 -109.1571 52.2106)" class="st15"><tspan x="0" y="0" class="st12 st16 st17">Interesting work/ </tspan><tspan x="66.7" y="17.5" class="st12 st16 st17">clients</tspan></text>
									</g>
								</g>
								<g transform="translate(-10, 290.3179089434735)">
									<g id="gtext_00000053526392425979130150000011148803673340286098_">
										<text transform="matrix(1 0 0 1 -87.4944 60.7705)" class="st12 st16 st17">Staff benefits</text>
									</g>
								</g>
								<g transform="translate(-10, 344.58293865253404)">
									<g id="gtext_00000168831417990553229300000008129906018426812304_">
										<text transform="matrix(1 0 0 1 -94.8694 60.9604)" class="st12 st16 st17">Office location</text>
									</g>
								</g>
								<g transform="translate(-10, 398.8479683615945)">
									<g id="gtext_00000006666266925313338150000016810867665690654372_">
										<text transform="matrix(1 0 0 1 -117.3069 54.5202)" class="st12 st16 st17">Diverse leadership</text>
									</g>
								</g>
							</g>
						</g>
					</g>
				</g>
			</g>
		</g>
	</g>
</g>
<rect x="99" y="20.7" class="st18" width="575" height="47"/>
<text transform="matrix(1 0 0 1 236.7932 35.2639)"><tspan x="0" y="0" class="st19 st20">What are your top three priorities  </tspan><tspan x="6.5" y="21.6" class="st19 st20">when choosing a new employer?</tspan></text>
</svg>
