<?xml version="1.0" encoding="utf-8"?>
<!-- Generator: Adobe Illustrator 27.1.0, SVG Export Plug-In . SVG Version: 6.00 Build 0)  -->
<svg version="1.1" id="Layer_1" xmlns="http://www.w3.org/2000/svg" xmlns:xlink="http://www.w3.org/1999/xlink" x="0px" y="0px"
	 viewBox="0 0 772.4 557" style="enable-background:new 0 0 772.4 557;" xml:space="preserve">
<style type="text/css">
	.st0{clip-path:url(#SVGID_00000003062572963662091080000000553298444946952363_);}
	.st1{fill:none;stroke:#333333;stroke-width:0.2;}
	.st2{fill:#2BB3BB;}
	.st3{clip-path:url(#SVGID_00000013887651089662154040000004881094260851302075_);fill:none;}
	.st4{clip-path:url(#SVGID_00000183207153100224896630000002935218192487140247_);fill:none;}
	.st5{clip-path:url(#SVGID_00000122708707871088196320000005022408466872369556_);fill:none;}
	.st6{clip-path:url(#SVGID_00000172418303521394386980000001280641658825375108_);fill:none;}
	.st7{clip-path:url(#SVGID_00000097480614006049525250000017146745257664429206_);fill:none;}
	.st8{clip-path:url(#SVGID_00000049217578340575156670000002185283891565781427_);fill:none;}
	.st9{clip-path:url(#SVGID_00000173124429229553953390000012761232735774394004_);fill:none;}
	.st10{clip-path:url(#SVGID_00000070079163469295888040000001038147340894957727_);fill:none;}
	.st11{fill:none;stroke:#333333;stroke-width:0.5;}
	.st12{fill:#333333;}
	.st13{font-family:'ObjektivMk1-Regular';}
	.st14{font-size:10px;}
	.st15{enable-background:new    ;}
	.st16{font-size:12.5px;}
	.st17{fill:none;}
	.st18{font-family:'ObjektivMk1-Medium';}
	.st19{font-size:18px;}
</style>
<g id="Bar_Chart">
	<g>
		<g>
			<g>
				<defs>
					<rect id="SVGID_1_" y="57" width="800" height="500"/>
				</defs>
				<clipPath id="SVGID_00000169558040485985201030000006769682759066938301_">
					<use xlink:href="#SVGID_1_"  style="overflow:visible;"/>
				</clipPath>
				
					<g transform="translate(0,0)" xmlns:ns1="http://www.datylon.com/dbi" style="clip-path:url(#SVGID_00000169558040485985201030000006769682759066938301_);">
					<g>
						<g transform="translate(192.1276397705078, 30)">
							<g>
								<g transform="translate(0,0)">
									<line class="st1" x1="0" y1="57" x2="0" y2="474.9"/>
								</g>
								<g transform="translate(107.01340004249855,0)">
									<line class="st1" x1="0" y1="57" x2="0" y2="474.9"/>
								</g>
								<g transform="translate(214.0268000849971,0)">
									<line class="st1" x1="0" y1="57" x2="0" y2="474.9"/>
								</g>
								<g transform="translate(321.04020012749567,0)">
									<line class="st1" x1="0" y1="57" x2="0" y2="474.9"/>
								</g>
								<g transform="translate(428.0536001699942,0)">
									<line class="st1" x1="0" y1="57" x2="0" y2="474.9"/>
								</g>
								<g transform="translate(535.0670002124928,0)">
									<line class="st1" x1="0" y1="57" x2="0" y2="474.9"/>
								</g>
							</g>
							<g>
								<g>
									<g>
										<g>
											<path class="st2" d="M0,57h577.9l0,0v38l0,0H0l0,0V57z"/>
											<g>
												<defs>
													<polygon id="SVGID_00000163072256536324793600000016768038829178386338_" points="0,57 577.9,57 577.9,57 577.9,95 
														577.9,95 0,95 0,95 													"/>
												</defs>
												<clipPath id="SVGID_00000018226536746231615350000005285673543835830144_">
													<use xlink:href="#SVGID_00000163072256536324793600000016768038829178386338_"  style="overflow:visible;"/>
												</clipPath>
												<path style="clip-path:url(#SVGID_00000018226536746231615350000005285673543835830144_);fill:none;" d="M0,57h577.9
													l0,0v38l0,0H0l0,0V57z"/>
											</g>
										</g>
									</g>
									<g>
										<g>
											<path class="st2" d="M0,111.3h363.8l0,0v38l0,0H0l0,0C0,149.3,0,111.3,0,111.3z"/>
											<g>
												<defs>
													<polygon id="SVGID_00000146462660158549974510000006584709571654257546_" points="0,111.3 363.8,111.3 363.8,111.3 
														363.8,149.3 363.8,149.3 0,149.3 0,149.3 													"/>
												</defs>
												<clipPath id="SVGID_00000047040309410803159880000017687911666205654958_">
													<use xlink:href="#SVGID_00000146462660158549974510000006584709571654257546_"  style="overflow:visible;"/>
												</clipPath>
												<path style="clip-path:url(#SVGID_00000047040309410803159880000017687911666205654958_);fill:none;" d="M0,111.3h363.8
													l0,0v38l0,0H0l0,0C0,149.3,0,111.3,0,111.3z"/>
											</g>
										</g>
									</g>
									<g>
										<g>
											<path class="st2" d="M0,165.5h363.8l0,0v38l0,0H0l0,0V165.5z"/>
											<g>
												<defs>
													<polygon id="SVGID_00000154404714637843744980000014124408740873462180_" points="0,165.5 363.8,165.5 363.8,165.5 
														363.8,203.5 363.8,203.5 0,203.5 0,203.5 													"/>
												</defs>
												<clipPath id="SVGID_00000170269150481961304430000011221140730653232791_">
													<use xlink:href="#SVGID_00000154404714637843744980000014124408740873462180_"  style="overflow:visible;"/>
												</clipPath>
												<path style="clip-path:url(#SVGID_00000170269150481961304430000011221140730653232791_);fill:none;" d="M0,165.5h363.8
													l0,0v38l0,0H0l0,0V165.5z"/>
											</g>
										</g>
									</g>
									<g>
										<g>
											<path class="st2" d="M0,219.8h321l0,0v38l0,0H0l0,0V219.8z"/>
											<g>
												<defs>
													<polygon id="SVGID_00000018234518316028091050000015747035085777482662_" points="0,219.8 321,219.8 321,219.8 
														321,257.8 321,257.8 0,257.8 0,257.8 													"/>
												</defs>
												<clipPath id="SVGID_00000075853590892471291010000007517352136264173705_">
													<use xlink:href="#SVGID_00000018234518316028091050000015747035085777482662_"  style="overflow:visible;"/>
												</clipPath>
												<path style="clip-path:url(#SVGID_00000075853590892471291010000007517352136264173705_);fill:none;" d="M0,219.8h321
													l0,0v38l0,0H0l0,0V219.8z"/>
											</g>
										</g>
									</g>
									<g>
										<g>
											<path class="st2" d="M0,274.1h214l0,0v38l0,0H0l0,0V274.1z"/>
											<g>
												<defs>
													<polygon id="SVGID_00000099645495805807855000000002919526586232262538_" points="0,274.1 214,274.1 214,274.1 
														214,312.1 214,312.1 0,312.1 0,312.1 													"/>
												</defs>
												<clipPath id="SVGID_00000000212282832181647460000017208767693961924736_">
													<use xlink:href="#SVGID_00000099645495805807855000000002919526586232262538_"  style="overflow:visible;"/>
												</clipPath>
												<path style="clip-path:url(#SVGID_00000000212282832181647460000017208767693961924736_);fill:none;" d="M0,274.1h214
													l0,0v38l0,0H0l0,0V274.1z"/>
											</g>
										</g>
									</g>
									<g>
										<g>
											<path class="st2" d="M0,328.4h214l0,0v38l0,0H0l0,0V328.4z"/>
											<g>
												<defs>
													<polygon id="SVGID_00000134251555370040130660000009683899585336572577_" points="0,328.4 214,328.4 214,328.4 
														214,366.4 214,366.4 0,366.4 0,366.4 													"/>
												</defs>
												<clipPath id="SVGID_00000176728255062191856460000012173274214138426802_">
													<use xlink:href="#SVGID_00000134251555370040130660000009683899585336572577_"  style="overflow:visible;"/>
												</clipPath>
												<path style="clip-path:url(#SVGID_00000176728255062191856460000012173274214138426802_);fill:none;" d="M0,328.4h214
													l0,0v38l0,0H0l0,0V328.4z"/>
											</g>
										</g>
									</g>
									<g>
										<g>
											<path class="st2" d="M0,382.6h42.8l0,0v38l0,0H0l0,0V382.6z"/>
											<g>
												<defs>
													<polygon id="SVGID_00000144301867149997570980000016370584590316647613_" points="0,382.6 42.8,382.6 42.8,382.6 
														42.8,420.6 42.8,420.6 0,420.6 0,420.6 													"/>
												</defs>
												<clipPath id="SVGID_00000011714955487590240340000015499103996459409576_">
													<use xlink:href="#SVGID_00000144301867149997570980000016370584590316647613_"  style="overflow:visible;"/>
												</clipPath>
												<path style="clip-path:url(#SVGID_00000011714955487590240340000015499103996459409576_);fill:none;" d="M0,382.6h42.8
													l0,0v38l0,0H0l0,0V382.6z"/>
											</g>
										</g>
									</g>
									<g>
										<g>
											<path class="st2" d="M0,436.9h21.4l0,0v38l0,0H0l0,0V436.9z"/>
											<g>
												<defs>
													<polygon id="SVGID_00000173158687737766377080000003798989294083139494_" points="0,436.9 21.4,436.9 21.4,436.9 
														21.4,474.9 21.4,474.9 0,474.9 0,474.9 													"/>
												</defs>
												<clipPath id="SVGID_00000121972556915849130670000010381446844733049750_">
													<use xlink:href="#SVGID_00000173158687737766377080000003798989294083139494_"  style="overflow:visible;"/>
												</clipPath>
												<path style="clip-path:url(#SVGID_00000121972556915849130670000010381446844733049750_);fill:none;" d="M0,436.9h21.4
													l0,0v38l0,0H0l0,0V436.9z"/>
											</g>
										</g>
									</g>
								</g>
							</g>
							<g transform="translate(0, 417.896240234375)">
								<path class="st11" d="M-0.3,57h578.1"/>
								<g transform="translate(0,5)">
									<line class="st11" x1="0" y1="52" x2="0" y2="59"/>
									<g id="gtext">
										<text transform="matrix(1 0 0 1 -6.59 71.1)" class="st12 st13 st14">0</text>
										<text transform="matrix(1 0 0 1 -1.14 71.1)" class="st12 st13 st14">%</text>
									</g>
								</g>
								<g transform="translate(107.01340004249855,5)">
									<line class="st11" x1="0" y1="52" x2="0" y2="59"/>
									<g id="gtext_00000049900355164882105990000007072069873392094651_">
										<text transform="matrix(1 0 0 1 -6.59 71.1)" class="st12 st13 st14">5</text>
										<text transform="matrix(1 0 0 1 -1.14 71.1)" class="st12 st13 st14">%</text>
									</g>
								</g>
								<g transform="translate(214.0268000849971,5)">
									<line class="st11" x1="0" y1="52" x2="0" y2="59"/>
									<g id="gtext_00000000217236646976315370000002682630935337613997_">
										<text transform="matrix(1 0 0 1 -9.315 71.1)" class="st12 st13 st14">10</text>
										<text transform="matrix(1 0 0 1 1.585 71.1)" class="st12 st13 st14">%</text>
									</g>
								</g>
								<g transform="translate(321.04020012749567,5)">
									<line class="st11" x1="0" y1="52" x2="0" y2="59"/>
									<g id="gtext_00000032606082268011095120000017763570740446132110_">
										<text transform="matrix(1 0 0 1 -9.3149 71.1)" class="st12 st13 st14">15</text>
										<text transform="matrix(1 0 0 1 1.585 71.1)" class="st12 st13 st14">%</text>
									</g>
								</g>
								<g transform="translate(428.0536001699942,5)">
									<line class="st11" x1="0" y1="52" x2="0" y2="59"/>
									<g id="gtext_00000090979017438789030540000004922527324132778887_">
										<text transform="matrix(1 0 0 1 -9.315 71.1)" class="st12 st13 st14">20</text>
										<text transform="matrix(1 0 0 1 1.585 71.1)" class="st12 st13 st14">%</text>
									</g>
								</g>
								<g transform="translate(535.0670002124928,5)">
									<line class="st11" x1="0" y1="52" x2="0" y2="59"/>
									<g id="gtext_00000155117135271170002130000004443843700194592936_">
										<text transform="matrix(1 0 0 1 -9.315 71.1)" class="st12 st13 st14">25</text>
										<text transform="matrix(1 0 0 1 1.585 71.1)" class="st12 st13 st14">%</text>
									</g>
								</g>
							</g>
							<g transform="translate(0, 0)">
								<path class="st11" d="M0,57v417.6"/>
								<g transform="translate(10,18.995283647017043)">
									<path class="st11" d="M-10,57"/>
								</g>
								<g transform="translate(10,73.26752263849431)">
									<line class="st11" x1="-10" y1="57" x2="-10" y2="57"/>
								</g>
								<g transform="translate(10,127.5397616299716)">
									<line class="st11" x1="-10" y1="57" x2="-10" y2="57"/>
								</g>
								<g transform="translate(10,181.81200062144885)">
									<line class="st11" x1="-10" y1="57" x2="-10" y2="57"/>
								</g>
								<g transform="translate(10,236.08423961292613)">
									<line class="st11" x1="-10" y1="57" x2="-10" y2="57"/>
								</g>
								<g transform="translate(10,290.35647860440343)">
									<line class="st11" x1="-10" y1="57" x2="-10" y2="57"/>
								</g>
								<g transform="translate(10,344.6287175958807)">
									<line class="st11" x1="-10" y1="57" x2="-10" y2="57"/>
								</g>
								<g transform="translate(10,398.900956587358)">
									<line class="st11" x1="-10" y1="57" x2="-10" y2="57"/>
								</g>
							</g>
							<g>
								<g transform="translate(-10, 18.995283647017043)">
									<g id="gtext_00000008835334480086121170000015051363749388192399_">
										<text transform="matrix(1 0 0 1 -121.0737 51.8812)" class="st15"><tspan x="0" y="0" class="st12 st13 st16">Career progression</tspan><tspan x="43.7" y="17.5" class="st12 st13 st16">and support</tspan></text>
									</g>
								</g>
								<g transform="translate(-10, 73.26752263849431)">
									<g id="gtext_00000019641456582390888050000000712147787606408370_">
										<text transform="matrix(1 0 0 1 -178.0854 60.6311)" class="st12 st13 st16">A supportive working culture</text>
									</g>
								</g>
								<g transform="translate(-10, 127.5397616299716)">
									<g id="gtext_00000029015656496991315830000005674129857369072516_">
										<text transform="matrix(1 0 0 1 -158.4482 60.6316)" class="st12 st13 st16">Alignment with my values</text>
									</g>
								</g>
								<g transform="translate(-10, 181.81200062144885)">
									<g id="gtext_00000107586515660925640230000004953999998559302321_">
										<text transform="matrix(1 0 0 1 -117.9609 51.8816)" class="st15"><tspan x="0" y="0" class="st12 st13 st16">Driven by purpose,</tspan><tspan x="33.2" y="17.5" class="st12 st13 st16">not just profit</tspan></text>
									</g>
								</g>
								<g transform="translate(-10, 236.08423961292613)">
									<g id="gtext_00000056402723769696891590000009755682193856892036_">
										<text transform="matrix(1 0 0 1 -172.6783 60.6312)" class="st12 st13 st16">Staff wellbeing as a priority</text>
									</g>
								</g>
								<g transform="translate(-10, 290.35647860440343)">
									<g id="gtext_00000010307551673636277440000001625802932701589894_">
										<text transform="matrix(1 0 0 1 -139.7857 51.8817)" class="st15"><tspan x="0" y="0" class="st12 st13 st16">Diversity and Inclusion</tspan><tspan x="6.7" y="17.5" class="st12 st13 st16">as a strategic priority</tspan></text>
									</g>
								</g>
								<g transform="translate(-10, 344.6287175958807)">
									<g id="gtext_00000130616730524945036640000009960719231095030931_">
										<text transform="matrix(1 0 0 1 -38.7996 60.631)" class="st12 st13 st16">Other</text>
									</g>
								</g>
								<g transform="translate(-10, 398.900956587358)">
									<g id="gtext_00000088090467948937709270000014366987189488317366_">
										<text transform="matrix(1 0 0 1 -122.6734 60.6316)" class="st12 st13 st16">Diverse role models</text>
									</g>
								</g>
							</g>
						</g>
					</g>
				</g>
			</g>
		</g>
	</g>
</g>
<rect x="98.7" y="25" class="st17" width="575" height="47"/>
<text transform="matrix(1 0 0 1 243.369 39.5801)"><tspan x="0" y="0" class="st18 st19">What would make somewhere a </tspan><tspan x="-66.4" y="21.6" class="st18 st19">Most Loved Workplace for you? (pick one only)</tspan></text>
</svg>
