<?xml version="1.0" encoding="utf-8"?>
<!-- Generator: Adobe Illustrator 27.1.0, SVG Export Plug-In . SVG Version: 6.00 Build 0)  -->
<svg version="1.1" id="Layer_1" xmlns="http://www.w3.org/2000/svg" xmlns:xlink="http://www.w3.org/1999/xlink" x="0px" y="0px"
	 viewBox="0 0 772.4 557" style="enable-background:new 0 0 772.4 557;" xml:space="preserve">
<style type="text/css">
	.st0{clip-path:url(#SVGID_00000117644491393489916650000014878531300917096376_);}
	.st1{fill:none;stroke:#333333;stroke-width:0.2;}
	.st2{fill:#2BB3BB;}
	.st3{clip-path:url(#SVGID_00000156548621744339199360000015944180203506300083_);fill:none;}
	.st4{clip-path:url(#SVGID_00000055678634985943886700000013514324340828321164_);fill:none;}
	.st5{clip-path:url(#SVGID_00000053505397700248756570000018082715210930442636_);fill:none;}
	.st6{clip-path:url(#SVGID_00000060714445989017603370000008682319599571246257_);fill:none;}
	.st7{clip-path:url(#SVGID_00000040561550780521489630000002066653585767437990_);fill:none;}
	.st8{clip-path:url(#SVGID_00000026141700897329696240000005295272551090708666_);fill:none;}
	.st9{clip-path:url(#SVGID_00000096025650359483213760000000672550493526869143_);fill:none;}
	.st10{clip-path:url(#SVGID_00000005231026216256903800000013990757480586151053_);fill:none;}
	.st11{fill:none;stroke:#333333;stroke-width:0.5;}
	.st12{fill:#333333;}
	.st13{font-family:'ObjektivMk1-Regular';}
	.st14{font-size:10px;}
	.st15{enable-background:new    ;}
	.st16{font-size:12.5px;}
	.st17{fill:none;}
	.st18{font-family:'ObjektivMk1-Medium';}
	.st19{font-size:18px;}
</style>
<g id="Bar_Chart">
	<g>
		<g>
			<g>
				<defs>
					<rect id="SVGID_1_" y="57" width="800" height="500"/>
				</defs>
				<clipPath id="SVGID_00000100375640666123525610000004856024178030842044_">
					<use xlink:href="#SVGID_1_"  style="overflow:visible;"/>
				</clipPath>
				
					<g transform="translate(0,0)" xmlns:ns1="http://www.datylon.com/dbi" style="clip-path:url(#SVGID_00000100375640666123525610000004856024178030842044_);">
					<g>
						<g transform="translate(192.1276397705078, 30)">
							<g>
								<g transform="translate(0,0)">
									<line class="st1" x1="0" y1="57" x2="0" y2="474.9"/>
								</g>
								<g transform="translate(107.01340004249855,0)">
									<line class="st1" x1="0" y1="57" x2="0" y2="474.9"/>
								</g>
								<g transform="translate(214.0268000849971,0)">
									<line class="st1" x1="0" y1="57" x2="0" y2="474.9"/>
								</g>
								<g transform="translate(321.04020012749567,0)">
									<line class="st1" x1="0" y1="57" x2="0" y2="474.9"/>
								</g>
								<g transform="translate(428.0536001699942,0)">
									<line class="st1" x1="0" y1="57" x2="0" y2="474.9"/>
								</g>
								<g transform="translate(535.0670002124928,0)">
									<line class="st1" x1="0" y1="57" x2="0" y2="474.9"/>
								</g>
							</g>
							<g>
								<g>
									<g>
										<g>
											<path class="st2" d="M0,57h577.9l0,0v38l0,0H0l0,0V57z"/>
											<g>
												<defs>
													<polygon id="SVGID_00000011715139089940252040000013493443981949672365_" points="0,57 577.9,57 577.9,57 577.9,95 
														577.9,95 0,95 0,95 													"/>
												</defs>
												<clipPath id="SVGID_00000113326837568701705580000015247579445354310306_">
													<use xlink:href="#SVGID_00000011715139089940252040000013493443981949672365_"  style="overflow:visible;"/>
												</clipPath>
												<path style="clip-path:url(#SVGID_00000113326837568701705580000015247579445354310306_);fill:none;" d="M0,57h577.9
													l0,0v38l0,0H0l0,0V57z"/>
											</g>
										</g>
									</g>
									<g>
										<g>
											<path class="st2" d="M0,111.3h363.8l0,0v38l0,0H0l0,0C0,149.3,0,111.3,0,111.3z"/>
											<g>
												<defs>
													<polygon id="SVGID_00000044166746939211899080000013861012489219750046_" points="0,111.3 363.8,111.3 363.8,111.3 
														363.8,149.3 363.8,149.3 0,149.3 0,149.3 													"/>
												</defs>
												<clipPath id="SVGID_00000108302528929441566710000006326902510872632711_">
													<use xlink:href="#SVGID_00000044166746939211899080000013861012489219750046_"  style="overflow:visible;"/>
												</clipPath>
												<path style="clip-path:url(#SVGID_00000108302528929441566710000006326902510872632711_);fill:none;" d="M0,111.3h363.8
													l0,0v38l0,0H0l0,0C0,149.3,0,111.3,0,111.3z"/>
											</g>
										</g>
									</g>
									<g>
										<g>
											<path class="st2" d="M0,165.5h363.8l0,0v38l0,0H0l0,0V165.5z"/>
											<g>
												<defs>
													<polygon id="SVGID_00000182522116021908729690000011421623983254601888_" points="0,165.5 363.8,165.5 363.8,165.5 
														363.8,203.5 363.8,203.5 0,203.5 0,203.5 													"/>
												</defs>
												<clipPath id="SVGID_00000081642329309158244450000013369301736915826569_">
													<use xlink:href="#SVGID_00000182522116021908729690000011421623983254601888_"  style="overflow:visible;"/>
												</clipPath>
												<path style="clip-path:url(#SVGID_00000081642329309158244450000013369301736915826569_);fill:none;" d="M0,165.5h363.8
													l0,0v38l0,0H0l0,0V165.5z"/>
											</g>
										</g>
									</g>
									<g>
										<g>
											<path class="st2" d="M0,219.8h321l0,0v38l0,0H0l0,0V219.8z"/>
											<g>
												<defs>
													<polygon id="SVGID_00000001642274891289777340000009559821264304369813_" points="0,219.8 321,219.8 321,219.8 
														321,257.8 321,257.8 0,257.8 0,257.8 													"/>
												</defs>
												<clipPath id="SVGID_00000025430910431459403280000015154041229994253452_">
													<use xlink:href="#SVGID_00000001642274891289777340000009559821264304369813_"  style="overflow:visible;"/>
												</clipPath>
												<path style="clip-path:url(#SVGID_00000025430910431459403280000015154041229994253452_);fill:none;" d="M0,219.8h321
													l0,0v38l0,0H0l0,0V219.8z"/>
											</g>
										</g>
									</g>
									<g>
										<g>
											<path class="st2" d="M0,274.1h214l0,0v38l0,0H0l0,0V274.1z"/>
											<g>
												<defs>
													<polygon id="SVGID_00000176035787137683580230000014312019651183344773_" points="0,274.1 214,274.1 214,274.1 
														214,312.1 214,312.1 0,312.1 0,312.1 													"/>
												</defs>
												<clipPath id="SVGID_00000104689348400222097900000009112241209550275519_">
													<use xlink:href="#SVGID_00000176035787137683580230000014312019651183344773_"  style="overflow:visible;"/>
												</clipPath>
												<path style="clip-path:url(#SVGID_00000104689348400222097900000009112241209550275519_);fill:none;" d="M0,274.1h214
													l0,0v38l0,0H0l0,0V274.1z"/>
											</g>
										</g>
									</g>
									<g>
										<g>
											<path class="st2" d="M0,328.4h214l0,0v38l0,0H0l0,0V328.4z"/>
											<g>
												<defs>
													<polygon id="SVGID_00000161615248128160936390000018162477197722750614_" points="0,328.4 214,328.4 214,328.4 
														214,366.4 214,366.4 0,366.4 0,366.4 													"/>
												</defs>
												<clipPath id="SVGID_00000024709504484631115200000005390019080934579101_">
													<use xlink:href="#SVGID_00000161615248128160936390000018162477197722750614_"  style="overflow:visible;"/>
												</clipPath>
												<path style="clip-path:url(#SVGID_00000024709504484631115200000005390019080934579101_);fill:none;" d="M0,328.4h214
													l0,0v38l0,0H0l0,0V328.4z"/>
											</g>
										</g>
									</g>
									<g>
										<g>
											<path class="st2" d="M0,382.6h42.8l0,0v38l0,0H0l0,0V382.6z"/>
											<g>
												<defs>
													<polygon id="SVGID_00000104699609285994153870000000633890256639224710_" points="0,382.6 42.8,382.6 42.8,382.6 
														42.8,420.6 42.8,420.6 0,420.6 0,420.6 													"/>
												</defs>
												<clipPath id="SVGID_00000178199980617364884860000008674767606330407587_">
													<use xlink:href="#SVGID_00000104699609285994153870000000633890256639224710_"  style="overflow:visible;"/>
												</clipPath>
												<path style="clip-path:url(#SVGID_00000178199980617364884860000008674767606330407587_);fill:none;" d="M0,382.6h42.8
													l0,0v38l0,0H0l0,0V382.6z"/>
											</g>
										</g>
									</g>
									<g>
										<g>
											<path class="st2" d="M0,436.9h21.4l0,0v38l0,0H0l0,0V436.9z"/>
											<g>
												<defs>
													<polygon id="SVGID_00000142880296979932442480000008358816419527612831_" points="0,436.9 21.4,436.9 21.4,436.9 
														21.4,474.9 21.4,474.9 0,474.9 0,474.9 													"/>
												</defs>
												<clipPath id="SVGID_00000121237998037726925400000003127668255174002617_">
													<use xlink:href="#SVGID_00000142880296979932442480000008358816419527612831_"  style="overflow:visible;"/>
												</clipPath>
												<path style="clip-path:url(#SVGID_00000121237998037726925400000003127668255174002617_);fill:none;" d="M0,436.9h21.4
													l0,0v38l0,0H0l0,0V436.9z"/>
											</g>
										</g>
									</g>
								</g>
							</g>
							<g transform="translate(0, 417.896240234375)">
								<path class="st11" d="M-0.3,57h578.1"/>
								<g transform="translate(0,5)">
									<line class="st11" x1="0" y1="52" x2="0" y2="59"/>
									<g id="gtext">
										<text transform="matrix(1 0 0 1 -6.59 71.1)" class="st12 st13 st14">0</text>
										<text transform="matrix(1 0 0 1 -1.14 71.1)" class="st12 st13 st14">%</text>
									</g>
								</g>
								<g transform="translate(107.01340004249855,5)">
									<line class="st11" x1="0" y1="52" x2="0" y2="59"/>
									<g id="gtext_00000049900355164882105990000007072069873392094651_">
										<text transform="matrix(1 0 0 1 -6.59 71.1)" class="st12 st13 st14">5</text>
										<text transform="matrix(1 0 0 1 -1.14 71.1)" class="st12 st13 st14">%</text>
									</g>
								</g>
								<g transform="translate(214.0268000849971,5)">
									<line class="st11" x1="0" y1="52" x2="0" y2="59"/>
									<g id="gtext_00000000217236646976315370000002682630935337613997_">
										<text transform="matrix(1 0 0 1 -9.315 71.1)" class="st12 st13 st14">10</text>
										<text transform="matrix(1 0 0 1 1.585 71.1)" class="st12 st13 st14">%</text>
									</g>
								</g>
								<g transform="translate(321.04020012749567,5)">
									<line class="st11" x1="0" y1="52" x2="0" y2="59"/>
									<g id="gtext_00000032606082268011095120000017763570740446132110_">
										<text transform="matrix(1 0 0 1 -9.3149 71.1)" class="st12 st13 st14">15</text>
										<text transform="matrix(1 0 0 1 1.585 71.1)" class="st12 st13 st14">%</text>
									</g>
								</g>
								<g transform="translate(428.0536001699942,5)">
									<line class="st11" x1="0" y1="52" x2="0" y2="59"/>
									<g id="gtext_00000090979017438789030540000004922527324132778887_">
										<text transform="matrix(1 0 0 1 -9.315 71.1)" class="st12 st13 st14">20</text>
										<text transform="matrix(1 0 0 1 1.585 71.1)" class="st12 st13 st14">%</text>
									</g>
								</g>
								<g transform="translate(535.0670002124928,5)">
									<line class="st11" x1="0" y1="52" x2="0" y2="59"/>
									<g id="gtext_00000155117135271170002130000004443843700194592936_">
										<text transform="matrix(1 0 0 1 -9.315 71.1)" class="st12 st13 st14">25</text>
										<text transform="matrix(1 0 0 1 1.585 71.1)" class="st12 st13 st14">%</text>
									</g>
								</g>
							</g>
							<g transform="translate(0, 0)">
								<path class="st11" d="M0,57v417.6"/>
								<g transform="translate(10,18.995283647017043)">
									<path class="st11" d="M-10,57"/>
								</g>
								<g transform="translate(10,73.26752263849431)">
									<line class="st11" x1="-10" y1="57" x2="-10" y2="57"/>
								</g>
								<g transform="translate(10,127.5397616299716)">
									<line class="st11" x1="-10" y1="57" x2="-10" y2="57"/>
								</g>
								<g transform="translate(10,181.81200062144885)">
									<line class="st11" x1="-10" y1="57" x2="-10" y2="57"/>
								</g>
								<g transform="translate(10,236.08423961292613)">
									<line class="st11" x1="-10" y1="57" x2="-10" y2="57"/>
								</g>
								<g transform="translate(10,290.35647860440343)">
									<line class="st11" x1="-10" y1="57" x2="-10" y2="57"/>
								</g>
								<g transform="translate(10,344.6287175958807)">
									<line class="st11" x1="-10" y1="57" x2="-10" y2="57"/>
								</g>
								<g transform="translate(10,398.900956587358)">
									<line class="st11" x1="-10" y1="57" x2="-10" y2="57"/>
								</g>
							</g>
							<g>
								<g transform="translate(-10, 18.995283647017043)">
									<g id="gtext_00000008835334480086121170000015051363749388192399_">
										<text transform="matrix(1 0 0 1 -121.0737 51.8812)" class="st15"><tspan x="0" y="0" class="st12 st13 st16">Career progression</tspan><tspan x="43.7" y="17.5" class="st12 st13 st16">and support</tspan></text>
									</g>
								</g>
								<g transform="translate(-10, 73.26752263849431)">
									<g id="gtext_00000019641456582390888050000000712147787606408370_">
										<text transform="matrix(1 0 0 1 -178.0854 60.6311)" class="st12 st13 st16">A supportive working culture</text>
									</g>
								</g>
								<g transform="translate(-10, 127.5397616299716)">
									<g id="gtext_00000029015656496991315830000005674129857369072516_">
										<text transform="matrix(1 0 0 1 -158.4482 60.6316)" class="st12 st13 st16">Alignment with my values</text>
									</g>
								</g>
								<g transform="translate(-10, 181.81200062144885)">
									<g id="gtext_00000107586515660925640230000004953999998559302321_">
										<text transform="matrix(1 0 0 1 -117.9609 51.8816)" class="st15"><tspan x="0" y="0" class="st12 st13 st16">Driven by purpose,</tspan><tspan x="33.2" y="17.5" class="st12 st13 st16">not just profit</tspan></text>
									</g>
								</g>
								<g transform="translate(-10, 236.08423961292613)">
									<g id="gtext_00000056402723769696891590000009755682193856892036_">
										<text transform="matrix(1 0 0 1 -172.6783 60.6312)" class="st12 st13 st16">Staff wellbeing as a priority</text>
									</g>
								</g>
								<g transform="translate(-10, 290.35647860440343)">
									<g id="gtext_00000010307551673636277440000001625802932701589894_">
										<text transform="matrix(1 0 0 1 -139.7857 51.8817)" class="st15"><tspan x="0" y="0" class="st12 st13 st16">Diversity and Inclusion</tspan><tspan x="6.7" y="17.5" class="st12 st13 st16">as a strategic priority</tspan></text>
									</g>
								</g>
								<g transform="translate(-10, 344.6287175958807)">
									<g id="gtext_00000130616730524945036640000009960719231095030931_">
										<text transform="matrix(1 0 0 1 -38.7996 60.631)" class="st12 st13 st16">Other</text>
									</g>
								</g>
								<g transform="translate(-10, 398.900956587358)">
									<g id="gtext_00000088090467948937709270000014366987189488317366_">
										<text transform="matrix(1 0 0 1 -122.6734 60.6316)" class="st12 st13 st16">Diverse role models</text>
									</g>
								</g>
							</g>
						</g>
					</g>
				</g>
			</g>
		</g>
	</g>
</g>
<rect x="98.7" y="25" class="st17" width="575" height="47"/>
<text transform="matrix(1 0 0 1 243.369 39.5801)"><tspan x="0" y="0" class="st18 st19">What would make somewhere a </tspan><tspan x="-66.4" y="21.6" class="st18 st19">Most Loved Workplace for you? (pick one only)</tspan></text>
</svg>
