<svg version="1.1" viewBox="0.0 0.0 892.0 551.0" fill="none" stroke="none" stroke-linecap="square" stroke-miterlimit="10" width="892" height="551" xmlns:xlink="http://www.w3.org/1999/xlink" xmlns="http://www.w3.org/2000/svg"><path fill="#ffffff" d="M0 0L892.0 0L892.0 551.0L0 551.0L0 0Z" fill-rule="nonzero"/><path stroke="#cccccc" stroke-width="1.0" stroke-linecap="butt" d="M100.5 471.5L864.5 471.5" fill-rule="nonzero"/><path stroke="#cccccc" stroke-width="1.0" stroke-linecap="butt" d="M100.5 381.5L864.5 381.5" fill-rule="nonzero"/><path stroke="#cccccc" stroke-width="1.0" stroke-linecap="butt" d="M100.5 291.5L864.5 291.5" fill-rule="nonzero"/><path stroke="#cccccc" stroke-width="1.0" stroke-linecap="butt" d="M100.5 200.5L864.5 200.5" fill-rule="nonzero"/><path stroke="#cccccc" stroke-width="1.0" stroke-linecap="butt" d="M100.5 110.5L864.5 110.5" fill-rule="nonzero"/><clipPath id="id_0"><path d="M100.55 109.28333L864.45 109.28333L864.45 471.45L100.55 471.45L100.55 109.28333Z" clip-rule="nonzero"/></clipPath><path stroke="#000000" stroke-width="2.0" stroke-linecap="butt" stroke-opacity="0.0" clip-path="url(#id_0)" d="M153.0 471.0L138.0 471.0L138.0 456.0C138.0 454.89542 138.89543 454.0 140.0 454.0L151.0 454.0C152.10457 454.0 153.0 454.89542 153.0 456.0Z" fill-rule="nonzero"/><path fill="#4285f4" clip-path="url(#id_0)" d="M153.0 471.0L138.0 471.0L138.0 456.0C138.0 454.89542 138.89543 454.0 140.0 454.0L151.0 454.0C152.10457 454.0 153.0 454.89542 153.0 456.0Z" fill-rule="nonzero"/><path stroke="#000000" stroke-width="2.0" stroke-linecap="butt" stroke-opacity="0.0" clip-path="url(#id_0)" d="M257.0 471.0L242.0 471.0L242.0 330.0C242.0 328.89542 242.89543 328.0 244.0 328.0L255.0 328.0C256.10458 328.0 257.0 328.89542 257.0 330.0Z" fill-rule="nonzero"/><path fill="#4285f4" clip-path="url(#id_0)" d="M257.0 471.0L242.0 471.0L242.0 330.0C242.0 328.89542 242.89543 328.0 244.0 328.0L255.0 328.0C256.10458 328.0 257.0 328.89542 257.0 330.0Z" fill-rule="nonzero"/><path stroke="#000000" stroke-width="2.0" stroke-linecap="butt" stroke-opacity="0.0" clip-path="url(#id_0)" d="M361.0 471.0L346.0 471.0L346.0 278.0C346.0 276.89542 346.89542 276.0 348.0 276.0L359.0 276.0C360.10458 276.0 361.0 276.89542 361.0 278.0Z" fill-rule="nonzero"/><path fill="#4285f4" clip-path="url(#id_0)" d="M361.0 471.0L346.0 471.0L346.0 278.0C346.0 276.89542 346.89542 276.0 348.0 276.0L359.0 276.0C360.10458 276.0 361.0 276.89542 361.0 278.0Z" fill-rule="nonzero"/><path stroke="#000000" stroke-width="2.0" stroke-linecap="butt" stroke-opacity="0.0" clip-path="url(#id_0)" d="M465.0 471.0L450.0 471.0L450.0 371.0C450.0 369.89542 450.89542 369.0 452.0 369.0L463.0 369.0C464.10458 369.0 465.0 369.89542 465.0 371.0Z" fill-rule="nonzero"/><path fill="#4285f4" clip-path="url(#id_0)" d="M465.0 471.0L450.0 471.0L450.0 371.0C450.0 369.89542 450.89542 369.0 452.0 369.0L463.0 369.0C464.10458 369.0 465.0 369.89542 465.0 371.0Z" fill-rule="nonzero"/><path stroke="#000000" stroke-width="2.0" stroke-linecap="butt" stroke-opacity="0.0" clip-path="url(#id_0)" d="M568.0 471.0L553.0 471.0L553.0 146.0C553.0 144.89543 553.89545 144.0 555.0 144.0L566.0 144.0C567.10455 144.0 568.0 144.89543 568.0 146.0Z" fill-rule="nonzero"/><path fill="#4285f4" clip-path="url(#id_0)" d="M568.0 471.0L553.0 471.0L553.0 146.0C553.0 144.89543 553.89545 144.0 555.0 144.0L566.0 144.0C567.10455 144.0 568.0 144.89543 568.0 146.0Z" fill-rule="nonzero"/><path stroke="#000000" stroke-width="2.0" stroke-linecap="butt" stroke-opacity="0.0" clip-path="url(#id_0)" d="M776.0 471.0L761.0 471.0L761.0 178.0C761.0 176.89543 761.89545 176.0 763.0 176.0L774.0 176.0C775.10455 176.0 776.0 176.89543 776.0 178.0Z" fill-rule="nonzero"/><path fill="#4285f4" clip-path="url(#id_0)" d="M776.0 471.0L761.0 471.0L761.0 178.0C761.0 176.89543 761.89545 176.0 763.0 176.0L774.0 176.0C775.10455 176.0 776.0 176.89543 776.0 178.0Z" fill-rule="nonzero"/><path stroke="#000000" stroke-width="2.0" stroke-linecap="butt" stroke-opacity="0.0" clip-path="url(#id_0)" d="M170.0 471.0L155.0 471.0L155.0 470.0C155.0 469.44772 155.44771 469.0 156.0 469.0L169.0 469.0C169.55229 469.0 170.0 469.44772 170.0 470.0Z" fill-rule="nonzero"/><path fill="#ea4335" clip-path="url(#id_0)" d="M170.0 471.0L155.0 471.0L155.0 470.0C155.0 469.44772 155.44771 469.0 156.0 469.0L169.0 469.0C169.55229 469.0 170.0 469.44772 170.0 470.0Z" fill-rule="nonzero"/><path stroke="#000000" stroke-width="2.0" stroke-linecap="butt" stroke-opacity="0.0" clip-path="url(#id_0)" d="M274.0 471.0L259.0 471.0L259.0 295.0C259.0 293.89542 259.89542 293.0 261.0 293.0L272.0 293.0C273.10458 293.0 274.0 293.89542 274.0 295.0Z" fill-rule="nonzero"/><path fill="#ea4335" clip-path="url(#id_0)" d="M274.0 471.0L259.0 471.0L259.0 295.0C259.0 293.89542 259.89542 293.0 261.0 293.0L272.0 293.0C273.10458 293.0 274.0 293.89542 274.0 295.0Z" fill-rule="nonzero"/><path stroke="#000000" stroke-width="2.0" stroke-linecap="butt" stroke-opacity="0.0" clip-path="url(#id_0)" d="M378.0 471.0L363.0 471.0L363.0 315.0C363.0 313.89542 363.89542 313.0 365.0 313.0L376.0 313.0C377.10458 313.0 378.0 313.89542 378.0 315.0Z" fill-rule="nonzero"/><path fill="#ea4335" clip-path="url(#id_0)" d="M378.0 471.0L363.0 471.0L363.0 315.0C363.0 313.89542 363.89542 313.0 365.0 313.0L376.0 313.0C377.10458 313.0 378.0 313.89542 378.0 315.0Z" fill-rule="nonzero"/><path stroke="#000000" stroke-width="2.0" stroke-linecap="butt" stroke-opacity="0.0" clip-path="url(#id_0)" d="M482.0 471.0L467.0 471.0L467.0 423.0C467.0 421.89542 467.89542 421.0 469.0 421.0L480.0 421.0C481.10458 421.0 482.0 421.89542 482.0 423.0Z" fill-rule="nonzero"/><path fill="#ea4335" clip-path="url(#id_0)" d="M482.0 471.0L467.0 471.0L467.0 423.0C467.0 421.89542 467.89542 421.0 469.0 421.0L480.0 421.0C481.10458 421.0 482.0 421.89542 482.0 423.0Z" fill-rule="nonzero"/><path stroke="#000000" stroke-width="2.0" stroke-linecap="butt" stroke-opacity="0.0" clip-path="url(#id_0)" d="M585.0 471.0L570.0 471.0L570.0 198.0C570.0 196.89543 570.89545 196.0 572.0 196.0L583.0 196.0C584.10455 196.0 585.0 196.89543 585.0 198.0Z" fill-rule="nonzero"/><path fill="#ea4335" clip-path="url(#id_0)" d="M585.0 471.0L570.0 471.0L570.0 198.0C570.0 196.89543 570.89545 196.0 572.0 196.0L583.0 196.0C584.10455 196.0 585.0 196.89543 585.0 198.0Z" fill-rule="nonzero"/><path stroke="#000000" stroke-width="2.0" stroke-linecap="butt" stroke-opacity="0.0" clip-path="url(#id_0)" d="M689.0 471.0L674.0 471.0L674.0 121.0C674.0 119.89543 674.89545 119.0 676.0 119.0L687.0 119.0C688.10455 119.0 689.0 119.89543 689.0 121.0Z" fill-rule="nonzero"/><path fill="#ea4335" clip-path="url(#id_0)" d="M689.0 471.0L674.0 471.0L674.0 121.0C674.0 119.89543 674.89545 119.0 676.0 119.0L687.0 119.0C688.10455 119.0 689.0 119.89543 689.0 121.0Z" fill-rule="nonzero"/><path stroke="#000000" stroke-width="2.0" stroke-linecap="butt" stroke-opacity="0.0" clip-path="url(#id_0)" d="M793.0 471.0L778.0 471.0L778.0 150.0C778.0 148.89543 778.89545 148.0 780.0 148.0L791.0 148.0C792.10455 148.0 793.0 148.89543 793.0 150.0Z" fill-rule="nonzero"/><path fill="#ea4335" clip-path="url(#id_0)" d="M793.0 471.0L778.0 471.0L778.0 150.0C778.0 148.89543 778.89545 148.0 780.0 148.0L791.0 148.0C792.10455 148.0 793.0 148.89543 793.0 150.0Z" fill-rule="nonzero"/><path stroke="#000000" stroke-width="2.0" stroke-linecap="butt" stroke-opacity="0.0" clip-path="url(#id_0)" d="M187.0 471.0L172.0 471.0L172.0 435.0C172.0 433.89542 172.89543 433.0 174.0 433.0L185.0 433.0C186.10457 433.0 187.0 433.89542 187.0 435.0Z" fill-rule="nonzero"/><path fill="#fbbc04" clip-path="url(#id_0)" d="M187.0 471.0L172.0 471.0L172.0 435.0C172.0 433.89542 172.89543 433.0 174.0 433.0L185.0 433.0C186.10457 433.0 187.0 433.89542 187.0 435.0Z" fill-rule="nonzero"/><path stroke="#000000" stroke-width="2.0" stroke-linecap="butt" stroke-opacity="0.0" clip-path="url(#id_0)" d="M291.0 471.0L276.0 471.0L276.0 291.0C276.0 289.89542 276.89542 289.0 278.0 289.0L289.0 289.0C290.10458 289.0 291.0 289.89542 291.0 291.0Z" fill-rule="nonzero"/><path fill="#fbbc04" clip-path="url(#id_0)" d="M291.0 471.0L276.0 471.0L276.0 291.0C276.0 289.89542 276.89542 289.0 278.0 289.0L289.0 289.0C290.10458 289.0 291.0 289.89542 291.0 291.0Z" fill-rule="nonzero"/><path stroke="#000000" stroke-width="2.0" stroke-linecap="butt" stroke-opacity="0.0" clip-path="url(#id_0)" d="M395.0 471.0L380.0 471.0L380.0 321.0C380.0 319.89542 380.89542 319.0 382.0 319.0L393.0 319.0C394.10458 319.0 395.0 319.89542 395.0 321.0Z" fill-rule="nonzero"/><path fill="#fbbc04" clip-path="url(#id_0)" d="M395.0 471.0L380.0 471.0L380.0 321.0C380.0 319.89542 380.89542 319.0 382.0 319.0L393.0 319.0C394.10458 319.0 395.0 319.89542 395.0 321.0Z" fill-rule="nonzero"/><path stroke="#000000" stroke-width="2.0" stroke-linecap="butt" stroke-opacity="0.0" clip-path="url(#id_0)" d="M499.0 471.0L484.0 471.0L484.0 399.0C484.0 397.89542 484.89542 397.0 486.0 397.0L497.0 397.0C498.10458 397.0 499.0 397.89542 499.0 399.0Z" fill-rule="nonzero"/><path fill="#fbbc04" clip-path="url(#id_0)" d="M499.0 471.0L484.0 471.0L484.0 399.0C484.0 397.89542 484.89542 397.0 486.0 397.0L497.0 397.0C498.10458 397.0 499.0 397.89542 499.0 399.0Z" fill-rule="nonzero"/><path stroke="#000000" stroke-width="2.0" stroke-linecap="butt" stroke-opacity="0.0" clip-path="url(#id_0)" d="M602.0 471.0L587.0 471.0L587.0 204.0C587.0 202.89543 587.89545 202.0 589.0 202.0L600.0 202.0C601.10455 202.0 602.0 202.89543 602.0 204.0Z" fill-rule="nonzero"/><path fill="#fbbc04" clip-path="url(#id_0)" d="M602.0 471.0L587.0 471.0L587.0 204.0C587.0 202.89543 587.89545 202.0 589.0 202.0L600.0 202.0C601.10455 202.0 602.0 202.89543 602.0 204.0Z" fill-rule="nonzero"/><path stroke="#000000" stroke-width="2.0" stroke-linecap="butt" stroke-opacity="0.0" clip-path="url(#id_0)" d="M706.0 471.0L691.0 471.0L691.0 121.0C691.0 119.89543 691.89545 119.0 693.0 119.0L704.0 119.0C705.10455 119.0 706.0 119.89543 706.0 121.0Z" fill-rule="nonzero"/><path fill="#fbbc04" clip-path="url(#id_0)" d="M706.0 471.0L691.0 471.0L691.0 121.0C691.0 119.89543 691.89545 119.0 693.0 119.0L704.0 119.0C705.10455 119.0 706.0 119.89543 706.0 121.0Z" fill-rule="nonzero"/><path stroke="#000000" stroke-width="2.0" stroke-linecap="butt" stroke-opacity="0.0" clip-path="url(#id_0)" d="M810.0 471.0L795.0 471.0L795.0 149.0C795.0 147.89543 795.89545 147.0 797.0 147.0L808.0 147.0C809.10455 147.0 810.0 147.89543 810.0 149.0Z" fill-rule="nonzero"/><path fill="#fbbc04" clip-path="url(#id_0)" d="M810.0 471.0L795.0 471.0L795.0 149.0C795.0 147.89543 795.89545 147.0 797.0 147.0L808.0 147.0C809.10455 147.0 810.0 147.89543 810.0 149.0Z" fill-rule="nonzero"/><path stroke="#000000" stroke-width="2.0" stroke-linecap="butt" stroke-opacity="0.0" clip-path="url(#id_0)" d="M204.0 471.0L189.0 471.0L189.0 431.0C189.0 429.89542 189.89543 429.0 191.0 429.0L202.0 429.0C203.10457 429.0 204.0 429.89542 204.0 431.0Z" fill-rule="nonzero"/><path fill="#34a853" clip-path="url(#id_0)" d="M204.0 471.0L189.0 471.0L189.0 431.0C189.0 429.89542 189.89543 429.0 191.0 429.0L202.0 429.0C203.10457 429.0 204.0 429.89542 204.0 431.0Z" fill-rule="nonzero"/><path stroke="#000000" stroke-width="2.0" stroke-linecap="butt" stroke-opacity="0.0" clip-path="url(#id_0)" d="M308.0 471.0L293.0 471.0L293.0 307.0C293.0 305.89542 293.89542 305.0 295.0 305.0L306.0 305.0C307.10458 305.0 308.0 305.89542 308.0 307.0Z" fill-rule="nonzero"/><path fill="#34a853" clip-path="url(#id_0)" d="M308.0 471.0L293.0 471.0L293.0 307.0C293.0 305.89542 293.89542 305.0 295.0 305.0L306.0 305.0C307.10458 305.0 308.0 305.89542 308.0 307.0Z" fill-rule="nonzero"/><path stroke="#000000" stroke-width="2.0" stroke-linecap="butt" stroke-opacity="0.0" clip-path="url(#id_0)" d="M412.0 471.0L397.0 471.0L397.0 305.0C397.0 303.89542 397.89542 303.0 399.0 303.0L410.0 303.0C411.10458 303.0 412.0 303.89542 412.0 305.0Z" fill-rule="nonzero"/><path fill="#34a853" clip-path="url(#id_0)" d="M412.0 471.0L397.0 471.0L397.0 305.0C397.0 303.89542 397.89542 303.0 399.0 303.0L410.0 303.0C411.10458 303.0 412.0 303.89542 412.0 305.0Z" fill-rule="nonzero"/><path stroke="#000000" stroke-width="2.0" stroke-linecap="butt" stroke-opacity="0.0" clip-path="url(#id_0)" d="M516.0 471.0L501.0 471.0L501.0 407.0C501.0 405.89542 501.89542 405.0 503.0 405.0L514.0 405.0C515.10455 405.0 516.0 405.89542 516.0 407.0Z" fill-rule="nonzero"/><path fill="#34a853" clip-path="url(#id_0)" d="M516.0 471.0L501.0 471.0L501.0 407.0C501.0 405.89542 501.89542 405.0 503.0 405.0L514.0 405.0C515.10455 405.0 516.0 405.89542 516.0 407.0Z" fill-rule="nonzero"/><path stroke="#000000" stroke-width="2.0" stroke-linecap="butt" stroke-opacity="0.0" clip-path="url(#id_0)" d="M619.0 471.0L604.0 471.0L604.0 176.0C604.0 174.89543 604.89545 174.0 606.0 174.0L617.0 174.0C618.10455 174.0 619.0 174.89543 619.0 176.0Z" fill-rule="nonzero"/><path fill="#34a853" clip-path="url(#id_0)" d="M619.0 471.0L604.0 471.0L604.0 176.0C604.0 174.89543 604.89545 174.0 606.0 174.0L617.0 174.0C618.10455 174.0 619.0 174.89543 619.0 176.0Z" fill-rule="nonzero"/><path stroke="#000000" stroke-width="2.0" stroke-linecap="butt" stroke-opacity="0.0" clip-path="url(#id_0)" d="M723.0 471.0L708.0 471.0L708.0 111.0C708.0 109.89543 708.89545 109.0 710.0 109.0L721.0 109.0C722.10455 109.0 723.0 109.89543 723.0 111.0Z" fill-rule="nonzero"/><path fill="#34a853" clip-path="url(#id_0)" d="M723.0 471.0L708.0 471.0L708.0 111.0C708.0 109.89543 708.89545 109.0 710.0 109.0L721.0 109.0C722.10455 109.0 723.0 109.89543 723.0 111.0Z" fill-rule="nonzero"/><path stroke="#000000" stroke-width="2.0" stroke-linecap="butt" stroke-opacity="0.0" clip-path="url(#id_0)" d="M827.0 471.0L812.0 471.0L812.0 151.0C812.0 149.89543 812.89545 149.0 814.0 149.0L825.0 149.0C826.10455 149.0 827.0 149.89543 827.0 151.0Z" fill-rule="nonzero"/><path fill="#34a853" clip-path="url(#id_0)" d="M827.0 471.0L812.0 471.0L812.0 151.0C812.0 149.89543 812.89545 149.0 814.0 149.0L825.0 149.0C826.10455 149.0 827.0 149.89543 827.0 151.0Z" fill-rule="nonzero"/><path fill="#000000" d="M472.92188 520.45L472.92188 511.85626L475.89062 511.85626Q476.89062 511.85626 477.42188 511.98126Q478.15625 512.15314 478.67188 512.59064Q479.35938 513.16876 479.6875 514.075Q480.03125 514.96564 480.03125 516.10626Q480.03125 517.09064 479.79688 517.84064Q479.57812 518.59064 479.21875 519.09064Q478.85938 519.59064 478.42188 519.8719Q478.0 520.15314 477.40625 520.3094Q476.8125 520.45 476.03125 520.45L472.92188 520.45ZM474.0625 519.4344L475.89062 519.4344Q476.75 519.4344 477.23438 519.27814Q477.71875 519.1219 478.0 518.825Q478.40625 518.4344 478.625 517.7469Q478.85938 517.0594 478.85938 516.09064Q478.85938 514.7469 478.40625 514.02814Q477.96875 513.29376 477.34375 513.04376Q476.875 512.8719 475.875 512.8719L474.0625 512.8719L474.0625 519.4344ZM485.85938 519.6844Q485.26562 520.1844 484.71875 520.3875Q484.1875 520.59064 483.5625 520.59064Q482.53125 520.59064 481.98438 520.09064Q481.4375 519.59064 481.4375 518.8094Q481.4375 518.35626 481.64062 517.98126Q481.84375 517.59064 482.1875 517.3719Q482.53125 517.1375 482.95312 517.02814Q483.25 516.9344 483.89062 516.85626Q485.15625 516.71564 485.76562 516.4969Q485.76562 516.27814 485.76562 516.23126Q485.76562 515.575 485.46875 515.3094Q485.0625 514.96564 484.26562 514.96564Q483.53125 514.96564 483.17188 515.23126Q482.8125 515.48126 482.64062 516.1375L481.60938 515.9969Q481.75 515.34064 482.07812 514.9344Q482.40625 514.52814 483.01562 514.3094Q483.625 514.09064 484.42188 514.09064Q485.21875 514.09064 485.71875 514.27814Q486.21875 514.46564 486.45312 514.7469Q486.6875 515.02814 486.78125 515.46564Q486.82812 515.73126 486.82812 516.4344L486.82812 517.84064Q486.82812 519.3094 486.89062 519.7Q486.96875 520.09064 487.17188 520.45L486.0625 520.45Q485.90625 520.1219 485.85938 519.6844ZM485.76562 517.325Q485.1875 517.5594 484.04688 517.73126Q483.39062 517.825 483.125 517.95Q482.85938 518.0594 482.70312 518.27814Q482.5625 518.4969 482.5625 518.77814Q482.5625 519.2 482.875 519.48126Q483.20312 519.7625 483.8125 519.7625Q484.42188 519.7625 484.89062 519.4969Q485.375 519.23126 485.59375 518.7625Q485.76562 518.40314 485.76562 517.71564L485.76562 517.325ZM488.75 522.84064L488.625 521.85626Q488.96875 521.95 489.23438 521.95Q489.57812 521.95 489.78125 521.825Q490.0 521.71564 490.14062 521.5125Q490.23438 521.34064 490.46875 520.71564Q490.48438 520.6375 490.5625 520.46564L488.1875 514.23126L489.32812 514.23126L490.625 517.825Q490.875 518.5125 491.07812 519.27814Q491.26562 518.54376 491.51562 517.85626L492.84375 514.23126L493.89062 514.23126L491.53125 520.5594Q491.14062 521.575 490.9375 521.96564Q490.65625 522.4969 490.28125 522.73126Q489.92188 522.98126 489.42188 522.98126Q489.125 522.98126 488.75 522.84064Z" fill-rule="nonzero"/><path fill="#000000" d="M38.55001 322.2573L30.971888 322.2573L30.971888 325.08542L29.956263 325.08542L29.956263 318.27292L30.971888 318.27292L30.971888 321.11667L38.55001 321.11667L38.55001 322.2573ZM31.175013 317.5698L29.956263 317.5698L29.956263 316.5073L31.175013 316.5073L31.175013 317.5698ZM38.55001 317.5698L32.33126 317.5698L32.33126 316.5073L38.55001 316.5073L38.55001 317.5698ZM38.55001 314.5698L32.33126 314.5698L32.33126 313.6323L33.20626 313.6323Q32.73751 313.33542 32.471886 312.85104Q32.190636 312.36667 32.190636 311.74167Q32.190636 311.05417 32.471886 310.61667Q32.753136 310.16354 33.26876 309.99167Q32.190636 309.24167 32.190636 308.0698Q32.190636 307.1323 32.70626 306.64792Q33.20626 306.14792 34.284386 306.14792L38.55001 306.14792L38.55001 307.1948L34.628136 307.1948Q34.003136 307.1948 33.721886 307.30417Q33.440636 307.39792 33.26876 307.66354Q33.096886 307.92917 33.096886 308.30417Q33.096886 308.96042 33.534386 309.39792Q33.971886 309.8198 34.940636 309.8198L38.55001 309.8198L38.55001 310.8823L34.503136 310.8823Q33.80001 310.8823 33.45626 311.14792Q33.096886 311.39792 33.096886 311.97604Q33.096886 312.42917 33.33126 312.80417Q33.565636 313.17917 34.01876 313.35104Q34.471886 313.52292 35.315636 313.52292L38.55001 313.52292L38.55001 314.5698ZM36.55001 299.3198L36.67501 298.22604Q37.628136 298.47604 38.159386 299.17917Q38.690636 299.8823 38.690636 300.96042Q38.690636 302.3198 37.846886 303.1323Q37.003136 303.92917 35.48751 303.92917Q33.92501 303.92917 33.065636 303.11667Q32.190636 302.30417 32.190636 301.02292Q32.190636 299.77292 33.034386 298.99167Q33.878136 298.1948 35.42501 298.1948Q35.51876 298.1948 35.70626 298.1948L35.70626 302.83542Q36.73751 302.77292 37.284386 302.2573Q37.815636 301.74167 37.815636 300.96042Q37.815636 300.3823 37.51876 299.97604Q37.20626 299.55417 36.55001 299.3198ZM34.846886 302.77292L34.846886 299.30417Q34.05001 299.36667 33.659386 299.6948Q33.05001 300.21042 33.05001 301.0073Q33.05001 301.74167 33.534386 302.24167Q34.01876 302.72604 34.846886 302.77292ZM41.08126 291.55417Q39.971886 292.42917 38.503136 293.03854Q37.01876 293.6323 35.440636 293.6323Q34.05001 293.6323 32.76876 293.1948Q31.284388 292.66354 29.815638 291.55417L29.815638 290.80417Q31.034388 291.5073 31.550013 291.74167Q32.36251 292.10104 33.23751 292.30417Q34.33126 292.55417 35.440636 292.55417Q38.26876 292.55417 41.08126 290.80417L41.08126 291.55417ZM38.55001 289.5698L32.33126 289.5698L32.33126 288.6323L33.20626 288.6323Q32.73751 288.33542 32.471886 287.85104Q32.190636 287.36667 32.190636 286.74167Q32.190636 286.05417 32.471886 285.61667Q32.753136 285.16354 33.26876 284.99167Q32.190636 284.24167 32.190636 283.0698Q32.190636 282.1323 32.70626 281.64792Q33.20626 281.14792 34.284386 281.14792L38.55001 281.14792L38.55001 282.1948L34.628136 282.1948Q34.003136 282.1948 33.721886 282.30417Q33.440636 282.39792 33.26876 282.66354Q33.096886 282.92917 33.096886 283.30417Q33.096886 283.96042 33.534386 284.39792Q33.971886 284.8198 34.940636 284.8198L38.55001 284.8198L38.55001 285.8823L34.503136 285.8823Q33.80001 285.8823 33.45626 286.14792Q33.096886 286.39792 33.096886 286.97604Q33.096886 287.42917 33.33126 287.80417Q33.565636 288.17917 34.01876 288.35104Q34.471886 288.52292 35.315636 288.52292L38.55001 288.52292L38.55001 289.5698ZM36.690636 278.99167L36.534386 277.96042Q37.159386 277.86667 37.48751 277.47604Q37.815636 277.0698 37.815636 276.33542Q37.815636 275.61667 37.534386 275.27292Q37.23751 274.91354 36.83126 274.91354Q36.471886 274.91354 36.26876 275.22604Q36.128136 275.4448 35.909386 276.30417Q35.61251 277.46042 35.409386 277.91354Q35.190636 278.35104 34.815636 278.58542Q34.440636 278.8198 33.971886 278.8198Q33.565636 278.8198 33.20626 278.6323Q32.846886 278.4448 32.61251 278.11667Q32.440636 277.86667 32.315636 277.4448Q32.190636 277.02292 32.190636 276.52292Q32.190636 275.80417 32.409386 275.2573Q32.61251 274.6948 32.971886 274.42917Q33.33126 274.16354 33.92501 274.0698L34.065636 275.10104Q33.596886 275.16354 33.33126 275.5073Q33.05001 275.83542 33.05001 276.46042Q33.05001 277.17917 33.30001 277.49167Q33.534386 277.80417 33.86251 277.80417Q34.065636 277.80417 34.221886 277.67917Q34.39376 277.53854 34.503136 277.27292Q34.565636 277.11667 34.76876 276.33542Q35.08126 275.21042 35.26876 274.77292Q35.45626 274.33542 35.815636 274.08542Q36.17501 273.83542 36.721886 273.83542Q37.253136 273.83542 37.721886 274.14792Q38.17501 274.4448 38.440636 275.02292Q38.690636 275.60104 38.690636 276.33542Q38.690636 277.55417 38.190636 278.1948Q37.67501 278.8198 36.690636 278.99167ZM41.08126 270.8823L41.08126 271.6323Q38.26876 269.8823 35.440636 269.8823Q34.346886 269.8823 33.253136 270.1323Q32.378136 270.33542 31.565638 270.6948Q31.050013 270.92917 29.815638 271.6323L29.815638 270.8823Q31.284388 269.78854 32.76876 269.2573Q34.05001 268.80417 35.440636 268.80417Q37.01876 268.80417 38.503136 269.41354Q39.971886 270.02292 41.08126 270.8823Z" fill-rule="nonzero"/><path fill="#000000" d="M92.01875 475.45L90.97188 475.45L90.97188 468.73126Q90.58125 469.09064 89.95625 469.46564Q89.34688 469.825 88.8625 469.9969L88.8625 468.98126Q89.7375 468.5594 90.39375 467.98126Q91.06563 467.3875 91.34688 466.825L92.01875 466.825L92.01875 475.45Z" fill-rule="nonzero"/><path fill="#000000" d="M85.01875 385.28314L83.97188 385.28314L83.97188 378.5644Q83.58125 378.92377 82.95625 379.29877Q82.34688 379.65814 81.8625 379.83002L81.8625 378.8144Q82.7375 378.39252 83.39375 377.8144Q84.06563 377.22064 84.34688 376.65814L85.01875 376.65814L85.01875 385.28314ZM88.05 381.04877Q88.05 379.51752 88.3625 378.59564Q88.675 377.65814 89.28438 377.15814Q89.90938 376.65814 90.84688 376.65814Q91.53438 376.65814 92.05 376.9394Q92.58125 377.22064 92.925 377.7519Q93.26875 378.26752 93.45625 379.01752Q93.64375 379.76752 93.64375 381.04877Q93.64375 382.5644 93.33125 383.48627Q93.03438 384.40814 92.40938 384.92377Q91.8 385.42377 90.84688 385.42377Q89.6125 385.42377 88.89375 384.53314Q88.05 383.47064 88.05 381.04877ZM89.12813 381.04877Q89.12813 383.15814 89.62813 383.86127Q90.12813 384.5644 90.84688 384.5644Q91.58125 384.5644 92.06563 383.86127Q92.56563 383.15814 92.56563 381.04877Q92.56563 378.92377 92.06563 378.23627Q91.58125 377.53314 90.83125 377.53314Q90.1125 377.53314 89.675 378.14252Q89.12813 378.92377 89.12813 381.04877Z" fill-rule="nonzero"/><path fill="#000000" d="M78.01875 295.11627L76.97188 295.11627L76.97188 288.39752Q76.58125 288.7569 75.95625 289.1319Q75.34688 289.49127 74.8625 289.66315L74.8625 288.64752Q75.7375 288.22565 76.39375 287.64752Q77.06563 287.05377 77.34688 286.49127L78.01875 286.49127L78.01875 295.11627ZM81.05 290.8819Q81.05 289.35065 81.3625 288.42877Q81.675 287.49127 82.28438 286.99127Q82.90938 286.49127 83.84688 286.49127Q84.53438 286.49127 85.05 286.77252Q85.58125 287.05377 85.925 287.58502Q86.26875 288.10065 86.45625 288.85065Q86.64375 289.60065 86.64375 290.8819Q86.64375 292.39752 86.33125 293.3194Q86.03438 294.24127 85.40938 294.7569Q84.8 295.2569 83.84688 295.2569Q82.6125 295.2569 81.89375 294.36627Q81.05 293.30377 81.05 290.8819ZM82.12813 290.8819Q82.12813 292.99127 82.62813 293.6944Q83.12813 294.39752 83.84688 294.39752Q84.58125 294.39752 85.06563 293.6944Q85.56563 292.99127 85.56563 290.8819Q85.56563 288.7569 85.06563 288.0694Q84.58125 287.36627 83.83125 287.36627Q83.1125 287.36627 82.675 287.97565Q82.12813 288.7569 82.12813 290.8819ZM88.05 290.8819Q88.05 289.35065 88.3625 288.42877Q88.675 287.49127 89.28438 286.99127Q89.90938 286.49127 90.84688 286.49127Q91.53438 286.49127 92.05 286.77252Q92.58125 287.05377 92.925 287.58502Q93.26875 288.10065 93.45625 288.85065Q93.64375 289.60065 93.64375 290.8819Q93.64375 292.39752 93.33125 293.3194Q93.03438 294.24127 92.40938 294.7569Q91.8 295.2569 90.84688 295.2569Q89.6125 295.2569 88.89375 294.36627Q88.05 293.30377 88.05 290.8819ZM89.12813 290.8819Q89.12813 292.99127 89.62813 293.6944Q90.12813 294.39752 90.84688 294.39752Q91.58125 294.39752 92.06563 293.6944Q92.56563 292.99127 92.56563 290.8819Q92.56563 288.7569 92.06563 288.0694Q91.58125 287.36627 90.83125 287.36627Q90.1125 287.36627 89.675 287.97565Q89.12813 288.7569 89.12813 290.8819Z" fill-rule="nonzero"/><path fill="#000000" d="M71.01875 204.94942L69.97188 204.94942L69.97188 198.23067Q69.58125 198.59004 68.95625 198.96504Q68.34688 199.32442 67.8625 199.49629L67.8625 198.48067Q68.7375 198.05879 69.39375 197.48067Q70.06563 196.88692 70.34688 196.32442L71.01875 196.32442L71.01875 204.94942ZM74.05 200.71504Q74.05 199.18379 74.3625 198.26192Q74.675 197.32442 75.28438 196.82442Q75.90938 196.32442 76.84688 196.32442Q77.53438 196.32442 78.05 196.60567Q78.58125 196.88692 78.925 197.41817Q79.26875 197.93379 79.45625 198.68379Q79.64375 199.43379 79.64375 200.71504Q79.64375 202.23067 79.33125 203.15254Q79.03438 204.07442 78.40938 204.59004Q77.8 205.09004 76.84688 205.09004Q75.6125 205.09004 74.89375 204.19942Q74.05 203.13692 74.05 200.71504ZM75.12813 200.71504Q75.12813 202.82442 75.62813 203.52754Q76.12813 204.23067 76.84688 204.23067Q77.58125 204.23067 78.06563 203.52754Q78.56563 202.82442 78.56563 200.71504Q78.56563 198.59004 78.06563 197.90254Q77.58125 197.19942 76.83125 197.19942Q76.1125 197.19942 75.675 197.80879Q75.12813 198.59004 75.12813 200.71504ZM81.05 200.71504Q81.05 199.18379 81.3625 198.26192Q81.675 197.32442 82.28438 196.82442Q82.90938 196.32442 83.84688 196.32442Q84.53438 196.32442 85.05 196.60567Q85.58125 196.88692 85.925 197.41817Q86.26875 197.93379 86.45625 198.68379Q86.64375 199.43379 86.64375 200.71504Q86.64375 202.23067 86.33125 203.15254Q86.03438 204.07442 85.40938 204.59004Q84.8 205.09004 83.84688 205.09004Q82.6125 205.09004 81.89375 204.19942Q81.05 203.13692 81.05 200.71504ZM82.12813 200.71504Q82.12813 202.82442 82.62813 203.52754Q83.12813 204.23067 83.84688 204.23067Q84.58125 204.23067 85.06563 203.52754Q85.56563 202.82442 85.56563 200.71504Q85.56563 198.59004 85.06563 197.90254Q84.58125 197.19942 83.83125 197.19942Q83.1125 197.19942 82.675 197.80879Q82.12813 198.59004 82.12813 200.71504ZM88.05 200.71504Q88.05 199.18379 88.3625 198.26192Q88.675 197.32442 89.28438 196.82442Q89.90938 196.32442 90.84688 196.32442Q91.53438 196.32442 92.05 196.60567Q92.58125 196.88692 92.925 197.41817Q93.26875 197.93379 93.45625 198.68379Q93.64375 199.43379 93.64375 200.71504Q93.64375 202.23067 93.33125 203.15254Q93.03438 204.07442 92.40938 204.59004Q91.8 205.09004 90.84688 205.09004Q89.6125 205.09004 88.89375 204.19942Q88.05 203.13692 88.05 200.71504ZM89.12813 200.71504Q89.12813 202.82442 89.62813 203.52754Q90.12813 204.23067 90.84688 204.23067Q91.58125 204.23067 92.06563 203.52754Q92.56563 202.82442 92.56563 200.71504Q92.56563 198.59004 92.06563 197.90254Q91.58125 197.19942 90.83125 197.19942Q90.1125 197.19942 89.675 197.80879Q89.12813 198.59004 89.12813 200.71504Z" fill-rule="nonzero"/><path fill="#000000" d="M64.01875 114.78256L62.971874 114.78256L62.971874 108.06381Q62.58125 108.42319 61.95625 108.79819Q61.346874 109.15756 60.8625 109.32944L60.8625 108.31381Q61.7375 107.89194 62.39375 107.31381Q63.065624 106.72006 63.346874 106.15756L64.01875 106.15756L64.01875 114.78256ZM67.05 110.54819Q67.05 109.01694 67.3625 108.09506Q67.675 107.15756 68.28438 106.65756Q68.90938 106.15756 69.84688 106.15756Q70.53438 106.15756 71.05 106.43881Q71.58125 106.72006 71.925 107.25131Q72.26875 107.76694 72.45625 108.51694Q72.64375 109.26694 72.64375 110.54819Q72.64375 112.06381 72.33125 112.98569Q72.03438 113.90756 71.40938 114.42319Q70.8 114.92319 69.84688 114.92319Q68.6125 114.92319 67.89375 114.03256Q67.05 112.97006 67.05 110.54819ZM68.12813 110.54819Q68.12813 112.65756 68.62813 113.36069Q69.12813 114.06381 69.84688 114.06381Q70.58125 114.06381 71.06563 113.36069Q71.56563 112.65756 71.56563 110.54819Q71.56563 108.42319 71.06563 107.73569Q70.58125 107.03256 69.83125 107.03256Q69.1125 107.03256 68.675 107.64194Q68.12813 108.42319 68.12813 110.54819ZM74.05 110.54819Q74.05 109.01694 74.3625 108.09506Q74.675 107.15756 75.28438 106.65756Q75.90938 106.15756 76.84688 106.15756Q77.53438 106.15756 78.05 106.43881Q78.58125 106.72006 78.925 107.25131Q79.26875 107.76694 79.45625 108.51694Q79.64375 109.26694 79.64375 110.54819Q79.64375 112.06381 79.33125 112.98569Q79.03438 113.90756 78.40938 114.42319Q77.8 114.92319 76.84688 114.92319Q75.6125 114.92319 74.89375 114.03256Q74.05 112.97006 74.05 110.54819ZM75.12813 110.54819Q75.12813 112.65756 75.62813 113.36069Q76.12813 114.06381 76.84688 114.06381Q77.58125 114.06381 78.06563 113.36069Q78.56563 112.65756 78.56563 110.54819Q78.56563 108.42319 78.06563 107.73569Q77.58125 107.03256 76.83125 107.03256Q76.1125 107.03256 75.675 107.64194Q75.12813 108.42319 75.12813 110.54819ZM81.05 110.54819Q81.05 109.01694 81.3625 108.09506Q81.675 107.15756 82.28438 106.65756Q82.90938 106.15756 83.84688 106.15756Q84.53438 106.15756 85.05 106.43881Q85.58125 106.72006 85.925 107.25131Q86.26875 107.76694 86.45625 108.51694Q86.64375 109.26694 86.64375 110.54819Q86.64375 112.06381 86.33125 112.98569Q86.03438 113.90756 85.40938 114.42319Q84.8 114.92319 83.84688 114.92319Q82.6125 114.92319 81.89375 114.03256Q81.05 112.97006 81.05 110.54819ZM82.12813 110.54819Q82.12813 112.65756 82.62813 113.36069Q83.12813 114.06381 83.84688 114.06381Q84.58125 114.06381 85.06563 113.36069Q85.56563 112.65756 85.56563 110.54819Q85.56563 108.42319 85.06563 107.73569Q84.58125 107.03256 83.83125 107.03256Q83.1125 107.03256 82.675 107.64194Q82.12813 108.42319 82.12813 110.54819ZM88.05 110.54819Q88.05 109.01694 88.3625 108.09506Q88.675 107.15756 89.28438 106.65756Q89.90938 106.15756 90.84688 106.15756Q91.53438 106.15756 92.05 106.43881Q92.58125 106.72006 92.925 107.25131Q93.26875 107.76694 93.45625 108.51694Q93.64375 109.26694 93.64375 110.54819Q93.64375 112.06381 93.33125 112.98569Q93.03438 113.90756 92.40938 114.42319Q91.8 114.92319 90.84688 114.92319Q89.6125 114.92319 88.89375 114.03256Q88.05 112.97006 88.05 110.54819ZM89.12813 110.54819Q89.12813 112.65756 89.62813 113.36069Q90.12813 114.06381 90.84688 114.06381Q91.58125 114.06381 92.06563 113.36069Q92.56563 112.65756 92.56563 110.54819Q92.56563 108.42319 92.06563 107.73569Q91.58125 107.03256 90.83125 107.03256Q90.1125 107.03256 89.675 107.64194Q89.12813 108.42319 89.12813 110.54819Z" fill-rule="nonzero"/><path fill="#000000" d="M168.17284 488.45L167.12596 488.45L167.12596 481.73126Q166.73534 482.09064 166.11034 482.46564Q165.50096 482.825 165.01659 482.9969L165.01659 481.98126Q165.89159 481.5594 166.54784 480.98126Q167.21971 480.3875 167.50096 479.825L168.17284 479.825L168.17284 488.45ZM171.20409 484.21564Q171.20409 482.6844 171.51659 481.7625Q171.82909 480.825 172.43846 480.325Q173.06346 479.825 174.00096 479.825Q174.68846 479.825 175.20409 480.10626Q175.73534 480.3875 176.07909 480.91876Q176.42284 481.4344 176.61034 482.1844Q176.79784 482.9344 176.79784 484.21564Q176.79784 485.73126 176.48534 486.65314Q176.18846 487.575 175.56346 488.09064Q174.95409 488.59064 174.00096 488.59064Q172.76659 488.59064 172.04784 487.7Q171.20409 486.6375 171.20409 484.21564ZM172.28221 484.21564Q172.28221 486.325 172.78221 487.02814Q173.28221 487.73126 174.00096 487.73126Q174.73534 487.73126 175.21971 487.02814Q175.71971 486.325 175.71971 484.21564Q175.71971 482.09064 175.21971 481.40314Q174.73534 480.7 173.98534 480.7Q173.26659 480.7 172.82909 481.3094Q172.28221 482.09064 172.28221 484.21564Z" fill-rule="nonzero"/><path fill="#000000" d="M272.1048 488.45L271.05792 488.45L271.05792 481.73126Q270.6673 482.09064 270.0423 482.46564Q269.43292 482.825 268.94855 482.9969L268.94855 481.98126Q269.82355 481.5594 270.4798 480.98126Q271.15167 480.3875 271.43292 479.825L272.1048 479.825L272.1048 488.45ZM279.1048 488.45L278.05792 488.45L278.05792 481.73126Q277.6673 482.09064 277.0423 482.46564Q276.43292 482.825 275.94855 482.9969L275.94855 481.98126Q276.82355 481.5594 277.4798 480.98126Q278.15167 480.3875 278.43292 479.825L279.1048 479.825L279.1048 488.45Z" fill-rule="nonzero"/><path fill="#000000" d="M376.03677 488.45L374.9899 488.45L374.9899 481.73126Q374.59927 482.09064 373.97427 482.46564Q373.3649 482.825 372.88052 482.9969L372.88052 481.98126Q373.75552 481.5594 374.41177 480.98126Q375.08365 480.3875 375.3649 479.825L376.03677 479.825L376.03677 488.45ZM384.6149 487.4344L384.6149 488.45L378.9274 488.45Q378.9274 488.075 379.0524 487.71564Q379.27115 487.1375 379.7399 486.575Q380.22427 486.0125 381.13052 485.27814Q382.53677 484.1219 383.02115 483.45Q383.52115 482.77814 383.52115 482.1844Q383.52115 481.5594 383.06802 481.1375Q382.6149 480.7 381.89615 480.7Q381.13052 480.7 380.6774 481.15314Q380.22427 481.60626 380.20865 482.41876L379.13052 482.3094Q379.2399 481.09064 379.95865 480.46564Q380.69302 479.825 381.9274 479.825Q383.16177 479.825 383.88052 480.5125Q384.59927 481.2 384.59927 482.21564Q384.59927 482.73126 384.38052 483.23126Q384.1774 483.71564 383.6774 484.27814Q383.19302 484.825 382.06802 485.77814Q381.1149 486.575 380.83365 486.8719Q380.56802 487.15314 380.39615 487.4344L384.6149 487.4344Z" fill-rule="nonzero"/><path fill="#000000" d="M479.96875 488.45L478.92188 488.45L478.92188 481.73126Q478.53125 482.09064 477.90625 482.46564Q477.29688 482.825 476.8125 482.9969L476.8125 481.98126Q477.6875 481.5594 478.34375 480.98126Q479.01562 480.3875 479.29688 479.825L479.96875 479.825L479.96875 488.45ZM483.0 486.1844L484.0625 486.04376Q484.23438 486.9344 484.67188 487.34064Q485.10938 487.73126 485.73438 487.73126Q486.48438 487.73126 487.0 487.21564Q487.51562 486.7 487.51562 485.9344Q487.51562 485.21564 487.03125 484.7469Q486.5625 484.2625 485.82812 484.2625Q485.53125 484.2625 485.07812 484.3875L485.20312 483.45Q485.3125 483.46564 485.375 483.46564Q486.04688 483.46564 486.57812 483.1219Q487.125 482.7625 487.125 482.02814Q487.125 481.45 486.73438 481.075Q486.34375 480.6844 485.71875 480.6844Q485.10938 480.6844 484.6875 481.075Q484.28125 481.46564 484.17188 482.23126L483.10938 482.04376Q483.29688 480.9969 483.98438 480.41876Q484.67188 479.825 485.6875 479.825Q486.39062 479.825 486.98438 480.1375Q487.57812 480.4344 487.89062 480.95Q488.20312 481.46564 488.20312 482.0594Q488.20312 482.60626 487.90625 483.075Q487.60938 483.52814 487.03125 483.79376Q487.78125 483.96564 488.20312 484.52814Q488.625 485.075 488.625 485.91876Q488.625 487.04376 487.79688 487.825Q486.98438 488.60626 485.73438 488.60626Q484.60938 488.60626 483.85938 487.9344Q483.10938 487.2469 483.0 486.1844Z" fill-rule="nonzero"/><path fill="#000000" d="M583.9007 488.45L582.8538 488.45L582.8538 481.73126Q582.4632 482.09064 581.8382 482.46564Q581.2288 482.825 580.74445 482.9969L580.74445 481.98126Q581.61945 481.5594 582.2757 480.98126Q582.9476 480.3875 583.2288 479.825L583.9007 479.825L583.9007 488.45ZM590.30695 488.45L590.30695 486.3875L586.5882 486.3875L586.5882 485.41876L590.5101 479.85626L591.36945 479.85626L591.36945 485.41876L592.5257 485.41876L592.5257 486.3875L591.36945 486.3875L591.36945 488.45L590.30695 488.45ZM590.30695 485.41876L590.30695 481.5594L587.61945 485.41876L590.30695 485.41876Z" fill-rule="nonzero"/><path fill="#000000" d="M687.8327 488.45L686.7858 488.45L686.7858 481.73126Q686.3952 482.09064 685.7702 482.46564Q685.1608 482.825 684.67645 482.9969L684.67645 481.98126Q685.55145 481.5594 686.2077 480.98126Q686.8796 480.3875 687.1608 479.825L687.8327 479.825L687.8327 488.45ZM690.86395 486.2L691.9733 486.10626Q692.0983 486.91876 692.5358 487.325Q692.98895 487.73126 693.6296 487.73126Q694.3796 487.73126 694.9108 487.15314Q695.4421 486.575 695.4421 485.6375Q695.4421 484.73126 694.92645 484.21564Q694.42645 483.6844 693.5983 483.6844Q693.0983 483.6844 692.67645 483.91876Q692.2702 484.15314 692.0358 484.5125L691.05145 484.3875L691.8796 479.98126L696.1608 479.98126L696.1608 480.98126L692.7233 480.98126L692.2702 483.29376Q693.0358 482.7469 693.8796 482.7469Q695.0046 482.7469 695.7702 483.52814Q696.55145 484.3094 696.55145 485.54376Q696.55145 486.7 695.8796 487.5594Q695.05145 488.59064 693.6296 488.59064Q692.4577 488.59064 691.7077 487.9344Q690.9733 487.27814 690.86395 486.2Z" fill-rule="nonzero"/><path fill="#000000" d="M791.76465 488.45L790.7178 488.45L790.7178 481.73126Q790.32715 482.09064 789.70215 482.46564Q789.0928 482.825 788.6084 482.9969L788.6084 481.98126Q789.4834 481.5594 790.13965 480.98126Q790.8115 480.3875 791.0928 479.825L791.76465 479.825L791.76465 488.45ZM800.26465 481.96564L799.2178 482.04376Q799.07715 481.41876 798.82715 481.1375Q798.38965 480.6844 797.76465 480.6844Q797.26465 480.6844 796.874 480.96564Q796.38965 481.34064 796.0928 482.04376Q795.8115 482.73126 795.7959 484.0125Q796.1709 483.4344 796.7178 483.15314Q797.2803 482.8719 797.88965 482.8719Q798.9365 482.8719 799.6709 483.65314Q800.4209 484.4344 800.4209 485.65314Q800.4209 486.46564 800.0615 487.16876Q799.7178 487.85626 799.1084 488.23126Q798.499 488.59064 797.7334 488.59064Q796.4053 488.59064 795.57715 487.6219Q794.749 486.65314 794.749 484.4344Q794.749 481.9344 795.6709 480.8094Q796.4678 479.825 797.82715 479.825Q798.8428 479.825 799.4834 480.40314Q800.13965 480.96564 800.26465 481.96564ZM795.9678 485.66876Q795.9678 486.21564 796.1865 486.71564Q796.4209 487.2 796.82715 487.46564Q797.249 487.73126 797.7178 487.73126Q798.374 487.73126 798.8584 487.2Q799.3428 486.65314 799.3428 485.73126Q799.3428 484.84064 798.8584 484.325Q798.38965 483.8094 797.6709 483.8094Q796.95215 483.8094 796.45215 484.325Q795.9678 484.84064 795.9678 485.66876Z" fill-rule="nonzero"/><path fill="#4285f4" d="M282.0 71.916664C282.0 71.36438 282.44772 70.916664 283.0 70.916664L293.0 70.916664C293.55228 70.916664 294.0 71.36438 294.0 71.916664L294.0 81.916664C294.0 82.46895 293.55228 82.916664 293.0 82.916664L283.0 82.916664C282.44772 82.916664 282.0 82.46895 282.0 81.916664Z" fill-rule="nonzero"/><path fill="#1a1a1a" d="M302.92188 80.916664L302.92188 72.322914L306.17188 72.322914Q307.01562 72.322914 307.46875 72.40104Q308.10938 72.510414 308.53125 72.80729Q308.96875 73.104164 309.21875 73.635414Q309.48438 74.166664 309.48438 74.80729Q309.48438 75.90104 308.78125 76.666664Q308.09375 77.416664 306.26562 77.416664L304.0625 77.416664L304.0625 80.916664L302.92188 80.916664ZM304.0625 76.416664L306.28125 76.416664Q307.39062 76.416664 307.84375 76.010414Q308.3125 75.58854 308.3125 74.83854Q308.3125 74.30729 308.03125 73.93229Q307.76562 73.541664 307.32812 73.416664Q307.03125 73.33854 306.26562 73.33854L304.0625 73.33854L304.0625 76.416664ZM310.75 83.30729L310.625 82.322914Q310.96875 82.416664 311.23438 82.416664Q311.57812 82.416664 311.78125 82.291664Q312.0 82.18229 312.14062 81.979164Q312.23438 81.80729 312.46875 81.18229Q312.48438 81.104164 312.5625 80.93229L310.1875 74.697914L311.32812 74.697914L312.625 78.291664Q312.875 78.979164 313.07812 79.74479Q313.26562 79.010414 313.51562 78.322914L314.84375 74.697914L315.89062 74.697914L313.53125 81.02604Q313.14062 82.041664 312.9375 82.43229Q312.65625 82.96354 312.28125 83.197914Q311.92188 83.447914 311.42188 83.447914Q311.125 83.447914 310.75 83.30729ZM318.09375 79.979164L318.25 80.90104Q317.79688 80.99479 317.45312 80.99479Q316.875 80.99479 316.5625 80.822914Q316.25 80.635414 316.10938 80.33854Q315.98438 80.041664 315.98438 79.08854L315.98438 75.510414L315.21875 75.510414L315.21875 74.697914L315.98438 74.697914L315.98438 73.15104L317.03125 72.52604L317.03125 74.697914L318.09375 74.697914L318.09375 75.510414L317.03125 75.510414L317.03125 79.15104Q317.03125 79.604164 317.07812 79.729164Q317.14062 79.854164 317.26562 79.93229Q317.39062 80.010414 317.625 80.010414Q317.8125 80.010414 318.09375 79.979164ZM318.79688 80.916664L318.79688 72.322914L319.84375 72.322914L319.84375 75.40104Q320.57812 74.55729 321.70312 74.55729Q322.40625 74.55729 322.90625 74.83854Q323.42188 75.104164 323.64062 75.58854Q323.85938 76.05729 323.85938 76.979164L323.85938 80.916664L322.8125 80.916664L322.8125 76.979164Q322.8125 76.18229 322.46875 75.822914Q322.125 75.46354 321.5 75.46354Q321.03125 75.46354 320.60938 75.71354Q320.20312 75.947914 320.01562 76.36979Q319.84375 76.77604 319.84375 77.510414L319.84375 80.916664L318.79688 80.916664ZM325.40625 77.80729Q325.40625 76.072914 326.35938 75.24479Q327.15625 74.55729 328.3125 74.55729Q329.59375 74.55729 330.40625 75.40104Q331.23438 76.229164 331.23438 77.71354Q331.23438 78.916664 330.875 79.604164Q330.51562 80.291664 329.8125 80.68229Q329.125 81.05729 328.3125 81.05729Q327.01562 81.05729 326.20312 80.229164Q325.40625 79.385414 325.40625 77.80729ZM326.48438 77.80729Q326.48438 78.99479 327.0 79.58854Q327.53125 80.18229 328.3125 80.18229Q329.10938 80.18229 329.625 79.58854Q330.14062 78.99479 330.14062 77.77604Q330.14062 76.61979 329.60938 76.02604Q329.09375 75.43229 328.3125 75.43229Q327.53125 75.43229 327.0 76.02604Q326.48438 76.604164 326.48438 77.80729ZM332.79688 80.916664L332.79688 74.697914L333.73438 74.697914L333.73438 75.572914Q334.42188 74.55729 335.71875 74.55729Q336.28125 74.55729 336.75 74.760414Q337.23438 74.96354 337.46875 75.291664Q337.70312 75.61979 337.79688 76.05729Q337.84375 76.354164 337.84375 77.08854L337.84375 80.916664L336.79688 80.916664L336.79688 77.135414Q336.79688 76.479164 336.67188 76.166664Q336.54688 75.854164 336.23438 75.666664Q335.92188 75.46354 335.5 75.46354Q334.82812 75.46354 334.32812 75.90104Q333.84375 76.322914 333.84375 77.510414L333.84375 80.916664L332.79688 80.916664Z" fill-rule="nonzero"/><path fill="#ea4335" d="M355.0 71.916664C355.0 71.36438 355.44772 70.916664 356.0 70.916664L366.0 70.916664C366.55228 70.916664 367.0 71.36438 367.0 71.916664L367.0 81.916664C367.0 82.46895 366.55228 82.916664 366.0 82.916664L356.0 82.916664C355.44772 82.916664 355.0 82.46895 355.0 81.916664Z" fill-rule="nonzero"/><path fill="#1a1a1a" d="M375.875 80.916664L375.875 72.322914L379.10938 72.322914Q380.09375 72.322914 380.6875 72.58854Q381.28125 72.854164 381.60938 73.40104Q381.95312 73.93229 381.95312 74.52604Q381.95312 75.072914 381.65625 75.55729Q381.35938 76.041664 380.75 76.33854Q381.53125 76.572914 381.9375 77.135414Q382.35938 77.68229 382.35938 78.43229Q382.35938 79.02604 382.10938 79.55729Q381.85938 80.072914 381.48438 80.354164Q381.10938 80.635414 380.53125 80.77604Q379.96875 80.916664 379.15625 80.916664L375.875 80.916664ZM377.01562 75.93229L378.875 75.93229Q379.625 75.93229 379.95312 75.83854Q380.39062 75.71354 380.60938 75.416664Q380.82812 75.104164 380.82812 74.65104Q380.82812 74.229164 380.625 73.90104Q380.42188 73.572914 380.03125 73.46354Q379.65625 73.33854 378.73438 73.33854L377.01562 73.33854L377.01562 75.93229ZM377.01562 79.90104L379.15625 79.90104Q379.70312 79.90104 379.92188 79.854164Q380.32812 79.791664 380.57812 79.635414Q380.84375 79.46354 381.01562 79.15104Q381.1875 78.83854 381.1875 78.43229Q381.1875 77.947914 380.9375 77.58854Q380.70312 77.229164 380.26562 77.08854Q379.82812 76.947914 379.0 76.947914L377.01562 76.947914L377.01562 79.90104ZM387.875 80.916664L387.875 79.99479Q387.14062 81.05729 385.89062 81.05729Q385.34375 81.05729 384.85938 80.854164Q384.39062 80.635414 384.15625 80.322914Q383.92188 79.99479 383.82812 79.52604Q383.76562 79.229164 383.76562 78.541664L383.76562 74.697914L384.82812 74.697914L384.82812 78.15104Q384.82812 78.96354 384.89062 79.260414Q384.98438 79.666664 385.29688 79.916664Q385.625 80.15104 386.10938 80.15104Q386.57812 80.15104 386.98438 79.916664Q387.40625 79.666664 387.57812 79.24479Q387.76562 78.822914 387.76562 78.02604L387.76562 74.697914L388.8125 74.697914L388.8125 80.916664L387.875 80.916664ZM390.79688 80.916664L390.79688 74.697914L391.73438 74.697914L391.73438 75.572914Q392.42188 74.55729 393.71875 74.55729Q394.28125 74.55729 394.75 74.760414Q395.23438 74.96354 395.46875 75.291664Q395.70312 75.61979 395.79688 76.05729Q395.84375 76.354164 395.84375 77.08854L395.84375 80.916664L394.79688 80.916664L394.79688 77.135414Q394.79688 76.479164 394.67188 76.166664Q394.54688 75.854164 394.23438 75.666664Q393.92188 75.46354 393.5 75.46354Q392.82812 75.46354 392.32812 75.90104Q391.84375 76.322914 391.84375 77.510414L391.84375 80.916664L390.79688 80.916664ZM397.34375 78.479164L398.375 78.33854Q398.40625 79.322914 398.73438 79.68229Q399.0625 80.041664 399.65625 80.041664Q400.07812 80.041664 400.39062 79.854164Q400.70312 79.65104 400.8125 79.322914Q400.9375 78.979164 400.9375 78.24479L400.9375 72.322914L402.0625 72.322914L402.0625 78.18229Q402.0625 79.260414 401.79688 79.854164Q401.54688 80.447914 400.98438 80.760414Q400.42188 81.05729 399.65625 81.05729Q398.53125 81.05729 397.92188 80.416664Q397.32812 79.760414 397.34375 78.479164ZM403.54688 78.15104L404.60938 78.05729Q404.6875 78.71354 404.96875 79.11979Q405.25 79.52604 405.82812 79.791664Q406.42188 80.041664 407.15625 80.041664Q407.79688 80.041664 408.29688 79.854164Q408.79688 79.65104 409.03125 79.322914Q409.28125 78.979164 409.28125 78.58854Q409.28125 78.18229 409.04688 77.885414Q408.8125 77.572914 408.28125 77.36979Q407.92188 77.229164 406.73438 76.947914Q405.5625 76.666664 405.09375 76.416664Q404.46875 76.08854 404.17188 75.61979Q403.875 75.135414 403.875 74.541664Q403.875 73.90104 404.23438 73.33854Q404.60938 72.760414 405.3125 72.479164Q406.03125 72.18229 406.89062 72.18229Q407.84375 72.18229 408.57812 72.49479Q409.3125 72.791664 409.70312 73.40104Q410.09375 73.99479 410.125 74.74479L409.03125 74.822914Q408.9375 74.010414 408.42188 73.604164Q407.92188 73.18229 406.9375 73.18229Q405.90625 73.18229 405.4375 73.55729Q404.96875 73.93229 404.96875 74.46354Q404.96875 74.93229 405.29688 75.229164Q405.625 75.52604 407.0 75.83854Q408.39062 76.15104 408.90625 76.385414Q409.65625 76.74479 410.01562 77.27604Q410.375 77.791664 410.375 78.49479Q410.375 79.18229 409.98438 79.791664Q409.59375 80.385414 408.85938 80.729164Q408.125 81.05729 407.20312 81.05729Q406.03125 81.05729 405.23438 80.729164Q404.45312 80.385414 404.0 79.697914Q403.5625 79.010414 403.54688 78.15104Z" fill-rule="nonzero"/><path fill="#fbbc04" d="M427.0 71.916664C427.0 71.36438 427.44772 70.916664 428.0 70.916664L438.0 70.916664C438.55228 70.916664 439.0 71.36438 439.0 71.916664L439.0 81.916664C439.0 82.46895 438.55228 82.916664 438.0 82.916664L428.0 82.916664C427.44772 82.916664 427.0 82.46895 427.0 81.916664Z" fill-rule="nonzero"/><path fill="#1a1a1a" d="M447.875 80.916664L447.875 72.322914L451.10938 72.322914Q452.09375 72.322914 452.6875 72.58854Q453.28125 72.854164 453.60938 73.40104Q453.95312 73.93229 453.95312 74.52604Q453.95312 75.072914 453.65625 75.55729Q453.35938 76.041664 452.75 76.33854Q453.53125 76.572914 453.9375 77.135414Q454.35938 77.68229 454.35938 78.43229Q454.35938 79.02604 454.10938 79.55729Q453.85938 80.072914 453.48438 80.354164Q453.10938 80.635414 452.53125 80.77604Q451.96875 80.916664 451.15625 80.916664L447.875 80.916664ZM449.01562 75.93229L450.875 75.93229Q451.625 75.93229 451.95312 75.83854Q452.39062 75.71354 452.60938 75.416664Q452.82812 75.104164 452.82812 74.65104Q452.82812 74.229164 452.625 73.90104Q452.42188 73.572914 452.03125 73.46354Q451.65625 73.33854 450.73438 73.33854L449.01562 73.33854L449.01562 75.93229ZM449.01562 79.90104L451.15625 79.90104Q451.70312 79.90104 451.92188 79.854164Q452.32812 79.791664 452.57812 79.635414Q452.84375 79.46354 453.01562 79.15104Q453.1875 78.83854 453.1875 78.43229Q453.1875 77.947914 452.9375 77.58854Q452.70312 77.229164 452.26562 77.08854Q451.82812 76.947914 451.0 76.947914L449.01562 76.947914L449.01562 79.90104ZM459.875 80.916664L459.875 79.99479Q459.14062 81.05729 457.89062 81.05729Q457.34375 81.05729 456.85938 80.854164Q456.39062 80.635414 456.15625 80.322914Q455.92188 79.99479 455.82812 79.52604Q455.76562 79.229164 455.76562 78.541664L455.76562 74.697914L456.82812 74.697914L456.82812 78.15104Q456.82812 78.96354 456.89062 79.260414Q456.98438 79.666664 457.29688 79.916664Q457.625 80.15104 458.10938 80.15104Q458.57812 80.15104 458.98438 79.916664Q459.40625 79.666664 459.57812 79.24479Q459.76562 78.822914 459.76562 78.02604L459.76562 74.697914L460.8125 74.697914L460.8125 80.916664L459.875 80.916664ZM462.79688 80.916664L462.79688 74.697914L463.73438 74.697914L463.73438 75.572914Q464.42188 74.55729 465.71875 74.55729Q466.28125 74.55729 466.75 74.760414Q467.23438 74.96354 467.46875 75.291664Q467.70312 75.61979 467.79688 76.05729Q467.84375 76.354164 467.84375 77.08854L467.84375 80.916664L466.79688 80.916664L466.79688 77.135414Q466.79688 76.479164 466.67188 76.166664Q466.54688 75.854164 466.23438 75.666664Q465.92188 75.46354 465.5 75.46354Q464.82812 75.46354 464.32812 75.90104Q463.84375 76.322914 463.84375 77.510414L463.84375 80.916664L462.79688 80.916664ZM469.34375 78.479164L470.375 78.33854Q470.40625 79.322914 470.73438 79.68229Q471.0625 80.041664 471.65625 80.041664Q472.07812 80.041664 472.39062 79.854164Q472.70312 79.65104 472.8125 79.322914Q472.9375 78.979164 472.9375 78.24479L472.9375 72.322914L474.0625 72.322914L474.0625 78.18229Q474.0625 79.260414 473.79688 79.854164Q473.54688 80.447914 472.98438 80.760414Q472.42188 81.05729 471.65625 81.05729Q470.53125 81.05729 469.92188 80.416664Q469.32812 79.760414 469.34375 78.479164ZM475.54688 78.15104L476.60938 78.05729Q476.6875 78.71354 476.96875 79.11979Q477.25 79.52604 477.82812 79.791664Q478.42188 80.041664 479.15625 80.041664Q479.79688 80.041664 480.29688 79.854164Q480.79688 79.65104 481.03125 79.322914Q481.28125 78.979164 481.28125 78.58854Q481.28125 78.18229 481.04688 77.885414Q480.8125 77.572914 480.28125 77.36979Q479.92188 77.229164 478.73438 76.947914Q477.5625 76.666664 477.09375 76.416664Q476.46875 76.08854 476.17188 75.61979Q475.875 75.135414 475.875 74.541664Q475.875 73.90104 476.23438 73.33854Q476.60938 72.760414 477.3125 72.479164Q478.03125 72.18229 478.89062 72.18229Q479.84375 72.18229 480.57812 72.49479Q481.3125 72.791664 481.70312 73.40104Q482.09375 73.99479 482.125 74.74479L481.03125 74.822914Q480.9375 74.010414 480.42188 73.604164Q479.92188 73.18229 478.9375 73.18229Q477.90625 73.18229 477.4375 73.55729Q476.96875 73.93229 476.96875 74.46354Q476.96875 74.93229 477.29688 75.229164Q477.625 75.52604 479.0 75.83854Q480.39062 76.15104 480.90625 76.385414Q481.65625 76.74479 482.01562 77.27604Q482.375 77.791664 482.375 78.49479Q482.375 79.18229 481.98438 79.791664Q481.59375 80.385414 480.85938 80.729164Q480.125 81.05729 479.20312 81.05729Q478.03125 81.05729 477.23438 80.729164Q476.45312 80.385414 476.0 79.697914Q475.5625 79.010414 475.54688 78.15104ZM488.51562 80.916664L486.15625 74.697914L487.26562 74.697914L488.60938 78.416664Q488.8125 79.02604 489.0 79.666664Q489.14062 79.18229 489.39062 78.49479L490.78125 74.697914L491.85938 74.697914L489.5 80.916664L488.51562 80.916664ZM491.79688 73.541664L491.79688 72.322914L492.85938 72.322914L492.85938 73.541664L491.79688 73.541664ZM491.79688 80.916664L491.79688 74.697914L492.85938 74.697914L492.85938 80.916664L491.79688 80.916664ZM498.85938 80.15104Q498.26562 80.65104 497.71875 80.854164Q497.1875 81.05729 496.5625 81.05729Q495.53125 81.05729 494.98438 80.55729Q494.4375 80.05729 494.4375 79.27604Q494.4375 78.822914 494.64062 78.447914Q494.84375 78.05729 495.1875 77.83854Q495.53125 77.604164 495.95312 77.49479Q496.25 77.40104 496.89062 77.322914Q498.15625 77.18229 498.76562 76.96354Q498.76562 76.74479 498.76562 76.697914Q498.76562 76.041664 498.46875 75.77604Q498.0625 75.43229 497.26562 75.43229Q496.53125 75.43229 496.17188 75.697914Q495.8125 75.947914 495.64062 76.604164L494.60938 76.46354Q494.75 75.80729 495.07812 75.40104Q495.40625 74.99479 496.01562 74.77604Q496.625 74.55729 497.42188 74.55729Q498.21875 74.55729 498.71875 74.74479Q499.21875 74.93229 499.45312 75.21354Q499.6875 75.49479 499.78125 75.93229Q499.82812 76.197914 499.82812 76.90104L499.82812 78.30729Q499.82812 79.77604 499.89062 80.166664Q499.96875 80.55729 500.17188 80.916664L499.0625 80.916664Q498.90625 80.58854 498.85938 80.15104ZM498.76562 77.791664Q498.1875 78.02604 497.04688 78.197914Q496.39062 78.291664 496.125 78.416664Q495.85938 78.52604 495.70312 78.74479Q495.5625 78.96354 495.5625 79.24479Q495.5625 79.666664 495.875 79.947914Q496.20312 80.229164 496.8125 80.229164Q497.42188 80.229164 497.89062 79.96354Q498.375 79.697914 498.59375 79.229164Q498.76562 78.86979 498.76562 78.18229L498.76562 77.791664ZM504.92188 80.916664L504.92188 72.322914L506.07812 72.322914L510.59375 79.072914L510.59375 72.322914L511.6875 72.322914L511.6875 80.916664L510.51562 80.916664L506.0 74.166664L506.0 80.916664L504.92188 80.916664ZM513.9219 80.916664L513.9219 72.322914L517.1719 72.322914Q518.0156 72.322914 518.46875 72.40104Q519.1094 72.510414 519.53125 72.80729Q519.96875 73.104164 520.21875 73.635414Q520.4844 74.166664 520.4844 74.80729Q520.4844 75.90104 519.78125 76.666664Q519.09375 77.416664 517.2656 77.416664L515.0625 77.416664L515.0625 80.916664L513.9219 80.916664ZM515.0625 76.416664L517.28125 76.416664Q518.3906 76.416664 518.84375 76.010414Q519.3125 75.58854 519.3125 74.83854Q519.3125 74.30729 519.03125 73.93229Q518.7656 73.541664 518.3281 73.416664Q518.03125 73.33854 517.2656 73.33854L515.0625 73.33854L515.0625 76.416664ZM521.8906 80.916664L521.8906 72.322914L523.6094 72.322914L525.6406 78.40104Q525.9219 79.260414 526.0469 79.68229Q526.1875 79.21354 526.5 78.30729L528.5625 72.322914L530.09375 72.322914L530.09375 80.916664L529.0 80.916664L529.0 73.729164L526.5 80.916664L525.46875 80.916664L522.9844 73.604164L522.9844 80.916664L521.8906 80.916664Z" fill-rule="nonzero"/><path fill="#34a853" d="M546.0 71.916664C546.0 71.36438 546.4477 70.916664 547.0 70.916664L557.0 70.916664C557.5523 70.916664 558.0 71.36438 558.0 71.916664L558.0 81.916664C558.0 82.46895 557.5523 82.916664 557.0 82.916664L547.0 82.916664C546.4477 82.916664 546.0 82.46895 546.0 81.916664Z" fill-rule="nonzero"/><path fill="#1a1a1a" d="M566.9219 80.916664L566.9219 72.322914L568.0781 72.322914L572.59375 79.072914L572.59375 72.322914L573.6875 72.322914L573.6875 80.916664L572.5156 80.916664L568.0 74.166664L568.0 80.916664L566.9219 80.916664ZM575.40625 77.80729Q575.40625 76.072914 576.3594 75.24479Q577.15625 74.55729 578.3125 74.55729Q579.59375 74.55729 580.40625 75.40104Q581.2344 76.229164 581.2344 77.71354Q581.2344 78.916664 580.875 79.604164Q580.5156 80.291664 579.8125 80.68229Q579.125 81.05729 578.3125 81.05729Q577.0156 81.05729 576.2031 80.229164Q575.40625 79.385414 575.40625 77.80729ZM576.4844 77.80729Q576.4844 78.99479 577.0 79.58854Q577.53125 80.18229 578.3125 80.18229Q579.1094 80.18229 579.625 79.58854Q580.1406 78.99479 580.1406 77.77604Q580.1406 76.61979 579.6094 76.02604Q579.09375 75.43229 578.3125 75.43229Q577.53125 75.43229 577.0 76.02604Q576.4844 76.604164 576.4844 77.80729ZM586.8281 80.916664L586.8281 80.135414Q586.2344 81.05729 585.09375 81.05729Q584.34375 81.05729 583.71875 80.65104Q583.09375 80.229164 582.75 79.49479Q582.40625 78.760414 582.40625 77.80729Q582.40625 76.885414 582.71875 76.11979Q583.03125 75.354164 583.65625 74.96354Q584.28125 74.55729 585.0469 74.55729Q585.6094 74.55729 586.0469 74.791664Q586.4844 75.02604 586.7656 75.40104L586.7656 72.322914L587.8125 72.322914L587.8125 80.916664L586.8281 80.916664ZM583.5 77.80729Q583.5 79.010414 584.0 79.604164Q584.5 80.18229 585.1875 80.18229Q585.875 80.18229 586.3594 79.61979Q586.84375 79.05729 586.84375 77.90104Q586.84375 76.61979 586.34375 76.02604Q585.8594 75.43229 585.1406 75.43229Q584.4375 75.43229 583.96875 76.010414Q583.5 76.572914 583.5 77.80729ZM594.0469 78.916664L595.1406 79.041664Q594.8906 79.99479 594.1875 80.52604Q593.4844 81.05729 592.40625 81.05729Q591.0469 81.05729 590.2344 80.21354Q589.4375 79.36979 589.4375 77.854164Q589.4375 76.291664 590.25 75.43229Q591.0625 74.55729 592.34375 74.55729Q593.59375 74.55729 594.375 75.40104Q595.1719 76.24479 595.1719 77.791664Q595.1719 77.885414 595.1719 78.072914L590.53125 78.072914Q590.59375 79.104164 591.1094 79.65104Q591.625 80.18229 592.40625 80.18229Q592.9844 80.18229 593.3906 79.885414Q593.8125 79.572914 594.0469 78.916664ZM590.59375 77.21354L594.0625 77.21354Q594.0 76.416664 593.6719 76.02604Q593.15625 75.416664 592.3594 75.416664Q591.625 75.416664 591.125 75.90104Q590.6406 76.385414 590.59375 77.21354ZM596.34375 78.479164L597.375 78.33854Q597.40625 79.322914 597.7344 79.68229Q598.0625 80.041664 598.65625 80.041664Q599.0781 80.041664 599.3906 79.854164Q599.7031 79.65104 599.8125 79.322914Q599.9375 78.979164 599.9375 78.24479L599.9375 72.322914L601.0625 72.322914L601.0625 78.18229Q601.0625 79.260414 600.7969 79.854164Q600.5469 80.447914 599.9844 80.760414Q599.4219 81.05729 598.65625 81.05729Q597.53125 81.05729 596.9219 80.416664Q596.3281 79.760414 596.34375 78.479164ZM602.5469 78.15104L603.6094 78.05729Q603.6875 78.71354 603.96875 79.11979Q604.25 79.52604 604.8281 79.791664Q605.4219 80.041664 606.15625 80.041664Q606.7969 80.041664 607.2969 79.854164Q607.7969 79.65104 608.03125 79.322914Q608.28125 78.979164 608.28125 78.58854Q608.28125 78.18229 608.0469 77.885414Q607.8125 77.572914 607.28125 77.36979Q606.9219 77.229164 605.7344 76.947914Q604.5625 76.666664 604.09375 76.416664Q603.46875 76.08854 603.1719 75.61979Q602.875 75.135414 602.875 74.541664Q602.875 73.90104 603.2344 73.33854Q603.6094 72.760414 604.3125 72.479164Q605.03125 72.18229 605.8906 72.18229Q606.84375 72.18229 607.5781 72.49479Q608.3125 72.791664 608.7031 73.40104Q609.09375 73.99479 609.125 74.74479L608.03125 74.822914Q607.9375 74.010414 607.4219 73.604164Q606.9219 73.18229 605.9375 73.18229Q604.90625 73.18229 604.4375 73.55729Q603.96875 73.93229 603.96875 74.46354Q603.96875 74.93229 604.2969 75.229164Q604.625 75.52604 606.0 75.83854Q607.3906 76.15104 607.90625 76.385414Q608.65625 76.74479 609.0156 77.27604Q609.375 77.791664 609.375 78.49479Q609.375 79.18229 608.9844 79.791664Q608.59375 80.385414 607.8594 80.729164Q607.125 81.05729 606.2031 81.05729Q605.03125 81.05729 604.2344 80.729164Q603.4531 80.385414 603.0 79.697914Q602.5625 79.010414 602.5469 78.15104Z" fill-rule="nonzero"/><path fill="#757575" d="M28.45625 41.95625L30.2375 41.8Q30.3625 42.8625 30.815624 43.55Q31.284374 44.2375 32.253124 44.675Q33.2375 45.096874 34.471874 45.096874Q35.55 45.096874 36.378124 44.784374Q37.20625 44.45625 37.6125 43.89375Q38.01875 43.33125 38.01875 42.659374Q38.01875 41.9875 37.628124 41.4875Q37.2375 40.9875 36.346874 40.64375Q35.76875 40.409374 33.784374 39.940624Q31.815624 39.471874 31.034374 39.05Q30.003124 38.51875 29.503124 37.721874Q29.003124 36.925 29.003124 35.940624Q29.003124 34.846874 29.6125 33.909374Q30.221874 32.971874 31.409374 32.4875Q32.596874 31.9875 34.034374 31.9875Q35.628124 31.9875 36.846874 32.503124Q38.065624 33.01875 38.70625 34.01875Q39.3625 35.003124 39.409374 36.26875L37.596874 36.409374Q37.45625 35.05 36.6125 34.3625Q35.76875 33.659374 34.1125 33.659374Q32.39375 33.659374 31.596874 34.3Q30.815624 34.925 30.815624 35.8Q30.815624 36.58125 31.378124 37.08125Q31.925 37.58125 34.2375 38.096874Q36.55 38.6125 37.409374 39.003124Q38.659374 39.58125 39.253124 40.471874Q39.846874 41.346874 39.846874 42.503124Q39.846874 43.64375 39.190624 44.659374Q38.534374 45.675 37.3 46.2375Q36.08125 46.8 34.55 46.8Q32.6125 46.8 31.3 46.2375Q29.9875 45.659374 29.2375 44.51875Q28.4875 43.378124 28.45625 41.95625ZM41.8625 50.51875L41.8625 36.175L43.471874 36.175L43.471874 37.51875Q44.034374 36.7375 44.7375 36.346874Q45.45625 35.940624 46.471874 35.940624Q47.8 35.940624 48.815624 36.628124Q49.83125 37.315624 50.346874 38.565624Q50.878124 39.8 50.878124 41.284374Q50.878124 42.878124 50.3 44.159374Q49.7375 45.425 48.64375 46.1125Q47.55 46.784374 46.346874 46.784374Q45.471874 46.784374 44.76875 46.409374Q44.08125 46.034374 43.628124 45.471874L43.628124 50.51875L41.8625 50.51875ZM43.45625 41.425Q43.45625 43.425 44.26875 44.378124Q45.08125 45.33125 46.2375 45.33125Q47.409374 45.33125 48.2375 44.346874Q49.08125 43.3625 49.08125 41.26875Q49.08125 39.3 48.253124 38.315624Q47.440624 37.315624 46.315624 37.315624Q45.190624 37.315624 44.315624 38.378124Q43.45625 39.425 43.45625 41.425ZM59.971874 43.20625L61.784374 43.440624Q61.3625 45.01875 60.190624 45.909374Q59.034374 46.784374 57.221874 46.784374Q54.95625 46.784374 53.6125 45.39375Q52.284374 43.9875 52.284374 41.45625Q52.284374 38.83125 53.628124 37.39375Q54.971874 35.940624 57.128124 35.940624Q59.20625 35.940624 60.51875 37.3625Q61.846874 38.76875 61.846874 41.346874Q61.846874 41.503124 61.83125 41.815624L54.096874 41.815624Q54.190624 43.51875 55.065624 44.425Q55.940624 45.33125 57.2375 45.33125Q58.20625 45.33125 58.878124 44.83125Q59.565624 44.315624 59.971874 43.20625ZM54.190624 40.3625L59.9875 40.3625Q59.878124 39.065624 59.33125 38.409374Q58.4875 37.39375 57.14375 37.39375Q55.940624 37.39375 55.1125 38.20625Q54.284374 39.003124 54.190624 40.3625ZM70.97188 43.20625L72.78438 43.440624Q72.3625 45.01875 71.19063 45.909374Q70.03438 46.784374 68.22188 46.784374Q65.95625 46.784374 64.6125 45.39375Q63.284374 43.9875 63.284374 41.45625Q63.284374 38.83125 64.62813 37.39375Q65.97188 35.940624 68.12813 35.940624Q70.20625 35.940624 71.51875 37.3625Q72.84688 38.76875 72.84688 41.346874Q72.84688 41.503124 72.83125 41.815624L65.09688 41.815624Q65.19063 43.51875 66.06563 44.425Q66.94063 45.33125 68.2375 45.33125Q69.20625 45.33125 69.87813 44.83125Q70.56563 44.315624 70.97188 43.20625ZM65.19063 40.3625L70.9875 40.3625Q70.87813 39.065624 70.33125 38.409374Q69.4875 37.39375 68.14375 37.39375Q66.94063 37.39375 66.1125 38.20625Q65.28438 39.003124 65.19063 40.3625ZM81.59688 46.55L81.59688 45.2375Q80.6125 46.784374 78.69063 46.784374Q77.45625 46.784374 76.40938 46.096874Q75.37813 45.409374 74.8 44.190624Q74.2375 42.971874 74.2375 41.378124Q74.2375 39.815624 74.75313 38.55Q75.26875 37.284374 76.3 36.6125Q77.34688 35.940624 78.6125 35.940624Q79.55 35.940624 80.28438 36.346874Q81.01875 36.7375 81.4875 37.3625L81.4875 32.2375L83.22188 32.2375L83.22188 46.55L81.59688 46.55ZM76.03438 41.378124Q76.03438 43.3625 76.87813 44.346874Q77.72188 45.33125 78.8625 45.33125Q80.01875 45.33125 80.81563 44.39375Q81.62813 43.45625 81.62813 41.51875Q81.62813 39.39375 80.8 38.39375Q79.9875 37.39375 78.78438 37.39375Q77.6125 37.39375 76.81563 38.3625Q76.03438 39.315624 76.03438 41.378124ZM102.31563 41.534374L104.20625 42.003124Q103.6125 44.346874 102.06563 45.58125Q100.51875 46.8 98.26875 46.8Q95.95625 46.8 94.50313 45.8625Q93.06563 44.909374 92.3 43.128124Q91.55 41.33125 91.55 39.284374Q91.55 37.05 92.39375 35.39375Q93.25313 33.721874 94.83125 32.8625Q96.40938 31.9875 98.3 31.9875Q100.45625 31.9875 101.90938 33.08125Q103.37813 34.175 103.95625 36.159374L102.09688 36.596874Q101.59688 35.034374 100.64375 34.33125Q99.70625 33.6125 98.26875 33.6125Q96.6125 33.6125 95.50313 34.409374Q94.39375 35.190624 93.94063 36.534374Q93.50313 37.8625 93.50313 39.26875Q93.50313 41.096874 94.03438 42.471874Q94.56563 43.83125 95.69063 44.503124Q96.81563 45.175 98.1125 45.175Q99.70625 45.175 100.81563 44.253124Q101.925 43.33125 102.31563 41.534374ZM105.22188 41.3625Q105.22188 38.4875 106.81563 37.096874Q108.15938 35.940624 110.08125 35.940624Q112.22188 35.940624 113.56563 37.346874Q114.925 38.753124 114.925 41.221874Q114.925 43.221874 114.33125 44.378124Q113.7375 45.51875 112.58125 46.159374Q111.44063 46.784374 110.08125 46.784374Q107.89375 46.784374 106.55 45.39375Q105.22188 43.9875 105.22188 41.3625ZM107.01875 41.3625Q107.01875 43.3625 107.87813 44.346874Q108.75313 45.33125 110.08125 45.33125Q111.39375 45.33125 112.25313 44.346874Q113.12813 43.346874 113.12813 41.3Q113.12813 39.378124 112.25313 38.39375Q111.37813 37.39375 110.08125 37.39375Q108.75313 37.39375 107.87813 38.39375Q107.01875 39.378124 107.01875 41.3625ZM116.8625 46.55L116.8625 36.175L118.44063 36.175L118.44063 37.628124Q118.925 36.878124 119.7375 36.409374Q120.55 35.940624 121.58125 35.940624Q122.7375 35.940624 123.47188 36.425Q124.20625 36.89375 124.51875 37.753124Q125.75313 35.940624 127.72188 35.940624Q129.26875 35.940624 130.09688 36.8Q130.925 37.659374 130.925 39.425L130.925 46.55L129.175 46.55L129.175 40.01875Q129.175 38.95625 129.00313 38.503124Q128.83125 38.034374 128.37813 37.753124Q127.94063 37.471874 127.33125 37.471874Q126.2375 37.471874 125.50313 38.20625Q124.78438 38.925 124.78438 40.51875L124.78438 46.55L123.03438 46.55L123.03438 39.815624Q123.03438 38.64375 122.59688 38.065624Q122.175 37.471874 121.19063 37.471874Q120.45625 37.471874 119.81563 37.8625Q119.19063 38.253124 118.90938 39.003124Q118.62813 39.753124 118.62813 41.175L118.62813 46.55L116.8625 46.55ZM132.8625 50.51875L132.8625 36.175L134.47188 36.175L134.47188 37.51875Q135.03438 36.7375 135.7375 36.346874Q136.45625 35.940624 137.47188 35.940624Q138.8 35.940624 139.81563 36.628124Q140.83125 37.315624 141.34688 38.565624Q141.87813 39.8 141.87813 41.284374Q141.87813 42.878124 141.3 44.159374Q140.7375 45.425 139.64375 46.1125Q138.55 46.784374 137.34688 46.784374Q136.47188 46.784374 135.76875 46.409374Q135.08125 46.034374 134.62813 45.471874L134.62813 50.51875L132.8625 50.51875ZM134.45625 41.425Q134.45625 43.425 135.26875 44.378124Q136.08125 45.33125 137.2375 45.33125Q138.40938 45.33125 139.2375 44.346874Q140.08125 43.3625 140.08125 41.26875Q140.08125 39.3 139.25313 38.315624Q138.44063 37.315624 137.31563 37.315624Q136.19063 37.315624 135.31563 38.378124Q134.45625 39.425 134.45625 41.425ZM150.64375 45.26875Q149.65938 46.096874 148.75313 46.440624Q147.84688 46.784374 146.81563 46.784374Q145.1125 46.784374 144.19063 45.95625Q143.26875 45.1125 143.26875 43.815624Q143.26875 43.05 143.6125 42.425Q143.97188 41.8 144.53438 41.425Q145.09688 41.034374 145.8 40.83125Q146.31563 40.70625 147.3625 40.565624Q149.4875 40.315624 150.4875 39.971874Q150.50313 39.6125 150.50313 39.503124Q150.50313 38.440624 150.00313 37.9875Q149.33125 37.39375 148.00313 37.39375Q146.75313 37.39375 146.15938 37.83125Q145.58125 38.26875 145.3 39.378124L143.58125 39.14375Q143.81563 38.034374 144.34688 37.3625Q144.87813 36.675 145.89375 36.315624Q146.90938 35.940624 148.25313 35.940624Q149.58125 35.940624 150.40938 36.253124Q151.2375 36.565624 151.62813 37.05Q152.01875 37.51875 152.175 38.2375Q152.26875 38.690624 152.26875 39.8625L152.26875 42.20625Q152.26875 44.659374 152.37813 45.315624Q152.4875 45.95625 152.83125 46.55L150.9875 46.55Q150.72188 46.003124 150.64375 45.26875ZM150.4875 41.346874Q149.53438 41.7375 147.6125 42.003124Q146.53438 42.159374 146.08125 42.3625Q145.64375 42.55 145.39375 42.925Q145.14375 43.3 145.14375 43.76875Q145.14375 44.471874 145.675 44.940624Q146.20625 45.409374 147.2375 45.409374Q148.25313 45.409374 149.03438 44.971874Q149.83125 44.51875 150.20625 43.753124Q150.4875 43.14375 150.4875 41.9875L150.4875 41.346874ZM154.84688 46.55L154.84688 36.175L156.425 36.175L156.425 37.753124Q157.03438 36.64375 157.55 36.3Q158.06563 35.940624 158.675 35.940624Q159.56563 35.940624 160.4875 36.503124L159.87813 38.14375Q159.2375 37.753124 158.59688 37.753124Q158.01875 37.753124 157.55 38.1125Q157.09688 38.45625 156.89375 39.065624Q156.6125 40.003124 156.6125 41.1125L156.6125 46.55L154.84688 46.55ZM161.87813 34.253124L161.87813 32.2375L163.64375 32.2375L163.64375 34.253124L161.87813 34.253124ZM161.87813 46.55L161.87813 36.175L163.64375 36.175L163.64375 46.55L161.87813 46.55ZM165.15938 43.45625L166.90938 43.175Q167.05 44.221874 167.72188 44.784374Q168.39375 45.33125 169.59688 45.33125Q170.8 45.33125 171.37813 44.846874Q171.97188 44.346874 171.97188 43.690624Q171.97188 43.096874 171.45625 42.753124Q171.09688 42.51875 169.65938 42.159374Q167.72188 41.659374 166.97188 41.315624Q166.2375 40.95625 165.84688 40.33125Q165.45625 39.690624 165.45625 38.925Q165.45625 38.2375 165.76875 37.64375Q166.09688 37.05 166.64375 36.659374Q167.05 36.3625 167.75313 36.159374Q168.47188 35.940624 169.28438 35.940624Q170.50313 35.940624 171.425 36.3Q172.34688 36.64375 172.78438 37.253124Q173.22188 37.846874 173.39375 38.846874L171.675 39.08125Q171.55 38.284374 170.9875 37.846874Q170.425 37.39375 169.40938 37.39375Q168.19063 37.39375 167.675 37.8Q167.15938 38.190624 167.15938 38.721874Q167.15938 39.065624 167.37813 39.346874Q167.58125 39.628124 168.05 39.815624Q168.31563 39.909374 169.59688 40.253124Q171.47188 40.753124 172.20625 41.08125Q172.94063 41.39375 173.3625 42.003124Q173.78438 42.596874 173.78438 43.503124Q173.78438 44.378124 173.26875 45.159374Q172.75313 45.940624 171.78438 46.3625Q170.81563 46.784374 169.59688 46.784374Q167.58125 46.784374 166.51875 45.940624Q165.45625 45.096874 165.15938 43.45625ZM175.22188 41.3625Q175.22188 38.4875 176.81563 37.096874Q178.15938 35.940624 180.08125 35.940624Q182.22188 35.940624 183.56563 37.346874Q184.925 38.753124 184.925 41.221874Q184.925 43.221874 184.33125 44.378124Q183.7375 45.51875 182.58125 46.159374Q181.44063 46.784374 180.08125 46.784374Q177.89375 46.784374 176.55 45.39375Q175.22188 43.9875 175.22188 41.3625ZM177.01875 41.3625Q177.01875 43.3625 177.87813 44.346874Q178.75313 45.33125 180.08125 45.33125Q181.39375 45.33125 182.25313 44.346874Q183.12813 43.346874 183.12813 41.3Q183.12813 39.378124 182.25313 38.39375Q181.37813 37.39375 180.08125 37.39375Q178.75313 37.39375 177.87813 38.39375Q177.01875 39.378124 177.01875 41.3625ZM186.8625 46.55L186.8625 36.175L188.45625 36.175L188.45625 37.659374Q189.59688 35.940624 191.75313 35.940624Q192.69063 35.940624 193.47188 36.284374Q194.26875 36.6125 194.65938 37.159374Q195.05 37.70625 195.20625 38.45625Q195.3 38.95625 195.3 40.175L195.3 46.55L193.53438 46.55L193.53438 40.2375Q193.53438 39.159374 193.33125 38.628124Q193.12813 38.096874 192.59688 37.784374Q192.08125 37.471874 191.37813 37.471874Q190.25313 37.471874 189.44063 38.190624Q188.62813 38.89375 188.62813 40.878124L188.62813 46.55L186.8625 46.55Z" fill-rule="nonzero"/></svg>