<svg version="1.1" xmlns="http://www.w3.org/2000/svg" viewBox="0 0 1201.75 431.0721844795662" width="2403.5" height="862.1443689591324">
  <!-- svg-source:excalidraw -->
  
  <defs>
    <style class="style-fonts">
      @font-face {
        font-family: "Virgil";
        src: url("https://excalidraw.com/Virgil.woff2");
      }
      @font-face {
        font-family: "Cascadia";
        src: url("https://excalidraw.com/Cascadia.woff2");
      }
    </style>
    
  </defs>
  <g stroke-linecap="round" transform="translate(358.25 10) rotate(0 82.75000000000023 86.58333333333326)"><path d="M32 0 C70.55 0.77, 102.33 -5.55, 133.5 0 C152.73 -4.75, 166.55 7.27, 165.5 32 C164.74 59.73, 166.46 72.96, 165.5 141.17 C168.65 167.83, 159.42 170.94, 133.5 173.17 C99.19 172.55, 55.16 168.01, 32 173.17 C10.64 176.3, -2.5 164.3, 0 141.17 C-0.88 107.56, 1.01 73.02, 0 32 C-0.91 14.05, 8.08 -5.52, 32 0" stroke="none" stroke-width="0" fill="#1971c2"></path><path d="M32 0 C67.34 1.97, 108.31 -1.81, 133.5 0 M32 0 C71.33 -2.79, 111.73 -2.42, 133.5 0 M133.5 0 C158.26 1.2, 163.25 9.31, 165.5 32 M133.5 0 C152.03 -0.05, 162.42 12.61, 165.5 32 M165.5 32 C163.38 69.42, 163.51 99.23, 165.5 141.17 M165.5 32 C163.88 73.85, 163.25 113.09, 165.5 141.17 M165.5 141.17 C162.89 161.46, 158.33 175.61, 133.5 173.17 M165.5 141.17 C166.57 161.09, 154.17 171.31, 133.5 173.17 M133.5 173.17 C96.14 171.09, 66.89 174.2, 32 173.17 M133.5 173.17 C108.95 170.53, 86.03 170.81, 32 173.17 M32 173.17 C12.42 169.22, -2.08 158.88, 0 141.17 M32 173.17 C7.64 169.54, -1.94 158.45, 0 141.17 M0 141.17 C-3.07 110.46, 3.12 79.17, 0 32 M0 141.17 C-0.09 97.98, 1.03 55.49, 0 32 M0 32 C-1.28 13.79, 13.61 3.56, 32 0 M0 32 C2.55 10.6, 6.68 3.08, 32 0" stroke="#e9ecef" stroke-width="4" fill="none"></path></g><g transform="translate(385.7560272216797 61.58333333333326) rotate(0 55.24397277832031 35)"><text x="55.24397277832031" y="0" font-family="Virgil, Segoe UI Emoji" font-size="28px" fill="#e9ecef" text-anchor="middle" style="white-space: pre;" direction="ltr" dominant-baseline="text-before-edge">Broker 1</text><text x="55.24397277832031" y="35" font-family="Virgil, Segoe UI Emoji" font-size="28px" fill="#e9ecef" text-anchor="middle" style="white-space: pre;" direction="ltr" dominant-baseline="text-before-edge">Primary</text></g><g stroke-linecap="round" transform="translate(1029.25 107.00000000000011) rotate(0 81.25 64.58333333333331)"><path d="M32 0 C66.49 1.28, 86.47 3.57, 130.5 0 C157.16 4.59, 160.27 14.12, 162.5 32 C162.49 47, 157.95 71.78, 162.5 97.17 C165.63 116, 153.64 129.97, 130.5 129.17 C100.84 130.13, 70.25 127.95, 32 129.17 C14.05 126.58, -5.52 118.61, 0 97.17 C2.71 83.88, -3 58.65, 0 32 C5.31 14.34, 13.11 -0.96, 32 0" stroke="none" stroke-width="0" fill="#ffc9c9"></path><path d="M32 0 C56.98 -3.94, 78.2 -4.13, 130.5 0 M32 0 C61.57 -1.33, 91.7 -1.62, 130.5 0 M130.5 0 C155.8 -1.45, 162.83 13.52, 162.5 32 M130.5 0 C149.01 0.47, 161.87 13.68, 162.5 32 M162.5 32 C161.47 52.09, 164.94 66.13, 162.5 97.17 M162.5 32 C162.92 48.83, 162.47 65.18, 162.5 97.17 M162.5 97.17 C160.26 118.94, 152.71 126.88, 130.5 129.17 M162.5 97.17 C160.76 114.1, 152.07 127.57, 130.5 129.17 M130.5 129.17 C88 127.95, 49.78 127.39, 32 129.17 M130.5 129.17 C108.35 128.15, 86.05 126.29, 32 129.17 M32 129.17 C10.67 133.07, -0.57 122.46, 0 97.17 M32 129.17 C6.74 129.08, -4.5 119.33, 0 97.17 M0 97.17 C2.2 83.29, 2.64 65.74, 0 32 M0 97.17 C2.07 78.48, 1.9 59.45, 0 32 M0 32 C1.33 10.6, 7.49 -1.5, 32 0 M0 32 C-3.9 11.53, 7.88 -4.08, 32 0" stroke="#f08c00" stroke-width="4" fill="none"></path></g><g transform="translate(1042.0960235595703 136.58333333333337) rotate(0 68.40397644042969 35)"><text x="68.40397644042969" y="0" font-family="Virgil, Segoe UI Emoji" font-size="28px" fill="#f08c00" text-anchor="middle" style="white-space: pre;" direction="ltr" dominant-baseline="text-before-edge">Consumer </text><text x="68.40397644042969" y="35" font-family="Virgil, Segoe UI Emoji" font-size="28px" fill="#f08c00" text-anchor="middle" style="white-space: pre;" direction="ltr" dominant-baseline="text-before-edge">A</text></g><g stroke-linecap="round" transform="translate(10 41.83333333333337) rotate(0 70 62.25)"><path d="M31.13 0 C57.39 1.08, 86.72 -3.3, 108.88 0 C131.17 0.69, 136.85 8.15, 140 31.13 C141.79 50.29, 140.93 65.32, 140 93.38 C139.6 114.59, 130.44 124.83, 108.88 124.5 C83.26 123.92, 63.43 122.66, 31.13 124.5 C13.72 125.86, 2.5 111.81, 0 93.38 C0.51 78.71, -1.55 64.57, 0 31.13 C-0.58 13.54, 8.03 -0.63, 31.13 0" stroke="none" stroke-width="0" fill="#b2f2bb"></path><path d="M31.13 0 C50.56 0.65, 67.81 1.34, 108.88 0 M31.13 0 C51.47 1, 71.03 0.38, 108.88 0 M108.88 0 C129.35 1.31, 139.09 10.38, 140 31.13 M108.88 0 C128.13 -0.6, 142.01 11.78, 140 31.13 M140 31.13 C139 51.85, 139.09 71.53, 140 93.38 M140 31.13 C139.87 43.25, 139.27 55.57, 140 93.38 M140 93.38 C140.1 113.43, 131.45 124.08, 108.88 124.5 M140 93.38 C141.01 111.85, 128.43 122.42, 108.88 124.5 M108.88 124.5 C88.91 123.8, 73.19 123.28, 31.13 124.5 M108.88 124.5 C89.85 126.25, 70.26 125.24, 31.13 124.5 M31.13 124.5 C8.42 124.86, -0.84 115.54, 0 93.38 M31.13 124.5 C9.64 126.3, 1.69 116.17, 0 93.38 M0 93.38 C1.35 72.18, 0.78 49.88, 0 31.13 M0 93.38 C-1 70.61, -1.05 48.78, 0 31.13 M0 31.13 C-1.21 8.6, 10.43 -0.38, 31.13 0 M0 31.13 C-0.35 12.29, 10.73 -2.13, 31.13 0" stroke="#9c36b5" stroke-width="2" fill="none"></path></g><g transform="translate(20.346023559570312 69.08333333333337) rotate(0 59.65397644042969 35)"><text x="59.65397644042969" y="0" font-family="Virgil, Segoe UI Emoji" font-size="28px" fill="#9c36b5" text-anchor="middle" style="white-space: pre;" direction="ltr" dominant-baseline="text-before-edge">Producer</text><text x="59.65397644042969" y="35" font-family="Virgil, Segoe UI Emoji" font-size="28px" fill="#9c36b5" text-anchor="middle" style="white-space: pre;" direction="ltr" dominant-baseline="text-before-edge">A</text></g><g stroke-linecap="round"><g transform="translate(166.5 108.64128731326991) rotate(0 85.30587754442172 -0.24367126792918725)"><path d="M0.03 0.23 C13.25 -0.11, 51.19 -2.39, 79.68 -2.15 C108.17 -1.91, 155.76 1.08, 170.96 1.68 M-0.34 0.07 C12.96 -0.2, 51.78 -1.91, 80.29 -1.73 C108.81 -1.55, 155.64 0.59, 170.73 1.17" stroke="#2f9e44" stroke-width="4" fill="none"></path></g><g transform="translate(166.5 108.64128731326991) rotate(0 85.30587754442172 -0.24367126792918725)"><path d="M142.58 9.9 C153.63 6.55, 165.38 2.72, 170.73 0.78 M142.22 10.18 C149.91 7.6, 157.88 5.12, 170.76 0.88" stroke="#2f9e44" stroke-width="4" fill="none"></path></g><g transform="translate(166.5 108.64128731326991) rotate(0 85.30587754442172 -0.24367126792918725)"><path d="M143.41 -10.6 C154.11 -5.77, 165.52 -1.41, 170.73 0.78 M143.05 -10.32 C150.57 -7.28, 158.31 -4.14, 170.76 0.88" stroke="#2f9e44" stroke-width="4" fill="none"></path></g></g><mask></mask><g stroke-linecap="round" transform="translate(355.625 247.90551781289957) rotate(0 82.75000000000023 86.58333333333331)"><path d="M32 0 C63.62 2.25, 106.01 -1.97, 133.5 0 C158.72 -0.86, 160.86 8.91, 165.5 32 C158.09 54.13, 166.36 88.83, 165.5 141.17 C161.37 163.05, 160.2 173.06, 133.5 173.17 C112.89 169.88, 84.74 176.26, 32 173.17 C7.07 172.32, -0.72 167.02, 0 141.17 C-0.96 99.99, 6.26 63.15, 0 32 C2.24 9.72, 11.88 2.92, 32 0" stroke="none" stroke-width="0" fill="#1971c2"></path><path d="M32 0 C70.94 -3.85, 114.12 -0.81, 133.5 0 M32 0 C71.74 0.87, 107.5 -0.48, 133.5 0 M133.5 0 C154.16 1.07, 166.37 11.16, 165.5 32 M133.5 0 C156.16 3.94, 165.37 6.16, 165.5 32 M165.5 32 C164.72 61.39, 162.91 86.9, 165.5 141.17 M165.5 32 C164.86 69.98, 162.36 108.26, 165.5 141.17 M165.5 141.17 C166.87 162.86, 152.93 175.71, 133.5 173.17 M165.5 141.17 C168.76 164.16, 156.33 171.29, 133.5 173.17 M133.5 173.17 C90.29 171.01, 50.42 173.67, 32 173.17 M133.5 173.17 C94.07 173.86, 57.63 172.26, 32 173.17 M32 173.17 C7.5 174, -0.15 162.17, 0 141.17 M32 173.17 C6.61 169.09, 4.22 160.63, 0 141.17 M0 141.17 C1.62 109.08, 2.26 81.62, 0 32 M0 141.17 C-2.22 105.83, -1.31 74.23, 0 32 M0 32 C0.53 13.84, 12.04 -3.77, 32 0 M0 32 C-0.57 9.25, 11.15 -1.63, 32 0" stroke="#e9ecef" stroke-width="4" fill="none"></path></g><g transform="translate(370.99303436279297 299.48885114623283) rotate(0 67.38196563720703 34.99999999999994)"><text x="67.38196563720703" y="0" font-family="Virgil, Segoe UI Emoji" font-size="28px" fill="#e9ecef" text-anchor="middle" style="white-space: pre;" direction="ltr" dominant-baseline="text-before-edge">Broker 2</text><text x="67.38196563720703" y="35" font-family="Virgil, Segoe UI Emoji" font-size="28px" fill="#e9ecef" text-anchor="middle" style="white-space: pre;" direction="ltr" dominant-baseline="text-before-edge">Secondary</text></g><g stroke-linecap="round" transform="translate(647.625 112.90551781289957) rotate(0 82.75 86.58333333333331)"><path d="M32 0 C59.69 -2.96, 73.41 -5.7, 133.5 0 C154.96 4.4, 170.27 9.73, 165.5 32 C168.59 64.23, 159.79 89.34, 165.5 141.17 C168.67 158.02, 157.96 174.34, 133.5 173.17 C103.44 168.01, 69.31 168.16, 32 173.17 C7.07 170.52, -1.94 167.73, 0 141.17 C-1.74 108.92, -0.37 82.33, 0 32 C-5.26 12.8, 14.53 -5.02, 32 0" stroke="none" stroke-width="0" fill="#1971c2"></path><path d="M32 0 C66.02 1.24, 92.9 5.59, 133.5 0 M32 0 C61.45 -0.58, 93.52 -1.59, 133.5 0 M133.5 0 C154.08 -2.5, 169.45 13.59, 165.5 32 M133.5 0 C153.69 2.22, 166.71 8.4, 165.5 32 M165.5 32 C163.09 58.75, 163.62 88.38, 165.5 141.17 M165.5 32 C166.82 56.2, 166.37 83.85, 165.5 141.17 M165.5 141.17 C161.57 160.45, 151.92 169.77, 133.5 173.17 M165.5 141.17 C164.5 158.32, 157.67 175.5, 133.5 173.17 M133.5 173.17 C106.45 171.75, 78.88 176.17, 32 173.17 M133.5 173.17 C105.29 173.03, 72.64 170.16, 32 173.17 M32 173.17 C9.9 172.7, 2.28 160.76, 0 141.17 M32 173.17 C9.03 170.56, 3.17 163.92, 0 141.17 M0 141.17 C-1.18 102.17, -2.87 68.8, 0 32 M0 141.17 C-0.58 117.76, -0.07 91.01, 0 32 M0 32 C2.05 7.31, 7.68 4, 32 0 M0 32 C1.43 7.86, 13.53 0.43, 32 0" stroke="#e9ecef" stroke-width="4" fill="none"></path></g><g transform="translate(662.993034362793 164.48885114623283) rotate(0 67.38196563720703 35)"><text x="67.38196563720703" y="0" font-family="Virgil, Segoe UI Emoji" font-size="28px" fill="#e9ecef" text-anchor="middle" style="white-space: pre;" direction="ltr" dominant-baseline="text-before-edge">Broker 3</text><text x="67.38196563720703" y="35" font-family="Virgil, Segoe UI Emoji" font-size="28px" fill="#e9ecef" text-anchor="middle" style="white-space: pre;" direction="ltr" dominant-baseline="text-before-edge">Secondary</text></g><g stroke-linecap="round"><g transform="translate(529.375 89.48885114623306) rotate(0 58.439878316968816 38.50074691057205)"><path d="M2.73 -2.06 C21.38 10.26, 91.97 62.75, 110.52 75.28 M0.76 2.99 C20.47 15.7, 97.35 67.03, 116.12 79.07" stroke="#1e1e1e" stroke-width="4" fill="none"></path></g><g transform="translate(529.375 89.48885114623306) rotate(0 58.439878316968816 38.50074691057205)"><path d="M83.97 70.06 C94.71 76.26, 98.92 71.25, 118.31 75.45 M86.7 73.03 C95.61 75.3, 101.56 75.66, 116.35 79.52" stroke="#1e1e1e" stroke-width="4" fill="none"></path></g><g transform="translate(529.375 89.48885114623306) rotate(0 58.439878316968816 38.50074691057205)"><path d="M95.23 52.91 C103.31 63.62, 104.7 62.91, 118.31 75.45 M97.96 55.87 C103.58 63.24, 106.33 68.49, 116.35 79.52" stroke="#1e1e1e" stroke-width="4" fill="none"></path></g></g><mask></mask><g stroke-linecap="round"><g transform="translate(340.6082103577851 153.70081347699363) rotate(0 -21.118292891317424 86.04365216687313)"><path d="M-2.5 1.37 C-10.3 18.5, -50.03 73.85, -48.31 101.94 C-46.59 130.03, -1.3 158.12, 7.81 169.92 M1.33 -0.35 C-6.62 17.17, -50.8 75.77, -50.04 104.56 C-49.28 133.36, -3.45 161.92, 5.91 172.44" stroke="#1e1e1e" stroke-width="4" fill="none"></path></g><g transform="translate(340.6082103577851 153.70081347699363) rotate(0 -21.118292891317424 86.04365216687313)"><path d="M-20.19 163.12 C-17.94 164.65, -9.94 165.22, 8.42 173.23 M-22.38 162.77 C-15.51 163.86, -9.46 165.17, 4.62 171.6" stroke="#1e1e1e" stroke-width="4" fill="none"></path></g><g transform="translate(340.6082103577851 153.70081347699363) rotate(0 -21.118292891317424 86.04365216687313)"><path d="M-6.78 147.58 C-7.94 152.7, -3.23 157.09, 8.42 173.23 M-8.98 147.23 C-5.16 152.33, -2.4 157.45, 4.62 171.6" stroke="#1e1e1e" stroke-width="4" fill="none"></path></g></g><mask></mask><g stroke-linecap="round"><g transform="translate(544.0691224555785 54.732522414162304) rotate(0 225.63885777339397 14.507921362059903)"><path d="M2.48 -1.28 C48.18 -7.36, 200.73 -46.45, 274.56 -35.19 C348.39 -23.94, 416.66 49.68, 445.45 66.23 M0.38 4.2 C45.74 -1.61, 197.61 -41.78, 272.69 -32.11 C347.78 -22.45, 421.76 45.67, 450.9 62.2" stroke="#2f9e44" stroke-width="4" fill="none"></path></g><g transform="translate(544.0691224555785 54.732522414162304) rotate(0 225.63885777339397 14.507921362059903)"><path d="M420.07 55.51 C429.58 52.77, 444.03 57.82, 451.8 61.48 M421.25 55.86 C427.87 55.4, 435.62 60.33, 449.09 60.32" stroke="#2f9e44" stroke-width="4" fill="none"></path></g><g transform="translate(544.0691224555785 54.732522414162304) rotate(0 225.63885777339397 14.507921362059903)"><path d="M431.78 38.66 C437.79 41.39, 448.58 51.7, 451.8 61.48 M432.97 39.01 C436.53 42.94, 441.25 52.23, 449.09 60.32" stroke="#2f9e44" stroke-width="4" fill="none"></path></g></g><mask></mask></svg>