<svg version="1.1" xmlns="http://www.w3.org/2000/svg" viewBox="0 0 840.75 541.6692297309569" width="1681.5" height="1083.3384594619138">
  <!-- svg-source:excalidraw -->
  
  <defs>
    <style class="style-fonts">
      @font-face {
        font-family: "Virgil";
        src: url("https://excalidraw.com/Virgil.woff2");
      }
      @font-face {
        font-family: "Cascadia";
        src: url("https://excalidraw.com/Cascadia.woff2");
      }
    </style>
    
  </defs>
  <g stroke-linecap="round" transform="translate(330.25 127.34576371924575) rotate(0 59.25000000000023 165.58333333333326)"><path d="M29.63 0 C49.55 -4.84, 66.87 3.45, 88.88 0 C108.39 -2.09, 119 12.45, 118.5 29.63 C114.74 93.97, 113.91 150.36, 118.5 301.54 C118.14 319.58, 104.15 333.6, 88.88 331.17 C70.8 326.69, 58.46 332.87, 29.63 331.17 C6.23 336.51, 3.35 315.88, 0 301.54 C-4.99 199.69, -7.01 98.44, 0 29.63 C-1.92 5.81, 7.66 -2.34, 29.63 0" stroke="none" stroke-width="0" fill="#1971c2"></path><path d="M29.63 0 C51.24 1.04, 74.35 0.49, 88.88 0 M29.63 0 C42.5 0.6, 59.63 0.86, 88.88 0 M88.88 0 C107.51 -0.53, 119.81 7.96, 118.5 29.63 M88.88 0 C112.86 2.73, 122.93 6, 118.5 29.63 M118.5 29.63 C116.83 86.12, 112.34 142.67, 118.5 301.54 M118.5 29.63 C122.13 130.67, 122.85 233.38, 118.5 301.54 M118.5 301.54 C116.01 322.65, 112.33 332.1, 88.88 331.17 M118.5 301.54 C117.55 323.69, 106.62 328.55, 88.88 331.17 M88.88 331.17 C62.2 326.72, 46.5 334.02, 29.63 331.17 M88.88 331.17 C69.5 331.64, 53.28 332.55, 29.63 331.17 M29.63 331.17 C13.02 327.94, 2.23 320.73, 0 301.54 M29.63 331.17 C14.17 331.29, 4.33 320.23, 0 301.54 M0 301.54 C-2.22 206.36, -4.68 102.2, 0 29.63 M0 301.54 C2.72 242.94, 4.37 181.64, 0 29.63 M0 29.63 C1.28 10.35, 7.19 1.52, 29.63 0 M0 29.63 C2.87 9.65, 9.83 2, 29.63 0" stroke="#e9ecef" stroke-width="4" fill="none"></path></g><g transform="translate(345.0500259399414 275.429097052579) rotate(0 44.449974060058594 17.5)"><text x="44.449974060058594" y="0" font-family="Virgil, Segoe UI Emoji" font-size="28px" fill="#e9ecef" text-anchor="middle" style="white-space: pre;" direction="ltr" dominant-baseline="text-before-edge">Broker</text></g><g stroke-linecap="round" transform="translate(660.5833333333321 320.5124303859118) rotate(0 81.25 64.58333333333331)"><path d="M32 0 C53.44 -2.79, 84.62 -4.02, 130.5 0 C157.35 -3.81, 163.34 10.3, 162.5 32 C160.14 44.81, 156.96 65.87, 162.5 97.17 C159.23 121.74, 154.75 125.52, 130.5 129.17 C95.65 131.16, 48.38 126.44, 32 129.17 C10.16 126.51, -0.24 116.58, 0 97.17 C-2.61 80.25, -0.78 69.58, 0 32 C-1.72 11.62, 14.37 -0.13, 32 0" stroke="none" stroke-width="0" fill="#ffec99"></path><path d="M32 0 C62.74 5.01, 94.2 0.03, 130.5 0 M32 0 C62.09 2.13, 90.43 -0.74, 130.5 0 M130.5 0 C148.03 -3.98, 165.35 13.94, 162.5 32 M130.5 0 C152.95 -2.85, 164.81 14.08, 162.5 32 M162.5 32 C160 59.55, 162.53 78.08, 162.5 97.17 M162.5 32 C163.29 54.81, 162.84 74.4, 162.5 97.17 M162.5 97.17 C166.09 118.38, 149.14 125.58, 130.5 129.17 M162.5 97.17 C158.3 122.87, 156.03 129.02, 130.5 129.17 M130.5 129.17 C102.98 126.55, 76.68 130.55, 32 129.17 M130.5 129.17 C110.76 128.94, 89.16 128.43, 32 129.17 M32 129.17 C13.12 133.15, 3.21 121.07, 0 97.17 M32 129.17 C15.22 128.51, -4.13 114.75, 0 97.17 M0 97.17 C2.32 85.86, -2.57 68.22, 0 32 M0 97.17 C2.13 76.75, 0.85 57.4, 0 32 M0 32 C0.58 12, 12.93 0.93, 32 0 M0 32 C-3.2 10.66, 14.27 -0.19, 32 0" stroke="#2f9e44" stroke-width="4" fill="none"></path></g><g transform="translate(673.4293568929024 350.09576371924516) rotate(0 68.40397644042969 35)"><text x="68.40397644042969" y="0" font-family="Virgil, Segoe UI Emoji" font-size="28px" fill="#2f9e44" text-anchor="middle" style="white-space: pre;" direction="ltr" dominant-baseline="text-before-edge">Consumer </text><text x="68.40397644042969" y="35" font-family="Virgil, Segoe UI Emoji" font-size="28px" fill="#2f9e44" text-anchor="middle" style="white-space: pre;" direction="ltr" dominant-baseline="text-before-edge">B</text></g><g mask="url(#mask-rQ2suUM3reoakI_XOBDub)" stroke-linecap="round"><g transform="translate(486.86067213033857 218.9384036941523) rotate(0 75.34090295952251 0.14921889267637312)"><path d="M0.28 0.18 C25.37 0.21, 125.66 0.07, 150.63 0.03 M0.06 0.01 C25.12 0.08, 125.44 0.26, 150.54 0.29" stroke="#2f9e44" stroke-width="4" fill="none"></path></g><g transform="translate(486.86067213033857 218.9384036941523) rotate(0 75.34090295952251 0.14921889267637312)"><path d="M122.67 11.06 C131.24 6.49, 140.54 4.04, 151.01 0.43 M122.54 10.34 C129.13 7.89, 135.98 5.64, 150.36 0.39" stroke="#2f9e44" stroke-width="4" fill="none"></path></g><g transform="translate(486.86067213033857 218.9384036941523) rotate(0 75.34090295952251 0.14921889267637312)"><path d="M122.7 -9.46 C131.24 -7.21, 140.52 -2.83, 151.01 0.43 M122.57 -10.18 C129.19 -7.75, 136.03 -5.11, 150.36 0.39" stroke="#2f9e44" stroke-width="4" fill="none"></path></g></g><mask id="mask-rQ2suUM3reoakI_XOBDub"><rect x="0" y="0" fill="#fff" width="737.1940054636716" height="319.2272206417414"></rect><rect x="522.5473506988601" y="201.58281216794683" fill="#000" width="78.95997619628906" height="35" opacity="1"></rect></mask><g transform="translate(522.547350698861 201.58281216794686) rotate(0 39.654224391000525 17.504810418881817)"><text x="39.47998809814453" y="0" font-family="Virgil, Segoe UI Emoji" font-size="28px" fill="#1e1e1e" text-anchor="middle" style="white-space: pre;" direction="ltr" dominant-baseline="text-before-edge">HTTP</text></g><g stroke-linecap="round" transform="translate(668.25 150.34576371924575) rotate(0 81.25 64.58333333333331)"><path d="M32 0 C63.35 1.31, 85.07 -1.88, 130.5 0 C150.58 -3.27, 165.74 13.58, 162.5 32 C158.83 51.4, 168.9 58.39, 162.5 97.17 C162.44 117.99, 149.18 128.93, 130.5 129.17 C101.98 124.75, 76.06 126.57, 32 129.17 C12.73 127.45, 0.95 122.21, 0 97.17 C-4.35 74.79, -4.65 62.16, 0 32 C2.4 6.83, 15.1 -5.14, 32 0" stroke="none" stroke-width="0" fill="#ffc9c9"></path><path d="M32 0 C67.24 -5.7, 105.24 0.95, 130.5 0 M32 0 C70.62 2.7, 108.69 0.05, 130.5 0 M130.5 0 C153.24 -1.74, 165.77 11.46, 162.5 32 M130.5 0 C148.97 1.57, 166.76 11.75, 162.5 32 M162.5 32 C160.9 53.79, 163.05 65.71, 162.5 97.17 M162.5 32 C163.14 45.63, 161.02 59.67, 162.5 97.17 M162.5 97.17 C158.92 119.12, 150.98 131.61, 130.5 129.17 M162.5 97.17 C166.12 114.79, 154.4 128.52, 130.5 129.17 M130.5 129.17 C90.83 133.48, 56.99 134.23, 32 129.17 M130.5 129.17 C92.82 127.25, 57.37 128.41, 32 129.17 M32 129.17 C10.23 131.18, 3.8 115.62, 0 97.17 M32 129.17 C12.13 129.71, -3.09 120.24, 0 97.17 M0 97.17 C1.8 74.12, 1.39 52.19, 0 32 M0 97.17 C2.47 76.02, 0.16 55.22, 0 32 M0 32 C1.84 7.5, 9.58 0.62, 32 0 M0 32 C-2.26 15.2, 7.53 0.69, 32 0" stroke="#f08c00" stroke-width="4" fill="none"></path></g><g transform="translate(681.0960235595703 179.92909705257907) rotate(0 68.40397644042969 35)"><text x="68.40397644042969" y="0" font-family="Virgil, Segoe UI Emoji" font-size="28px" fill="#f08c00" text-anchor="middle" style="white-space: pre;" direction="ltr" dominant-baseline="text-before-edge">Consumer </text><text x="68.40397644042969" y="35" font-family="Virgil, Segoe UI Emoji" font-size="28px" fill="#f08c00" text-anchor="middle" style="white-space: pre;" direction="ltr" dominant-baseline="text-before-edge">A</text></g><g stroke-linecap="round"><g transform="translate(481.4779923018341 375.95257864672453) rotate(0 74.7101843726366 1.1000492111991775)"><path d="M0.16 0.23 C25.07 0.57, 124.68 1.55, 149.56 1.82 M-0.14 0.08 C24.75 0.47, 124.52 1.78, 149.43 2.12" stroke="#2f9e44" stroke-width="4" fill="none"></path></g><g transform="translate(481.4779923018341 375.95257864672453) rotate(0 74.7101843726366 1.1000492111991775)"><path d="M121.54 12.43 C129.97 8.96, 139.24 6.03, 149.55 1.75 M121.04 12.15 C130.41 8.51, 140.27 5.37, 149.23 1.86" stroke="#2f9e44" stroke-width="4" fill="none"></path></g><g transform="translate(481.4779923018341 375.95257864672453) rotate(0 74.7101843726366 1.1000492111991775)"><path d="M121.82 -8.09 C130.11 -4.9, 139.3 -1.18, 149.55 1.75 M121.32 -8.36 C130.65 -5.15, 140.41 -1.44, 149.23 1.86" stroke="#2f9e44" stroke-width="4" fill="none"></path></g></g><mask></mask><g stroke-linecap="round" transform="translate(20 144.17909705257912) rotate(0 70 62.25)"><path d="M31.13 0 C64.5 4.35, 89.89 1.31, 108.88 0 C129.3 -1.71, 139.85 9.14, 140 31.13 C137.42 43.94, 138.59 60.77, 140 93.38 C138.9 114.73, 132.01 124.41, 108.88 124.5 C83.06 120.54, 63.52 124.99, 31.13 124.5 C7.91 127.35, -3.31 111.42, 0 93.38 C3.33 82.02, -0.17 64.83, 0 31.13 C1.47 13.17, 11.39 0.27, 31.13 0" stroke="none" stroke-width="0" fill="#b2f2bb"></path><path d="M31.13 0 C59.23 1.36, 89.46 -1.52, 108.88 0 M31.13 0 C56.89 0.34, 82.63 -0.75, 108.88 0 M108.88 0 C131.42 -0.06, 138.66 8.58, 140 31.13 M108.88 0 C127.53 2.18, 142.1 10.3, 140 31.13 M140 31.13 C140.39 48.48, 141.31 68.26, 140 93.38 M140 31.13 C141.28 44.81, 141.29 58.21, 140 93.38 M140 93.38 C141.23 116.12, 131.23 125.79, 108.88 124.5 M140 93.38 C142.28 113.79, 127.56 122.62, 108.88 124.5 M108.88 124.5 C91.85 126.32, 71.37 125.05, 31.13 124.5 M108.88 124.5 C85.26 124.75, 60.38 125.23, 31.13 124.5 M31.13 124.5 C10.66 125.16, 1.13 114.59, 0 93.38 M31.13 124.5 C8.77 124.49, 1.8 114.03, 0 93.38 M0 93.38 C-1.64 76.48, 0.25 59.69, 0 31.13 M0 93.38 C0.36 68.27, -0.38 44.2, 0 31.13 M0 31.13 C-0.32 8.68, 8.92 -0.45, 31.13 0 M0 31.13 C-1.34 11.7, 11.57 -1.5, 31.13 0" stroke="#9c36b5" stroke-width="2" fill="none"></path></g><g transform="translate(30.346023559570312 171.42909705257912) rotate(0 59.65397644042969 35)"><text x="59.65397644042969" y="0" font-family="Virgil, Segoe UI Emoji" font-size="28px" fill="#9c36b5" text-anchor="middle" style="white-space: pre;" direction="ltr" dominant-baseline="text-before-edge">Producer</text><text x="59.65397644042969" y="35" font-family="Virgil, Segoe UI Emoji" font-size="28px" fill="#9c36b5" text-anchor="middle" style="white-space: pre;" direction="ltr" dominant-baseline="text-before-edge">A</text></g><g stroke-linecap="round" transform="translate(10 308.179097052579) rotate(0 70.5 64.24999999999994)"><path d="M32 0 C61.17 -1.69, 90.85 -1.22, 109 0 C127.72 -1.42, 139.5 8.53, 141 32 C139.58 49.55, 143.07 65.8, 141 96.5 C141.26 119.68, 127.62 126.58, 109 128.5 C89.65 131.95, 71.93 126.39, 32 128.5 C8.48 127.44, 2.01 120.83, 0 96.5 C1.63 73.61, 1.18 45.39, 0 32 C-2.53 13.79, 7.37 -0.69, 32 0" stroke="none" stroke-width="0" fill="#a5d8ff"></path><path d="M32 0 C62.07 2.33, 91.24 0.06, 109 0 M32 0 C60.01 0.41, 85.56 -0.46, 109 0 M109 0 C128.51 1.9, 142.82 10.6, 141 32 M109 0 C130 0.32, 138.94 11.02, 141 32 M141 32 C139.78 51.09, 141.11 69.82, 141 96.5 M141 32 C142.22 52.52, 142.41 71.68, 141 96.5 M141 96.5 C142.98 117.55, 128.54 126.87, 109 128.5 M141 96.5 C139.43 117.29, 130.08 129.66, 109 128.5 M109 128.5 C78.82 127.4, 48.92 130, 32 128.5 M109 128.5 C86.42 129.17, 64.12 129.07, 32 128.5 M32 128.5 C9.27 128.5, 1.57 117.75, 0 96.5 M32 128.5 C9.81 128.71, 1.06 116.01, 0 96.5 M0 96.5 C1.87 77.54, 0.2 61.17, 0 32 M0 96.5 C0.36 78.27, -0.21 61.52, 0 32 M0 32 C-1.17 11.82, 11.71 -1.3, 32 0 M0 32 C2.19 12.04, 8.44 1.68, 32 0" stroke="#9c36b5" stroke-width="2" fill="none"></path></g><g transform="translate(20.846023559570312 337.429097052579) rotate(0 59.65397644042969 35)"><text x="59.65397644042969" y="0" font-family="Virgil, Segoe UI Emoji" font-size="28px" fill="#9c36b5" text-anchor="middle" style="white-space: pre;" direction="ltr" dominant-baseline="text-before-edge">Producer</text><text x="59.65397644042969" y="35" font-family="Virgil, Segoe UI Emoji" font-size="28px" fill="#9c36b5" text-anchor="middle" style="white-space: pre;" direction="ltr" dominant-baseline="text-before-edge">B</text></g><g mask="url(#mask-3o_4eAyqUomxmlCNqe3RU)" stroke-linecap="round"><g transform="translate(182.50000000000045 220.56850003400692) rotate(0 63.60878176914184 -0.26413752509112953)"><path d="M-0.07 0.16 C8.84 -0.17, 32.51 -2.1, 53.74 -1.94 C74.96 -1.79, 115.11 0.63, 127.28 1.09 M0.47 -0.02 C9.3 -0.33, 32.3 -1.88, 53.42 -1.64 C74.55 -1.39, 115.01 0.99, 127.23 1.42" stroke="#2f9e44" stroke-width="4" fill="none"></path></g><g transform="translate(182.50000000000045 220.56850003400692) rotate(0 63.60878176914184 -0.26413752509112953)"><path d="M98.9 10.11 C109.49 7.41, 121.06 2.96, 126.69 0.88 M98.55 10.41 C109.61 6.88, 121.12 3.49, 127.46 1.18" stroke="#2f9e44" stroke-width="4" fill="none"></path></g><g transform="translate(182.50000000000045 220.56850003400692) rotate(0 63.60878176914184 -0.26413752509112953)"><path d="M99.85 -10.39 C110.08 -5.04, 121.27 -1.44, 126.69 0.88 M99.5 -10.09 C110.24 -5.52, 121.38 -0.82, 127.46 1.18" stroke="#2f9e44" stroke-width="4" fill="none"></path></g></g><mask id="mask-3o_4eAyqUomxmlCNqe3RU"><rect x="0" y="0" fill="#fff" width="409.5000000000009" height="323.4293665892472"></rect><rect x="196.89501190185547" y="201.30409705257887" fill="#000" width="78.95997619628906" height="35" opacity="1"></rect></mask><g transform="translate(196.89501190185547 201.30409705257892) rotate(0 49.21376986728683 19.00026545633689)"><text x="39.47998809814453" y="0" font-family="Virgil, Segoe UI Emoji" font-size="28px" fill="#1e1e1e" text-anchor="middle" style="white-space: pre;" direction="ltr" dominant-baseline="text-before-edge">HTTP</text></g><g stroke-linecap="round"><g transform="translate(175.50000000000045 365.24652274473476) rotate(0 68.07061213614656 -0.30401411653836874)"><path d="M-0.13 -0.17 C22.59 -0.37, 113.62 -0.82, 136.27 -1.01 M0.35 0.4 C23.07 0.24, 113.5 -0.38, 136.18 -0.62" stroke="#2f9e44" stroke-width="4" fill="none"></path></g><g transform="translate(175.50000000000045 365.24652274473476) rotate(0 68.07061213614656 -0.30401411653836874)"><path d="M107.74 10.4 C115.89 6.59, 123.23 3.52, 136.73 -0.09 M107.81 9.92 C116.36 6.93, 124.98 3.4, 136.34 -0.66" stroke="#2f9e44" stroke-width="4" fill="none"></path></g><g transform="translate(175.50000000000045 365.24652274473476) rotate(0 68.07061213614656 -0.30401411653836874)"><path d="M107.57 -10.12 C115.79 -8.2, 123.19 -5.54, 136.73 -0.09 M107.64 -10.6 C116.22 -7.5, 124.9 -4.94, 136.34 -0.66" stroke="#2f9e44" stroke-width="4" fill="none"></path></g></g><mask></mask><g stroke-linecap="round"><g transform="translate(727.7516866452206 465.80409705257875) rotate(0 -176.50389817166888 31.801384566912333)"><path d="M-1.28 0.13 C-31.71 10.13, -124.69 59.6, -183.55 62.04 C-242.41 64.48, -325.88 22.59, -354.41 14.79 M3.23 -2.26 C-26.25 8.04, -118.42 62.44, -178.33 65.69 C-238.24 68.94, -326.9 25.28, -356.24 17.25" stroke="#1e1e1e" stroke-width="4" fill="none"></path></g><g transform="translate(727.7516866452206 465.80409705257875) rotate(0 -176.50389817166888 31.801384566912333)"><path d="M-326.04 14.17 C-334.17 16.95, -343.95 16.5, -357.29 15.26 M-326.02 18.16 C-338.76 18.31, -347.3 15.97, -357.97 16.12" stroke="#1e1e1e" stroke-width="4" fill="none"></path></g><g transform="translate(727.7516866452206 465.80409705257875) rotate(0 -176.50389817166888 31.801384566912333)"><path d="M-333.08 33.45 C-339.62 31.15, -347.52 25.57, -357.29 15.26 M-333.06 37.44 C-343.06 30.28, -348.9 20.58, -357.97 16.12" stroke="#1e1e1e" stroke-width="4" fill="none"></path></g></g><mask></mask><g mask="url(#mask-Wo9bdveKsT_dDWQamC2sy)" stroke-linecap="round"><g transform="translate(734.2436133074316 132.00000000000006) rotate(0 -171.17022473340467 -43.89713095879069)"><path d="M-0.66 2.18 C-32.96 -12.53, -134.18 -83.99, -191.6 -89.57 C-249.02 -95.15, -319.4 -41.31, -345.18 -31.29 M4.17 0.9 C-28.47 -13.44, -134.06 -82.28, -192.51 -87.34 C-250.95 -92.39, -320.96 -39.46, -346.51 -29.43" stroke="#1e1e1e" stroke-width="4" fill="none"></path></g><g transform="translate(734.2436133074316 132.00000000000006) rotate(0 -171.17022473340467 -43.89713095879069)"><path d="M-323.36 -48.26 C-337.92 -42.19, -345.07 -35.32, -347.2 -27.82 M-326.41 -50.3 C-332.58 -44.4, -335.44 -39.11, -346.04 -27.78" stroke="#1e1e1e" stroke-width="4" fill="none"></path></g><g transform="translate(734.2436133074316 132.00000000000006) rotate(0 -171.17022473340467 -43.89713095879069)"><path d="M-313.69 -30.16 C-331.72 -30.96, -342.52 -30.91, -347.2 -27.82 M-316.74 -32.2 C-325.59 -30.86, -330.96 -30.27, -346.04 -27.78" stroke="#1e1e1e" stroke-width="4" fill="none"></path></g></g><mask id="mask-Wo9bdveKsT_dDWQamC2sy"><rect x="0" y="0" fill="#fff" width="1180.2966717658046" height="319.0000000000001"></rect><rect x="476.77057956829685" y="10.000000000000028" fill="#000" width="126.83995056152344" height="70" opacity="1"></rect></mask><g transform="translate(476.77057956829685 10.000000000000014) rotate(0 86.30280900573007 78.10286904120935)"><text x="63.41997528076172" y="0" font-family="Virgil, Segoe UI Emoji" font-size="28px" fill="#1e1e1e" text-anchor="middle" style="white-space: pre;" direction="ltr" dominant-baseline="text-before-edge">Register </text><text x="63.41997528076172" y="35" font-family="Virgil, Segoe UI Emoji" font-size="28px" fill="#1e1e1e" text-anchor="middle" style="white-space: pre;" direction="ltr" dominant-baseline="text-before-edge">interest</text></g></svg>