<?xml version="1.0" encoding="UTF-8" standalone="no"?>
<!-- Created with Inkscape (http://www.inkscape.org/) -->

<svg
   xmlns:dc="http://purl.org/dc/elements/1.1/"
   xmlns:cc="http://creativecommons.org/ns#"
   xmlns:rdf="http://www.w3.org/1999/02/22-rdf-syntax-ns#"
   xmlns:svg="http://www.w3.org/2000/svg"
   xmlns="http://www.w3.org/2000/svg"
   xmlns:sodipodi="http://sodipodi.sourceforge.net/DTD/sodipodi-0.dtd"
   xmlns:inkscape="http://www.inkscape.org/namespaces/inkscape"
   width="178.76338"
   height="53.902569"
   id="svg2985"
   version="1.1"
   inkscape:version="0.48.5 r10040"
   sodipodi:docname="nodelogo.svg">
  <defs
     id="defs3" />
  <sodipodi:namedview
     inkscape:document-units="mm"
     id="base"
     pagecolor="#ffffff"
     bordercolor="#666666"
     borderopacity="1.0"
     inkscape:pageopacity="0.0"
     inkscape:pageshadow="2"
     inkscape:zoom="1.0901639"
     inkscape:cx="229.11046"
     inkscape:cy="62.346436"
     inkscape:current-layer="layer1"
     showgrid="false"
     inkscape:window-width="1680"
     inkscape:window-height="988"
     inkscape:window-x="1672"
     inkscape:window-y="-8"
     inkscape:window-maximized="1"
     units="mm"
     fit-margin-top="0"
     fit-margin-left="0"
     fit-margin-right="0"
     fit-margin-bottom="0" />
  <metadata
     id="metadata4">
    <rdf:RDF>
      <cc:Work
         rdf:about="">
        <dc:format>image/svg+xml</dc:format>
        <dc:type
           rdf:resource="http://purl.org/dc/dcmitype/StillImage" />
        <dc:title />
      </cc:Work>
    </rdf:RDF>
  </metadata>
  <g
     inkscape:label="Layer 1"
     inkscape:groupmode="layer"
     id="layer1"
     transform="translate(-372.40204,-751.7077)">
    <rect
       style="fill:#333333;fill-opacity:1;stroke:none"
       id="rect3889"
       width="178.76338"
       height="53.902569"
       x="372.40204"
       y="751.7077" />
    <g
       id="g3853"
       transform="matrix(0.07238348,0,0,0.07238348,403.35777,748.93962)">
      <path
         id="path3855"
         d="m 260.4,405.2 c 0,-5.1 -3.1,-10.2 -7.1,-12.2 L 137.4,325.9 c -2,-1 -4.1,-2 -6.1,-2 h -1 c -2,0 -4.1,1 -6.1,2 L 7.1,393 C 3,395 0,400.1 0,405.2 v 180 c 0,2 1,5.1 3.1,6.1 2.1,1 5.1,1 7.1,0 l 69.2,-39.7 c 4.1,-3.1 7.1,-7.1 7.1,-12.2 V 455 c 0,-5.1 3.1,-9.2 7.1,-12.2 l 29.5,-17.3 c 2,-1 5.1,-2 7.1,-2 2,0 5.1,1 7.1,2 l 29.5,17.3 c 4.1,2 7.1,7.1 7.1,12.2 v 84.4 c 0,5.1 3.1,9.2 7.1,12.2 l 69.2,39.7 c 2,1 5.1,1 7.1,0 2,-1 3.1,-3.1 3.1,-6.1 l 0,-180 z"
         inkscape:connector-curvature="0"
         style="fill:#ffffff" />
      <path
         id="path3857"
         d="m 879.8,158.1 c -2,-1 -5.1,-1 -7.1,0 -2,1 -3.1,3.1 -3.1,6.1 v 178 c 0,2 -1,3.1 -2,4.1 -1,1 -3.1,1 -5.1,0 L 833,330 c -4.1,-2 -10.2,-2 -14.2,0 l -115.9,67.1 c -4.1,2 -7.1,7.1 -7.1,12.2 v 134.3 c 0,5.1 3.1,9.2 7.1,12.2 l 115.9,67.1 c 4.1,2 10.2,2 14.2,0 l 115.9,-67.1 c 4.1,-2 7.1,-7.1 7.1,-12.2 V 208.9 c 0,-5.1 -3.1,-10.2 -7.1,-12.2 l -69.1,-38.6 z m -11.2,340.7 c 0,1 -1,2 -2,3.1 l -39.7,23.4 c -1,1 -2,1 -3.1,0 l -39.7,-23.4 c -1,-1 -2,-2 -2,-3.1 V 453 c 0,-1 1,-2 2,-3.1 l 39.7,-23.4 c 1,-1 2,-1 3.1,0 l 39.7,23.4 c 1,1 2,2 2,3.1 v 45.8 z"
         inkscape:connector-curvature="0"
         style="fill:#ffffff" />
      <path
         id="path3859"
         d="m 1294.7,451 c 4.1,-2 7.1,-7.1 7.1,-12.2 v -32.5 c 0,-5.1 -3.1,-9.2 -7.1,-12.2 L 1179.8,328 c -4.1,-2 -10.2,-2 -14.2,0 l -115.9,67.1 c -4.1,2 -7.1,7.1 -7.1,12.2 v 134.3 c 0,5.1 3.1,10.2 7.1,12.2 l 114.9,66.1 c 4.1,2 9.2,2 14.2,0 l 70.2,-38.6 c 2,-1 4.1,-3.1 4.1,-6.1 0,-2 -1,-5.1 -3.1,-6.1 L 1133,502 c -2,-1 -3.1,-4.1 -3.1,-6.1 V 454 c 0,-2 1,-5.1 3.1,-6.1 l 36.6,-21.4 c 2,-1 5.1,-1 7.1,0 l 36.6,21.4 c 2,1 3.1,4.1 3.1,6.1 v 32.5 c 0,2 1,5.1 3.1,6.1 2.1,1 5.1,1 7.1,0 l 68.1,-41.6 z"
         inkscape:connector-curvature="0"
         style="fill:#ffffff" />
      <path
         id="path3861"
         d="m 470.9,326.9 c 4.1,-2 10.2,-2 14.2,0 l 116,67.1 c 4.1,2 7.1,7.1 7.1,12.2 v 134.3 c 0,5.1 -3.1,9.2 -7.1,12.2 l -115.9,67.1 c -4.1,2 -10.2,2 -14.2,0 L 355,552.7 c -4.1,-2 -7.1,-7.1 -7.1,-12.2 V 406.2 c 0,-5.1 3.1,-9.2 7.1,-12.2 l 115.9,-67.1 z"
         inkscape:connector-curvature="0"
         style="fill:#80bd01" />
      <path
         id="path3863"
         d="m 1520.5,620.8 c -4.1,0 -8.1,-1 -11.2,-3.1 l -36.6,-21.4 c -5.1,-3.1 -3.1,-4.1 -1,-5.1 7.1,-2 9.2,-3.1 16.3,-7.1 1,0 2,0 3.1,0 l 28.5,16.3 c 1,1 2,1 3.1,0 l 109.8,-63.1 c 1,-1 2,-2 2,-3.1 V 409.3 c 0,-1 -1,-2 -2,-3.1 l -109.8,-63.1 c -1,-1 -2,-1 -3.1,0 l -109.8,63.1 c -1,1 -2,2 -2,3.1 v 126.1 c 0,1 1,2 2,3.1 l 29.5,17.3 c 16.3,8.1 26.4,-1 26.4,-11.2 V 419.5 c 0,-2 1,-3.1 3.1,-3.1 h 14.2 c 2,0 3.1,1 3.1,3.1 v 125.1 c 0,21.4 -12.2,34.6 -32.5,34.6 -6.1,0 -11.2,0 -25.4,-7.1 l -28.5,-16.3 c -7.1,-4.1 -11.2,-12.2 -11.2,-20.3 V 409.3 c 0,-8.1 4.1,-16.3 11.2,-20.3 l 109.8,-63.1 c 7.1,-4.1 16.3,-4.1 23.4,0 l 109.8,63.1 c 7.1,4.1 11.2,12.2 11.2,20.3 v 126.1 c 0,8.1 -4.1,16.3 -11.2,20.3 l -109.8,63.1 c -5.3,1 -8.3,2 -12.4,2 z"
         inkscape:connector-curvature="0"
         style="fill:#80bd01" />
      <path
         id="path3865"
         d="m 1554.1,534.4 c -47.8,0 -58,-22.4 -58,-40.7 0,-2 1,-3.1 3.1,-3.1 h 14.2 c 2,0 3.1,1 3.1,3.1 2,14.2 8.1,21.4 37.6,21.4 23.4,0 32.5,-5.1 32.5,-17.3 0,-7.1 -3.1,-12.2 -38.6,-16.3 -29.5,-3.1 -48.8,-9.2 -48.8,-33.6 0,-22.4 18.3,-35.6 49.8,-35.6 34.6,0 52.9,12.2 54.9,38.6 0,1 0,2 -1,2 -1,1 -1,1 -2,1 h -14.2 c -1,0 -3.1,-1 -3.1,-2 -3.1,-15.3 -11.2,-20.3 -34.6,-20.3 -25.4,0 -28.5,9.2 -28.5,15.3 0,8.1 3.1,10.2 37.6,15.3 33.6,4.1 49.8,11.2 49.8,34.6 0.1,23.4 -19.2,37.6 -53.8,37.6 z"
         inkscape:connector-curvature="0"
         style="fill:#80bd01" />
      <path
         id="path3867"
         d="m 1170.6,444.9 c 1,0 2,0 3.1,0 l 22.4,13.2 c 1,0 1,1 1,2 v 25.4 c 0,1 -1,2 -1,2 l -22.4,13.2 c -1,0 -2,0 -3.1,0 l -22.4,-13.2 c -1,0 -1,-1 -1,-2 v -25.4 c 0,-1 1,-2 1,-2 l 22.4,-13.2 z"
         inkscape:connector-curvature="0"
         style="fill:#80bd01" />
      <g
         id="g3869">
        <path
           id="path3871"
           d="m 1728,359.5 c 0,11.2 -9.2,21.4 -21.4,21.4 -11.2,0 -21.4,-9.2 -21.4,-21.4 0,-12.2 10.2,-21.4 21.4,-21.4 12.2,1 21.4,10.2 21.4,21.4 z m -38.6,0 c 0,10.2 8.1,17.3 17.3,17.3 10.2,0 17.3,-8.1 17.3,-17.3 0,-10.2 -8.1,-17.3 -17.3,-17.3 -9.2,0 -17.3,8.1 -17.3,17.3 z m 10.1,-11.2 h 8.1 c 3.1,0 8.1,0 8.1,6.1 0,4.1 -3.1,5.1 -4.1,6.1 3.1,0 3.1,2 4.1,5.1 0,2 1,5.1 1,6.1 h -5.1 c 0,-1 -1,-7.1 -1,-7.1 0,-1 -1,-2 -2,-2 h -4.1 v 9.2 h -5.1 l 0.1,-23.5 0,0 z m 4.1,10.1 h 4.1 c 3.1,0 4.1,-2 4.1,-3.1 0,-3.1 -2,-3.1 -3.1,-3.1 h -4.1 v 6.1 h -1 z"
           inkscape:connector-curvature="0"
           style="fill:#80bd01" />
      </g>
    </g>
  </g>
</svg>
