<svg version="1.1" xmlns="http://www.w3.org/2000/svg" viewBox="0 0 491 492.0000000000001" width="491" height="492.0000000000001">
  <!-- svg-source:excalidraw -->
  
  <defs>
    <style class="style-fonts">
      @font-face {
        font-family: "Virgil";
        src: url("https://excalidraw.com/Virgil.woff2");
      }
      @font-face {
        font-family: "Cascadia";
        src: url("https://excalidraw.com/Cascadia.woff2");
      }
      @font-face {
        font-family: "Assistant";
        src: url("https://excalidraw.com/Assistant-Regular.woff2");
      }
    </style>
    
  </defs>
  <g stroke-linecap="round" transform="translate(10 10.000000000000028) rotate(0 235.5 235.50000000000003)"><path d="M471 235.5 C471 240.43, 470.84 245.37, 470.54 250.29 C470.23 255.21, 469.76 260.13, 469.14 265.02 C468.53 269.91, 467.75 274.79, 466.83 279.63 C465.91 284.47, 464.83 289.29, 463.6 294.07 C462.38 298.84, 461 303.59, 459.47 308.27 C457.95 312.96, 456.28 317.61, 454.46 322.19 C452.65 326.78, 450.69 331.31, 448.59 335.77 C446.49 340.23, 444.24 344.63, 441.87 348.95 C439.5 353.27, 436.98 357.53, 434.34 361.69 C431.7 365.85, 428.92 369.94, 426.02 373.92 C423.13 377.91, 420.1 381.82, 416.96 385.61 C413.81 389.41, 410.55 393.12, 407.17 396.71 C403.8 400.3, 400.3 403.8, 396.71 407.17 C393.12 410.55, 389.41 413.81, 385.61 416.96 C381.82 420.1, 377.91 423.13, 373.92 426.02 C369.94 428.92, 365.85 431.7, 361.69 434.34 C357.53 436.98, 353.27 439.5, 348.95 441.87 C344.63 444.24, 340.23 446.49, 335.77 448.59 C331.31 450.69, 326.78 452.65, 322.19 454.46 C317.61 456.28, 312.96 457.95, 308.27 459.47 C303.59 461, 298.84 462.38, 294.07 463.6 C289.29 464.83, 284.47 465.91, 279.63 466.83 C274.79 467.75, 269.91 468.53, 265.02 469.14 C260.13 469.76, 255.21 470.23, 250.29 470.54 C245.37 470.84, 240.43 471, 235.5 471 C230.57 471, 225.63 470.84, 220.71 470.54 C215.79 470.23, 210.87 469.76, 205.98 469.14 C201.09 468.53, 196.21 467.75, 191.37 466.83 C186.53 465.91, 181.71 464.83, 176.93 463.6 C172.16 462.38, 167.41 461, 162.73 459.47 C158.04 457.95, 153.39 456.28, 148.81 454.46 C144.22 452.65, 139.69 450.69, 135.23 448.59 C130.77 446.49, 126.37 444.24, 122.05 441.87 C117.73 439.5, 113.47 436.98, 109.31 434.34 C105.15 431.7, 101.06 428.92, 97.08 426.02 C93.09 423.13, 89.18 420.1, 85.39 416.96 C81.59 413.81, 77.88 410.55, 74.29 407.17 C70.7 403.8, 67.2 400.3, 63.83 396.71 C60.45 393.12, 57.19 389.41, 54.04 385.61 C50.9 381.82, 47.87 377.91, 44.98 373.92 C42.08 369.94, 39.3 365.85, 36.66 361.69 C34.02 357.53, 31.5 353.27, 29.13 348.95 C26.76 344.63, 24.51 340.23, 22.41 335.77 C20.31 331.31, 18.35 326.78, 16.54 322.19 C14.72 317.61, 13.05 312.96, 11.53 308.27 C10 303.59, 8.62 298.84, 7.4 294.07 C6.17 289.29, 5.09 284.47, 4.17 279.63 C3.25 274.79, 2.47 269.91, 1.86 265.02 C1.24 260.13, 0.77 255.21, 0.46 250.29 C0.16 245.37, 0 240.43, 0 235.5 C0 230.57, 0.16 225.63, 0.46 220.71 C0.77 215.79, 1.24 210.87, 1.86 205.98 C2.47 201.09, 3.25 196.21, 4.17 191.37 C5.09 186.53, 6.17 181.71, 7.4 176.93 C8.62 172.16, 10 167.41, 11.53 162.73 C13.05 158.04, 14.72 153.39, 16.54 148.81 C18.35 144.22, 20.31 139.69, 22.41 135.23 C24.51 130.77, 26.76 126.37, 29.13 122.05 C31.5 117.73, 34.02 113.47, 36.66 109.31 C39.3 105.15, 42.08 101.06, 44.98 97.08 C47.87 93.09, 50.9 89.18, 54.04 85.39 C57.19 81.59, 60.45 77.88, 63.83 74.29 C67.2 70.7, 70.7 67.2, 74.29 63.83 C77.88 60.45, 81.59 57.19, 85.39 54.04 C89.18 50.9, 93.09 47.87, 97.08 44.98 C101.06 42.08, 105.15 39.3, 109.31 36.66 C113.47 34.02, 117.73 31.5, 122.05 29.13 C126.37 26.76, 130.77 24.51, 135.23 22.41 C139.69 20.31, 144.22 18.35, 148.81 16.54 C153.39 14.72, 158.04 13.05, 162.73 11.53 C167.41 10, 172.16 8.62, 176.93 7.4 C181.71 6.17, 186.53 5.09, 191.37 4.17 C196.21 3.25, 201.09 2.47, 205.98 1.86 C210.87 1.24, 215.79 0.77, 220.71 0.46 C225.63 0.16, 230.57 0, 235.5 0 C240.43 0, 245.37 0.16, 250.29 0.46 C255.21 0.77, 260.13 1.24, 265.02 1.86 C269.91 2.47, 274.79 3.25, 279.63 4.17 C284.47 5.09, 289.29 6.17, 294.07 7.4 C298.84 8.62, 303.59 10, 308.27 11.53 C312.96 13.05, 317.61 14.72, 322.19 16.54 C326.78 18.35, 331.31 20.31, 335.77 22.41 C340.23 24.51, 344.63 26.76, 348.95 29.13 C353.27 31.5, 357.53 34.02, 361.69 36.66 C365.85 39.3, 369.94 42.08, 373.92 44.98 C377.91 47.87, 381.82 50.9, 385.61 54.04 C389.41 57.19, 393.12 60.45, 396.71 63.83 C400.3 67.2, 403.8 70.7, 407.17 74.29 C410.55 77.88, 413.81 81.59, 416.96 85.39 C420.1 89.18, 423.13 93.09, 426.02 97.08 C428.92 101.06, 431.7 105.15, 434.34 109.31 C436.98 113.47, 439.5 117.73, 441.87 122.05 C444.24 126.37, 446.49 130.77, 448.59 135.23 C450.69 139.69, 452.65 144.22, 454.46 148.81 C456.28 153.39, 457.95 158.04, 459.47 162.73 C461 167.41, 462.38 172.16, 463.6 176.93 C464.83 181.71, 465.91 186.53, 466.83 191.37 C467.75 196.21, 468.53 201.09, 469.14 205.98 C469.76 210.87, 470.23 215.79, 470.54 220.71 C470.84 225.63, 470.92 233.04, 471 235.5 C471.08 237.96, 471.08 233.04, 471 235.5" stroke="none" stroke-width="0" fill="#e7f5ff"></path><path d="M471 235.5 C471 240.43, 470.84 245.37, 470.54 250.29 C470.23 255.21, 469.76 260.13, 469.14 265.02 C468.53 269.91, 467.75 274.79, 466.83 279.63 C465.91 284.47, 464.83 289.29, 463.6 294.07 C462.38 298.84, 461 303.59, 459.47 308.27 C457.95 312.96, 456.28 317.61, 454.46 322.19 C452.65 326.78, 450.69 331.31, 448.59 335.77 C446.49 340.23, 444.24 344.63, 441.87 348.95 C439.5 353.27, 436.98 357.53, 434.34 361.69 C431.7 365.85, 428.92 369.94, 426.02 373.92 C423.13 377.91, 420.1 381.82, 416.96 385.61 C413.81 389.41, 410.55 393.12, 407.17 396.71 C403.8 400.3, 400.3 403.8, 396.71 407.17 C393.12 410.55, 389.41 413.81, 385.61 416.96 C381.82 420.1, 377.91 423.13, 373.92 426.02 C369.94 428.92, 365.85 431.7, 361.69 434.34 C357.53 436.98, 353.27 439.5, 348.95 441.87 C344.63 444.24, 340.23 446.49, 335.77 448.59 C331.31 450.69, 326.78 452.65, 322.19 454.46 C317.61 456.28, 312.96 457.95, 308.27 459.47 C303.59 461, 298.84 462.38, 294.07 463.6 C289.29 464.83, 284.47 465.91, 279.63 466.83 C274.79 467.75, 269.91 468.53, 265.02 469.14 C260.13 469.76, 255.21 470.23, 250.29 470.54 C245.37 470.84, 240.43 471, 235.5 471 C230.57 471, 225.63 470.84, 220.71 470.54 C215.79 470.23, 210.87 469.76, 205.98 469.14 C201.09 468.53, 196.21 467.75, 191.37 466.83 C186.53 465.91, 181.71 464.83, 176.93 463.6 C172.16 462.38, 167.41 461, 162.73 459.47 C158.04 457.95, 153.39 456.28, 148.81 454.46 C144.22 452.65, 139.69 450.69, 135.23 448.59 C130.77 446.49, 126.37 444.24, 122.05 441.87 C117.73 439.5, 113.47 436.98, 109.31 434.34 C105.15 431.7, 101.06 428.92, 97.08 426.02 C93.09 423.13, 89.18 420.1, 85.39 416.96 C81.59 413.81, 77.88 410.55, 74.29 407.17 C70.7 403.8, 67.2 400.3, 63.83 396.71 C60.45 393.12, 57.19 389.41, 54.04 385.61 C50.9 381.82, 47.87 377.91, 44.98 373.92 C42.08 369.94, 39.3 365.85, 36.66 361.69 C34.02 357.53, 31.5 353.27, 29.13 348.95 C26.76 344.63, 24.51 340.23, 22.41 335.77 C20.31 331.31, 18.35 326.78, 16.54 322.19 C14.72 317.61, 13.05 312.96, 11.53 308.27 C10 303.59, 8.62 298.84, 7.4 294.07 C6.17 289.29, 5.09 284.47, 4.17 279.63 C3.25 274.79, 2.47 269.91, 1.86 265.02 C1.24 260.13, 0.77 255.21, 0.46 250.29 C0.16 245.37, 0 240.43, 0 235.5 C0 230.57, 0.16 225.63, 0.46 220.71 C0.77 215.79, 1.24 210.87, 1.86 205.98 C2.47 201.09, 3.25 196.21, 4.17 191.37 C5.09 186.53, 6.17 181.71, 7.4 176.93 C8.62 172.16, 10 167.41, 11.53 162.73 C13.05 158.04, 14.72 153.39, 16.54 148.81 C18.35 144.22, 20.31 139.69, 22.41 135.23 C24.51 130.77, 26.76 126.37, 29.13 122.05 C31.5 117.73, 34.02 113.47, 36.66 109.31 C39.3 105.15, 42.08 101.06, 44.98 97.08 C47.87 93.09, 50.9 89.18, 54.04 85.39 C57.19 81.59, 60.45 77.88, 63.83 74.29 C67.2 70.7, 70.7 67.2, 74.29 63.83 C77.88 60.45, 81.59 57.19, 85.39 54.04 C89.18 50.9, 93.09 47.87, 97.08 44.98 C101.06 42.08, 105.15 39.3, 109.31 36.66 C113.47 34.02, 117.73 31.5, 122.05 29.13 C126.37 26.76, 130.77 24.51, 135.23 22.41 C139.69 20.31, 144.22 18.35, 148.81 16.54 C153.39 14.72, 158.04 13.05, 162.73 11.53 C167.41 10, 172.16 8.62, 176.93 7.4 C181.71 6.17, 186.53 5.09, 191.37 4.17 C196.21 3.25, 201.09 2.47, 205.98 1.86 C210.87 1.24, 215.79 0.77, 220.71 0.46 C225.63 0.16, 230.57 0, 235.5 0 C240.43 0, 245.37 0.16, 250.29 0.46 C255.21 0.77, 260.13 1.24, 265.02 1.86 C269.91 2.47, 274.79 3.25, 279.63 4.17 C284.47 5.09, 289.29 6.17, 294.07 7.4 C298.84 8.62, 303.59 10, 308.27 11.53 C312.96 13.05, 317.61 14.72, 322.19 16.54 C326.78 18.35, 331.31 20.31, 335.77 22.41 C340.23 24.51, 344.63 26.76, 348.95 29.13 C353.27 31.5, 357.53 34.02, 361.69 36.66 C365.85 39.3, 369.94 42.08, 373.92 44.98 C377.91 47.87, 381.82 50.9, 385.61 54.04 C389.41 57.19, 393.12 60.45, 396.71 63.83 C400.3 67.2, 403.8 70.7, 407.17 74.29 C410.55 77.88, 413.81 81.59, 416.96 85.39 C420.1 89.18, 423.13 93.09, 426.02 97.08 C428.92 101.06, 431.7 105.15, 434.34 109.31 C436.98 113.47, 439.5 117.73, 441.87 122.05 C444.24 126.37, 446.49 130.77, 448.59 135.23 C450.69 139.69, 452.65 144.22, 454.46 148.81 C456.28 153.39, 457.95 158.04, 459.47 162.73 C461 167.41, 462.38 172.16, 463.6 176.93 C464.83 181.71, 465.91 186.53, 466.83 191.37 C467.75 196.21, 468.53 201.09, 469.14 205.98 C469.76 210.87, 470.23 215.79, 470.54 220.71 C470.84 225.63, 470.92 233.04, 471 235.5 C471.08 237.96, 471.08 233.04, 471 235.5" stroke="#ffffff" stroke-width="2" fill="none"></path></g><g stroke-linecap="round" transform="translate(106 175.00000000000014) rotate(0 153.5 153.5)"><path d="M307 153.5 C307 157.51, 306.84 161.54, 306.53 165.54 C306.21 169.55, 305.74 173.55, 305.11 177.51 C304.48 181.48, 303.7 185.43, 302.76 189.33 C301.82 193.24, 300.73 197.12, 299.49 200.93 C298.25 204.75, 296.85 208.53, 295.32 212.24 C293.78 215.95, 292.09 219.61, 290.27 223.19 C288.45 226.76, 286.48 230.28, 284.38 233.7 C282.28 237.13, 280.04 240.48, 277.68 243.73 C275.32 246.97, 272.83 250.14, 270.22 253.19 C267.62 256.24, 264.88 259.2, 262.04 262.04 C259.2 264.88, 256.24 267.62, 253.19 270.22 C250.14 272.83, 246.97 275.32, 243.73 277.68 C240.48 280.04, 237.13 282.28, 233.7 284.38 C230.28 286.48, 226.76 288.45, 223.19 290.27 C219.61 292.09, 215.95 293.78, 212.24 295.32 C208.53 296.85, 204.75 298.25, 200.93 299.49 C197.12 300.73, 193.24 301.82, 189.33 302.76 C185.43 303.7, 181.48 304.48, 177.51 305.11 C173.55 305.74, 169.55 306.21, 165.54 306.53 C161.54 306.84, 157.51 307, 153.5 307 C149.49 307, 145.46 306.84, 141.46 306.53 C137.45 306.21, 133.45 305.74, 129.49 305.11 C125.52 304.48, 121.57 303.7, 117.67 302.76 C113.76 301.82, 109.88 300.73, 106.07 299.49 C102.25 298.25, 98.47 296.85, 94.76 295.32 C91.05 293.78, 87.39 292.09, 83.81 290.27 C80.24 288.45, 76.72 286.48, 73.3 284.38 C69.87 282.28, 66.52 280.04, 63.27 277.68 C60.03 275.32, 56.86 272.83, 53.81 270.22 C50.76 267.62, 47.8 264.88, 44.96 262.04 C42.12 259.2, 39.38 256.24, 36.78 253.19 C34.17 250.14, 31.68 246.97, 29.32 243.73 C26.96 240.48, 24.72 237.13, 22.62 233.7 C20.52 230.28, 18.55 226.76, 16.73 223.19 C14.91 219.61, 13.22 215.95, 11.68 212.24 C10.15 208.53, 8.75 204.75, 7.51 200.93 C6.27 197.12, 5.18 193.24, 4.24 189.33 C3.3 185.43, 2.52 181.48, 1.89 177.51 C1.26 173.55, 0.79 169.55, 0.47 165.54 C0.16 161.54, 0 157.51, 0 153.5 C0 149.49, 0.16 145.46, 0.47 141.46 C0.79 137.45, 1.26 133.45, 1.89 129.49 C2.52 125.52, 3.3 121.57, 4.24 117.67 C5.18 113.76, 6.27 109.88, 7.51 106.07 C8.75 102.25, 10.15 98.47, 11.68 94.76 C13.22 91.05, 14.91 87.39, 16.73 83.81 C18.55 80.24, 20.52 76.72, 22.62 73.3 C24.72 69.87, 26.96 66.52, 29.32 63.27 C31.68 60.03, 34.17 56.86, 36.78 53.81 C39.38 50.76, 42.12 47.8, 44.96 44.96 C47.8 42.12, 50.76 39.38, 53.81 36.78 C56.86 34.17, 60.03 31.68, 63.27 29.32 C66.52 26.96, 69.87 24.72, 73.3 22.62 C76.72 20.52, 80.24 18.55, 83.81 16.73 C87.39 14.91, 91.05 13.22, 94.76 11.68 C98.47 10.15, 102.25 8.75, 106.07 7.51 C109.88 6.27, 113.76 5.18, 117.67 4.24 C121.57 3.3, 125.52 2.52, 129.49 1.89 C133.45 1.26, 137.45 0.79, 141.46 0.47 C145.46 0.16, 149.49 0, 153.5 0 C157.51 0, 161.54 0.16, 165.54 0.47 C169.55 0.79, 173.55 1.26, 177.51 1.89 C181.48 2.52, 185.43 3.3, 189.33 4.24 C193.24 5.18, 197.12 6.27, 200.93 7.51 C204.75 8.75, 208.53 10.15, 212.24 11.68 C215.95 13.22, 219.61 14.91, 223.19 16.73 C226.76 18.55, 230.28 20.52, 233.7 22.62 C237.13 24.72, 240.48 26.96, 243.73 29.32 C246.97 31.68, 250.14 34.17, 253.19 36.78 C256.24 39.38, 259.2 42.12, 262.04 44.96 C264.88 47.8, 267.62 50.76, 270.22 53.81 C272.83 56.86, 275.32 60.03, 277.68 63.27 C280.04 66.52, 282.28 69.87, 284.38 73.3 C286.48 76.72, 288.45 80.24, 290.27 83.81 C292.09 87.39, 293.78 91.05, 295.32 94.76 C296.85 98.47, 298.25 102.25, 299.49 106.07 C300.73 109.88, 301.82 113.76, 302.76 117.67 C303.7 121.57, 304.48 125.52, 305.11 129.49 C305.74 133.45, 306.21 137.45, 306.53 141.46 C306.84 145.46, 307 149.49, 307 153.5" stroke="none" stroke-width="0" fill="#a5d8ff"></path><path d="M307 153.5 C307 157.51, 306.84 161.54, 306.53 165.54 C306.21 169.55, 305.74 173.55, 305.11 177.51 C304.48 181.48, 303.7 185.43, 302.76 189.33 C301.82 193.24, 300.73 197.12, 299.49 200.93 C298.25 204.75, 296.85 208.53, 295.32 212.24 C293.78 215.95, 292.09 219.61, 290.27 223.19 C288.45 226.76, 286.48 230.28, 284.38 233.7 C282.28 237.13, 280.04 240.48, 277.68 243.73 C275.32 246.97, 272.83 250.14, 270.22 253.19 C267.62 256.24, 264.88 259.2, 262.04 262.04 C259.2 264.88, 256.24 267.62, 253.19 270.22 C250.14 272.83, 246.97 275.32, 243.73 277.68 C240.48 280.04, 237.13 282.28, 233.7 284.38 C230.28 286.48, 226.76 288.45, 223.19 290.27 C219.61 292.09, 215.95 293.78, 212.24 295.32 C208.53 296.85, 204.75 298.25, 200.93 299.49 C197.12 300.73, 193.24 301.82, 189.33 302.76 C185.43 303.7, 181.48 304.48, 177.51 305.11 C173.55 305.74, 169.55 306.21, 165.54 306.53 C161.54 306.84, 157.51 307, 153.5 307 C149.49 307, 145.46 306.84, 141.46 306.53 C137.45 306.21, 133.45 305.74, 129.49 305.11 C125.52 304.48, 121.57 303.7, 117.67 302.76 C113.76 301.82, 109.88 300.73, 106.07 299.49 C102.25 298.25, 98.47 296.85, 94.76 295.32 C91.05 293.78, 87.39 292.09, 83.81 290.27 C80.24 288.45, 76.72 286.48, 73.3 284.38 C69.87 282.28, 66.52 280.04, 63.27 277.68 C60.03 275.32, 56.86 272.83, 53.81 270.22 C50.76 267.62, 47.8 264.88, 44.96 262.04 C42.12 259.2, 39.38 256.24, 36.78 253.19 C34.17 250.14, 31.68 246.97, 29.32 243.73 C26.96 240.48, 24.72 237.13, 22.62 233.7 C20.52 230.28, 18.55 226.76, 16.73 223.19 C14.91 219.61, 13.22 215.95, 11.68 212.24 C10.15 208.53, 8.75 204.75, 7.51 200.93 C6.27 197.12, 5.18 193.24, 4.24 189.33 C3.3 185.43, 2.52 181.48, 1.89 177.51 C1.26 173.55, 0.79 169.55, 0.47 165.54 C0.16 161.54, 0 157.51, 0 153.5 C0 149.49, 0.16 145.46, 0.47 141.46 C0.79 137.45, 1.26 133.45, 1.89 129.49 C2.52 125.52, 3.3 121.57, 4.24 117.67 C5.18 113.76, 6.27 109.88, 7.51 106.07 C8.75 102.25, 10.15 98.47, 11.68 94.76 C13.22 91.05, 14.91 87.39, 16.73 83.81 C18.55 80.24, 20.52 76.72, 22.62 73.3 C24.72 69.87, 26.96 66.52, 29.32 63.27 C31.68 60.03, 34.17 56.86, 36.78 53.81 C39.38 50.76, 42.12 47.8, 44.96 44.96 C47.8 42.12, 50.76 39.38, 53.81 36.78 C56.86 34.17, 60.03 31.68, 63.27 29.32 C66.52 26.96, 69.87 24.72, 73.3 22.62 C76.72 20.52, 80.24 18.55, 83.81 16.73 C87.39 14.91, 91.05 13.22, 94.76 11.68 C98.47 10.15, 102.25 8.75, 106.07 7.51 C109.88 6.27, 113.76 5.18, 117.67 4.24 C121.57 3.3, 125.52 2.52, 129.49 1.89 C133.45 1.26, 137.45 0.79, 141.46 0.47 C145.46 0.16, 149.49 0, 153.5 0 C157.51 0, 161.54 0.16, 165.54 0.47 C169.55 0.79, 173.55 1.26, 177.51 1.89 C181.48 2.52, 185.43 3.3, 189.33 4.24 C193.24 5.18, 197.12 6.27, 200.93 7.51 C204.75 8.75, 208.53 10.15, 212.24 11.68 C215.95 13.22, 219.61 14.91, 223.19 16.73 C226.76 18.55, 230.28 20.52, 233.7 22.62 C237.13 24.72, 240.48 26.96, 243.73 29.32 C246.97 31.68, 250.14 34.17, 253.19 36.78 C256.24 39.38, 259.2 42.12, 262.04 44.96 C264.88 47.8, 267.62 50.76, 270.22 53.81 C272.83 56.86, 275.32 60.03, 277.68 63.27 C280.04 66.52, 282.28 69.87, 284.38 73.3 C286.48 76.72, 288.45 80.24, 290.27 83.81 C292.09 87.39, 293.78 91.05, 295.32 94.76 C296.85 98.47, 298.25 102.25, 299.49 106.07 C300.73 109.88, 301.82 113.76, 302.76 117.67 C303.7 121.57, 304.48 125.52, 305.11 129.49 C305.74 133.45, 306.21 137.45, 306.53 141.46 C306.84 145.46, 307 149.49, 307 153.5" stroke="#ffffff" stroke-width="2" fill="none"></path></g><g stroke-linecap="round" transform="translate(187 306) rotate(0 87 87.00000000000006)"><path d="M174 87 C174 90.03, 173.84 93.08, 173.52 96.09 C173.21 99.11, 172.73 102.12, 172.1 105.09 C171.47 108.05, 170.68 111, 169.74 113.88 C168.81 116.77, 167.71 119.62, 166.48 122.39 C165.25 125.16, 163.86 127.87, 162.34 130.5 C160.83 133.13, 159.17 135.68, 157.38 138.14 C155.6 140.59, 153.68 142.96, 151.65 145.21 C149.63 147.47, 147.47 149.63, 145.21 151.65 C142.96 153.68, 140.59 155.6, 138.14 157.38 C135.68 159.17, 133.13 160.83, 130.5 162.34 C127.87 163.86, 125.16 165.25, 122.39 166.48 C119.62 167.71, 116.77 168.81, 113.88 169.74 C111 170.68, 108.05 171.47, 105.09 172.1 C102.12 172.73, 99.11 173.21, 96.09 173.52 C93.08 173.84, 90.03 174, 87 174 C83.97 174, 80.92 173.84, 77.91 173.52 C74.89 173.21, 71.88 172.73, 68.91 172.1 C65.95 171.47, 63 170.68, 60.12 169.74 C57.23 168.81, 54.38 167.71, 51.61 166.48 C48.84 165.25, 46.13 163.86, 43.5 162.34 C40.87 160.83, 38.32 159.17, 35.86 157.38 C33.41 155.6, 31.04 153.68, 28.79 151.65 C26.53 149.63, 24.37 147.47, 22.35 145.21 C20.32 142.96, 18.4 140.59, 16.62 138.14 C14.83 135.68, 13.17 133.13, 11.66 130.5 C10.14 127.87, 8.75 125.16, 7.52 122.39 C6.29 119.62, 5.19 116.77, 4.26 113.88 C3.32 111, 2.53 108.05, 1.9 105.09 C1.27 102.12, 0.79 99.11, 0.48 96.09 C0.16 93.08, 0 90.03, 0 87 C0 83.97, 0.16 80.92, 0.48 77.91 C0.79 74.89, 1.27 71.88, 1.9 68.91 C2.53 65.95, 3.32 63, 4.26 60.12 C5.19 57.23, 6.29 54.38, 7.52 51.61 C8.75 48.84, 10.14 46.13, 11.66 43.5 C13.17 40.87, 14.83 38.32, 16.62 35.86 C18.4 33.41, 20.32 31.04, 22.35 28.79 C24.37 26.53, 26.53 24.37, 28.79 22.35 C31.04 20.32, 33.41 18.4, 35.86 16.62 C38.32 14.83, 40.87 13.17, 43.5 11.66 C46.13 10.14, 48.84 8.75, 51.61 7.52 C54.38 6.29, 57.23 5.19, 60.12 4.26 C63 3.32, 65.95 2.53, 68.91 1.9 C71.88 1.27, 74.89 0.79, 77.91 0.48 C80.92 0.16, 83.97 0, 87 0 C90.03 0, 93.08 0.16, 96.09 0.48 C99.11 0.79, 102.12 1.27, 105.09 1.9 C108.05 2.53, 111 3.32, 113.88 4.26 C116.77 5.19, 119.62 6.29, 122.39 7.52 C125.16 8.75, 127.87 10.14, 130.5 11.66 C133.13 13.17, 135.68 14.83, 138.14 16.62 C140.59 18.4, 142.96 20.32, 145.21 22.35 C147.47 24.37, 149.63 26.53, 151.65 28.79 C153.68 31.04, 155.6 33.41, 157.38 35.86 C159.17 38.32, 160.83 40.87, 162.34 43.5 C163.86 46.13, 165.25 48.84, 166.48 51.61 C167.71 54.38, 168.81 57.23, 169.74 60.12 C170.68 63, 171.47 65.95, 172.1 68.91 C172.73 71.88, 173.21 74.89, 173.52 77.91 C173.84 80.92, 173.92 85.48, 174 87 C174.08 88.52, 174.08 85.48, 174 87" stroke="none" stroke-width="0" fill="#4dabf7"></path><path d="M174 87 C174 90.03, 173.84 93.08, 173.52 96.09 C173.21 99.11, 172.73 102.12, 172.1 105.09 C171.47 108.05, 170.68 111, 169.74 113.88 C168.81 116.77, 167.71 119.62, 166.48 122.39 C165.25 125.16, 163.86 127.87, 162.34 130.5 C160.83 133.13, 159.17 135.68, 157.38 138.14 C155.6 140.59, 153.68 142.96, 151.65 145.21 C149.63 147.47, 147.47 149.63, 145.21 151.65 C142.96 153.68, 140.59 155.6, 138.14 157.38 C135.68 159.17, 133.13 160.83, 130.5 162.34 C127.87 163.86, 125.16 165.25, 122.39 166.48 C119.62 167.71, 116.77 168.81, 113.88 169.74 C111 170.68, 108.05 171.47, 105.09 172.1 C102.12 172.73, 99.11 173.21, 96.09 173.52 C93.08 173.84, 90.03 174, 87 174 C83.97 174, 80.92 173.84, 77.91 173.52 C74.89 173.21, 71.88 172.73, 68.91 172.1 C65.95 171.47, 63 170.68, 60.12 169.74 C57.23 168.81, 54.38 167.71, 51.61 166.48 C48.84 165.25, 46.13 163.86, 43.5 162.34 C40.87 160.83, 38.32 159.17, 35.86 157.38 C33.41 155.6, 31.04 153.68, 28.79 151.65 C26.53 149.63, 24.37 147.47, 22.35 145.21 C20.32 142.96, 18.4 140.59, 16.62 138.14 C14.83 135.68, 13.17 133.13, 11.66 130.5 C10.14 127.87, 8.75 125.16, 7.52 122.39 C6.29 119.62, 5.19 116.77, 4.26 113.88 C3.32 111, 2.53 108.05, 1.9 105.09 C1.27 102.12, 0.79 99.11, 0.48 96.09 C0.16 93.08, 0 90.03, 0 87 C0 83.97, 0.16 80.92, 0.48 77.91 C0.79 74.89, 1.27 71.88, 1.9 68.91 C2.53 65.95, 3.32 63, 4.26 60.12 C5.19 57.23, 6.29 54.38, 7.52 51.61 C8.75 48.84, 10.14 46.13, 11.66 43.5 C13.17 40.87, 14.83 38.32, 16.62 35.86 C18.4 33.41, 20.32 31.04, 22.35 28.79 C24.37 26.53, 26.53 24.37, 28.79 22.35 C31.04 20.32, 33.41 18.4, 35.86 16.62 C38.32 14.83, 40.87 13.17, 43.5 11.66 C46.13 10.14, 48.84 8.75, 51.61 7.52 C54.38 6.29, 57.23 5.19, 60.12 4.26 C63 3.32, 65.95 2.53, 68.91 1.9 C71.88 1.27, 74.89 0.79, 77.91 0.48 C80.92 0.16, 83.97 0, 87 0 C90.03 0, 93.08 0.16, 96.09 0.48 C99.11 0.79, 102.12 1.27, 105.09 1.9 C108.05 2.53, 111 3.32, 113.88 4.26 C116.77 5.19, 119.62 6.29, 122.39 7.52 C125.16 8.75, 127.87 10.14, 130.5 11.66 C133.13 13.17, 135.68 14.83, 138.14 16.62 C140.59 18.4, 142.96 20.32, 145.21 22.35 C147.47 24.37, 149.63 26.53, 151.65 28.79 C153.68 31.04, 155.6 33.41, 157.38 35.86 C159.17 38.32, 160.83 40.87, 162.34 43.5 C163.86 46.13, 165.25 48.84, 166.48 51.61 C167.71 54.38, 168.81 57.23, 169.74 60.12 C170.68 63, 171.47 65.95, 172.1 68.91 C172.73 71.88, 173.21 74.89, 173.52 77.91 C173.84 80.92, 173.92 85.48, 174 87 C174.08 88.52, 174.08 85.48, 174 87" stroke="#ffffff" stroke-width="2" fill="none"></path></g><g transform="translate(223.6552734375 363.0000000000001) rotate(0 51.3447265625 32.19999999999999)"><text x="51.3447265625" y="0" font-family="Helvetica, Segoe UI Emoji" font-size="28px" fill="#1e1e1e" text-anchor="middle" style="white-space: pre;" direction="ltr" dominant-baseline="text-before-edge">Circle of</text><text x="51.3447265625" y="32.199999999999996" font-family="Helvetica, Segoe UI Emoji" font-size="28px" fill="#1e1e1e" text-anchor="middle" style="white-space: pre;" direction="ltr" dominant-baseline="text-before-edge">control</text></g><g transform="translate(178.958984375 225.8000000000001) rotate(0 56.041015625 32.19999999999999)"><text x="56.041015625" y="0" font-family="Helvetica, Segoe UI Emoji" font-size="28px" fill="#1e1e1e" text-anchor="middle" style="white-space: pre;" direction="ltr" dominant-baseline="text-before-edge">Circle of</text><text x="56.041015625" y="32.199999999999996" font-family="Helvetica, Segoe UI Emoji" font-size="28px" fill="#1e1e1e" text-anchor="middle" style="white-space: pre;" direction="ltr" dominant-baseline="text-before-edge">influence</text></g><g transform="translate(111.6552734375 92.80000000000015) rotate(0 51.3447265625 32.19999999999999)"><text x="51.3447265625" y="0" font-family="Helvetica, Segoe UI Emoji" font-size="28px" fill="#1e1e1e" text-anchor="middle" style="white-space: pre;" direction="ltr" dominant-baseline="text-before-edge">Circle of</text><text x="51.3447265625" y="32.199999999999996" font-family="Helvetica, Segoe UI Emoji" font-size="28px" fill="#1e1e1e" text-anchor="middle" style="white-space: pre;" direction="ltr" dominant-baseline="text-before-edge">concern</text></g></svg>