<svg version="1.1" xmlns="http://www.w3.org/2000/svg" viewBox="0 0 708.861328125 593.5999999999999" width="708.861328125" height="593.5999999999999">
  <!-- svg-source:excalidraw -->
  
  <defs>
    <style class="style-fonts">
      @font-face {
        font-family: "Virgil";
        src: url("https://excalidraw.com/Virgil.woff2");
      }
      @font-face {
        font-family: "Cascadia";
        src: url("https://excalidraw.com/Cascadia.woff2");
      }
      @font-face {
        font-family: "Assistant";
        src: url("https://excalidraw.com/Assistant-Regular.woff2");
      }
    </style>
    
  </defs>
  <g stroke-linecap="round" transform="translate(119.4306640625 231.29999999999998) rotate(0 156 156)"><path d="M312 156 C312 160.08, 311.84 164.17, 311.52 168.24 C311.2 172.31, 310.72 176.37, 310.08 180.4 C309.44 184.43, 308.64 188.45, 307.69 192.42 C306.74 196.38, 305.63 200.33, 304.36 204.21 C303.1 208.09, 301.69 211.93, 300.13 215.7 C298.56 219.47, 296.85 223.19, 295 226.82 C293.14 230.46, 291.14 234.03, 289.01 237.51 C286.88 240.99, 284.6 244.39, 282.21 247.69 C279.81 251, 277.27 254.21, 274.62 257.31 C271.97 260.42, 269.19 263.42, 266.31 266.31 C263.42 269.19, 260.42 271.97, 257.31 274.62 C254.21 277.27, 251 279.81, 247.69 282.21 C244.39 284.6, 240.99 286.88, 237.51 289.01 C234.03 291.14, 230.46 293.14, 226.82 295 C223.19 296.85, 219.47 298.56, 215.7 300.13 C211.93 301.69, 208.09 303.1, 204.21 304.36 C200.33 305.63, 196.38 306.74, 192.42 307.69 C188.45 308.64, 184.43 309.44, 180.4 310.08 C176.37 310.72, 172.31 311.2, 168.24 311.52 C164.17 311.84, 160.08 312, 156 312 C151.92 312, 147.83 311.84, 143.76 311.52 C139.69 311.2, 135.63 310.72, 131.6 310.08 C127.57 309.44, 123.55 308.64, 119.58 307.69 C115.62 306.74, 111.67 305.63, 107.79 304.36 C103.91 303.1, 100.07 301.69, 96.3 300.13 C92.53 298.56, 88.81 296.85, 85.18 295 C81.54 293.14, 77.97 291.14, 74.49 289.01 C71.01 286.88, 67.61 284.6, 64.31 282.21 C61 279.81, 57.79 277.27, 54.69 274.62 C51.58 271.97, 48.58 269.19, 45.69 266.31 C42.81 263.42, 40.03 260.42, 37.38 257.31 C34.73 254.21, 32.19 251, 29.79 247.69 C27.4 244.39, 25.12 240.99, 22.99 237.51 C20.86 234.03, 18.86 230.46, 17 226.82 C15.15 223.19, 13.44 219.47, 11.87 215.7 C10.31 211.93, 8.9 208.09, 7.64 204.21 C6.37 200.33, 5.26 196.38, 4.31 192.42 C3.36 188.45, 2.56 184.43, 1.92 180.4 C1.28 176.37, 0.8 172.31, 0.48 168.24 C0.16 164.17, 0 160.08, 0 156 C0 151.92, 0.16 147.83, 0.48 143.76 C0.8 139.69, 1.28 135.63, 1.92 131.6 C2.56 127.57, 3.36 123.55, 4.31 119.58 C5.26 115.62, 6.37 111.67, 7.64 107.79 C8.9 103.91, 10.31 100.07, 11.87 96.3 C13.44 92.53, 15.15 88.81, 17 85.18 C18.86 81.54, 20.86 77.97, 22.99 74.49 C25.12 71.01, 27.4 67.61, 29.79 64.31 C32.19 61, 34.73 57.79, 37.38 54.69 C40.03 51.58, 42.81 48.58, 45.69 45.69 C48.58 42.81, 51.58 40.03, 54.69 37.38 C57.79 34.73, 61 32.19, 64.31 29.79 C67.61 27.4, 71.01 25.12, 74.49 22.99 C77.97 20.86, 81.54 18.86, 85.18 17 C88.81 15.15, 92.53 13.44, 96.3 11.87 C100.07 10.31, 103.91 8.9, 107.79 7.64 C111.67 6.37, 115.62 5.26, 119.58 4.31 C123.55 3.36, 127.57 2.56, 131.6 1.92 C135.63 1.28, 139.69 0.8, 143.76 0.48 C147.83 0.16, 151.92 0, 156 0 C160.08 0, 164.17 0.16, 168.24 0.48 C172.31 0.8, 176.37 1.28, 180.4 1.92 C184.43 2.56, 188.45 3.36, 192.42 4.31 C196.38 5.26, 200.33 6.37, 204.21 7.64 C208.09 8.9, 211.93 10.31, 215.7 11.87 C219.47 13.44, 223.19 15.15, 226.82 17 C230.46 18.86, 234.03 20.86, 237.51 22.99 C240.99 25.12, 244.39 27.4, 247.69 29.79 C251 32.19, 254.21 34.73, 257.31 37.38 C260.42 40.03, 263.42 42.81, 266.31 45.69 C269.19 48.58, 271.97 51.58, 274.62 54.69 C277.27 57.79, 279.81 61, 282.21 64.31 C284.6 67.61, 286.88 71.01, 289.01 74.49 C291.14 77.97, 293.14 81.54, 295 85.18 C296.85 88.81, 298.56 92.53, 300.13 96.3 C301.69 100.07, 303.1 103.91, 304.36 107.79 C305.63 111.67, 306.74 115.62, 307.69 119.58 C308.64 123.55, 309.44 127.57, 310.08 131.6 C310.72 135.63, 311.2 139.69, 311.52 143.76 C311.84 147.83, 312 151.92, 312 156" stroke="none" stroke-width="0" fill="#4dabf7"></path><path d="M312 156 C312 160.08, 311.84 164.17, 311.52 168.24 C311.2 172.31, 310.72 176.37, 310.08 180.4 C309.44 184.43, 308.64 188.45, 307.69 192.42 C306.74 196.38, 305.63 200.33, 304.36 204.21 C303.1 208.09, 301.69 211.93, 300.13 215.7 C298.56 219.47, 296.85 223.19, 295 226.82 C293.14 230.46, 291.14 234.03, 289.01 237.51 C286.88 240.99, 284.6 244.39, 282.21 247.69 C279.81 251, 277.27 254.21, 274.62 257.31 C271.97 260.42, 269.19 263.42, 266.31 266.31 C263.42 269.19, 260.42 271.97, 257.31 274.62 C254.21 277.27, 251 279.81, 247.69 282.21 C244.39 284.6, 240.99 286.88, 237.51 289.01 C234.03 291.14, 230.46 293.14, 226.82 295 C223.19 296.85, 219.47 298.56, 215.7 300.13 C211.93 301.69, 208.09 303.1, 204.21 304.36 C200.33 305.63, 196.38 306.74, 192.42 307.69 C188.45 308.64, 184.43 309.44, 180.4 310.08 C176.37 310.72, 172.31 311.2, 168.24 311.52 C164.17 311.84, 160.08 312, 156 312 C151.92 312, 147.83 311.84, 143.76 311.52 C139.69 311.2, 135.63 310.72, 131.6 310.08 C127.57 309.44, 123.55 308.64, 119.58 307.69 C115.62 306.74, 111.67 305.63, 107.79 304.36 C103.91 303.1, 100.07 301.69, 96.3 300.13 C92.53 298.56, 88.81 296.85, 85.18 295 C81.54 293.14, 77.97 291.14, 74.49 289.01 C71.01 286.88, 67.61 284.6, 64.31 282.21 C61 279.81, 57.79 277.27, 54.69 274.62 C51.58 271.97, 48.58 269.19, 45.69 266.31 C42.81 263.42, 40.03 260.42, 37.38 257.31 C34.73 254.21, 32.19 251, 29.79 247.69 C27.4 244.39, 25.12 240.99, 22.99 237.51 C20.86 234.03, 18.86 230.46, 17 226.82 C15.15 223.19, 13.44 219.47, 11.87 215.7 C10.31 211.93, 8.9 208.09, 7.64 204.21 C6.37 200.33, 5.26 196.38, 4.31 192.42 C3.36 188.45, 2.56 184.43, 1.92 180.4 C1.28 176.37, 0.8 172.31, 0.48 168.24 C0.16 164.17, 0 160.08, 0 156 C0 151.92, 0.16 147.83, 0.48 143.76 C0.8 139.69, 1.28 135.63, 1.92 131.6 C2.56 127.57, 3.36 123.55, 4.31 119.58 C5.26 115.62, 6.37 111.67, 7.64 107.79 C8.9 103.91, 10.31 100.07, 11.87 96.3 C13.44 92.53, 15.15 88.81, 17 85.18 C18.86 81.54, 20.86 77.97, 22.99 74.49 C25.12 71.01, 27.4 67.61, 29.79 64.31 C32.19 61, 34.73 57.79, 37.38 54.69 C40.03 51.58, 42.81 48.58, 45.69 45.69 C48.58 42.81, 51.58 40.03, 54.69 37.38 C57.79 34.73, 61 32.19, 64.31 29.79 C67.61 27.4, 71.01 25.12, 74.49 22.99 C77.97 20.86, 81.54 18.86, 85.18 17 C88.81 15.15, 92.53 13.44, 96.3 11.87 C100.07 10.31, 103.91 8.9, 107.79 7.64 C111.67 6.37, 115.62 5.26, 119.58 4.31 C123.55 3.36, 127.57 2.56, 131.6 1.92 C135.63 1.28, 139.69 0.8, 143.76 0.48 C147.83 0.16, 151.92 0, 156 0 C160.08 0, 164.17 0.16, 168.24 0.48 C172.31 0.8, 176.37 1.28, 180.4 1.92 C184.43 2.56, 188.45 3.36, 192.42 4.31 C196.38 5.26, 200.33 6.37, 204.21 7.64 C208.09 8.9, 211.93 10.31, 215.7 11.87 C219.47 13.44, 223.19 15.15, 226.82 17 C230.46 18.86, 234.03 20.86, 237.51 22.99 C240.99 25.12, 244.39 27.4, 247.69 29.79 C251 32.19, 254.21 34.73, 257.31 37.38 C260.42 40.03, 263.42 42.81, 266.31 45.69 C269.19 48.58, 271.97 51.58, 274.62 54.69 C277.27 57.79, 279.81 61, 282.21 64.31 C284.6 67.61, 286.88 71.01, 289.01 74.49 C291.14 77.97, 293.14 81.54, 295 85.18 C296.85 88.81, 298.56 92.53, 300.13 96.3 C301.69 100.07, 303.1 103.91, 304.36 107.79 C305.63 111.67, 306.74 115.62, 307.69 119.58 C308.64 123.55, 309.44 127.57, 310.08 131.6 C310.72 135.63, 311.2 139.69, 311.52 143.76 C311.84 147.83, 312 151.92, 312 156" stroke="#1e1e1e" stroke-width="2" fill="none"></path></g><g stroke-linecap="round" transform="translate(306.4306640625 228.29999999999998) rotate(0 156 156)"><path d="M312 156 C312 160.08, 311.84 164.17, 311.52 168.24 C311.2 172.31, 310.72 176.37, 310.08 180.4 C309.44 184.43, 308.64 188.45, 307.69 192.42 C306.74 196.38, 305.63 200.33, 304.36 204.21 C303.1 208.09, 301.69 211.93, 300.13 215.7 C298.56 219.47, 296.85 223.19, 295 226.82 C293.14 230.46, 291.14 234.03, 289.01 237.51 C286.88 240.99, 284.6 244.39, 282.21 247.69 C279.81 251, 277.27 254.21, 274.62 257.31 C271.97 260.42, 269.19 263.42, 266.31 266.31 C263.42 269.19, 260.42 271.97, 257.31 274.62 C254.21 277.27, 251 279.81, 247.69 282.21 C244.39 284.6, 240.99 286.88, 237.51 289.01 C234.03 291.14, 230.46 293.14, 226.82 295 C223.19 296.85, 219.47 298.56, 215.7 300.13 C211.93 301.69, 208.09 303.1, 204.21 304.36 C200.33 305.63, 196.38 306.74, 192.42 307.69 C188.45 308.64, 184.43 309.44, 180.4 310.08 C176.37 310.72, 172.31 311.2, 168.24 311.52 C164.17 311.84, 160.08 312, 156 312 C151.92 312, 147.83 311.84, 143.76 311.52 C139.69 311.2, 135.63 310.72, 131.6 310.08 C127.57 309.44, 123.55 308.64, 119.58 307.69 C115.62 306.74, 111.67 305.63, 107.79 304.36 C103.91 303.1, 100.07 301.69, 96.3 300.13 C92.53 298.56, 88.81 296.85, 85.18 295 C81.54 293.14, 77.97 291.14, 74.49 289.01 C71.01 286.88, 67.61 284.6, 64.31 282.21 C61 279.81, 57.79 277.27, 54.69 274.62 C51.58 271.97, 48.58 269.19, 45.69 266.31 C42.81 263.42, 40.03 260.42, 37.38 257.31 C34.73 254.21, 32.19 251, 29.79 247.69 C27.4 244.39, 25.12 240.99, 22.99 237.51 C20.86 234.03, 18.86 230.46, 17 226.82 C15.15 223.19, 13.44 219.47, 11.87 215.7 C10.31 211.93, 8.9 208.09, 7.64 204.21 C6.37 200.33, 5.26 196.38, 4.31 192.42 C3.36 188.45, 2.56 184.43, 1.92 180.4 C1.28 176.37, 0.8 172.31, 0.48 168.24 C0.16 164.17, 0 160.08, 0 156 C0 151.92, 0.16 147.83, 0.48 143.76 C0.8 139.69, 1.28 135.63, 1.92 131.6 C2.56 127.57, 3.36 123.55, 4.31 119.58 C5.26 115.62, 6.37 111.67, 7.64 107.79 C8.9 103.91, 10.31 100.07, 11.87 96.3 C13.44 92.53, 15.15 88.81, 17 85.18 C18.86 81.54, 20.86 77.97, 22.99 74.49 C25.12 71.01, 27.4 67.61, 29.79 64.31 C32.19 61, 34.73 57.79, 37.38 54.69 C40.03 51.58, 42.81 48.58, 45.69 45.69 C48.58 42.81, 51.58 40.03, 54.69 37.38 C57.79 34.73, 61 32.19, 64.31 29.79 C67.61 27.4, 71.01 25.12, 74.49 22.99 C77.97 20.86, 81.54 18.86, 85.18 17 C88.81 15.15, 92.53 13.44, 96.3 11.87 C100.07 10.31, 103.91 8.9, 107.79 7.64 C111.67 6.37, 115.62 5.26, 119.58 4.31 C123.55 3.36, 127.57 2.56, 131.6 1.92 C135.63 1.28, 139.69 0.8, 143.76 0.48 C147.83 0.16, 151.92 0, 156 0 C160.08 0, 164.17 0.16, 168.24 0.48 C172.31 0.8, 176.37 1.28, 180.4 1.92 C184.43 2.56, 188.45 3.36, 192.42 4.31 C196.38 5.26, 200.33 6.37, 204.21 7.64 C208.09 8.9, 211.93 10.31, 215.7 11.87 C219.47 13.44, 223.19 15.15, 226.82 17 C230.46 18.86, 234.03 20.86, 237.51 22.99 C240.99 25.12, 244.39 27.4, 247.69 29.79 C251 32.19, 254.21 34.73, 257.31 37.38 C260.42 40.03, 263.42 42.81, 266.31 45.69 C269.19 48.58, 271.97 51.58, 274.62 54.69 C277.27 57.79, 279.81 61, 282.21 64.31 C284.6 67.61, 286.88 71.01, 289.01 74.49 C291.14 77.97, 293.14 81.54, 295 85.18 C296.85 88.81, 298.56 92.53, 300.13 96.3 C301.69 100.07, 303.1 103.91, 304.36 107.79 C305.63 111.67, 306.74 115.62, 307.69 119.58 C308.64 123.55, 309.44 127.57, 310.08 131.6 C310.72 135.63, 311.2 139.69, 311.52 143.76 C311.84 147.83, 312 151.92, 312 156" stroke="none" stroke-width="0" fill="#e7f5ff"></path><path d="M312 156 C312 160.08, 311.84 164.17, 311.52 168.24 C311.2 172.31, 310.72 176.37, 310.08 180.4 C309.44 184.43, 308.64 188.45, 307.69 192.42 C306.74 196.38, 305.63 200.33, 304.36 204.21 C303.1 208.09, 301.69 211.93, 300.13 215.7 C298.56 219.47, 296.85 223.19, 295 226.82 C293.14 230.46, 291.14 234.03, 289.01 237.51 C286.88 240.99, 284.6 244.39, 282.21 247.69 C279.81 251, 277.27 254.21, 274.62 257.31 C271.97 260.42, 269.19 263.42, 266.31 266.31 C263.42 269.19, 260.42 271.97, 257.31 274.62 C254.21 277.27, 251 279.81, 247.69 282.21 C244.39 284.6, 240.99 286.88, 237.51 289.01 C234.03 291.14, 230.46 293.14, 226.82 295 C223.19 296.85, 219.47 298.56, 215.7 300.13 C211.93 301.69, 208.09 303.1, 204.21 304.36 C200.33 305.63, 196.38 306.74, 192.42 307.69 C188.45 308.64, 184.43 309.44, 180.4 310.08 C176.37 310.72, 172.31 311.2, 168.24 311.52 C164.17 311.84, 160.08 312, 156 312 C151.92 312, 147.83 311.84, 143.76 311.52 C139.69 311.2, 135.63 310.72, 131.6 310.08 C127.57 309.44, 123.55 308.64, 119.58 307.69 C115.62 306.74, 111.67 305.63, 107.79 304.36 C103.91 303.1, 100.07 301.69, 96.3 300.13 C92.53 298.56, 88.81 296.85, 85.18 295 C81.54 293.14, 77.97 291.14, 74.49 289.01 C71.01 286.88, 67.61 284.6, 64.31 282.21 C61 279.81, 57.79 277.27, 54.69 274.62 C51.58 271.97, 48.58 269.19, 45.69 266.31 C42.81 263.42, 40.03 260.42, 37.38 257.31 C34.73 254.21, 32.19 251, 29.79 247.69 C27.4 244.39, 25.12 240.99, 22.99 237.51 C20.86 234.03, 18.86 230.46, 17 226.82 C15.15 223.19, 13.44 219.47, 11.87 215.7 C10.31 211.93, 8.9 208.09, 7.64 204.21 C6.37 200.33, 5.26 196.38, 4.31 192.42 C3.36 188.45, 2.56 184.43, 1.92 180.4 C1.28 176.37, 0.8 172.31, 0.48 168.24 C0.16 164.17, 0 160.08, 0 156 C0 151.92, 0.16 147.83, 0.48 143.76 C0.8 139.69, 1.28 135.63, 1.92 131.6 C2.56 127.57, 3.36 123.55, 4.31 119.58 C5.26 115.62, 6.37 111.67, 7.64 107.79 C8.9 103.91, 10.31 100.07, 11.87 96.3 C13.44 92.53, 15.15 88.81, 17 85.18 C18.86 81.54, 20.86 77.97, 22.99 74.49 C25.12 71.01, 27.4 67.61, 29.79 64.31 C32.19 61, 34.73 57.79, 37.38 54.69 C40.03 51.58, 42.81 48.58, 45.69 45.69 C48.58 42.81, 51.58 40.03, 54.69 37.38 C57.79 34.73, 61 32.19, 64.31 29.79 C67.61 27.4, 71.01 25.12, 74.49 22.99 C77.97 20.86, 81.54 18.86, 85.18 17 C88.81 15.15, 92.53 13.44, 96.3 11.87 C100.07 10.31, 103.91 8.9, 107.79 7.64 C111.67 6.37, 115.62 5.26, 119.58 4.31 C123.55 3.36, 127.57 2.56, 131.6 1.92 C135.63 1.28, 139.69 0.8, 143.76 0.48 C147.83 0.16, 151.92 0, 156 0 C160.08 0, 164.17 0.16, 168.24 0.48 C172.31 0.8, 176.37 1.28, 180.4 1.92 C184.43 2.56, 188.45 3.36, 192.42 4.31 C196.38 5.26, 200.33 6.37, 204.21 7.64 C208.09 8.9, 211.93 10.31, 215.7 11.87 C219.47 13.44, 223.19 15.15, 226.82 17 C230.46 18.86, 234.03 20.86, 237.51 22.99 C240.99 25.12, 244.39 27.4, 247.69 29.79 C251 32.19, 254.21 34.73, 257.31 37.38 C260.42 40.03, 263.42 42.81, 266.31 45.69 C269.19 48.58, 271.97 51.58, 274.62 54.69 C277.27 57.79, 279.81 61, 282.21 64.31 C284.6 67.61, 286.88 71.01, 289.01 74.49 C291.14 77.97, 293.14 81.54, 295 85.18 C296.85 88.81, 298.56 92.53, 300.13 96.3 C301.69 100.07, 303.1 103.91, 304.36 107.79 C305.63 111.67, 306.74 115.62, 307.69 119.58 C308.64 123.55, 309.44 127.57, 310.08 131.6 C310.72 135.63, 311.2 139.69, 311.52 143.76 C311.84 147.83, 312 151.92, 312 156" stroke="#1e1e1e" stroke-width="2" fill="none"></path></g><g stroke-linecap="round" transform="translate(215.4306640625 84.29999999999998) rotate(0 156 156)"><path d="M312 156 C312 160.08, 311.84 164.17, 311.52 168.24 C311.2 172.31, 310.72 176.37, 310.08 180.4 C309.44 184.43, 308.64 188.45, 307.69 192.42 C306.74 196.38, 305.63 200.33, 304.36 204.21 C303.1 208.09, 301.69 211.93, 300.13 215.7 C298.56 219.47, 296.85 223.19, 295 226.82 C293.14 230.46, 291.14 234.03, 289.01 237.51 C286.88 240.99, 284.6 244.39, 282.21 247.69 C279.81 251, 277.27 254.21, 274.62 257.31 C271.97 260.42, 269.19 263.42, 266.31 266.31 C263.42 269.19, 260.42 271.97, 257.31 274.62 C254.21 277.27, 251 279.81, 247.69 282.21 C244.39 284.6, 240.99 286.88, 237.51 289.01 C234.03 291.14, 230.46 293.14, 226.82 295 C223.19 296.85, 219.47 298.56, 215.7 300.13 C211.93 301.69, 208.09 303.1, 204.21 304.36 C200.33 305.63, 196.38 306.74, 192.42 307.69 C188.45 308.64, 184.43 309.44, 180.4 310.08 C176.37 310.72, 172.31 311.2, 168.24 311.52 C164.17 311.84, 160.08 312, 156 312 C151.92 312, 147.83 311.84, 143.76 311.52 C139.69 311.2, 135.63 310.72, 131.6 310.08 C127.57 309.44, 123.55 308.64, 119.58 307.69 C115.62 306.74, 111.67 305.63, 107.79 304.36 C103.91 303.1, 100.07 301.69, 96.3 300.13 C92.53 298.56, 88.81 296.85, 85.18 295 C81.54 293.14, 77.97 291.14, 74.49 289.01 C71.01 286.88, 67.61 284.6, 64.31 282.21 C61 279.81, 57.79 277.27, 54.69 274.62 C51.58 271.97, 48.58 269.19, 45.69 266.31 C42.81 263.42, 40.03 260.42, 37.38 257.31 C34.73 254.21, 32.19 251, 29.79 247.69 C27.4 244.39, 25.12 240.99, 22.99 237.51 C20.86 234.03, 18.86 230.46, 17 226.82 C15.15 223.19, 13.44 219.47, 11.87 215.7 C10.31 211.93, 8.9 208.09, 7.64 204.21 C6.37 200.33, 5.26 196.38, 4.31 192.42 C3.36 188.45, 2.56 184.43, 1.92 180.4 C1.28 176.37, 0.8 172.31, 0.48 168.24 C0.16 164.17, 0 160.08, 0 156 C0 151.92, 0.16 147.83, 0.48 143.76 C0.8 139.69, 1.28 135.63, 1.92 131.6 C2.56 127.57, 3.36 123.55, 4.31 119.58 C5.26 115.62, 6.37 111.67, 7.64 107.79 C8.9 103.91, 10.31 100.07, 11.87 96.3 C13.44 92.53, 15.15 88.81, 17 85.18 C18.86 81.54, 20.86 77.97, 22.99 74.49 C25.12 71.01, 27.4 67.61, 29.79 64.31 C32.19 61, 34.73 57.79, 37.38 54.69 C40.03 51.58, 42.81 48.58, 45.69 45.69 C48.58 42.81, 51.58 40.03, 54.69 37.38 C57.79 34.73, 61 32.19, 64.31 29.79 C67.61 27.4, 71.01 25.12, 74.49 22.99 C77.97 20.86, 81.54 18.86, 85.18 17 C88.81 15.15, 92.53 13.44, 96.3 11.87 C100.07 10.31, 103.91 8.9, 107.79 7.64 C111.67 6.37, 115.62 5.26, 119.58 4.31 C123.55 3.36, 127.57 2.56, 131.6 1.92 C135.63 1.28, 139.69 0.8, 143.76 0.48 C147.83 0.16, 151.92 0, 156 0 C160.08 0, 164.17 0.16, 168.24 0.48 C172.31 0.8, 176.37 1.28, 180.4 1.92 C184.43 2.56, 188.45 3.36, 192.42 4.31 C196.38 5.26, 200.33 6.37, 204.21 7.64 C208.09 8.9, 211.93 10.31, 215.7 11.87 C219.47 13.44, 223.19 15.15, 226.82 17 C230.46 18.86, 234.03 20.86, 237.51 22.99 C240.99 25.12, 244.39 27.4, 247.69 29.79 C251 32.19, 254.21 34.73, 257.31 37.38 C260.42 40.03, 263.42 42.81, 266.31 45.69 C269.19 48.58, 271.97 51.58, 274.62 54.69 C277.27 57.79, 279.81 61, 282.21 64.31 C284.6 67.61, 286.88 71.01, 289.01 74.49 C291.14 77.97, 293.14 81.54, 295 85.18 C296.85 88.81, 298.56 92.53, 300.13 96.3 C301.69 100.07, 303.1 103.91, 304.36 107.79 C305.63 111.67, 306.74 115.62, 307.69 119.58 C308.64 123.55, 309.44 127.57, 310.08 131.6 C310.72 135.63, 311.2 139.69, 311.52 143.76 C311.84 147.83, 312 151.92, 312 156" stroke="none" stroke-width="0" fill="#a5d8ff"></path><path d="M312 156 C312 160.08, 311.84 164.17, 311.52 168.24 C311.2 172.31, 310.72 176.37, 310.08 180.4 C309.44 184.43, 308.64 188.45, 307.69 192.42 C306.74 196.38, 305.63 200.33, 304.36 204.21 C303.1 208.09, 301.69 211.93, 300.13 215.7 C298.56 219.47, 296.85 223.19, 295 226.82 C293.14 230.46, 291.14 234.03, 289.01 237.51 C286.88 240.99, 284.6 244.39, 282.21 247.69 C279.81 251, 277.27 254.21, 274.62 257.31 C271.97 260.42, 269.19 263.42, 266.31 266.31 C263.42 269.19, 260.42 271.97, 257.31 274.62 C254.21 277.27, 251 279.81, 247.69 282.21 C244.39 284.6, 240.99 286.88, 237.51 289.01 C234.03 291.14, 230.46 293.14, 226.82 295 C223.19 296.85, 219.47 298.56, 215.7 300.13 C211.93 301.69, 208.09 303.1, 204.21 304.36 C200.33 305.63, 196.38 306.74, 192.42 307.69 C188.45 308.64, 184.43 309.44, 180.4 310.08 C176.37 310.72, 172.31 311.2, 168.24 311.52 C164.17 311.84, 160.08 312, 156 312 C151.92 312, 147.83 311.84, 143.76 311.52 C139.69 311.2, 135.63 310.72, 131.6 310.08 C127.57 309.44, 123.55 308.64, 119.58 307.69 C115.62 306.74, 111.67 305.63, 107.79 304.36 C103.91 303.1, 100.07 301.69, 96.3 300.13 C92.53 298.56, 88.81 296.85, 85.18 295 C81.54 293.14, 77.97 291.14, 74.49 289.01 C71.01 286.88, 67.61 284.6, 64.31 282.21 C61 279.81, 57.79 277.27, 54.69 274.62 C51.58 271.97, 48.58 269.19, 45.69 266.31 C42.81 263.42, 40.03 260.42, 37.38 257.31 C34.73 254.21, 32.19 251, 29.79 247.69 C27.4 244.39, 25.12 240.99, 22.99 237.51 C20.86 234.03, 18.86 230.46, 17 226.82 C15.15 223.19, 13.44 219.47, 11.87 215.7 C10.31 211.93, 8.9 208.09, 7.64 204.21 C6.37 200.33, 5.26 196.38, 4.31 192.42 C3.36 188.45, 2.56 184.43, 1.92 180.4 C1.28 176.37, 0.8 172.31, 0.48 168.24 C0.16 164.17, 0 160.08, 0 156 C0 151.92, 0.16 147.83, 0.48 143.76 C0.8 139.69, 1.28 135.63, 1.92 131.6 C2.56 127.57, 3.36 123.55, 4.31 119.58 C5.26 115.62, 6.37 111.67, 7.64 107.79 C8.9 103.91, 10.31 100.07, 11.87 96.3 C13.44 92.53, 15.15 88.81, 17 85.18 C18.86 81.54, 20.86 77.97, 22.99 74.49 C25.12 71.01, 27.4 67.61, 29.79 64.31 C32.19 61, 34.73 57.79, 37.38 54.69 C40.03 51.58, 42.81 48.58, 45.69 45.69 C48.58 42.81, 51.58 40.03, 54.69 37.38 C57.79 34.73, 61 32.19, 64.31 29.79 C67.61 27.4, 71.01 25.12, 74.49 22.99 C77.97 20.86, 81.54 18.86, 85.18 17 C88.81 15.15, 92.53 13.44, 96.3 11.87 C100.07 10.31, 103.91 8.9, 107.79 7.64 C111.67 6.37, 115.62 5.26, 119.58 4.31 C123.55 3.36, 127.57 2.56, 131.6 1.92 C135.63 1.28, 139.69 0.8, 143.76 0.48 C147.83 0.16, 151.92 0, 156 0 C160.08 0, 164.17 0.16, 168.24 0.48 C172.31 0.8, 176.37 1.28, 180.4 1.92 C184.43 2.56, 188.45 3.36, 192.42 4.31 C196.38 5.26, 200.33 6.37, 204.21 7.64 C208.09 8.9, 211.93 10.31, 215.7 11.87 C219.47 13.44, 223.19 15.15, 226.82 17 C230.46 18.86, 234.03 20.86, 237.51 22.99 C240.99 25.12, 244.39 27.4, 247.69 29.79 C251 32.19, 254.21 34.73, 257.31 37.38 C260.42 40.03, 263.42 42.81, 266.31 45.69 C269.19 48.58, 271.97 51.58, 274.62 54.69 C277.27 57.79, 279.81 61, 282.21 64.31 C284.6 67.61, 286.88 71.01, 289.01 74.49 C291.14 77.97, 293.14 81.54, 295 85.18 C296.85 88.81, 298.56 92.53, 300.13 96.3 C301.69 100.07, 303.1 103.91, 304.36 107.79 C305.63 111.67, 306.74 115.62, 307.69 119.58 C308.64 123.55, 309.44 127.57, 310.08 131.6 C310.72 135.63, 311.2 139.69, 311.52 143.76 C311.84 147.83, 312 151.92, 312 156" stroke="#1e1e1e" stroke-width="2" fill="none"></path></g><g stroke-linecap="round" transform="translate(119.1513671875 231.06666805744172) rotate(0 156 156)"><path d="M312 156 C312 160.08, 311.84 164.17, 311.52 168.24 C311.2 172.31, 310.72 176.37, 310.08 180.4 C309.44 184.43, 308.64 188.45, 307.69 192.42 C306.74 196.38, 305.63 200.33, 304.36 204.21 C303.1 208.09, 301.69 211.93, 300.13 215.7 C298.56 219.47, 296.85 223.19, 295 226.82 C293.14 230.46, 291.14 234.03, 289.01 237.51 C286.88 240.99, 284.6 244.39, 282.21 247.69 C279.81 251, 277.27 254.21, 274.62 257.31 C271.97 260.42, 269.19 263.42, 266.31 266.31 C263.42 269.19, 260.42 271.97, 257.31 274.62 C254.21 277.27, 251 279.81, 247.69 282.21 C244.39 284.6, 240.99 286.88, 237.51 289.01 C234.03 291.14, 230.46 293.14, 226.82 295 C223.19 296.85, 219.47 298.56, 215.7 300.13 C211.93 301.69, 208.09 303.1, 204.21 304.36 C200.33 305.63, 196.38 306.74, 192.42 307.69 C188.45 308.64, 184.43 309.44, 180.4 310.08 C176.37 310.72, 172.31 311.2, 168.24 311.52 C164.17 311.84, 160.08 312, 156 312 C151.92 312, 147.83 311.84, 143.76 311.52 C139.69 311.2, 135.63 310.72, 131.6 310.08 C127.57 309.44, 123.55 308.64, 119.58 307.69 C115.62 306.74, 111.67 305.63, 107.79 304.36 C103.91 303.1, 100.07 301.69, 96.3 300.13 C92.53 298.56, 88.81 296.85, 85.18 295 C81.54 293.14, 77.97 291.14, 74.49 289.01 C71.01 286.88, 67.61 284.6, 64.31 282.21 C61 279.81, 57.79 277.27, 54.69 274.62 C51.58 271.97, 48.58 269.19, 45.69 266.31 C42.81 263.42, 40.03 260.42, 37.38 257.31 C34.73 254.21, 32.19 251, 29.79 247.69 C27.4 244.39, 25.12 240.99, 22.99 237.51 C20.86 234.03, 18.86 230.46, 17 226.82 C15.15 223.19, 13.44 219.47, 11.87 215.7 C10.31 211.93, 8.9 208.09, 7.64 204.21 C6.37 200.33, 5.26 196.38, 4.31 192.42 C3.36 188.45, 2.56 184.43, 1.92 180.4 C1.28 176.37, 0.8 172.31, 0.48 168.24 C0.16 164.17, 0 160.08, 0 156 C0 151.92, 0.16 147.83, 0.48 143.76 C0.8 139.69, 1.28 135.63, 1.92 131.6 C2.56 127.57, 3.36 123.55, 4.31 119.58 C5.26 115.62, 6.37 111.67, 7.64 107.79 C8.9 103.91, 10.31 100.07, 11.87 96.3 C13.44 92.53, 15.15 88.81, 17 85.18 C18.86 81.54, 20.86 77.97, 22.99 74.49 C25.12 71.01, 27.4 67.61, 29.79 64.31 C32.19 61, 34.73 57.79, 37.38 54.69 C40.03 51.58, 42.81 48.58, 45.69 45.69 C48.58 42.81, 51.58 40.03, 54.69 37.38 C57.79 34.73, 61 32.19, 64.31 29.79 C67.61 27.4, 71.01 25.12, 74.49 22.99 C77.97 20.86, 81.54 18.86, 85.18 17 C88.81 15.15, 92.53 13.44, 96.3 11.87 C100.07 10.31, 103.91 8.9, 107.79 7.64 C111.67 6.37, 115.62 5.26, 119.58 4.31 C123.55 3.36, 127.57 2.56, 131.6 1.92 C135.63 1.28, 139.69 0.8, 143.76 0.48 C147.83 0.16, 151.92 0, 156 0 C160.08 0, 164.17 0.16, 168.24 0.48 C172.31 0.8, 176.37 1.28, 180.4 1.92 C184.43 2.56, 188.45 3.36, 192.42 4.31 C196.38 5.26, 200.33 6.37, 204.21 7.64 C208.09 8.9, 211.93 10.31, 215.7 11.87 C219.47 13.44, 223.19 15.15, 226.82 17 C230.46 18.86, 234.03 20.86, 237.51 22.99 C240.99 25.12, 244.39 27.4, 247.69 29.79 C251 32.19, 254.21 34.73, 257.31 37.38 C260.42 40.03, 263.42 42.81, 266.31 45.69 C269.19 48.58, 271.97 51.58, 274.62 54.69 C277.27 57.79, 279.81 61, 282.21 64.31 C284.6 67.61, 286.88 71.01, 289.01 74.49 C291.14 77.97, 293.14 81.54, 295 85.18 C296.85 88.81, 298.56 92.53, 300.13 96.3 C301.69 100.07, 303.1 103.91, 304.36 107.79 C305.63 111.67, 306.74 115.62, 307.69 119.58 C308.64 123.55, 309.44 127.57, 310.08 131.6 C310.72 135.63, 311.2 139.69, 311.52 143.76 C311.84 147.83, 312 151.92, 312 156" stroke="#1e1e1e" stroke-width="2" fill="none"></path></g><g stroke-linecap="round" transform="translate(215.1513671875 84.06666805744172) rotate(0 156 156)"><path d="M312 156 C312 160.08, 311.84 164.17, 311.52 168.24 C311.2 172.31, 310.72 176.37, 310.08 180.4 C309.44 184.43, 308.64 188.45, 307.69 192.42 C306.74 196.38, 305.63 200.33, 304.36 204.21 C303.1 208.09, 301.69 211.93, 300.13 215.7 C298.56 219.47, 296.85 223.19, 295 226.82 C293.14 230.46, 291.14 234.03, 289.01 237.51 C286.88 240.99, 284.6 244.39, 282.21 247.69 C279.81 251, 277.27 254.21, 274.62 257.31 C271.97 260.42, 269.19 263.42, 266.31 266.31 C263.42 269.19, 260.42 271.97, 257.31 274.62 C254.21 277.27, 251 279.81, 247.69 282.21 C244.39 284.6, 240.99 286.88, 237.51 289.01 C234.03 291.14, 230.46 293.14, 226.82 295 C223.19 296.85, 219.47 298.56, 215.7 300.13 C211.93 301.69, 208.09 303.1, 204.21 304.36 C200.33 305.63, 196.38 306.74, 192.42 307.69 C188.45 308.64, 184.43 309.44, 180.4 310.08 C176.37 310.72, 172.31 311.2, 168.24 311.52 C164.17 311.84, 160.08 312, 156 312 C151.92 312, 147.83 311.84, 143.76 311.52 C139.69 311.2, 135.63 310.72, 131.6 310.08 C127.57 309.44, 123.55 308.64, 119.58 307.69 C115.62 306.74, 111.67 305.63, 107.79 304.36 C103.91 303.1, 100.07 301.69, 96.3 300.13 C92.53 298.56, 88.81 296.85, 85.18 295 C81.54 293.14, 77.97 291.14, 74.49 289.01 C71.01 286.88, 67.61 284.6, 64.31 282.21 C61 279.81, 57.79 277.27, 54.69 274.62 C51.58 271.97, 48.58 269.19, 45.69 266.31 C42.81 263.42, 40.03 260.42, 37.38 257.31 C34.73 254.21, 32.19 251, 29.79 247.69 C27.4 244.39, 25.12 240.99, 22.99 237.51 C20.86 234.03, 18.86 230.46, 17 226.82 C15.15 223.19, 13.44 219.47, 11.87 215.7 C10.31 211.93, 8.9 208.09, 7.64 204.21 C6.37 200.33, 5.26 196.38, 4.31 192.42 C3.36 188.45, 2.56 184.43, 1.92 180.4 C1.28 176.37, 0.8 172.31, 0.48 168.24 C0.16 164.17, 0 160.08, 0 156 C0 151.92, 0.16 147.83, 0.48 143.76 C0.8 139.69, 1.28 135.63, 1.92 131.6 C2.56 127.57, 3.36 123.55, 4.31 119.58 C5.26 115.62, 6.37 111.67, 7.64 107.79 C8.9 103.91, 10.31 100.07, 11.87 96.3 C13.44 92.53, 15.15 88.81, 17 85.18 C18.86 81.54, 20.86 77.97, 22.99 74.49 C25.12 71.01, 27.4 67.61, 29.79 64.31 C32.19 61, 34.73 57.79, 37.38 54.69 C40.03 51.58, 42.81 48.58, 45.69 45.69 C48.58 42.81, 51.58 40.03, 54.69 37.38 C57.79 34.73, 61 32.19, 64.31 29.79 C67.61 27.4, 71.01 25.12, 74.49 22.99 C77.97 20.86, 81.54 18.86, 85.18 17 C88.81 15.15, 92.53 13.44, 96.3 11.87 C100.07 10.31, 103.91 8.9, 107.79 7.64 C111.67 6.37, 115.62 5.26, 119.58 4.31 C123.55 3.36, 127.57 2.56, 131.6 1.92 C135.63 1.28, 139.69 0.8, 143.76 0.48 C147.83 0.16, 151.92 0, 156 0 C160.08 0, 164.17 0.16, 168.24 0.48 C172.31 0.8, 176.37 1.28, 180.4 1.92 C184.43 2.56, 188.45 3.36, 192.42 4.31 C196.38 5.26, 200.33 6.37, 204.21 7.64 C208.09 8.9, 211.93 10.31, 215.7 11.87 C219.47 13.44, 223.19 15.15, 226.82 17 C230.46 18.86, 234.03 20.86, 237.51 22.99 C240.99 25.12, 244.39 27.4, 247.69 29.79 C251 32.19, 254.21 34.73, 257.31 37.38 C260.42 40.03, 263.42 42.81, 266.31 45.69 C269.19 48.58, 271.97 51.58, 274.62 54.69 C277.27 57.79, 279.81 61, 282.21 64.31 C284.6 67.61, 286.88 71.01, 289.01 74.49 C291.14 77.97, 293.14 81.54, 295 85.18 C296.85 88.81, 298.56 92.53, 300.13 96.3 C301.69 100.07, 303.1 103.91, 304.36 107.79 C305.63 111.67, 306.74 115.62, 307.69 119.58 C308.64 123.55, 309.44 127.57, 310.08 131.6 C310.72 135.63, 311.2 139.69, 311.52 143.76 C311.84 147.83, 312 151.92, 312 156" stroke="#1e1e1e" stroke-width="2" fill="none"></path></g><g stroke-linecap="round" transform="translate(306.1513671875 228.06666805744172) rotate(0 156 156)"><path d="M312 156 C312 160.08, 311.84 164.17, 311.52 168.24 C311.2 172.31, 310.72 176.37, 310.08 180.4 C309.44 184.43, 308.64 188.45, 307.69 192.42 C306.74 196.38, 305.63 200.33, 304.36 204.21 C303.1 208.09, 301.69 211.93, 300.13 215.7 C298.56 219.47, 296.85 223.19, 295 226.82 C293.14 230.46, 291.14 234.03, 289.01 237.51 C286.88 240.99, 284.6 244.39, 282.21 247.69 C279.81 251, 277.27 254.21, 274.62 257.31 C271.97 260.42, 269.19 263.42, 266.31 266.31 C263.42 269.19, 260.42 271.97, 257.31 274.62 C254.21 277.27, 251 279.81, 247.69 282.21 C244.39 284.6, 240.99 286.88, 237.51 289.01 C234.03 291.14, 230.46 293.14, 226.82 295 C223.19 296.85, 219.47 298.56, 215.7 300.13 C211.93 301.69, 208.09 303.1, 204.21 304.36 C200.33 305.63, 196.38 306.74, 192.42 307.69 C188.45 308.64, 184.43 309.44, 180.4 310.08 C176.37 310.72, 172.31 311.2, 168.24 311.52 C164.17 311.84, 160.08 312, 156 312 C151.92 312, 147.83 311.84, 143.76 311.52 C139.69 311.2, 135.63 310.72, 131.6 310.08 C127.57 309.44, 123.55 308.64, 119.58 307.69 C115.62 306.74, 111.67 305.63, 107.79 304.36 C103.91 303.1, 100.07 301.69, 96.3 300.13 C92.53 298.56, 88.81 296.85, 85.18 295 C81.54 293.14, 77.97 291.14, 74.49 289.01 C71.01 286.88, 67.61 284.6, 64.31 282.21 C61 279.81, 57.79 277.27, 54.69 274.62 C51.58 271.97, 48.58 269.19, 45.69 266.31 C42.81 263.42, 40.03 260.42, 37.38 257.31 C34.73 254.21, 32.19 251, 29.79 247.69 C27.4 244.39, 25.12 240.99, 22.99 237.51 C20.86 234.03, 18.86 230.46, 17 226.82 C15.15 223.19, 13.44 219.47, 11.87 215.7 C10.31 211.93, 8.9 208.09, 7.64 204.21 C6.37 200.33, 5.26 196.38, 4.31 192.42 C3.36 188.45, 2.56 184.43, 1.92 180.4 C1.28 176.37, 0.8 172.31, 0.48 168.24 C0.16 164.17, 0 160.08, 0 156 C0 151.92, 0.16 147.83, 0.48 143.76 C0.8 139.69, 1.28 135.63, 1.92 131.6 C2.56 127.57, 3.36 123.55, 4.31 119.58 C5.26 115.62, 6.37 111.67, 7.64 107.79 C8.9 103.91, 10.31 100.07, 11.87 96.3 C13.44 92.53, 15.15 88.81, 17 85.18 C18.86 81.54, 20.86 77.97, 22.99 74.49 C25.12 71.01, 27.4 67.61, 29.79 64.31 C32.19 61, 34.73 57.79, 37.38 54.69 C40.03 51.58, 42.81 48.58, 45.69 45.69 C48.58 42.81, 51.58 40.03, 54.69 37.38 C57.79 34.73, 61 32.19, 64.31 29.79 C67.61 27.4, 71.01 25.12, 74.49 22.99 C77.97 20.86, 81.54 18.86, 85.18 17 C88.81 15.15, 92.53 13.44, 96.3 11.87 C100.07 10.31, 103.91 8.9, 107.79 7.64 C111.67 6.37, 115.62 5.26, 119.58 4.31 C123.55 3.36, 127.57 2.56, 131.6 1.92 C135.63 1.28, 139.69 0.8, 143.76 0.48 C147.83 0.16, 151.92 0, 156 0 C160.08 0, 164.17 0.16, 168.24 0.48 C172.31 0.8, 176.37 1.28, 180.4 1.92 C184.43 2.56, 188.45 3.36, 192.42 4.31 C196.38 5.26, 200.33 6.37, 204.21 7.64 C208.09 8.9, 211.93 10.31, 215.7 11.87 C219.47 13.44, 223.19 15.15, 226.82 17 C230.46 18.86, 234.03 20.86, 237.51 22.99 C240.99 25.12, 244.39 27.4, 247.69 29.79 C251 32.19, 254.21 34.73, 257.31 37.38 C260.42 40.03, 263.42 42.81, 266.31 45.69 C269.19 48.58, 271.97 51.58, 274.62 54.69 C277.27 57.79, 279.81 61, 282.21 64.31 C284.6 67.61, 286.88 71.01, 289.01 74.49 C291.14 77.97, 293.14 81.54, 295 85.18 C296.85 88.81, 298.56 92.53, 300.13 96.3 C301.69 100.07, 303.1 103.91, 304.36 107.79 C305.63 111.67, 306.74 115.62, 307.69 119.58 C308.64 123.55, 309.44 127.57, 310.08 131.6 C310.72 135.63, 311.2 139.69, 311.52 143.76 C311.84 147.83, 312 151.92, 312 156" stroke="#1e1e1e" stroke-width="2" fill="none"></path></g><g transform="translate(316.9169921875 297) rotate(0 50.02734375 41.400000000000006)"><text x="50.02734375" y="0" font-family="Helvetica, Segoe UI Emoji" font-size="36px" fill="#1e1e1e" text-anchor="middle" style="white-space: pre;" direction="ltr" dominant-baseline="text-before-edge">Your</text><text x="50.02734375" y="41.4" font-family="Helvetica, Segoe UI Emoji" font-size="36px" fill="#1e1e1e" text-anchor="middle" style="white-space: pre;" direction="ltr" dominant-baseline="text-before-edge">Action</text></g><g transform="translate(290.455078125 10) rotate(0 74.6962890625 32.199999999999996)"><text x="74.6962890625" y="0" font-family="Helvetica, Segoe UI Emoji" font-size="28px" fill="#1e1e1e" text-anchor="middle" style="white-space: pre;" direction="ltr" dominant-baseline="text-before-edge">What brings</text><text x="74.6962890625" y="32.199999999999996" font-family="Helvetica, Segoe UI Emoji" font-size="28px" fill="#1e1e1e" text-anchor="middle" style="white-space: pre;" direction="ltr" dominant-baseline="text-before-edge">you joy?</text></g><g transform="translate(10 514.1999999999999) rotate(0 87.1513671875 32.19999999999999)"><text x="87.1513671875" y="0" font-family="Helvetica, Segoe UI Emoji" font-size="28px" fill="#1e1e1e" text-anchor="middle" style="white-space: pre;" direction="ltr" dominant-baseline="text-before-edge">What are you </text><text x="87.1513671875" y="32.199999999999996" font-family="Helvetica, Segoe UI Emoji" font-size="28px" fill="#1e1e1e" text-anchor="middle" style="white-space: pre;" direction="ltr" dominant-baseline="text-before-edge">good at?</text></g><g transform="translate(549.44140625 519.1999999999999) rotate(0 74.7099609375 32.19999999999999)"><text x="74.7099609375" y="0" font-family="Helvetica, Segoe UI Emoji" font-size="28px" fill="#1e1e1e" text-anchor="middle" style="white-space: pre;" direction="ltr" dominant-baseline="text-before-edge">What needs</text><text x="74.7099609375" y="32.199999999999996" font-family="Helvetica, Segoe UI Emoji" font-size="28px" fill="#1e1e1e" text-anchor="middle" style="white-space: pre;" direction="ltr" dominant-baseline="text-before-edge">doing?</text></g></svg>